<?xml version="1.0" encoding="UTF-8"?>
<svg width="48px" height="48px" viewBox="0 0 48 48" version="1.1" xmlns="http://www.w3.org/2000/svg" xmlns:xlink="http://www.w3.org/1999/xlink">
    <!-- Generator: Sketch 49.3 (51167) - http://www.bohemiancoding.com/sketch -->
    <title>theicons.co/svg/animals-10</title>
    <desc>Created with Sketch.</desc>
    <defs></defs>
    <g id="The-Icons" stroke="none" stroke-width="1" fill="none" fill-rule="evenodd">
        <g id="v-1.5" transform="translate(-1248.000000, -384.000000)" fill="#000000">
            <g id="Animals" transform="translate(96.000000, 384.000000)">
                <g id="Crab" transform="translate(1152.000000, 0.000000)">
                    <path d="M8.01292013,29.9999996 C8.09095385,28.4937151 8.51952379,27.0802476 9.21858137,25.8397593 C7.42191315,24.5910464 6.39328594,22.787948 6.09246847,20.6436555 C5.86810335,19.0443319 6.05790252,17.4050419 6.50465192,15.8106592 C4.96231875,14.3510771 4,12.2855038 4,9.9999999 C4,5.58172196 7.58198419,2 12.000385,2 L13.0046024,2 C13.5543453,2 14.0735329,2.43436715 14.1665516,2.98383966 L14.8559093,7.05595519 C14.9478932,7.59931483 15.4641843,8.12500664 16.0058625,8.22950047 L19.0165985,8.81029429 C19.5597161,8.91506581 20,9.4463113 20,9.99754454 C20,14.4171785 16.4092877,17.9999998 12,17.9999998 C11.3620659,17.9999998 10.7415715,17.9251439 10.1467799,17.7837762 C9.99590781,18.5883226 9.95377258,19.3757929 10.0536789,20.0879471 C10.2236286,21.2993858 10.7756252,22.1929254 11.9163844,22.8108693 C13.3577609,21.762175 15.1054721,21.1095042 17.0000258,21.0125751 C17,19.3431455 18.3431458,17.9999998 20,17.9999998 C21.6568542,17.9999998 23,19.3431455 23,20.9999998 L25,20.9999998 C25,19.3431455 26.3431458,17.9999998 28,17.9999998 C29.6568542,17.9999998 31,19.3431455 31,20.9999998 C32.8961951,21.1095882 34.6454593,21.7633161 36.0876894,22.8137297 C37.2320314,22.1956839 37.7854711,21.3012563 37.9556832,20.0879471 C38.055678,19.3751629 38.0133797,18.5869292 37.8621815,17.7816408 C37.2646618,17.9243899 36.6411386,17.9999998 36,17.9999998 C31.5907123,17.9999998 28,14.4171785 28,9.99754454 C28,9.4463113 28.4402839,8.91506581 28.9834015,8.81029429 L31.9941375,8.22950047 C32.5358157,8.12500664 33.0521068,7.59931483 33.1440907,7.05595519 L33.8334484,2.98383966 C33.9264671,2.43436715 34.4456547,2 34.9953976,2 L35.999615,2 C40.4180158,2 44,5.58172196 44,9.9999999 C44,12.2818481 43.0407573,14.3444686 41.5027447,15.8036506 C41.9509025,17.4002376 42.1415876,19.0419884 41.9168937,20.6436555 C41.6157063,22.7905849 40.5849181,24.5954804 38.7841493,25.8443634 C39.4815881,27.0836572 39.9091583,28.4954535 39.9870831,29.9999996 L42.0018986,29.9999996 C43.1054196,29.9999996 44,30.8877293 44,31.9999996 C44,33.1045691 43.1132936,33.9999996 42.0018986,33.9999996 L39.3350847,33.9999996 C38.9969235,34.8535959 38.5387282,35.6464815 37.9813297,36.357796 C38.2556245,36.555086 38.5344105,36.7745304 38.8134222,37.0174779 C40.7988409,38.7462671 42.014959,41.0856672 41.9999737,44.0102471 C41.9943141,45.1148021 41.0943073,46.0056328 39.9897523,45.9999732 C38.8851973,45.9943135 37.9943666,45.0943068 38.0000263,43.9897518 C38.0085932,42.3178046 37.3463856,41.0439412 36.186685,40.0341402 C35.76568,39.6675531 35.3085109,39.3647256 34.8536831,39.1266233 C34.7900633,39.0933183 34.7309384,39.0634639 34.6769053,39.0370111 C33.4183333,39.6537659 32.0032341,39.9999995 30.5072131,39.9999995 L17.4927869,39.9999995 C15.9968473,39.9999995 14.5817267,39.6538034 13.3230986,39.0370617 C13.2690934,39.063502 13.2100034,39.0933395 13.1464241,39.1266233 C12.6915963,39.3647256 12.2344273,39.6675531 11.8134222,40.0341402 C10.6537216,41.0439412 9.99151407,42.3178046 10.000081,43.9897518 C10.0057406,45.0943068 9.1149099,45.9943135 8.0103549,45.9999732 C6.9057999,46.0056328 6.00579311,45.1148021 6.00013348,44.0102471 C5.98514821,41.0856672 7.20126634,38.7462671 9.186685,37.0174779 C9.46563813,36.7745815 9.74436555,36.5551783 10.0186046,36.3579203 C9.4611903,35.6465997 9.00297928,34.8536797 8.66481724,33.9999996 L5.99810135,33.9999996 C4.89458045,33.9999996 4,33.11227 4,31.9999996 C4,30.8954301 4.88670635,29.9999996 5.99810135,29.9999996 L8.01292013,29.9999996 Z M12,14 C14.2036736,14 15.3264775,12.7820431 15.3656158,12.179739 L15.2482009,12.1570887 C13.0706517,11.737023 11.2827876,9.91375784 10.9120225,7.72360544 C10.9120225,7.72360544 10.6690326,7.0114746 10.6690325,6.22687264 C9.11419529,6.77541138 8,8.25765215 8,10 C8,12.2039482 9.7946587,14 12,14 Z M36,14 C38.2053413,14 40,12.2039482 40,10 C40,8.25765215 38.8858047,6.77541138 37.3309675,6.22687264 C37.3309674,7.0114746 37.0879775,7.72360544 37.0879775,7.72360544 C36.7172124,9.91375784 34.9293483,11.737023 32.7517991,12.1570887 L32.6343842,12.179739 C32.6735225,12.7820431 33.7963264,14 36,14 Z M12,30.5 C12,33.5389261 14.4594116,36 17.4927869,36 L30.5072131,36 C33.5405351,36 36,33.5385386 36,30.5 C36,27.4610739 33.5405884,25 30.5072131,25 L17.4927869,25 C14.4594649,25 12,27.4614614 12,30.5 Z" id="Path"></path>
                </g>
            </g>
        </g>
    </g>
</svg>