<?xml version="1.0" encoding="UTF-8"?>
<svg width="48px" height="48px" viewBox="0 0 48 48" version="1.1" xmlns="http://www.w3.org/2000/svg" xmlns:xlink="http://www.w3.org/1999/xlink">
    <!-- Generator: Sketch 49.3 (51167) - http://www.bohemiancoding.com/sketch -->
    <title>theicons.co/svg/animals-09</title>
    <desc>Created with Sketch.</desc>
    <defs></defs>
    <g id="The-Icons" stroke="none" stroke-width="1" fill="none" fill-rule="evenodd">
        <g id="v-1.5" transform="translate(-1152.000000, -384.000000)" fill="#000000">
            <g id="Animals" transform="translate(96.000000, 384.000000)">
                <g id="Mouse" transform="translate(1056.000000, 0.000000)">
                    <path d="M16.5666488,11.6177752 C17.3209796,10.8634445 18.1988365,10.1084853 19.1737986,9.37145465 C19.1750118,9.29889437 19.1780277,9.2152054 19.1834753,9.12173445 C19.1708095,7.32099862 19.8486875,5.51630758 21.2171092,4.13894134 C23.7788184,1.57717851 27.7965158,1.40175823 30.5447415,3.5961825 C35.3223454,2.1459625 40.2544979,1.93018429 43.1538638,4.82955012 C46.0511048,7.72679116 45.9205948,12.994206 44.4069303,17.4494472 C46.6401668,20.1986752 46.4770564,24.2470315 43.9175991,26.8064888 C42.4528333,28.2712546 40.5004203,28.9511638 38.5829461,28.8462166 C38.1357874,29.4478555 37.3443564,30.4380474 36.3656387,31.4167651 C30.9025843,36.8798194 23.029846,38.2914859 17.4147877,35.0639861 C16.2755678,36.579801 14.39355,37.205098 11.3585671,37.6602804 C11.1975762,37.6844157 11.1975762,37.6844157 11.0392671,37.7083392 C8.51601134,38.0913284 7.65203524,38.4894808 7.14888403,39.6264512 C6.57951689,40.9130498 7.87134889,42.3368756 10.0238052,41.800708 C10.4281887,41.6999778 12.981219,40.9490692 13.0870824,40.9175421 C14.3596556,40.5385586 15.2716877,40.2888653 16.2010224,40.0793534 C19.9997907,39.222948 22.9204318,39.3801359 25.2470213,41.1479864 C26.1265029,41.8162572 26.297723,43.0709585 25.6294522,43.9504401 C24.9611813,44.8299217 23.7064801,45.0011418 22.8269985,44.3328709 C21.6773433,43.4593097 19.8361915,43.3602195 17.080716,43.9814219 C16.2584793,44.1667894 15.4218965,44.3958265 14.228765,44.7511515 C14.1328384,44.7797193 11.4581107,45.5656585 10.9906438,45.6821025 C5.69303445,47.0017141 1.53767341,42.4217763 3.4910527,38.0077264 C4.72359232,35.2225575 6.66958454,34.3257717 10.4390073,33.7536346 C10.6036259,33.7287578 10.6036259,33.7287578 10.7652882,33.7045226 C12.8781519,33.3876383 13.799813,33.1216667 14.2654095,32.4644416 C9.4139395,26.8559968 10.4553009,17.7291231 16.5666488,11.6177752 Z M33.5372115,28.588338 C28.6434901,33.4820594 21.5404186,34.1277932 17.6980196,30.2853942 C13.8556207,26.4429953 14.5013545,19.3399238 19.3950759,14.4462023 C19.6426775,14.1986008 20.1162539,13.8042659 20.6591397,13.3726361 C20.8349104,13.5978395 21.0263817,13.8147664 21.2335536,14.0219383 C22.5848691,15.3732538 24.3989077,16.0952369 26.2719065,16.0716325 C27.3763883,16.0577133 28.260464,15.1510702 28.2465448,14.0465884 C28.2326256,12.9421066 27.3259825,12.0580309 26.2215007,12.0719501 C25.4159751,12.0821017 24.642882,11.7744125 24.0619807,11.1935112 C22.8904078,10.0219383 22.8904078,8.12244334 24.0619807,6.95087047 C24.6477671,6.36508403 25.4155341,6.07219081 26.183301,6.07219081 C26.951068,6.07219081 27.7188349,6.36508403 28.3046214,6.95087047 C28.3646449,7.01089402 29.3628281,8.18350526 29.3628281,8.18350526 L30.6586478,7.73290304 C35.2342103,6.14181863 38.8233365,6.15587713 40.3254366,7.65797725 C41.8275368,9.16007737 41.8415953,12.7492036 40.2505109,17.3247661 L39.7999086,18.6205858 C39.7999086,18.6205858 40.9725199,19.618769 41.0325434,19.6787925 C42.2041163,20.8503654 42.2041163,22.7498603 41.0325434,23.9214332 C40.2795959,24.6743807 39.2023033,24.9632835 38.1861087,24.7119327 L37.7748817,24.6102177 C37.437799,24.4642872 37.122038,24.2535685 36.8465312,23.9780617 C36.2656299,23.3971604 35.9579407,22.6240673 35.9680923,21.8185417 C35.9820115,20.7140599 35.0979358,19.8074168 33.993454,19.7934976 C32.8889722,19.7795784 31.9823291,20.6636541 31.9684099,21.7681359 C31.9448055,23.6411347 32.6667886,25.4551733 34.0181041,26.8064888 C34.2060613,26.994446 34.4020479,27.1694799 34.6049598,27.3315905 C34.175606,27.8714128 33.7837002,28.3418494 33.5372115,28.588338 Z M33.9614756,12.6077247 C34.7425242,11.8266761 34.7425242,10.5603462 33.9614756,9.77929759 C33.180427,8.99824901 31.9140971,8.99824901 31.1330485,9.77929759 C30.3519999,10.5603462 30.3519999,11.8266761 31.1330485,12.6077247 C31.9140971,13.3887733 33.180427,13.3887733 33.9614756,12.6077247 Z M38.2041163,16.8503654 C38.9851649,16.0693168 38.9851649,14.8029869 38.2041163,14.0219383 C37.4230677,13.2408897 36.1567378,13.2408897 35.3756892,14.0219383 C34.5946406,14.8029869 34.5946406,16.0693168 35.3756892,16.8503654 C36.1567378,17.631414 37.4230677,17.631414 38.2041163,16.8503654 Z" id="Combined-Shape"></path>
                </g>
            </g>
        </g>
    </g>
</svg>