<?xml version="1.0" encoding="UTF-8"?>
<svg width="48px" height="48px" viewBox="0 0 48 48" version="1.1" xmlns="http://www.w3.org/2000/svg" xmlns:xlink="http://www.w3.org/1999/xlink">
    <!-- Generator: Sketch 49.3 (51167) - http://www.bohemiancoding.com/sketch -->
    <title>theicons.co/svg/animals-01</title>
    <desc>Created with Sketch.</desc>
    <defs></defs>
    <g id="The-Icons" stroke="none" stroke-width="1" fill="none" fill-rule="evenodd">
        <g id="v-1.5" transform="translate(-96.000000, -384.000000)" fill="#000000">
            <g id="Animals" transform="translate(96.000000, 384.000000)">
                <g id="Cat">
                    <path d="M8.99689073,7.31165414 L16.0710449,12 C16.0710449,12 19.0024414,9.99999992 24.0695801,10 C29.1367188,10.0000001 32.0739746,12 32.0739746,12 L39.0113929,7.34636688 C41.7665245,5.49821949 44,6.68870147 44,9.99884495 L44,28.001155 C44,31.3142256 41.6757316,35.3300177 38.7463605,36.893838 C38.7463605,36.893838 30.7122396,42 24.0683594,42 C17.3789062,42 9.25647227,36.8768811 9.25647227,36.8768811 C6.3534028,35.2880236 4,31.3112985 4,28.001155 L4,9.99884495 C4,6.68577437 6.2421814,5.48598993 8.99689073,7.31165414 Z M8,28.001155 C8,29.8512263 9.55752111,32.4817509 11.1768766,33.3680284 C11.1768766,33.3680284 14.6429563,35.2758993 15.7854968,35.7863457 C17.8814086,36.7227245 19.9130448,37.4134016 21.7378687,37.7586169 C22.5853004,37.9189318 23.3667586,38 24.0683594,38 C24.750915,38 25.5097714,37.9221147 26.3319019,37.7679571 C28.1470815,37.4275929 30.1707317,36.7374669 32.2584425,35.7987444 C33.3881385,35.2907856 36.8626112,33.3651714 36.8626112,33.3651714 C38.4522046,32.5165802 40,29.880011 40,28.001155 L40,11.4912503 L33.7222941,15.7091076 C32.8027041,16.3269606 31.3131575,16.3211855 30.4097836,15.7060713 C30.4097836,15.7060713 29.7969781,15.2928173 29.6658507,15.2234704 C29.3793143,15.0719351 29.0222473,14.9117219 28.5985497,14.7568284 C27.3144517,14.2873936 25.8001801,14 24.06958,14 C22.3393358,14 20.8266487,14.2872526 19.5448388,14.7563534 C19.1221273,14.911052 18.7660728,15.0710213 18.4805199,15.2222707 C18.3501023,15.2913493 17.7531987,15.6946171 17.7531987,15.6946171 C16.8420673,16.3162535 15.3556213,16.3265956 14.434235,15.7184471 L8,11.4716179 L8,28.001155 Z M20,33 C20,31.8954305 20.8867064,31 21.9981014,31 L26.0018986,31 C27.1054196,31 28,31.8877296 28,33 C28,34.1045695 27.1132936,35 26.0018986,35 L21.9981014,35 C20.8945804,35 20,34.1122704 20,33 Z M32,28 C30.3431458,28 29,26.6568542 29,25 C29,23.3431458 30.3431458,22 32,22 C33.6568542,22 35,23.3431458 35,25 C35,26.6568542 33.6568542,28 32,28 Z M17,28 C15.3431458,28 14,26.6568542 14,25 C14,23.3431458 15.3431458,22 17,22 C18.6568542,22 20,23.3431458 20,25 C20,26.6568542 18.6568542,28 17,28 Z" id="Combined-Shape"></path>
                </g>
            </g>
        </g>
    </g>
</svg>