<?xml version="1.0" encoding="UTF-8"?>
<svg width="48px" height="48px" viewBox="0 0 48 48" version="1.1" xmlns="http://www.w3.org/2000/svg" xmlns:xlink="http://www.w3.org/1999/xlink">
    <!-- Generator: Sketch 49.3 (51167) - http://www.bohemiancoding.com/sketch -->
    <title>theicons.co/svg/animals-16</title>
    <desc>Created with Sketch.</desc>
    <defs></defs>
    <g id="The-Icons" stroke="none" stroke-width="1" fill="none" fill-rule="evenodd">
        <g id="v-1.5" transform="translate(-1824.000000, -384.000000)" fill="#000000">
            <g id="Animals" transform="translate(96.000000, 384.000000)">
                <g id="Butterfly" transform="translate(1728.000000, 0.000000)">
                    <path d="M15.4553685,5.93021261 C14.3893415,5.64097182 13.7596318,4.5423102 14.0488726,3.47628321 C14.3381134,2.41025622 15.436775,1.78054659 16.502802,2.06978739 C20.2606234,3.08938188 22.5834885,4.17906256 23.9895426,5.94579343 C25.3955968,4.17906256 27.7184618,3.08938188 31.4762832,2.06978739 C32.5423102,1.78054659 33.6409718,2.41025622 33.9302126,3.47628321 C34.2194534,4.5423102 33.5897438,5.64097182 32.5237168,5.93021261 C27.072095,7.40937913 26.0947395,8.24807544 25.9940924,13.7228681 C26.8380463,12.914122 27.8503916,12.1654807 29.06152,11.5072021 C34.90987,8.32848596 42.10508,11.3591989 42.10508,11.3591989 C43.15712,11.6938486 44,12.8913093 44,13.9907951 L44,22 C44,25.1497798 42.47345,28.0683602 40.36633,29.717286 C40.21667,29.8344016 38.61664,31.2064217 36.70032,31.6307978 C37.97959,33.1597298 37.91272,35.4446448 37.97959,35.424851 C37.99312,35.614811 38,35.8066041 38,36 C38,40.4092877 34.41828,44 30,44 C27.61381,44 25.46736,42.9510254 24,41.2881653 C22.53264,42.9510254 20.38619,44 18,44 C13.58172,44 10,40.4092877 10,36 C10,35.8066041 10.00688,35.614811 10.02041,35.424851 C10.08728,35.4446448 10.02041,33.1597298 11.29968,31.6307978 C9.38336,31.2064217 7.78333,29.8344016 7.63367,29.717286 C5.52655,28.0683602 4,25.1497798 4,22 L4,13.9907951 C4,12.8913093 4.84288,11.6938486 5.89492,11.3591989 C5.89492,11.3591989 13.09013,8.32848596 18.93848,11.5072021 C20.1394396,12.1599537 21.1449401,12.901557 21.9846142,13.7025098 C22,8.23803711 20.9002258,7.40754375 15.4553685,5.93021261 Z M14.6472305,33.8202982 C14.2260938,34.4641783 14,35.210708 14,36 C14,38.2039482 15.7946587,40 18,40 C20.2039482,40 22,38.2053413 22,36 L22,23.9575195 C22,19.9727034 20.5943801,16.9598819 17.0283002,15.0216333 C16.4596984,14.7125848 15.8416672,14.4803886 15.1742099,14.3206685 C13.2665017,13.8641608 11.0673367,14.0174062 8.92774761,14.5769596 C8.1906943,14.7697165 8,14.8455811 8,14.8455811 L8,22 C8,24.7081404 9.8106704,27.0604185 12.3776646,27.7787917 L15.7079889,28.7107828 C16.7729226,29.0088044 17.1426508,30.0050247 16.5402042,30.9261114 L14.6472305,33.8202982 Z M33.3527695,33.8202982 L31.4597958,30.9261114 C30.8573492,30.0050247 31.2270774,29.0088044 32.2920111,28.7107828 L35.6223354,27.7787917 C38.1893296,27.0604185 40,24.7081404 40,22 L40,14.8455811 C40,14.8455811 39.8093057,14.7697165 39.0722524,14.5769596 C36.9326633,14.0174062 34.7334983,13.8641608 32.8257901,14.3206685 C32.1583328,14.4803886 31.5403016,14.7125848 30.9716998,15.0216333 C27.4056199,16.9598819 26,19.9727034 26,23.9575195 L26,36 C26,38.2053413 27.7960518,40 30,40 C32.2053413,40 34,38.2039482 34,36 C34,35.210708 33.7739062,34.4641783 33.3527695,33.8202982 Z M15,24 C13.3431458,24 12,22.6568542 12,21 C12,19.3431458 13.3431458,18 15,18 C16.6568542,18 18,19.3431458 18,21 C18,22.6568542 16.6568542,24 15,24 Z M33,24 C31.3431458,24 30,22.6568542 30,21 C30,19.3431458 31.3431458,18 33,18 C34.6568542,18 36,19.3431458 36,21 C36,22.6568542 34.6568542,24 33,24 Z" id="Combined-Shape"></path>
                </g>
            </g>
        </g>
    </g>
</svg>