<?xml version="1.0" encoding="UTF-8"?>
<svg width="48px" height="48px" viewBox="0 0 48 48" version="1.1" xmlns="http://www.w3.org/2000/svg" xmlns:xlink="http://www.w3.org/1999/xlink">
    <!-- Generator: Sketch 49.3 (51167) - http://www.bohemiancoding.com/sketch -->
    <title>theicons.co/svg/animals-03</title>
    <desc>Created with Sketch.</desc>
    <defs></defs>
    <g id="The-Icons" stroke="none" stroke-width="1" fill="none" fill-rule="evenodd">
        <g id="v-1.5" transform="translate(-288.000000, -384.000000)" fill="#000000">
            <g id="Animals" transform="translate(96.000000, 384.000000)">
                <g id="Cow" transform="translate(192.000000, 0.000000)">
                    <path d="M40.0012944,9 C43.1983733,9 46.0172857,11.6092008 46.0172857,14.9887695 C46.0172857,18.3050008 43.1281967,21 40.0125249,21 C38.6033707,21.0233062 38.2434235,21.343744 38.077838,22.5556216 C37.8882077,23.9434769 38.0850415,25.7222323 38.8314637,29.8851752 C40.7639418,31.4449916 42,33.8313943 42,36.5 C42,41.1944204 38.1984467,45 33.4913052,45 L14.5086948,45 C9.8094724,45 6,41.1848682 6,36.5 C6,33.8171299 7.24164206,31.424568 9.18436318,29.8667549 C9.92806373,25.7169816 10.1240372,23.9414282 9.93468688,22.5556216 C9.76910138,21.343744 9.40915425,21.0233062 8,21 C4.88432817,21 1.99523926,18.3050008 1.99523926,14.9887695 C1.99523926,11.6092008 4.81415164,9 8.01123047,9 L10.1788223,9 C11.1794931,1.03228584 18.114357,1.23212128 18.114357,1.23212128 C19.2097029,1.10392424 19.6729435,1.78553858 19.2163541,2.78733934 C19.2163541,2.78733934 17.0959237,6.02612963 18.4916265,9 L29.6651118,9 C31.0608145,6.02612963 28.9403841,2.78733934 28.9403841,2.78733934 C28.4837948,1.78553858 28.9470353,1.10392424 30.0423813,1.23212128 C30.0423813,1.23212128 36.9772452,1.03228584 37.977916,9 L40.0012944,9 Z M26,40.0016655 C26,38.3438914 27.3465171,37 29,37 C30.6568542,37 32,38.3390201 32,40.0016655 L32,41 L33.4913052,41 C35.9869123,41 38,38.9876757 38,36.5 C38,34.0211925 35.9783094,32 33.4913052,32 L14.5086948,32 C12.0130877,32 10,34.0123243 10,36.5 C10,38.9788075 12.0216906,41 14.5086948,41 L16,41 L16,40.0016655 C16,38.3438914 17.3465171,37 19,37 C20.6568542,37 22,38.3390201 22,40.0016655 L22,41 L26,41 L26,40.0016655 Z M14.5086948,28 L33.4913052,28 C33.818508,28 34.141397,28.0184966 34.4589867,28.0544954 C33.9920784,25.1391357 33.9008943,23.5786199 34.1146617,22.014111 C34.5472306,18.8482513 36.5602657,17.0561752 39.9798304,17.0002673 C40.9788266,17 42.0172857,16.0313049 42.0172857,14.9887695 C42.0172857,13.8903725 41.0553505,13 40.0012944,13 L8.01123047,13 C6.95717445,13 5.99523926,13.8903725 5.99523926,14.9887695 C5.99523926,16.0313049 7.03369826,17 8.03269448,17.0002673 C11.4522592,17.0561752 13.4652943,18.8482513 13.8978632,22.014111 C14.1115885,23.5783114 14.0204825,25.1385201 13.5538144,28.0527707 C13.8672243,28.017904 14.1858293,28 14.5086948,28 Z M19,25 C17.8954305,25 17,24.1045695 17,23 C17,21.8954305 17.8954305,21 19,21 C20.1045695,21 21,21.8954305 21,23 C21,24.1045695 20.1045695,25 19,25 Z M29,25 C27.8954305,25 27,24.1045695 27,23 C27,21.8954305 27.8954305,21 29,21 C30.1045695,21 31,21.8954305 31,23 C31,24.1045695 30.1045695,25 29,25 Z" id="Combined-Shape"></path>
                </g>
            </g>
        </g>
    </g>
</svg>