<?xml version="1.0" encoding="UTF-8"?>
<svg width="48px" height="48px" viewBox="0 0 48 48" version="1.1" xmlns="http://www.w3.org/2000/svg" xmlns:xlink="http://www.w3.org/1999/xlink">
    <!-- Generator: Sketch 49.3 (51167) - http://www.bohemiancoding.com/sketch -->
    <title>theicons.co/svg/animals-15</title>
    <desc>Created with Sketch.</desc>
    <defs></defs>
    <g id="The-Icons" stroke="none" stroke-width="1" fill="none" fill-rule="evenodd">
        <g id="v-1.5" transform="translate(-1728.000000, -384.000000)">
            <g id="Animals" transform="translate(96.000000, 384.000000)">
                <g id="Bug" transform="translate(1632.000000, 0.000000)">
                    <path d="M26.1763089,7.99973555 C27.6275488,5.51421388 30.2512423,4.01635741 34.0174561,4.01635742 C35.1220256,4.01635743 36.0174561,4.91178793 36.0174561,6.01635743 C36.0174561,7.12092693 35.1220256,8.01635743 34.0174561,8.01635742 C31.6696714,8.01635741 30.3629373,8.76236682 29.6306063,10.0166216 C29.3707206,10.461725 29.1984563,10.95345 29.1023719,11.447138 C29.0828536,11.5474242 29.0681194,11.6373472 29.0572173,11.7146716 C30.8441186,13.163954 31.9819435,15.4849296 31.981944,18.4964718 C32.5099286,18.8630226 33.0093115,19.2634178 33.4775697,19.6940032 L36.0013425,17.1702303 C36.7816497,16.3899232 38.0419332,16.385079 38.8284271,17.1715729 C39.6094757,17.9526215 39.6156446,19.2127825 38.8297697,19.9986575 L36.0163598,22.8120673 C36.957318,24.3841967 37.5917273,26.1447607 37.8581387,28.0047671 C37.9043563,28.0016064 37.9510273,28 37.9981014,28 L42.0018986,28 C43.1054196,28 44,28.8877296 44,30 C44,31.1045695 43.1132936,32 42.0018986,32 L37.9981014,32 C37.9513075,32 37.9048894,31.9984038 37.8588992,31.9952619 C37.5911338,33.87182 36.9512467,35.6284226 36.0163673,37.1879402 L38.8297697,40.0013425 C39.6156446,40.7872175 39.6094757,42.0473785 38.8284271,42.8284271 C38.0419332,43.614921 36.7816497,43.6100768 36.0013425,42.8297697 L33.4766657,40.3050928 C30.983329,42.5991781 27.6552542,44 24,44 C20.3447458,44 17.016671,42.5991781 14.5233343,40.3050928 L11.9986575,42.8297697 C11.2183503,43.6100768 9.95806679,43.614921 9.17157288,42.8284271 C8.39052429,42.0473785 8.38435539,40.7872175 9.17023033,40.0013425 L11.9836327,37.1879402 C11.048757,35.6284289 10.4088713,33.8718342 10.141104,31.9952845 C10.0951339,31.9984111 10.0487156,32 10.0018986,32 L5.99810135,32 C4.89458045,32 4,31.1122704 4,30 C4,28.8954305 4.88670635,28 5.99810135,28 L10.0018986,28 C10.0489493,28 10.0956201,28.0016138 10.141858,28.00479 C10.4082675,26.1447752 11.0426782,24.3842032 11.9836402,22.8120673 L9.17023033,19.9986575 C8.38435539,19.2127825 8.39052429,17.9526215 9.17157288,17.1715729 C9.95806679,16.385079 11.2183503,16.3899232 11.9986575,17.1702303 L14.5224303,19.6940032 C14.994411,19.2599947 15.4980133,18.8566585 16.0306534,18.4877363 C16.0306534,15.4734875 17.1882422,13.1343462 19.0039001,11.6820025 C18.9934147,11.6110073 18.979877,11.5305196 18.9626442,11.4420451 C18.8657227,10.9444422 18.6919487,10.4487925 18.4297016,9.99999338 C17.6903873,8.73476058 16.3706877,7.98193357 14.0025635,7.98193358 C12.897994,7.98193358 12.0025635,7.08650308 12.0025635,5.98193358 C12.0025635,4.87736408 12.897994,3.98193358 14.0025635,3.98193358 C17.7883852,3.98193357 20.4247937,5.48588139 21.8833172,7.98193997 C22.2811262,8.66273437 22.5642648,9.37257659 22.7536619,10.0877311 C23.1595289,10.0295793 23.5757669,10 24,10 C24.4465091,10 24.8842901,10.0323427 25.3105467,10.0959919 C25.49894,9.38410999 25.7805805,8.67749511 26.1763089,7.99973555 Z M29.5728303,21.8443595 C28.4733492,22.3307188 27.2787445,22.686578 26,22.8688546 L26,26.5351288 C27.1956027,27.2267476 28,28.5194353 28,30 C28,31.4805647 27.1956027,32.7732524 26,33.4648712 L26,39.7999638 C27.4192115,39.511879 28.7292813,38.9232368 29.8608778,38.1033688 C29.3284555,37.5619532 29,36.8193341 29,36 C29,34.3431458 30.3431458,33 32,33 C32.5146359,33 32.9990056,33.129585 33.4222596,33.3579055 C33.7963211,32.3083729 34,31.1779723 34,30 C34,29.9431806 33.3501013,30 33,30 C31.3431458,30 30,28.6568542 30,27 C30,25.6556931 30.8842018,24.5179026 32.1027578,24.136476 C31.447223,23.2311469 30.6388856,22.4342357 29.7049278,21.785137 C29.661431,21.8049004 29.6173978,21.8246449 29.5728303,21.8443595 Z M28,18 C28,15.790861 26.209139,14 24,14 C21.790861,14 20,15.790861 20,18 C20,18.0262775 19.9950426,18.0676554 19.9858888,18.1216607 C20.0324302,18.1430894 20.0801638,18.1646445 20.1290742,18.1862802 C21.2871821,18.6985733 22.600607,19.0067139 24.0418701,19.0067139 C25.4831332,19.0067139 26.7965581,18.6985733 27.954666,18.1862802 C27.9768046,18.1764871 27.998702,18.1667106 28.0203569,18.1569548 C28.0072327,18.0855109 28,18.0317399 28,18 Z M15.8972422,24.136476 C17.1157982,24.5179026 18,25.6556931 18,27 C18,28.6568542 16.6568542,30 15,30 C14.6498987,30 14,29.9431806 14,30 C14,31.1779723 14.2036789,32.3083729 14.5777404,33.3579055 C15.0009944,33.129585 15.4853641,33 16,33 C17.6568542,33 19,34.3431458 19,36 C19,36.8193341 18.6715445,37.5619532 18.1391222,38.1033688 C19.2707187,38.9232368 20.5807885,39.511879 22,39.7999638 L22,33.4648712 C20.8043973,32.7732524 20,31.4805647 20,30 C20,28.5194353 20.8043973,27.2267476 22,26.5351288 L22,22.8566524 C20.7528125,22.6709573 19.5863561,22.3200869 18.5109099,21.8443595 C18.4490299,21.8169866 18.3881799,21.7895561 18.3283655,21.7620976 C17.3803154,22.4153425 16.560554,23.2204065 15.8972422,24.136476 Z" id="Combined-Shape" fill="#4D4D4D"></path>
                    <path d="M26.1763089,7.99973555 C27.6275488,5.51421388 30.2512423,4.01635741 34.0174561,4.01635742 C35.1220256,4.01635743 36.0174561,4.91178793 36.0174561,6.01635743 C36.0174561,7.12092693 35.1220256,8.01635743 34.0174561,8.01635742 C31.6696714,8.01635741 30.3629373,8.76236682 29.6306063,10.0166216 C29.3707206,10.461725 29.1984563,10.95345 29.1023719,11.447138 C29.0828536,11.5474242 29.0681194,11.6373472 29.0572173,11.7146716 C30.8441186,13.163954 31.9819435,15.4849296 31.981944,18.4964718 C32.5099286,18.8630226 33.0093115,19.2634178 33.4775697,19.6940032 L36.0013425,17.1702303 C36.7816497,16.3899232 38.0419332,16.385079 38.8284271,17.1715729 C39.6094757,17.9526215 39.6156446,19.2127825 38.8297697,19.9986575 L36.0163598,22.8120673 C36.957318,24.3841967 37.5917273,26.1447607 37.8581387,28.0047671 C37.9043563,28.0016064 37.9510273,28 37.9981014,28 L42.0018986,28 C43.1054196,28 44,28.8877296 44,30 C44,31.1045695 43.1132936,32 42.0018986,32 L37.9981014,32 C37.9513075,32 37.9048894,31.9984038 37.8588992,31.9952619 C37.5911338,33.87182 36.9512467,35.6284226 36.0163673,37.1879402 L38.8297697,40.0013425 C39.6156446,40.7872175 39.6094757,42.0473785 38.8284271,42.8284271 C38.0419332,43.614921 36.7816497,43.6100768 36.0013425,42.8297697 L33.4766657,40.3050928 C30.983329,42.5991781 27.6552542,44 24,44 C20.3447458,44 17.016671,42.5991781 14.5233343,40.3050928 L11.9986575,42.8297697 C11.2183503,43.6100768 9.95806679,43.614921 9.17157288,42.8284271 C8.39052429,42.0473785 8.38435539,40.7872175 9.17023033,40.0013425 L11.9836327,37.1879402 C11.048757,35.6284289 10.4088713,33.8718342 10.141104,31.9952845 C10.0951339,31.9984111 10.0487156,32 10.0018986,32 L5.99810135,32 C4.89458045,32 4,31.1122704 4,30 C4,28.8954305 4.88670635,28 5.99810135,28 L10.0018986,28 C10.0489493,28 10.0956201,28.0016138 10.141858,28.00479 C10.4082675,26.1447752 11.0426782,24.3842032 11.9836402,22.8120673 L9.17023033,19.9986575 C8.38435539,19.2127825 8.39052429,17.9526215 9.17157288,17.1715729 C9.95806679,16.385079 11.2183503,16.3899232 11.9986575,17.1702303 L14.5224303,19.6940032 C14.994411,19.2599947 15.4980133,18.8566585 16.0306534,18.4877363 C16.0306534,15.4734875 17.1882422,13.1343462 19.0039001,11.6820025 C18.9934147,11.6110073 18.979877,11.5305196 18.9626442,11.4420451 C18.8657227,10.9444422 18.6919487,10.4487925 18.4297016,9.99999338 C17.6903873,8.73476058 16.3706877,7.98193357 14.0025635,7.98193358 C12.897994,7.98193358 12.0025635,7.08650308 12.0025635,5.98193358 C12.0025635,4.87736408 12.897994,3.98193358 14.0025635,3.98193358 C17.7883852,3.98193357 20.4247937,5.48588139 21.8833172,7.98193997 C22.2811262,8.66273437 22.5642648,9.37257659 22.7536619,10.0877311 C23.1595289,10.0295793 23.5757669,10 24,10 C24.4465091,10 24.8842901,10.0323427 25.3105467,10.0959919 C25.49894,9.38410999 25.7805805,8.67749511 26.1763089,7.99973555 Z M29.5728303,21.8443595 C28.4733492,22.3307188 27.2787445,22.686578 26,22.8688546 L26,26.5351288 C27.1956027,27.2267476 28,28.5194353 28,30 C28,31.4805647 27.1956027,32.7732524 26,33.4648712 L26,39.7999638 C27.4192115,39.511879 28.7292813,38.9232368 29.8608778,38.1033688 C29.3284555,37.5619532 29,36.8193341 29,36 C29,34.3431458 30.3431458,33 32,33 C32.5146359,33 32.9990056,33.129585 33.4222596,33.3579055 C33.7963211,32.3083729 34,31.1779723 34,30 C34,29.9431806 33.3501013,30 33,30 C31.3431458,30 30,28.6568542 30,27 C30,25.6556931 30.8842018,24.5179026 32.1027578,24.136476 C31.447223,23.2311469 30.6388856,22.4342357 29.7049278,21.785137 C29.661431,21.8049004 29.6173978,21.8246449 29.5728303,21.8443595 Z M24,14 C21.790861,14 20,15.8045349 20,18.1168823 C21.0044556,18.637146 22.600607,19.0067139 24.0418701,19.0067139 C25.4831332,19.0067139 27.0021057,18.6836853 28,18.1168823 C28,15.7144775 26.209139,14 24,14 Z M15.8972422,24.136476 C17.1157982,24.5179026 18,25.6556931 18,27 C18,28.6568542 16.6568542,30 15,30 C14.6498987,30 14,29.9431806 14,30 C14,31.1779723 14.2036789,32.3083729 14.5777404,33.3579055 C15.0009944,33.129585 15.4853641,33 16,33 C17.6568542,33 19,34.3431458 19,36 C19,36.8193341 18.6715445,37.5619532 18.1391222,38.1033688 C19.2707187,38.9232368 20.5807885,39.511879 22,39.7999638 L22,33.4648712 C20.8043973,32.7732524 20,31.4805647 20,30 C20,28.5194353 20.8043973,27.2267476 22,26.5351288 L22,22.8566524 C20.7528125,22.6709573 19.5863561,22.3200869 18.5109099,21.8443595 C18.4490299,21.8169866 18.3881799,21.7895561 18.3283655,21.7620976 C17.3803154,22.4153425 16.560554,23.2204065 15.8972422,24.136476 Z" id="Combined-Shape" fill="#000000"></path>
                </g>
            </g>
        </g>
    </g>
</svg>