<?xml version="1.0" encoding="UTF-8"?>
<svg width="48px" height="48px" viewBox="0 0 48 48" version="1.1" xmlns="http://www.w3.org/2000/svg" xmlns:xlink="http://www.w3.org/1999/xlink">
    <!-- Generator: Sketch 49.3 (51167) - http://www.bohemiancoding.com/sketch -->
    <title>theicons.co/svg/animals-07</title>
    <desc>Created with Sketch.</desc>
    <defs></defs>
    <g id="The-Icons" stroke="none" stroke-width="1" fill="none" fill-rule="evenodd">
        <g id="v-1.5" transform="translate(-960.000000, -384.000000)" fill="#000000">
            <g id="Animals" transform="translate(96.000000, 384.000000)">
                <g id="Owl" transform="translate(864.000000, 0.000000)">
                    <path d="M20.8320874,14 C20.296895,15.2249247 20,16.5777906 20,18 C20,23.5228475 24.4771525,28 30,28 C35.5228475,28 40,23.5228475 40,18 C40,16.5777906 39.703105,15.2249247 39.1679126,14 L36.0042874,14 C33.7963215,14 32,15.7943341 32,18.0018986 L32,20 C32,21.1045695 31.1045695,22 30,22 C28.8954305,22 28,21.1045695 28,20 L28,18.0018986 C28,15.7943341 26.2036785,14 23.9957126,14 L20.8320874,14 Z M23.9990242,10.0000007 C26.3873342,10.0009698 28.5332381,11.0502532 30,12.7126216 C31.4667619,11.0502532 33.6126658,10.0009698 36.0009758,10.0000007 C34.3294876,8.74417923 32.25165,8 30,8 C27.74835,8 25.6705124,8.74417923 23.9990242,10.0000007 Z M28.964928,31.9623168 C28.7374718,35.0716568 27.4167357,37.8796479 25.3855508,40 L31.0041158,40 C35.9720231,40 40,35.9707823 40,31 L40,27.7979655 C37.4589659,30.3910656 33.9173763,32 30,32 C29.6518619,32 29.3066917,31.9872928 28.964928,31.9623168 Z M24.9996469,31.0806073 C22.3414509,30.063842 20.0724632,28.2600998 18.4777095,25.954406 C17.3084213,28.876376 15.4842935,31.6573306 13.0706436,34.5179277 C12.1638346,35.5926549 8.80610659,39.3408736 8.80610659,39.3408736 C8.80610659,39.3408736 10.9344921,39.7505389 11.6016972,39.8183143 L16.2181322,34.5077133 C16.941976,33.6750263 18.1987454,33.582403 19.0381865,34.3121181 C19.8718157,35.0367809 19.9600718,36.3001165 19.2369705,37.1319494 L16.7704745,39.9693285 C21.3487996,39.5909454 24.9586278,35.7609494 24.9996469,31.0806073 Z M16,18 C16,10.2680135 22.2680135,4 30,4 C37.7319865,4 44,10.2680135 44,18 L44,31 C44,38.1797017 38.1813818,44 31.0041158,44 C31.0041158,44 16.0165148,44.0000309 16,44 C13.1244192,43.9946163 4.02697754,43.9222412 4.02697754,40.0113525 C4.02697754,36.1004639 16,29.7315674 16,18 Z M36,20 C34.8954305,20 34,19.1045695 34,18 C34,16.8954305 34.8954305,16 36,16 C37.1045695,16 38,16.8954305 38,18 C38,19.1045695 37.1045695,20 36,20 Z M24,20 C22.8954305,20 22,19.1045695 22,18 C22,16.8954305 22.8954305,16 24,16 C25.1045695,16 26,16.8954305 26,18 C26,19.1045695 25.1045695,20 24,20 Z" id="Combined-Shape"></path>
                </g>
            </g>
        </g>
    </g>
</svg>