<?xml version="1.0" encoding="UTF-8"?>
<svg width="48px" height="48px" viewBox="0 0 48 48" version="1.1" xmlns="http://www.w3.org/2000/svg" xmlns:xlink="http://www.w3.org/1999/xlink">
    <!-- Generator: Sketch 49.3 (51167) - http://www.bohemiancoding.com/sketch -->
    <title>theicons.co/svg/animals-11</title>
    <desc>Created with Sketch.</desc>
    <defs></defs>
    <g id="The-Icons" stroke="none" stroke-width="1" fill="none" fill-rule="evenodd">
        <g id="v-1.5" transform="translate(-1344.000000, -384.000000)" fill="#000000">
            <g id="Animals" transform="translate(96.000000, 384.000000)">
                <g id="Fish" transform="translate(1248.000000, 0.000000)">
                    <path d="M4.81238794,21.2474244 C4.10575542,20.1072746 3.56965985,18.823975 3.27361266,17.403055 C2.12894564,11.9090651 2.90294885,6.73762897 6.89416125,4.07900863 C7.50386953,3.67287069 8.15261748,3.38456341 8.82971727,3.21392871 C11.1041103,2.64076302 13.3336008,3.38788304 15.4371012,4.88899119 C15.8559518,5.18789294 16.2291589,5.48658481 16.5515217,5.76776661 C19.674271,3.99085586 23.286203,2.96839918 27.0948254,3.0002073 C32.6379567,2.92039101 36.8451564,4.90330847 39.651438,7.68878808 C40.9265482,8.95444629 41.8779077,10.6369089 41.9193333,12.542622 C41.9784713,15.2631632 40.1487586,17.6151187 36.4730918,19.3562622 C35.0135008,20.0476625 33.6515889,20.7702724 32.4080966,21.5067251 C32.4609301,22.0598409 32.460276,22.6173177 32.3908715,23.1723821 C31.9873739,26.3993654 29.4349608,28.2338707 25.1219139,27.7726924 C24.6408286,28.5944417 24.4248716,29.362616 24.5117842,30.0456136 C24.8751574,32.9011576 27.3119162,34.3305379 29.8226882,33.4989917 C30.7285792,33.1989683 31.344156,32.6047744 31.7670705,31.7336662 C32.0047142,31.2441741 32.1635469,30.6987202 32.2522727,30.1495118 C32.3047347,29.8247749 32.3282989,29.3192939 32.3282989,29.3192939 C32.4210191,28.2359178 32.8480819,27.3238726 34.1611832,27.0845191 C35.4272373,26.8537413 36.1422539,27.5075789 36.6402294,28.4430989 L39.1941933,33.2410949 L43.9161307,34.5134572 C45.767004,35.0148061 46.5718477,37.0825406 45.4517632,38.6865497 C45.4517632,38.6865497 44.6540808,39.9682726 43.6221574,40.8267618 C41.6576489,42.4610974 39.0126071,43.2958631 35.7210228,42.9686781 C35.34198,43.2125233 34.901673,43.5346766 33.7365827,43.946019 C32.616272,44.3415517 30.5572716,44.9809439 26.9817913,44.9809423 C23.406311,44.9809407 18.4396748,43.8144722 14.2778087,40.7164811 C9.06255998,36.8343778 6.02514648,30.8537907 6.02514648,23.064353 C6.02514648,23.0036615 6.02545249,22.9430143 6.0260631,22.8824129 C5.64392245,22.4580648 5.22499299,21.9131616 4.81238794,21.2474244 Z M13.1450919,8.16753057 C13.1346075,8.15998489 13.124102,8.15245586 13.1135756,8.14494398 C11.8712004,7.25835542 10.7030429,6.86689652 9.80718909,7.09265903 C9.57297239,7.15168355 9.34341959,7.25369812 9.11169846,7.40805185 C6.88879653,8.88876791 6.34398274,12.5288945 7.18952213,16.5871794 C7.19183406,16.5982758 7.19416821,16.6093598 7.19652452,16.6204315 C8.40240063,13.3728923 10.479333,10.4588282 13.1450919,8.16753057 Z M20.5437822,30.550549 C19.8656811,25.2217355 25.7869269,19.9921605 34.7607158,15.7413254 C37.132796,14.6176838 37.9409147,13.578909 37.920278,12.6295518 C37.9055117,11.9502524 37.4434368,11.1330811 36.8335525,10.5277176 C34.7416697,8.45134127 31.5282026,6.93678516 27.1070084,6.99993101 C17.8470208,6.92301325 10.0251465,14.5265147 10.0251465,23.064353 C10.0251465,29.582978 12.4597345,34.3766176 16.666243,37.5078394 C20.0428977,40.0213384 23.7276611,40.9874415 26.8206876,40.9874415 C29.913714,40.9874414 31.0476663,40.6794842 32.2840199,40.2190817 C33.4997559,39.7663569 34.2691116,39.0476069 34.7607155,38.8140864 C35.2523193,38.5805659 37.9202785,39.8953852 40.9390704,37.852513 C40.3918457,37.7517561 37.2037354,37.1504836 36.6069946,36.6899409 C36.0102539,36.2293982 35.4121759,34.6488939 35.0852882,34.0347874 C34.4863281,35.2872309 33.0843528,36.6324249 31.0802772,37.2961577 C26.235929,38.9005645 21.2328859,35.9658255 20.5437822,30.550549 Z M29,13 C27.8954305,13 27,12.1045695 27,11 C27,9.8954305 27.8954305,9 29,9 C30.1045695,9 31,9.8954305 31,11 C31,12.1045695 30.1045695,13 29,13 Z M20.0932394,10.6498538 C20.2866198,9.56234393 21.3249866,8.83750873 22.4124965,9.03088912 C23.5000064,9.2242695 24.2248416,10.2626362 24.0314612,11.3501462 C24.0321858,11.3460714 24.0275208,11.378965 24.0210621,11.4429462 C23.9605948,12.0419466 24.0146441,12.7454845 24.2526529,13.3558061 C24.583151,14.2032963 25.2160335,14.7609227 26.4518285,15.0226468 C27.5324296,15.251503 28.2229052,16.3130278 27.994049,17.3936288 C27.7651928,18.4742299 26.703668,19.1647055 25.623067,18.9358493 C23.0404892,18.3888955 21.3365471,16.8875693 20.5260003,14.8090991 C20.0228871,13.518975 19.9227469,12.215492 20.0412882,11.0411998 C20.0582109,10.8735609 20.0769273,10.7415882 20.0932394,10.6498538 Z" id="Combined-Shape"></path>
                </g>
            </g>
        </g>
    </g>
</svg>