<?xml version="1.0" encoding="UTF-8"?>
<svg width="48px" height="48px" viewBox="0 0 48 48" version="1.1" xmlns="http://www.w3.org/2000/svg" xmlns:xlink="http://www.w3.org/1999/xlink">
    <!-- Generator: Sketch 49.3 (51167) - http://www.bohemiancoding.com/sketch -->
    <title>theicons.co/svg/animals-02</title>
    <desc>Created with Sketch.</desc>
    <defs></defs>
    <g id="The-Icons" stroke="none" stroke-width="1" fill="none" fill-rule="evenodd">
        <g id="v-1.5" transform="translate(-192.000000, -384.000000)" fill="#000000">
            <g id="Animals" transform="translate(96.000000, 384.000000)">
                <g id="Dog" transform="translate(96.000000, 0.000000)">
                    <path d="M26,35.0599572 C26.6883464,37.7287034 29.2702068,39.3417143 31.889526,38.7849608 C34.5899933,38.2109588 36.3146755,35.5549809 35.740853,32.8553582 L35.0581417,29.643454 C34.8284888,28.5630219 35.5181815,27.5009883 36.5986135,27.2713354 C37.6790455,27.0416825 38.7410792,27.7313752 38.9707321,28.8118072 L39.6534434,32.0237114 C39.8573735,32.9831273 39.9001048,33.9394131 39.79994,34.8643692 C40.7759737,34.6815275 41.4443853,34.3291041 41.9952983,33.7205273 C43.2135114,32.3748047 43.9570399,29.6381701 44.0037652,25.0759659 C43.8959259,14.4529303 37.2004081,9.00819888 24.001826,8.99629303 C10.8032506,9.00820017 4.10773621,14.4526855 3.99989696,25.0353622 C4.04662216,29.6381701 4.79015071,32.3748047 6.00836381,33.7205273 C6.56170908,34.3317909 7.23359262,34.6846343 8.21666735,34.866781 C8.11871265,33.9467852 8.1621196,32.9959792 8.36487736,32.042079 L9.04758868,28.8301748 C9.27724159,27.7497427 10.3392753,27.06005 11.4197073,27.2897029 C12.5001393,27.5193558 13.189832,28.5813895 12.9601791,29.6618215 L12.2774678,32.8737257 C11.7036452,35.5733485 13.4283274,38.2293264 16.1287948,38.8033284 C18.7385292,39.3580446 21.3110784,37.7588467 22,35.1953998 L22,33 C20.3431152,32.9998214 19,31.6533732 19,30 C19,28.3431458 20.3486445,27 22.0003297,27 L25.9996703,27 C27.6567066,27 29,28.3465171 29,30 C29,31.656744 27.651535,32.9998212 26,33 L26,35.0599572 Z M32.7211727,42.6975512 C29.3889886,43.4058288 26.0938737,42.1668142 24.0170192,39.7463857 C21.9410964,42.1789089 18.6377506,43.4259858 15.297148,42.7159188 C12.9532352,42.2177048 11.0178595,40.8484891 9.75774814,39.0192198 C3.29684141,38.827342 0.103494172,35.2606655 0.000103044104,25.0353622 C0.131462274,12.0954229 8.66495869,5.09271739 23.7417567,4.99728242 C23.8286581,4.99636281 23.9153492,4.99622989 24.0018276,4.99632216 C24.0883083,4.99622988 24.1750018,4.9963628 24.2619077,4.9967211 C39.3387034,5.09272259 47.8721998,12.0958823 48.0035591,25.0759659 C47.9001787,35.2597641 44.7074843,38.8266013 38.2479295,39.0191578 C36.9875343,40.839254 35.0572605,42.2010005 32.7211727,42.6975512 Z M31,25 C29.3431458,25 28,23.6568542 28,22 C28,20.3431458 29.3431458,19 31,19 C32.6568542,19 34,20.3431458 34,22 C34,23.6568542 32.6568542,25 31,25 Z M17,25 C15.3431458,25 14,23.6568542 14,22 C14,20.3431458 15.3431458,19 17,19 C18.6568542,19 20,20.3431458 20,22 C20,23.6568542 18.6568542,25 17,25 Z" id="Path"></path>
                </g>
            </g>
        </g>
    </g>
</svg>