<?xml version="1.0" encoding="UTF-8"?>
<svg width="48px" height="48px" viewBox="0 0 48 48" version="1.1" xmlns="http://www.w3.org/2000/svg" xmlns:xlink="http://www.w3.org/1999/xlink">
    <!-- Generator: Sketch 49.3 (51167) - http://www.bohemiancoding.com/sketch -->
    <title>theicons.co/svg/animals-04</title>
    <desc>Created with Sketch.</desc>
    <defs></defs>
    <g id="The-Icons" stroke="none" stroke-width="1" fill="none" fill-rule="evenodd">
        <g id="v-1.5" transform="translate(-384.000000, -384.000000)" fill="#000000">
            <g id="Animals" transform="translate(96.000000, 384.000000)">
                <g id="Deer" transform="translate(288.000000, 0.000000)">
                    <path d="M23.9504703,40.9999288 C26.0503168,40.991719 27.7751538,40.4706246 29.1734764,39.4737394 C29.1278017,39.1109785 28.7463689,38.4863663 28.1451602,38.0855605 C27.148811,37.4213277 25.6546152,37 24,37 C22.3453848,37 20.851189,37.4213277 19.8548398,38.0855605 C19.2320591,38.5007476 18.8825998,39.1631628 18.8626031,39.5123777 C20.2347796,40.4840868 21.9167376,40.9918257 23.9504703,40.9999288 Z M24,33 C27.4345996,33 30.4198452,34.2826089 31.9368338,36.1685581 C32.5481161,34.9948665 33.0281895,33.6176712 33.3920018,32.0484056 C34.0934809,29.0226505 34.2434081,25.7768909 34.0752262,22.930674 C34.0540656,22.5725645 34.033545,22.3255062 34.021225,22.2072654 C33.8449987,20.5159314 35.7259757,19.3902611 37.1332251,20.3448896 C37.1986571,20.3892764 38.2890471,21.0310291 38.6922948,21.2282597 C39.3417105,21.5458926 39.964939,21.7883364 40.5157761,21.9261497 C41.596572,22.196553 41.8601877,22.0369873 41.925449,21.6873695 C42.4916749,18.6539814 39.4345612,15 36.95406,15 L11.0563963,15 C8.5758951,15 5.51878143,18.6539814 6.08500733,21.6873695 C6.15026855,22.0369873 6.4138843,22.196553 7.49468022,21.9261497 C8.04551728,21.7883364 8.66874576,21.5458926 9.31816153,21.2282597 C9.7214092,21.0310291 10.8117992,20.3892764 10.8772312,20.3448896 C12.2844806,19.3902611 14.1654576,20.5159314 13.9892313,22.2072654 C13.9769113,22.3255062 13.9563907,22.5725645 13.9352301,22.930674 C13.7670482,25.7768909 13.9169754,29.0226505 14.6184545,32.0484056 C14.9817755,33.6155523 15.4601534,34.991147 16.0669955,36.1638026 C17.5851748,34.2804531 20.568288,33 24,33 Z M21.5061844,10.999972 L26.5222286,10.999972 C26.4694153,10.8545831 26.4206015,10.7028023 26.3757905,10.5444028 C26.0361212,9.34372825 25.9577299,8.13654327 26.018294,7.06965121 C26.0250303,6.95098534 26.0324081,6.85928363 26.0386691,6.79769802 C26.1503885,5.69879593 27.1317936,4.89852593 28.2306987,5.01024496 C29.3296039,5.12196399 30.1298761,6.10336632 30.0181568,7.20226842 C29.9742957,7.95816388 30.0258873,8.75264752 30.2247366,9.45554687 C30.5088874,10.4599727 30.9390688,10.999972 31.8112815,10.999972 C32.1799927,10.999972 32.653342,10.9012949 32.9473272,10.7665777 C33.989507,10.2890042 35.2322128,9.1742048 36.5340575,7.60170879 L32.7559516,4.58696972 C31.8925659,3.89803122 31.75115,2.63962578 32.4400904,1.77624249 C33.1290309,0.912859196 34.3874398,0.771443749 35.2508255,1.46038224 L38.8842845,4.35970019 C39.0647667,4.07991104 40.23146,2.1189825 40.2656082,2.05526455 C40.7873696,1.08169711 41.9995753,0.715434716 42.9731455,1.23719461 C43.9467156,1.7589545 44.312979,2.97115681 43.7912177,3.94472426 C43.7416265,4.03725764 43.0873891,5.17811191 42.824326,5.6074308 C42.0723807,6.83460537 41.2445329,8.06250286 40.3600482,9.21660874 C39.8000477,9.94731661 39.2404673,10.620129 38.6797724,11.2285872 C42.9746652,12.3571065 46.6649642,17.4755551 45.868657,22.3589574 C45.3625681,25.4625781 42.5274837,26.5526744 39.5449434,25.8064778 C38.6907543,25.5927697 38.6922948,25.5860519 38.1380576,25.3547806 C38.1213427,27.8204172 37.8746769,30.4239597 37.2886538,32.9517006 C35.580083,40.3214179 31.3564929,44.957966 24,44.9995673 C16.650179,44.9573514 12.43026,40.3209295 10.7218025,32.9517006 C10.1357794,30.4239597 9.88911356,27.8204172 9.87239873,25.3547806 C9.31816153,25.5860519 9.31970195,25.5927697 8.46551286,25.8064778 C5.48297258,26.5526744 2.64788818,25.4625781 2.14179931,22.3589574 C1.34459801,17.4700722 5.04408337,12.3456127 9.34515251,11.2248011 C8.78562489,10.6173384 8.22720405,9.94580136 7.66836476,9.21660874 C6.78388005,8.06250286 5.95603223,6.83460537 5.20408696,5.6074308 C4.9410239,5.17811191 4.28678643,4.03725764 4.23719527,3.94472426 C3.71543392,2.97115681 4.08169734,1.7589545 5.05526751,1.23719461 C6.02883767,0.715434716 7.24104338,1.08169711 7.76280473,2.05526455 C7.79695292,2.1189825 8.9636463,4.07991104 9.14412846,4.35970019 L12.7775874,1.46038224 C13.6409731,0.771443749 14.8993821,0.912859196 15.5883225,1.77624249 C16.2772629,2.63962578 16.1358471,3.89803122 15.2724614,4.58696972 L11.4943555,7.60170879 C12.7962001,9.1742048 14.038906,10.2890042 15.0810858,10.7665777 C15.375071,10.9012949 15.8338623,10.999972 16.2171314,10.999972 C17.0893442,10.999972 17.5195256,10.4599727 17.8036764,9.45554687 C18.0025257,8.75264752 18.0541173,7.95816388 18.0165483,7.29635257 C17.8985368,6.10336632 18.6988091,5.12196399 19.7977142,5.01024496 C20.8966194,4.89852593 21.8780245,5.69879593 21.9897438,6.79769802 C21.9960049,6.85928363 22.0033826,6.95098534 22.0101189,7.06965121 C22.0706831,8.13654327 21.9922918,9.34372825 21.6526225,10.5444028 C21.6078114,10.7028023 21.5589977,10.8545831 21.5061844,10.999972 Z M31,24 C31,25.1045695 30.1045695,26 29,26 C27.8954305,26 27,25.1045695 27,24 C27,22.8954305 27.8954305,22 29,22 C30.1045695,22 31,22.8954305 31,24 Z M21,24 C21,25.1045695 20.1045695,26 19,26 C17.8954305,26 17,25.1045695 17,24 C17,22.8954305 17.8954305,22 19,22 C20.1045695,22 21,22.8954305 21,24 Z" id="Combined-Shape"></path>
                </g>
            </g>
        </g>
    </g>
</svg>