<?xml version="1.0" encoding="UTF-8"?>
<svg width="48px" height="48px" viewBox="0 0 48 48" version="1.1" xmlns="http://www.w3.org/2000/svg" xmlns:xlink="http://www.w3.org/1999/xlink">
    <!-- Generator: Sketch 49.3 (51167) - http://www.bohemiancoding.com/sketch -->
    <title>theicons.co/svg/animals-05</title>
    <desc>Created with Sketch.</desc>
    <defs></defs>
    <g id="The-Icons" stroke="none" stroke-width="1" fill="none" fill-rule="evenodd">
        <g id="v-1.5" transform="translate(-480.000000, -384.000000)" fill="#000000">
            <g id="Animals" transform="translate(96.000000, 384.000000)">
                <g id="Lion" transform="translate(384.000000, 0.000000)">
                    <path d="M22,6.41296269 C15.8444008,4.4075418 11.4564985,5.70197872 8.29029914,9.09042947 C7.53931539,9.89412852 6.68432625,11.0211186 6.28891096,11.8841921 C6.56042489,12.2158208 6.4856347,12.2763731 7.39056984,13.0058708 C8.02476734,13.517118 8.79767981,13.9614534 9.73013373,14.3149061 C11.2420041,14.8879904 11.4842742,16.9250869 10.1489871,17.836781 C8.81107364,18.7502684 7.75818442,19.8588078 6.95161046,21.1266104 C6.13432104,22.411256 5.60629565,23.7973759 5.31452385,25.1870883 C5.26083464,25.4428106 5.18311967,25.9227076 5.18311967,25.9227076 C5.18311967,25.9227076 4.93668376,25.9699907 5.52252462,25.8883223 C6.42723321,25.7622025 7.34795796,25.5215371 8.23617503,25.1424571 C9.68988077,24.5220337 11.2549099,25.7535578 10.9937498,27.3123974 C10.1119237,32.5759339 10.9641682,35.8058796 12.7852068,37.6205577 C13.5052198,38.3380557 14.5240832,38.7398721 14.5240832,38.7398721 L16.327534,36.8773804 C16.5706345,36.6276683 17.0751613,36.2296946 17.3864746,36.1345825 C18.3293799,35.8167021 19.14831,36.2264017 19.7349854,37.0668945 C19.9044189,37.3096313 21.0815629,39.2663145 21.5205142,39.8703629 C22.56428,41.3067067 23.5547898,42.119751 24.0249023,42.119751 C24.5107211,42.1166019 25.5158985,41.3032957 26.5777758,39.8756143 C27.0240964,39.2755415 27.4446265,38.6232675 27.8225064,37.9702548 C28.0478578,37.5808258 28.230844,37.3130256 28.5362549,36.8773804 C29.3156128,35.765686 30.7567933,35.8022003 31.527294,36.5936562 L33.5664912,38.7398721 C33.5664912,38.7398721 34.5853546,38.3380557 35.3053675,37.6205577 C37.1264062,35.8058796 37.9786506,32.5759339 37.0968245,27.3123974 C36.8356644,25.7535578 38.4006936,24.5220337 39.8543993,25.1424571 C40.7426164,25.5215371 41.6633411,25.7622025 42.5680497,25.8883223 C43.1538906,25.9699907 42.9074547,25.9227076 42.9074547,25.9227076 C42.9074547,25.9227076 42.8297397,25.4428106 42.7760505,25.1870883 C42.4842787,23.7973759 41.9562533,22.411256 41.1389639,21.1266104 C40.3323899,19.8588078 39.2795007,18.7502684 37.9415872,17.836781 C36.6063002,16.9250869 36.8485702,14.8879904 38.3604406,14.3149061 C39.2928945,13.9614534 40.065807,13.517118 40.7000045,13.0058708 C41.6049396,12.2763731 41.5301494,12.2158208 41.8016634,11.8841921 C41.4062481,11.0211186 40.5512589,9.89412852 39.8002752,9.09042947 C36.6185684,5.6853827 32.2031619,4.39491219 26,6.44266688 L26,10.0018986 C26,11.1054196 25.1122704,12 24,12 C22.8954305,12 22,11.1132936 22,10.0018986 L22,6.41296269 Z M17.1622421,41.7126185 C16.2095297,42.6912397 14.6002378,43.0712009 13.3222446,42.5385612 C13.3222446,42.5385612 12.9052411,42.4293152 12.3770437,42.175884 C11.5450843,41.7767065 10.7226797,41.2121385 9.96173231,40.4538505 C7.63265904,38.132917 6.41212674,34.600415 6.69218349,29.7514092 L6.07479909,29.849956 C5.25472349,29.9642774 4.05289423,29.9795088 4.05289423,29.9795088 C2.33367385,30.0022877 0.948779516,28.5709077 1.09219935,26.8393533 C1.09219935,26.8393533 1.16257792,25.4953859 1.39987145,24.3651564 C1.78500377,22.5307704 2.48286721,20.6988122 3.57671192,18.9794703 C4.12456827,18.1183313 4.75774185,17.3101564 5.47993721,16.5635563 C5.11148556,16.3052075 4.8801621,16.119979 4.8801621,16.119979 C4.00746961,15.4164745 3.32551104,14.6515118 2.81294691,13.8735148 C2.48341587,13.3733351 2.27560202,12.9514933 2.16479988,12.6503934 C1.997823,12.1966413 2.0008748,11.6977618 2.17339046,11.2460864 C2.30853942,10.8922434 2.56352033,10.338983 2.95295542,9.65105805 C3.58862326,8.52817053 4.3874424,7.40847458 5.36764692,6.3594667 C9.71531077,1.7066279 15.9749062,-0.000755462636 24.0452872,2.88579734 C32.1156681,-0.000755462636 38.3752636,1.7066279 42.7229274,6.3594667 C43.7031319,7.40847458 44.5019511,8.52817053 45.1376189,9.65105805 C45.527054,10.338983 45.7820349,10.8922434 45.9171839,11.2460864 C46.0896995,11.6977618 46.0927513,12.1966413 45.9257745,12.6503934 C45.8149723,12.9514933 45.6071585,13.3733351 45.2776274,13.8735148 C44.7650633,14.6515118 44.0831047,15.4164745 43.2104122,16.119979 C43.2104122,16.119979 42.9790888,16.3052075 42.6106371,16.5635563 C43.3328325,17.3101564 43.9660061,18.1183313 44.5138624,18.9794703 C45.6077071,20.6988122 46.3055706,22.5307704 46.6907029,24.3651564 C46.9279964,25.4953859 46.998375,26.8393533 46.998375,26.8393533 C47.1417948,28.5709077 45.7569005,30.0022877 44.0376801,29.9795088 C44.0376801,29.9795088 42.8358508,29.9642774 42.0157752,29.849956 L41.3983908,29.7514092 C41.6784476,34.600415 40.4579153,38.132917 38.128842,40.4538505 C37.3678947,41.2121385 36.54549,41.7767065 35.7135306,42.175884 C35.1853333,42.4293152 34.7683297,42.5385612 34.7683297,42.5385612 C33.4903366,43.0712009 31.8810446,42.6912397 30.9283322,41.7126185 L30.4888445,41.261179 C30.2642978,41.6009858 30.0302618,41.9361221 29.7873365,42.2627316 C28.0240195,44.6334855 26.2046091,46.1055989 24.0524887,46.1195718 C21.8507888,46.1196614 20.0328727,44.6274566 18.2846615,42.2217184 C18.0533142,41.9033581 17.8303904,41.5769925 17.6163852,41.246125 L17.1622421,41.7126185 Z M26,26.2277182 C27.4004009,26.5154543 28.6470583,27.1034409 29.7298709,27.9120269 C30.6820989,28.6230994 31.3250108,29.350476 31.6874806,29.9028152 C32.2935065,30.8262904 32.0361629,32.066196 31.1126877,32.6722218 C30.1892125,33.2782477 28.949307,33.0209041 28.3432811,32.097429 C28.2182936,31.9069703 27.8763918,31.5201501 27.3365506,31.1170258 C26.4220713,30.4341421 25.3259987,30.0289307 24.0075073,30.0289307 C22.689016,30.0289307 21.5929433,30.4341421 20.678464,31.1170258 C20.1386228,31.5201501 19.796721,31.9069703 19.6717335,32.097429 C19.0657077,33.0209041 17.8258021,33.2782477 16.9023269,32.6722218 C15.9788517,32.066196 15.7215082,30.8262904 16.327534,29.9028152 C16.6900038,29.350476 17.3329157,28.6230994 18.2851438,27.9120269 C19.364085,27.1063318 20.6057015,26.5196616 22,26.2308159 L22,24.5621583 C20.6074198,23.8822887 20.1039585,22.6500468 20.1039585,22.6500468 C19.494259,21.7387511 19.8874333,21 20.999615,21 L27.000385,21 C28.1047419,21 28.5367071,21.7712402 27.8867081,22.6616099 C27.8867081,22.6616099 27.3885568,23.8867657 26,24.5634658 L26,26.2277182 Z M30,19 C28.8954305,19 28,18.1045695 28,17 C28,15.8954305 28.8954305,15 30,15 C31.1045695,15 32,15.8954305 32,17 C32,18.1045695 31.1045695,19 30,19 Z M18,19 C16.8954305,19 16,18.1045695 16,17 C16,15.8954305 16.8954305,15 18,15 C19.1045695,15 20,15.8954305 20,17 C20,18.1045695 19.1045695,19 18,19 Z" id="Combined-Shape"></path>
                </g>
            </g>
        </g>
    </g>
</svg>