<?xml version="1.0" encoding="UTF-8"?>
<svg width="48px" height="48px" viewBox="0 0 48 48" version="1.1" xmlns="http://www.w3.org/2000/svg" xmlns:xlink="http://www.w3.org/1999/xlink">
    <!-- Generator: Sketch 49.3 (51167) - http://www.bohemiancoding.com/sketch -->
    <title>theicons.co/svg/animals-13</title>
    <desc>Created with Sketch.</desc>
    <defs></defs>
    <g id="The-Icons" stroke="none" stroke-width="1" fill="none" fill-rule="evenodd">
        <g id="v-1.5" transform="translate(-1536.000000, -384.000000)" fill="#000000">
            <g id="Animals" transform="translate(96.000000, 384.000000)">
                <g id="Jellyfish" transform="translate(1440.000000, 0.000000)">
                    <path d="M28,36 C28,37.4805647 27.1956027,38.7732524 26,39.4648712 L26,42.0092049 C26,43.1086907 25.1122704,44 24,44 C22.8954305,44 22,43.1017876 22,42.0092049 L22,39.4648712 C20.8043973,38.7732524 20,37.4805647 20,36 C20,34.5194353 20.8043973,33.2267476 22,32.5351288 C22,32.5351288 22.0004416,25.9418532 22.0013175,25.9175452 C21.3205963,26.0207833 20.5355082,26.2005091 19.833252,26.3741973 C19.8437257,26.4874388 19.8545734,26.6164252 19.8652773,26.7601304 C20.0241864,28.8935742 19.945995,31.2412778 19.4486389,33.5040705 C18.3270652,38.6068306 15.3765256,41.8881836 10.1117224,41.8881836 C9.0071529,41.8881836 8.1117224,40.9927531 8.1117224,39.8881836 C8.1117224,38.7836141 9.0071529,37.8881836 10.1117224,37.8881836 C12.1356265,37.8881836 13.5501468,37.1074193 14.4987545,35.5979325 C13.6027394,35.0790414 13,34.1099093 13,33 C13,31.3474801 14.3361275,30.0070295 15.9870034,30.0000276 C16.040405,29.1495167 16.039092,28.3008946 15.99538,27.4873796 C10.390153,29.2494516 5.3824131,30.837014 5.3824131,23.8919536 C5.3824131,13.6097443 13.7177907,5.27436673 24,5.27436673 C34.2822093,5.27436673 42.6175869,13.6097443 42.6175869,23.8919536 C42.6175869,30.7816581 37.5859189,29.2321204 32.0350952,27.4873796 C31.9935166,28.2892102 31.9932122,29.1244916 32.0459223,29.9615568 C33.633389,30.0393909 35,31.3932289 35,33 C35,34.0685307 34.4413645,35.0065851 33.6002199,35.5380367 C34.5489124,37.086761 35.9739095,37.8881836 38.0244141,37.8881836 C39.1289836,37.8881836 40.0244141,38.7836141 40.0244141,39.8881836 C40.0244141,40.9927531 39.1289836,41.8881836 38.0244141,41.8881836 C32.7596109,41.8881836 29.5953286,38.6068306 28.4737549,33.5040705 C27.9763988,31.2412778 27.8982074,28.8935742 28.0571165,26.7601304 C28.0667875,26.630292 28.0765759,26.5124688 28.0860999,26.4074177 C27.3386547,26.2191795 26.7223647,26.0272976 25.998655,25.917541 C25.9995491,25.9418559 26,32.5351288 26,32.5351288 C27.1956027,33.2267476 28,34.5194353 28,36 Z M30.8229861,22.9419372 C31.420602,23.1159775 31.9989703,23.2932372 32.8501364,23.560268 C36.6905243,24.765088 38.4979115,25.1957398 38.4979115,25.1957398 C38.4979115,25.1957398 38.6175869,24.4609842 38.6175869,23.8919536 C38.6175869,15.8188833 32.0730703,9.27436673 24,9.27436673 C15.9269297,9.27436673 9.3824131,15.8188833 9.3824131,23.8919536 C9.3824131,24.4609842 9.50208854,25.1957398 9.50208854,25.1957398 C9.50208854,25.1957398 11.3094757,24.765088 15.1498636,23.560268 C16.0010297,23.2932372 16.579398,23.1159775 17.1770139,22.9419372 C19.8679652,22.158267 21.9550974,21.7537123 24,21.7537123 C26.0449026,21.7537123 28.1320348,22.158267 30.8229861,22.9419372 Z" id="Combined-Shape"></path>
                </g>
            </g>
        </g>
    </g>
</svg>