<?xml version="1.0" encoding="UTF-8"?>
<svg width="48px" height="48px" viewBox="0 0 48 48" version="1.1" xmlns="http://www.w3.org/2000/svg" xmlns:xlink="http://www.w3.org/1999/xlink">
    <!-- Generator: Sketch 49.3 (51167) - http://www.bohemiancoding.com/sketch -->
    <title>theicons.co/svg/animals-18</title>
    <desc>Created with Sketch.</desc>
    <defs></defs>
    <g id="The-Icons" stroke="none" stroke-width="1" fill="none" fill-rule="evenodd">
        <g id="v-1.5" transform="translate(-672.000000, -384.000000)" fill="#000000">
            <g id="Animals" transform="translate(96.000000, 384.000000)">
                <g id="Pig" transform="translate(576.000000, 0.000000)">
                    <path d="M42,23.5 C42,28.0311559 39.9998211,32.1504074 36.7555216,35.1397375 C36.9158392,34.4523778 37,33.7374125 37,33 C37,26.8263656 31.1011087,22 24,22 C16.8988913,22 11,26.8263656 11,33 C11,33.7374125 11.0841608,34.4523778 11.2444784,35.1397375 C8.00017894,32.1504074 6,28.0311559 6,23.5 C6,21.8924216 6.2517649,20.33669 6.72153142,18.8648698 L7.27079083,19.4141661 C8.19084337,20.3342804 9.73064216,20.1447256 10.4000681,19.0289407 C10.4259586,18.985787 12.0907171,16.0918321 14.0914335,14.0909814 C16.0921499,12.0901308 18.9858924,10.4252739 19.0290423,10.3993822 C20.0583612,9.78174941 20.2993576,8.42338547 19.6079945,7.49429869 C21.0127398,7.17152204 22.4838554,7 24,7 C25.5161446,7 26.9872602,7.17152204 28.3920055,7.49429869 C27.7006424,8.42338547 27.9416388,9.78174941 28.9709577,10.3993822 C29.0141076,10.4252739 31.8814693,12.0637482 33.9085665,14.0909814 C35.9356637,16.1182147 37.5740414,18.985787 37.5999319,19.0289407 C38.2693578,20.1447256 39.8091566,20.3342804 40.7292092,19.4141661 L41.2784686,18.8648698 C41.7482351,20.33669 42,21.8924216 42,23.5 Z M24,3 C21.3312621,3 18.7708885,3.44346468 16.4006038,4.25640126 L16.0855389,3.94131526 C13.1325528,0.988130964 7.66185118,1.55598943 4.60937707,4.60866836 C1.66816312,7.55007966 1.03461419,12.7277674 3.62651697,15.7448174 C2.57825748,18.1348604 2,20.7525912 2,23.5 C2,34.8581699 11.8830595,44 24,44 C36.1169405,44 46,34.8581699 46,23.5 C46,20.7525912 45.4217425,18.1348604 44.3734855,15.7448231 C46.9653858,12.7277674 46.3318369,7.55007966 43.3906229,4.60866836 C40.3381488,1.55598943 34.8674472,0.988130964 31.9144611,3.94131526 L31.5993962,4.25640126 C29.2291115,3.44346468 26.6687379,3 24,3 Z M30,21 C31.1045695,21 32,20.1045695 32,19 C32,17.8954305 31.1045695,17 30,17 C28.8954305,17 28,17.8954305 28,19 C28,20.1045695 28.8954305,21 30,21 Z M18,21 C19.1045695,21 20,20.1045695 20,19 C20,17.8954305 19.1045695,17 18,17 C16.8954305,17 16,17.8954305 16,19 C16,20.1045695 16.8954305,21 18,21 Z M24,40 C18.9508442,40 15,36.7674911 15,33 C15,29.2325089 18.9508442,26 24,26 C29.0491558,26 33,29.2325089 33,33 C33,36.7674911 29.0491558,40 24,40 Z M28,36 C29.6568542,36 31,34.6568542 31,33 C31,31.3431458 29.6568542,30 28,30 C26.3431458,30 25,31.3431458 25,33 C25,34.6568542 26.3431458,36 28,36 Z M20,36 C21.6568542,36 23,34.6568542 23,33 C23,31.3431458 21.6568542,30 20,30 C18.3431458,30 17,31.3431458 17,33 C17,34.6568542 18.3431458,36 20,36 Z M11.2629115,11.2626492 C10.6658998,11.859701 8.70614664,14.3478185 8.3593529,14.8457573 L6.77059076,13.2568884 C5.52391593,12.01013 5.83050238,9.04450515 7.43789908,7.43700059 C9.04294974,5.83184224 12.0111919,5.5237389 13.2570169,6.76964749 L14.8460023,8.35873947 C14.3480222,8.70560393 11.859924,10.6655966 11.2629115,11.2626492 Z M34.7429831,6.76964749 C35.9888081,5.5237389 38.9570503,5.83184224 40.5621009,7.43700059 C42.1694976,9.04450515 42.4760841,12.01013 41.2294092,13.2568884 L39.6406471,14.8457572 C39.2938533,14.3478185 37.3341002,11.859701 36.7370885,11.2626492 C36.7370885,11.2626492 33.6519778,8.70560395 33.1539977,8.35873947 L34.7429831,6.76964749 Z" id="Combined-Shape"></path>
                </g>
            </g>
        </g>
    </g>
</svg>