<?xml version="1.0" encoding="UTF-8"?>
<svg width="48px" height="48px" viewBox="0 0 48 48" version="1.1" xmlns="http://www.w3.org/2000/svg" xmlns:xlink="http://www.w3.org/1999/xlink">
    <!-- Generator: Sketch 49.3 (51167) - http://www.bohemiancoding.com/sketch -->
    <title>theicons.co/svg/city-02</title>
    <desc>Created with Sketch.</desc>
    <defs></defs>
    <g id="The-Icons" stroke="none" stroke-width="1" fill="none" fill-rule="evenodd">
        <g id="v-1.5" transform="translate(-384.000000, -96.000000)" fill="#000000">
            <g id="City" transform="translate(96.000000, 96.000000)">
                <g id="Farm" transform="translate(288.000000, 0.000000)">
                    <path d="M38,31 L26,31 L26,39.0036014 C32.2734234,39.0053038 38,39.0073624 38,39.0092049 L38,31 Z M38,27 L38,22.9907951 C38,22.3288062 37.6019097,21.1358796 37.200231,20.600308 L33.599769,15.799692 C33.0895271,15.1193695 31.9821338,14.121661 31.2519472,13.6835491 L24.6900698,9.74642262 C24.3731196,9.55625252 23.6266447,9.55639395 23.3099302,9.74642262 L16.7480528,13.6835491 C16.019357,14.1207666 14.9079122,15.1227838 14.400231,15.799692 L10.799769,20.600308 C10.3936055,21.1418593 10,22.3215526 10,22.9907951 C10,22.9907951 10.000191,24.6992805 10.0004466,26.9999999 L38,27 Z M10.0008897,31 C10.0013312,35.0007665 10.0017667,39 10.0017433,39 C10.0017433,39 15.7272591,39.0010493 22,39.0025755 L22,31 L10.0008897,31 Z M6,39.0092049 L6,22.9907951 C6,21.4556704 6.67455738,19.4339235 7.59976899,18.200308 L11.200231,13.399692 C12.018536,12.3086186 13.5178858,10.9568878 14.6900698,10.2535774 L21.2519472,6.31645092 C22.8351414,5.36653439 25.1641231,5.36609313 26.7480528,6.31645092 L33.3099302,10.2535774 C34.4832255,10.9575546 35.9786358,12.3048477 36.799769,13.399692 L40.400231,18.200308 C41.3209138,19.4278851 42,21.4628504 42,22.9907951 L42,39.0092049 C42,41.2170357 40.2115295,43 37.9982567,43 L10.0017433,43 C7.795415,43 6,41.210128 6,39.0092049 Z M19,18.9979131 C19,17.8944962 19.8874333,17 20.999615,17 L27.000385,17 C28.1047419,17 29,17.8982606 29,18.9979131 L29,21.0020869 C29,22.1055038 28.1125667,23 27.000385,23 L20.999615,23 C19.8952581,23 19,22.1017394 19,21.0020869 L19,18.9979131 Z" id="Combined-Shape"></path>
                </g>
            </g>
        </g>
    </g>
</svg>