<?xml version="1.0" encoding="UTF-8"?>
<svg width="48px" height="48px" viewBox="0 0 48 48" version="1.1" xmlns="http://www.w3.org/2000/svg" xmlns:xlink="http://www.w3.org/1999/xlink">
    <!-- Generator: Sketch 49.3 (51167) - http://www.bohemiancoding.com/sketch -->
    <title>theicons.co/svg/city-14</title>
    <desc>Created with Sketch.</desc>
    <defs></defs>
    <g id="The-Icons" stroke="none" stroke-width="1" fill="none" fill-rule="evenodd">
        <g id="v-1.5" transform="translate(-1536.000000, -96.000000)" fill="#000000">
            <g id="City" transform="translate(96.000000, 96.000000)">
                <g id="Statue-of-Liberty" transform="translate(1440.000000, 0.000000)">
                    <path d="M20.1246036,18.1432606 C20.646447,17.8092878 21.2117455,17.5398723 21.8083011,17.346653 C20.7192082,16.6319644 20,15.3999722 20,14 C20,13.6416813 20.0471145,13.2943669 20.1354865,12.9639136 L18.5857864,11.4142136 C17.8047379,10.633165 17.8047379,9.36683502 18.5857864,8.58578644 C19.366835,7.80473785 20.633165,7.80473785 21.4142136,8.58578644 L22,9.17157288 L22,7.99810135 C22,6.89458045 22.8877296,6 24,6 C25.1045695,6 26,6.88670635 26,7.99810135 L26,9.17157288 L26.5857864,8.58578644 C27.366835,7.80473785 28.633165,7.80473785 29.4142136,8.58578644 C30.1952621,9.36683502 30.1952621,10.633165 29.4142136,11.4142136 L27.8645135,12.9639136 C27.9528855,13.2943669 28,13.6416813 28,14 C28,15.3996057 27.2811683,16.6313193 26.1925542,17.3460916 C29.0267814,18.2627323 31.1498841,20.8969853 31.2692971,24.001725 L31.4056441,27.5467472 C32.1955634,26.7773388 33.435147,26.8229266 34.1709581,27.6401277 L35.5120121,29.129519 C36.2503422,29.9495176 36.1899257,31.2075802 35.3639983,31.9512486 L31.7018709,35.2486429 L31.8461538,39 L37.9982567,39 C39.103789,39 40,39.8877296 40,41 C40,42.1045695 39.1107383,43 37.9982567,43 L10.0017433,43 C8.89621101,43 8,42.1122704 8,41 C8,39.8954305 8.88926172,39 10.0017433,39 L16.1538462,39 L16.71403,24.4352199 C14.5405011,22.5612792 11.5571838,18.7924216 11.0618415,12 C9.89458045,12 9,11.1122704 9,10 C9,8.92820392 9.83486847,8.05332032 10.8997843,8.00234696 C10.3749055,7.53480245 10.0301514,6.88414526 10.0301514,6.0123291 C10.0301514,4.35241709 11.4203689,3.87143206 11.9239502,2.98339842 C12.5031321,1.96204783 12.5342859,1.48975068 12.5342859,1.48975068 C12.6802192,0.962797286 13.0892535,0.839959611 13.4717549,1.22231792 C13.4717549,1.22231792 17.6895488,4.8720509 15.0670664,8.00103478 C16.1404247,8.03517134 17,8.90970848 17,10 C17,11.0697771 16.168274,11.9433828 15.1062315,11.9973562 C15.4391014,13.7340124 16.5690683,16.2641815 20.1246036,18.1432606 Z M20.1568036,39 L27.8431964,39 L27.4660567,29.1943681 C26.6115117,29.7014331 25.6701308,30.1125522 24.7057317,30.4187037 C24.5406318,30.4711152 23.7641305,30.7004704 23.5487049,30.768695 C23.1069976,30.9085823 22.7433501,31.0435874 22.4095901,31.1969757 C21.3333547,31.6915884 20.678506,32.3248376 20.3757488,33.3074265 L20.1568036,39 Z M20.7392376,27.56243 C21.242314,27.3312278 21.753857,27.1413162 22.3410335,26.9553592 C22.6064784,26.8712937 23.3812218,26.6424577 23.4954401,26.6061987 C25.2966804,26.0343894 27.0455753,24.736199 27.2344001,23.7773448 C26.9833069,22.2307025 25.5877581,21 24,21 C22.2886587,21 20.7937734,22.4387853 20.7277476,24.1554574 L20.5940935,27.6304636 C20.6421513,27.6074901 20.6905338,27.5848131 20.7392376,27.56243 Z" id="Combined-Shape"></path>
                </g>
            </g>
        </g>
    </g>
</svg>