<?xml version="1.0" encoding="UTF-8"?>
<svg width="48px" height="48px" viewBox="0 0 48 48" version="1.1" xmlns="http://www.w3.org/2000/svg" xmlns:xlink="http://www.w3.org/1999/xlink">
    <!-- Generator: Sketch 49.3 (51167) - http://www.bohemiancoding.com/sketch -->
    <title>theicons.co/svg/city-13</title>
    <desc>Created with Sketch.</desc>
    <defs></defs>
    <g id="The-Icons" stroke="none" stroke-width="1" fill="none" fill-rule="evenodd">
        <g id="v-1.5" transform="translate(-1440.000000, -96.000000)" fill="#000000">
            <g id="City" transform="translate(96.000000, 96.000000)">
                <g id="Big-Ben" transform="translate(1344.000000, 0.000000)">
                    <path d="M22,9 L22,6.99961498 C22,5.89525812 22.8877296,5 24,5 C25.1045695,5 26,5.88743329 26,6.99961498 L26,25.0049107 C26,26.1067681 25.1017876,27 24.0092049,27 L24,29 L30,29 L30,26.9950893 C30,25.8932319 30.8877296,25 32,25 C33.1045695,25 34,25.8926228 34,26.9950893 L34,29 L40,29 L40,26.9950893 C40,25.8932319 40.8877296,25 42,25 C43.1045695,25 44,25.8926228 44,26.9950893 L44,41.0049107 C44,41.5557911 43.7781065,42.0545242 43.4171964,42.4155569 C43.0536451,42.7768054 42.5543777,43 42.0002927,43 L9.99970728,43 C9.44902666,43 8.95033511,42.7792903 8.58869864,42.4200855 C8.22381808,42.0531071 8,41.555448 8,41.0092049 L8,27 C6.89130934,27 6,26.1073772 6,25.0049107 L6,6.99961498 C6,5.89525812 6.88772964,5 8,5 C9.1045695,5 10,5.88743329 10,6.99961498 L10,9 L11.0909091,9 L15.0426477,1.75514595 C15.5713788,0.785805608 16.4315052,0.791092873 16.9573523,1.75514595 L20.9090909,9 L22,9 Z M12,39 L14,39 L14,27 L12,27 L12,39 Z M18,39 L20,39 L20,27 L18,27 L18,39 Z M30,33 L24,33 L24,39 L30,39 L30,33 Z M40,33 L34,33 L34,39 L40,39 L40,33 Z M10,13 L10,23 L22,23 L22,13 L10,13 Z M16,21 C14.3431458,21 13,19.6568542 13,18 C13,16.3431458 14.3431458,15 16,15 C17.6568542,15 19,16.3431458 19,18 C19,19.6568542 17.6568542,21 16,21 Z" id="Combined-Shape"></path>
                </g>
            </g>
        </g>
    </g>
</svg>