<?xml version="1.0" encoding="UTF-8"?>
<svg width="48px" height="48px" viewBox="0 0 48 48" version="1.1" xmlns="http://www.w3.org/2000/svg" xmlns:xlink="http://www.w3.org/1999/xlink">
    <!-- Generator: Sketch 49.3 (51167) - http://www.bohemiancoding.com/sketch -->
    <title>theicons.co/svg/city-16</title>
    <desc>Created with Sketch.</desc>
    <defs></defs>
    <g id="The-Icons" stroke="none" stroke-width="1" fill="none" fill-rule="evenodd">
        <g id="v-1.5" transform="translate(-1728.000000, -96.000000)" fill="#000000">
            <g id="City" transform="translate(96.000000, 96.000000)">
                <g id="Pisa" transform="translate(1632.000000, 0.000000)">
                    <path d="M12.1081424,26.7292583 C11.0703538,26.3505416 10.5325783,25.2104762 10.9127972,24.1658334 C11.2903849,23.1284199 12.4312773,22.5911551 13.4762225,22.9704892 L16.2123841,15.4529469 C15.1745956,15.0742302 14.63682,13.9341648 15.0170389,12.889522 C15.3948239,11.8515662 16.5367119,11.3142822 17.5821026,11.6947733 L20.3995423,12.7202375 L23.1357035,5.20269649 C22.0964875,4.8244528 21.5599396,3.68446321 21.9403585,2.63927096 C22.3181435,1.60131515 23.4654038,1.06598652 24.5009693,1.44290154 L45.1798364,8.96939363 C46.2162377,9.34661285 46.7527855,10.4866024 46.3723667,11.5317947 C45.9945816,12.5697505 44.8473213,13.1050791 43.8117558,12.7281641 L41.07278,20.2446806 L43.8902197,21.2701448 C44.9290802,21.6482591 45.4676217,22.7889743 45.0872028,23.8341666 C44.7096151,24.8715801 43.5687227,25.4088449 42.5237775,25.0295108 L39.7876159,32.5470531 C40.8254044,32.9257698 41.36318,34.0658352 40.9829611,35.110478 C40.6053734,36.1478916 39.464481,36.6851563 38.4195358,36.3058223 L37.4389353,39 L42.0025078,39 C43.1056923,39 44,39.8877296 44,41 C44,42.1045695 43.1033397,43 42.0025078,43 L3.99749218,43 C2.89430771,43 2,42.1122704 2,41 C2,39.8954305 2.89666034,39 3.99749218,39 L7.64195767,39 L12.1081424,26.7292583 Z M26.037698,14.7723583 L27.406428,11.0118037 C27.7838544,9.97483324 28.9240119,9.43782401 29.9692041,9.81824288 C31.00716,10.1960279 31.545318,11.3355146 31.1651985,12.3798843 L29.7964685,16.1404389 L31.6758538,16.8244792 L33.0445837,13.0639245 C33.4220101,12.0269541 34.5621676,11.4899449 35.6073599,11.8703637 C36.6453157,12.2481488 37.1834737,13.3876354 36.8033542,14.4320051 L35.4346243,18.1925598 L37.3140095,18.8766 L40.0470394,11.3676622 L26.9005535,6.57298984 L24.1603393,14.0890556 L26.037698,14.7723583 Z M30.3906899,29.1268511 L31.7589022,25.3677188 C32.1366145,24.3299628 33.2770038,23.7923168 34.322196,24.1727356 C35.3601518,24.5505206 35.8980612,25.6906904 35.5176726,26.7357993 L34.1494604,30.4949316 L36.0288456,31.1789719 L38.7637543,23.6648722 L20.0079758,16.83443 L17.2718147,24.351971 L19.1143785,25.0226093 L20.4825907,21.2634771 C20.860303,20.2257211 22.0006923,19.688075 23.0458846,20.0684939 C24.0838404,20.4462789 24.6217497,21.5864487 24.2413612,22.6315576 L22.8731489,26.3906899 L24.7525342,27.0747302 L26.1207464,23.3155979 C26.4984587,22.2778419 27.638848,21.7401959 28.6840403,22.1206148 C29.7219961,22.4983998 30.2599055,23.6385696 29.8795169,24.6836785 L28.5113047,28.4428108 L30.3906899,29.1268511 Z M11.9403681,39 L14.0270243,39 L16.3778828,32.5410694 C16.7558526,31.502606 17.8964506,30.9643865 18.9416428,31.3448053 C19.9795986,31.7225904 20.517508,32.8627601 20.1371195,33.9078691 L18.2837354,39 L20.4120909,39 L22.0186876,34.5859119 C22.3951943,33.5514682 23.5346063,33.0165073 24.5797986,33.3969262 C25.6177544,33.7747112 26.155591,34.915081 25.7776316,35.9535157 L24.668802,39 L26.7971576,39 L27.6546586,36.6440353 C28.0323719,35.6062765 29.172762,35.0686282 30.2179543,35.4490471 C31.2559101,35.8268321 31.790254,36.9767979 31.4154294,38.0066202 L31.0538687,39 L33.1822242,39 L34.6607651,34.9377424 L15.9037341,28.1107414 L11.9403681,39 Z" id="Combined-Shape"></path>
                </g>
            </g>
        </g>
    </g>
</svg>