<?xml version="1.0" encoding="UTF-8"?>
<svg width="48px" height="48px" viewBox="0 0 48 48" version="1.1" xmlns="http://www.w3.org/2000/svg" xmlns:xlink="http://www.w3.org/1999/xlink">
    <!-- Generator: Sketch 49.3 (51167) - http://www.bohemiancoding.com/sketch -->
    <title>theicons.co/svg/city-03</title>
    <desc>Created with Sketch.</desc>
    <defs></defs>
    <g id="The-Icons" stroke="none" stroke-width="1" fill="none" fill-rule="evenodd">
        <g id="v-1.5" transform="translate(-480.000000, -96.000000)" fill="#000000">
            <g id="City" transform="translate(96.000000, 96.000000)">
                <g id="Shop" transform="translate(384.000000, 0.000000)">
                    <path d="M18,23.000385 C18,24.1047419 17.1122704,25 16,25 C14.8954305,25 14,24.1125667 14,23.000385 L12,23 L12,39 L20.0000083,39 L20,38.9941413 L20,29.0058587 C20,27.8980535 20.8867064,27 21.9981014,27 L26.0018986,27 C27.1054196,27 28,27.8970601 28,29.0058587 L28,38.9941413 L27.9999917,39 L36,39 L36,23 L34,23 C34,24.1047419 33.1122704,25 32,25 C30.8954305,25 30,24.1125667 30,23.000385 L26,23 C26,24.1047419 25.1122704,25 24,25 C22.8954305,25 22,24.1125667 22,23.000385 L18,23 L18,23.000385 Z M18,19 L22,19 L22,16.999615 C22,15.8952581 22.8877296,15 24,15 C25.1045695,15 26,15.8874333 26,16.999615 L26,19 L30,19 L30,16.999615 C30,15.8952581 30.8877296,15 32,15 C33.1045695,15 34,15.8874333 34,16.999615 L34,19 L36.55178,19 C38.2576077,19 38.8166292,18.2313057 38.2921197,16.5976787 L36.4935303,11 L11.4488566,11 L9.70851684,16.5976787 C9.18455777,18.2295913 9.7452702,19 11.4488565,19 L14,19 L14,16.999615 C14,15.8952581 14.8877296,15 16,15 C17.1045695,15 18,15.8874333 18,16.999615 L18,19 L18,19 Z M40,22.1227227 L40,40.9950534 C40,42.1023548 39.1107383,43 37.9982567,43 L10.0017433,43 C8.89621101,43 8,42.1029738 8,40.9950534 L8,22.1212153 C5.87326938,20.8431534 4.96017025,18.3020705 5.90000555,15.3748779 L7.97946288,8.89824104 C8.31606347,7.84987146 9.47815687,7 10.5875512,7 L37.4130854,7 C38.5168922,7 39.6878987,7.86022949 40.0211737,8.89824104 L42.100631,15.3748779 C43.0406415,18.3026161 42.1289108,20.8449676 40,22.1227227 L40,22.1227227 Z" id="Combined-Shape"></path>
                </g>
            </g>
        </g>
    </g>
</svg>