<?xml version="1.0" encoding="UTF-8"?>
<svg width="48px" height="48px" viewBox="0 0 48 48" version="1.1" xmlns="http://www.w3.org/2000/svg" xmlns:xlink="http://www.w3.org/1999/xlink">
    <!-- Generator: Sketch 49.3 (51167) - http://www.bohemiancoding.com/sketch -->
    <title>theicons.co/svg/city-12</title>
    <desc>Created with Sketch.</desc>
    <defs></defs>
    <g id="The-Icons" stroke="none" stroke-width="1" fill="none" fill-rule="evenodd">
        <g id="v-1.5" transform="translate(-1344.000000, -96.000000)" fill="#000000">
            <g id="City" transform="translate(96.000000, 96.000000)">
                <g id="Theatre" transform="translate(1248.000000, 0.000000)">
                    <path d="M22,39 L22,33.0085302 C22,31.8992496 22.8877296,31 24,31 C25.1045695,31 26,31.9019504 26,33.0085302 L26,39 L30,39 L30,25 L18,25 L18,39 L22,39 Z M6,24.4651864 C4.80439617,23.7735338 4,22.4793909 4,20.990237 L4,18.9661243 C1.54211148,18.7268115 1.2737586,17.3321853 3.77747487,15.6430612 L22.3464567,3.11555763 C23.2596834,2.49945216 24.739985,2.4996984 25.6522017,3.1157018 L44.206118,15.6448244 C46.7075394,17.3339888 46.5474119,18.7318858 44,18.9687148 L44,20.990237 C44,22.4733889 43.1942195,23.7684655 42,24.4621256 L42,39 L45.9986107,39 C47.1039475,39 48,39.8877296 48,41 C48,42.1045695 47.1050616,43 45.9986107,43 L2.00138927,43 C0.896052496,43 0,42.1122704 0,41 C0,39.8954305 0.894938439,39 2.00138927,39 L6,39 L6,24.4651864 Z M22,12.9981014 C22,11.8945804 22.8877296,11 24,11 C25.1045695,11 26,11.8867064 26,12.9981014 L26,15 L35.9945126,15 L24,6.83615464 L12.0036716,15 L22,15 L22,12.9981014 Z M10,25 L10,39 L14,39 L14,25 L10,25 Z M34,25 L34,39 L38,39 L38,25 L34,25 Z M8,19 L8,21 L40,21 L40,19 L8,19 Z" id="Combined-Shape"></path>
                </g>
            </g>
        </g>
    </g>
</svg>