<?xml version="1.0" encoding="UTF-8"?>
<svg width="48px" height="48px" viewBox="0 0 48 48" version="1.1" xmlns="http://www.w3.org/2000/svg" xmlns:xlink="http://www.w3.org/1999/xlink">
    <!-- Generator: Sketch 49.3 (51167) - http://www.bohemiancoding.com/sketch -->
    <title>theicons.co/svg/city-01</title>
    <desc>Created with Sketch.</desc>
    <defs></defs>
    <g id="The-Icons" stroke="none" stroke-width="1" fill="none" fill-rule="evenodd">
        <g id="v-1.5" transform="translate(-192.000000, -96.000000)" fill="#000000">
            <g id="City" transform="translate(96.000000, 96.000000)">
                <g id="Home" transform="translate(96.000000, 0.000000)">
                    <path d="M36,28 L36,35 L38.0020869,35 C39.1055038,35 40,35.8982606 40,36.9979131 L40,39 L41.9914698,39 C43.1007504,39 44,39.8877296 44,41 C44,42.1045695 43.0980496,43 41.9914698,43 L12.3889542,43 C10.0394728,43 8,41.2963686 8,39.0092049 L8,26.5295059 L7.80049913,26.7632941 C7.08365344,27.6036547 5.82128828,27.7037834 4.98092762,26.9869377 C4.14056696,26.270092 4.0404383,25.0077268 4.75728399,24.1673662 L19.1846659,7.25430108 C20.6909913,5.44671054 23.3069739,5.44426876 24.8004991,7.23670593 L39.0999491,24 L42.007983,24 C43.1081436,24 44,24.8877296 44,26 C44,27.1045695 43.0998238,28 42.007983,28 L36,28 L36,28 Z M32.0056405,21.8486544 L22,10.1233908 L11.9943595,21.8486544 C11.9980974,21.8986137 12,21.9490847 12,22 L12,39.0092049 L32,39.0092049 L32,22 C32,21.9490847 32.0019026,21.8986137 32.0056405,21.8486544 L32.0056405,21.8486544 Z M18,25.9981014 C18,24.8945804 18.8867064,24 19.9981014,24 L24.0018986,24 C25.1054196,24 26,24.8867064 26,25.9981014 L26,30.0018986 C26,31.1054196 25.1132936,32 24.0018986,32 L19.9981014,32 C18.8945804,32 18,31.1132936 18,30.0018986 L18,25.9981014 Z" id="Combined-Shape"></path>
                </g>
            </g>
        </g>
    </g>
</svg>