<?xml version="1.0" encoding="UTF-8"?>
<svg width="48px" height="48px" viewBox="0 0 48 48" version="1.1" xmlns="http://www.w3.org/2000/svg" xmlns:xlink="http://www.w3.org/1999/xlink">
    <!-- Generator: Sketch 49.3 (51167) - http://www.bohemiancoding.com/sketch -->
    <title>theicons.co/svg/city-06</title>
    <desc>Created with Sketch.</desc>
    <defs></defs>
    <g id="The-Icons" stroke="none" stroke-width="1" fill="none" fill-rule="evenodd">
        <g id="v-1.5" transform="translate(-768.000000, -96.000000)" fill="#000000">
            <g id="City" transform="translate(96.000000, 96.000000)">
                <g id="Fabric" transform="translate(672.000000, 0.000000)">
                    <path d="M42.0059397,43 L6.00585866,43 C4.89805351,43 4.04746583,42.0981492 4.10471275,41.0104577 L5.89528725,6.98954234 C5.9531185,5.89074844 6.88743329,5 7.99961498,5 L14.000385,5 C15.1047419,5 16.0474658,5.90185079 16.1047128,6.98954234 L16.8541123,21.2281336 L30.1332829,15.7000189 C31.1642423,15.3134091 32,15.8970262 32,17.0049466 L32,19.5 L42.1332829,15.7000189 C43.1642423,15.3134091 44,15.8998975 44,16.9912443 L44,41.0087557 C44,42.1084896 43.1054862,43 42.0059397,43 Z M40,39.0395508 L40.0087318,20.7687275 L32,23.7720019 L32,39.0079102 L40,39.0395508 Z M17.789125,38.9933752 L28,38.9555664 L28.0044174,20.9190339 L17.0772634,25.4680048 L17.789125,38.9933752 Z M12.1591797,9 L9.79502596,8.99969709 L9.49225854,15 L12.4928223,15 L12.1591797,9 Z M9.29042378,19 L8.28125,39 L13.8273926,39 L12.7152507,19 L9.29042378,19 Z M34,28.9981014 C34,27.8945804 34.8877296,27 36,27 C37.1045695,27 38,27.8867064 38,28.9981014 L38,33.0018986 C38,34.1054196 37.1122704,35 36,35 C34.8954305,35 34,34.1132936 34,33.0018986 L34,28.9981014 Z M22,28.9981014 C22,27.8945804 22.8877296,27 24,27 C25.1045695,27 26,27.8867064 26,28.9981014 L26,33.0018986 C26,34.1054196 25.1122704,35 24,35 C22.8954305,35 22,34.1132936 22,33.0018986 L22,28.9981014 Z" id="Combined-Shape"></path>
                </g>
            </g>
        </g>
    </g>
</svg>