<?xml version="1.0" encoding="UTF-8"?>
<svg width="48px" height="48px" viewBox="0 0 48 48" version="1.1" xmlns="http://www.w3.org/2000/svg" xmlns:xlink="http://www.w3.org/1999/xlink">
    <!-- Generator: Sketch 49.3 (51167) - http://www.bohemiancoding.com/sketch -->
    <title>theicons.co/svg/city-04</title>
    <desc>Created with Sketch.</desc>
    <defs></defs>
    <g id="The-Icons" stroke="none" stroke-width="1" fill="none" fill-rule="evenodd">
        <g id="v-1.5" transform="translate(-576.000000, -96.000000)" fill="#000000">
            <g id="City" transform="translate(96.000000, 96.000000)">
                <g id="Terrace" transform="translate(480.000000, 0.000000)">
                    <path d="M20,39 L15.4142136,43.4142136 C14.633165,44.1952621 13.366835,44.1952621 12.5857864,43.4142136 C11.8047379,42.633165 11.8047379,41.366835 12.5857864,40.5857864 L14.1715729,39 L10.0017433,39 C8.89621101,39 8,38.1122704 8,37 C8,35.8954305 8.88926172,35 10.0017433,35 L16,35 L16,33 C16,31.8954305 16.8945138,31 17.9940603,31 L22,31 L22,24 L18.0012689,24 L17.4012333,23.2011553 C16.8362813,22.4490183 15.95733,22 15,22 C14.04267,22 13.1637187,22.4490183 12.5987667,23.2011553 L11.9987311,24 L7.72431254,24 C5.17471309,24 3.68493082,21.6719583 4.74714611,19.346492 L4.66152943,19.5678136 C4.80115052,19.1315713 5.08456645,18.4560833 5.54610966,17.6203525 C6.29420881,16.2657459 7.28871409,14.9182331 8.56502165,13.6628665 C11.8035438,10.4774804 16.2494703,8.44535724 22,8.06496218 L22,5.99810135 C22,4.89458045 22.8877296,4 24,4 C25.1045695,4 26,4.88670635 26,5.99810135 L26,8.0645036 C31.7538954,8.44372134 36.2020979,10.4761981 39.4419237,13.6628665 C40.7182313,14.9182331 41.7127365,16.2657459 42.4608357,17.6203525 C42.9223789,18.4560833 43.2057948,19.1315713 43.3454159,19.5678136 L43.2335559,19.2912866 C44.3880453,21.6271226 42.8555493,24 40.2826328,24 L36.0012689,24 L35.4012333,23.2011553 C34.8362813,22.4490183 33.95733,22 33,22 C32.04267,22 31.1637187,22.4490183 30.5987667,23.2011553 L29.9987311,24 L26,24 L26,31 L30.0059397,31 C31.1072288,31 32,31.8877296 32,33 L32,35 L37.9982567,35 C39.103789,35 40,35.8877296 40,37 C40,38.1045695 39.1107383,39 37.9982567,39 L33.8284271,39 L35.4142136,40.5857864 C36.1952621,41.366835 36.1952621,42.633165 35.4142136,43.4142136 C34.633165,44.1952621 33.366835,44.1952621 32.5857864,43.4142136 L28,39 L19.7326237,39 L20,39 Z M19.9182907,20.0186448 C20.191467,20 27.7962643,20 28.1115,20 C29.3995634,18.7318839 31.140267,18 33,18 C34.8816945,18 36.6415317,18.7492715 37.9339421,20.0341563 C38.0692718,20.0172414 39.1948947,20.0043932 39.1948947,20.0043932 C39.1948947,20.0043932 39.2881818,20.1495826 38.9593234,19.5541083 C38.3900864,18.5233731 37.6241372,17.4855442 36.6369882,16.5145917 C33.7751455,13.6997047 29.6789666,12 24.0034727,12 C18.3279788,12 14.2317999,13.6997047 11.3699572,16.5145917 C10.3828081,17.4855442 9.61685892,18.5233731 9.04762197,19.5541083 C8.96093983,19.7110664 8.81737676,19.9906261 8.81737676,19.9906261 C8.81737676,19.9906261 9.7746582,20 10.1655884,20 C11.4372215,18.8295341 13.2113819,18 15,18 C16.8741096,18 18.6273424,18.7432432 19.9182907,20.0186448 Z" id="Combined-Shape"></path>
                </g>
            </g>
        </g>
    </g>
</svg>