<?xml version="1.0" encoding="UTF-8"?>
<svg width="48px" height="48px" viewBox="0 0 48 48" version="1.1" xmlns="http://www.w3.org/2000/svg" xmlns:xlink="http://www.w3.org/1999/xlink">
    <!-- Generator: Sketch 49.3 (51167) - http://www.bohemiancoding.com/sketch -->
    <title>theicons.co/svg/clothes-12</title>
    <desc>Created with Sketch.</desc>
    <defs></defs>
    <g id="The-Icons" stroke="none" stroke-width="1" fill="none" fill-rule="evenodd">
        <g id="v-1.5" transform="translate(-1440.000000, -960.000000)" fill="#000000">
            <g id="Clothes" transform="translate(96.000000, 960.000000)">
                <g id="Shoe" transform="translate(1344.000000, 0.000000)">
                    <path d="M26.0213874,25.7117309 C25.0212578,26.178099 23.8353218,25.7516087 23.3652561,24.7435495 C22.8984448,23.7424695 23.3236484,22.5561956 24.3309143,22.0864998 L27.0178971,20.8335391 C26.6472479,20.088961 26.2270871,19.2483126 25.7884926,18.372768 L23.0309002,19.6586545 C22.0307706,20.1250226 20.8448346,19.6985323 20.3747689,18.690473 C19.9079576,17.6893931 20.3331612,16.5031192 21.3404271,16.0334234 L23.9929042,14.796553 C22.6754652,12.1774519 21.5757474,9.99983721 21.5757474,9.99983721 L9.40777085,9.99537975 C9.40777085,9.99537975 8.98378683,12.7568513 8.803064,14.0502785 C8.69570438,14.8186478 8.59622677,15.5634499 8.50621702,16.276761 C8.18274625,18.8402086 8,20.8596527 8,22 C8,25.2225409 8.00724251,24.9436754 8.00724251,24.9436754 L19.0847329,27.6413052 C21.6659541,28.2698934 23.8676119,30.5594558 24.3923982,33.160841 L25.3720703,38 L37.9998726,38 C39.1055378,38 40.0000003,37.106325 40.0000003,36.0053982 C40.0000003,35.9964068 40.0161705,32.6169541 40.0161705,32.6169541 C40.0161705,32.6169541 39.7778956,32.3967944 39.604582,32.2580957 C38.8693845,31.6697347 37.9350653,31.0910116 35.9526242,29.961772 C34.7814382,29.2946401 34.5778722,29.1779074 34.0752435,28.8807608 C31.3906765,27.2936848 29.7798983,26.0810074 28.7935412,24.4190544 L26.0213874,25.7117309 Z M15.9999999,31.0069993 L15.9999999,39.9938395 C15.9999999,41.1018113 15.0980495,41.9999999 13.9914697,41.9999999 L6.00853018,41.9999999 C4.89924959,41.9999999 4,41.1017876 4,40.0092048 L4,22 C4,18.0314941 5.68309404,7.96989855 5.68309404,7.96989855 C5.85811635,6.88195359 6.89346367,5.99999995 7.99696874,5.99999995 L22.0199881,5.99999994 C23.1228835,5.99999994 24.4310703,6.80264858 24.9307227,7.77338981 C24.9307227,7.77338981 30.5529782,18.6413573 32.0395512,21.9999999 C33.5261242,25.3586425 43.9999988,28.2539063 43.9999996,32 C44.0000003,35.7460936 43.9999999,36.0054045 43.9999999,36.0054045 C43.9999997,39.3161282 41.314013,41.9999999 37.9998723,41.9999999 L24.0969655,41.9999999 C22.9912942,41.9999999 21.9159456,41.1125667 21.7012192,40.0481602 L20.4713878,33.9518397 C20.253925,32.8738683 19.213233,31.7894973 18.1382979,31.5277253 L15.9999999,31.0069993 Z M8.00695252,29.0605041 L8.0291748,38 L12.0338135,38 L12.0074314,30.0347149 L8.00695252,29.0605041 Z" id="Rectangle-714"></path>
                </g>
            </g>
        </g>
    </g>
</svg>