<?xml version="1.0" encoding="UTF-8"?>
<svg width="48px" height="48px" viewBox="0 0 48 48" version="1.1" xmlns="http://www.w3.org/2000/svg" xmlns:xlink="http://www.w3.org/1999/xlink">
    <!-- Generator: Sketch 49.3 (51167) - http://www.bohemiancoding.com/sketch -->
    <title>theicons.co/svg/clothes-03</title>
    <desc>Created with Sketch.</desc>
    <defs></defs>
    <g id="The-Icons" stroke="none" stroke-width="1" fill="none" fill-rule="evenodd">
        <g id="v-1.5" transform="translate(-384.000000, -960.000000)" fill="#000000">
            <g id="Clothes" transform="translate(96.000000, 960.000000)">
                <g id="Sweetshot" transform="translate(288.000000, 0.000000)">
                    <path d="M10,34 L10,27.0085302 C10,25.8992496 10.8877296,25 12,25 C13.1045695,25 14,25.9019504 14,27.0085302 L14.0042725,38 L34,38.0196533 L34,27.0085302 C34,25.8992496 34.8877296,25 36,25 C37.1045695,25 38,25.9019504 38,27.0085302 L38,33.9988928 L41.9241489,33.9945733 C41.9241489,33.9945733 41.784332,27.9468508 41.6741636,26.2445619 C41.5218186,23.8905733 41.3195614,21.9938848 41.081762,20.8048878 C40.9419581,20.1058684 40.5175862,18.9635983 39.8730517,17.5745413 C39.6143581,17.0170225 36.5554216,11.4580598 36.5554216,11.4580598 C36.1696659,10.7887339 34.7941576,10 34.0031611,10 C34.0031611,10 33,9.99254441 32.0747615,9.97924457 C30.6060435,12.9539236 27.5419651,15 24,15 C20.463316,15 17.4030948,12.9600206 15.9318188,9.99254437 C15.1300049,9.99254441 13.9968389,10 13.9968389,10 C13.2131443,10 11.8301092,10.7929638 11.4333804,11.4710555 C11.4333804,11.4710555 8.39118848,16.9901936 8.13308894,17.5453031 C7.48920266,18.9301464 7.0655197,20.0684796 6.92663272,20.7629144 C6.68805378,21.9558091 6.48485876,23.8543389 6.33133136,26.2094508 C6.2201026,27.9157011 6.0357666,34 6.0357666,34 L10,34 Z M17.9995604,6 C18.5520879,6 19.1035971,6.42629719 19.2713474,6.96405029 C19.2713474,6.96405029 19.9387211,11 24,11 C28.0612789,11 28.7327409,6.95223077 28.7327409,6.95223077 C28.880344,6.42632824 29.4439972,6 30.0004396,6 L34.0031611,6 C36.2105543,6 38.9143105,7.54039956 40.0210463,9.4607001 C40.0210463,9.4607001 44.2641882,16.3209409 45.0040847,20.0204233 C45.8714975,24.3574876 45.9642285,36.0170339 45.9642285,36.0170339 C45.9839846,37.1121958 45.1132936,38.0002435 44.0018986,38.0005488 L38,38.0021973 L38,40.0028185 C38,41.1058314 37.1001025,42 36.0087557,42 L11.9912443,42 C10.8915104,42 10,41.1017394 10,40.0020869 L10,38 L3.99810135,38 C2.89458045,38 2.01420313,37.1021965 2.03705573,35.9982951 C2.03705573,35.9982951 2.13409893,24.3295053 3.00431002,19.9784499 C3.74140827,16.2929586 7.98087205,9.45110852 7.98087205,9.45110852 C9.09600562,7.54511391 11.7941203,6 13.9968389,6 L17.9995604,6 Z M24,21 C24,19.8954305 24.8867064,19 25.9981014,19 L30.0018986,19 C31.1054196,19 32,19.8877296 32,21 C32,22.1045695 31.1132936,23 30.0018986,23 L25.9981014,23 C24.8945804,23 24,22.1122704 24,21 Z" id="Path"></path>
                </g>
            </g>
        </g>
    </g>
</svg>