<?xml version="1.0" encoding="UTF-8"?>
<svg width="48px" height="48px" viewBox="0 0 48 48" version="1.1" xmlns="http://www.w3.org/2000/svg" xmlns:xlink="http://www.w3.org/1999/xlink">
    <!-- Generator: Sketch 49.3 (51167) - http://www.bohemiancoding.com/sketch -->
    <title>theicons.co/svg/clothes-25</title>
    <desc>Created with Sketch.</desc>
    <defs></defs>
    <g id="The-Icons" stroke="none" stroke-width="1" fill="none" fill-rule="evenodd">
        <g id="v-1.5" transform="translate(-960.000000, -1056.000000)">
            <g id="Clothes" transform="translate(96.000000, 960.000000)" fill="#000000">
                <g id="Lipstick" transform="translate(864.000000, 96.000000)">
                    <path d="M18,28 L18,24 L10,24 L10,28 L18,28 Z M18,32 L10,32 L10,40 L18,40 L18,32 Z M8,12.992017 C8,11.2037469 9.12103706,9.19085656 10.6365964,8.24363199 L16.9400021,4.30400339 C18.2720981,3.47144338 20,4.42912892 20,6 L20,20 C21.1072288,20 22,20.8970262 22,22.0049466 L22,40.009947 C22,42.2135924 20.2111696,44 18.0037973,44 L9.99620271,44 C7.78916089,44 6,42.2157067 6,40.009947 L6,22.0049466 C6,20.8976452 6.89451376,20 7.99406028,20 L8,12.992017 Z M16,20 L16,9.62585449 L12.7565921,11.6356252 C12.4079417,11.8535317 12,12.5860159 12,12.992017 L12,20 L16,20 Z M26,42.0049107 L26,29.9947834 C26,27.7917156 27.7891609,26 29.9962027,26 L38.0037973,26 C40.2111696,26 42,27.7885255 42,29.9947834 L42,42.0049107 C42,43.1073772 41.1072288,44 40.0059397,44 L27.9940603,44 C26.8945138,44 26,43.1067681 26,42.0049107 Z M30,30 L30,40 L38,40 L38,30 L30,30 Z" id="Combined-Shape"></path>
                </g>
            </g>
            <g id="Others" transform="translate(96.000000, 1056.000000)"></g>
        </g>
    </g>
</svg>