<?xml version="1.0" encoding="UTF-8"?>
<svg width="48px" height="48px" viewBox="0 0 48 48" version="1.1" xmlns="http://www.w3.org/2000/svg" xmlns:xlink="http://www.w3.org/1999/xlink">
    <!-- Generator: Sketch 49.3 (51167) - http://www.bohemiancoding.com/sketch -->
    <title>theicons.co/svg/clothes-10</title>
    <desc>Created with Sketch.</desc>
    <defs></defs>
    <g id="The-Icons" stroke="none" stroke-width="1" fill="none" fill-rule="evenodd">
        <g id="v-1.5" transform="translate(-1248.000000, -960.000000)" fill="#000000">
            <g id="Clothes" transform="translate(96.000000, 960.000000)">
                <g id="Socks" transform="translate(1152.000000, 0.000000)">
                    <path d="M35,29 C35,26.0237605 37.1670069,23.5536526 40.0092893,23.0814075 C40.0110396,20.9055084 40.0125174,18.3656689 40.0136947,15.9974291 L31.9664965,15.9974291 L31.9664965,24.3245638 L23.1821586,33.1089017 C21.620687,34.6703733 21.6245656,37.1994675 23.2034253,38.7783272 C24.8073466,40.3822485 27.5017064,40.4298398 29.1602263,38.885451 L36.0366164,32.3722202 C35.3823986,31.4111805 35,30.2502472 35,29 Z M40.0154984,11.9982861 C40.0164619,9.64155232 40.0169678,8 40.0169678,8 L31.9664965,8.00939941 L31.9664965,11.9982861 L40.0154984,11.9982861 Z M24.2429009,21.2119379 C23.9789243,21.6919673 23.3199062,22.1735774 22.7754738,22.2794044 L11.3508495,24.5001264 C9.18316716,24.9214811 7.77213107,27.0203642 8.19817794,29.2121853 C8.63098756,31.4387978 10.8381004,32.9849196 13.0766869,32.6319958 C13.0766869,32.6319958 18.7031284,31.6516777 19.3630212,31.4840271 C19.6480695,31.0593117 27.9664965,22.6677095 27.9664965,22.6677095 L27.9664965,14.4407459 L24.2429009,21.2119379 Z M13.699612,36.5831937 C9.33579797,37.2711696 5.11584922,34.318351 4.27166921,29.9754213 C3.4240953,25.6150315 6.25138057,21.4164959 10.5876136,20.5736176 L21.155886,18.5193536 L28.0298493,5.50389989 C28.2523425,4.63895733 29.0349561,4 29.9635953,4 L41.9937786,4 C43.0967458,4 43.9908774,4.89814586 43.9908774,6.00689989 L43.9908774,28.9873157 C43.9908774,29.1820146 43.9908768,30.2804737 42.6974729,31.7454535 L31.8861364,41.8128072 C28.6530819,44.8233789 23.5033906,44.7351467 20.3749982,41.6067543 C18.7957567,40.0275129 18.0095615,37.9627086 18.0151835,35.9028234 L13.699612,36.5831937 Z" id="Shape"></path>
                </g>
            </g>
        </g>
    </g>
</svg>