<?xml version="1.0" encoding="UTF-8"?>
<svg width="48px" height="48px" viewBox="0 0 48 48" version="1.1" xmlns="http://www.w3.org/2000/svg" xmlns:xlink="http://www.w3.org/1999/xlink">
    <!-- Generator: Sketch 49.3 (51167) - http://www.bohemiancoding.com/sketch -->
    <title>theicons.co/svg/clothes-23</title>
    <desc>Created with Sketch.</desc>
    <defs></defs>
    <g id="The-Icons" stroke="none" stroke-width="1" fill="none" fill-rule="evenodd">
        <g id="v-1.5" transform="translate(-672.000000, -1056.000000)">
            <g id="Clothes" transform="translate(96.000000, 960.000000)" fill="#000000" fill-rule="nonzero">
                <g id="Tie" transform="translate(576.000000, 96.000000)">
                    <path d="M21.5671279,17 L26.4384472,17 L27.4349089,13.0141532 L20.5818481,13 L21.5671279,17 Z M31.9140625,39.0117188 C31.9615245,39.5575314 31.6354685,40.2733986 31.2036819,40.5972385 L25.599692,44.800231 C24.7162065,45.4628451 23.2900534,45.46754 22.400308,44.800231 L16.7963181,40.5972385 C16.3565237,40.2673928 16.0381668,39.5610822 16.0859375,39.0117188 L17.8550831,18.6665438 L16.4365837,12.992546 C15.4357969,12.961656 14.6098737,12.9021224 13.6826284,12.7932321 C8.18036359,12.1470784 4.55127696,9.93064694 4.01916016,5.25226691 C3.89433177,4.15477356 4.68283251,3.16388601 5.78032586,3.03905762 C6.87781921,2.91422923 7.86870676,3.70272997 7.99353515,4.80022332 C8.25912958,7.13533405 10.2731039,8.36535046 14.149159,8.82053164 C15.0039857,8.92091748 15.7796824,8.97389956 16.7711826,9 L31.2673916,9 C32.2588918,8.97389956 33.0345885,8.92091748 33.8894152,8.82053164 C37.7654703,8.36535046 39.7794446,7.13533405 40.0450391,4.80022332 C40.1698675,3.70272997 41.160755,2.91422923 42.2582484,3.03905762 C43.3557417,3.16388601 44.1442424,4.15477356 44.0194141,5.25226691 C43.4872973,9.93064694 39.8582106,12.1470784 34.3559459,12.7932321 C33.4167232,12.9035289 32.5814572,12.9631858 31.5631206,12.9937288 L30.1449169,18.6665438 L31.9140625,39.0117188 Z M21.6664754,21.0091183 L20.1855885,38.1383908 L24.0070635,41.0014043 L27.825896,38.1689795 L26.3359667,21 L21.6664754,21.0091183 Z" id="Shape"></path>
                </g>
            </g>
            <g id="Others" transform="translate(96.000000, 1056.000000)"></g>
        </g>
    </g>
</svg>