<?xml version="1.0" encoding="UTF-8"?>
<svg width="48px" height="48px" viewBox="0 0 48 48" version="1.1" xmlns="http://www.w3.org/2000/svg" xmlns:xlink="http://www.w3.org/1999/xlink">
    <!-- Generator: Sketch 49.3 (51167) - http://www.bohemiancoding.com/sketch -->
    <title>theicons.co/svg/clothes-22</title>
    <desc>Created with Sketch.</desc>
    <defs></defs>
    <g id="The-Icons" stroke="none" stroke-width="1" fill="none" fill-rule="evenodd">
        <g id="v-1.5" transform="translate(-576.000000, -1056.000000)">
            <g id="Clothes" transform="translate(96.000000, 960.000000)" fill="#000000">
                <g id="Glasses" transform="translate(480.000000, 96.000000)">
                    <path d="M35.7345241,9.34402983 L45.7295775,26.6559702 C45.9437732,27.0269679 46.027209,27.437225 45.9932233,27.8330387 C45.9977115,27.8880609 46,27.9437432 46,28 C46,29.1045695 45.1132936,30 44.0018986,30 L42,30 L42,33 C42,36.8659932 38.8580054,40 35.005443,40 L32.994557,40 C29.4710247,40 26.556013,37.3860418 26.0709153,33.9988452 C26.0480108,33.999613 21.9981014,34 21.9981014,34 C21.4433099,37.3916997 18.5200641,40 15.005443,40 L12.994557,40 C9.13156983,40 6,36.8581267 6,33 L6,30 L4.45401956,30 C3.97715422,30.111143 3.45909458,30.0484728 3.00207034,29.7846097 C2.36758104,29.4182871 2.01219637,28.7633873 2.00174677,28.0849565 C2,27.5097331 2.17468632,27.0606678 2.46617101,26.7128146 L12.2675462,9.73633468 C12.6036618,9.15416543 13.1864421,8.80405888 13.8064947,8.74209544 C14.5325415,8.43356476 15.4022022,8.57377504 15.9986575,9.17023033 L18.8297697,12.0013425 C19.6100768,12.7816497 19.614921,14.0419332 18.8284271,14.8284271 C18.0473785,15.6094757 16.7872175,15.6156446 16.0013425,14.8297697 L14.6980872,13.5265143 L7.49651684,26 L20.0059397,26 C21.1072288,26 22,26.8970601 22,28.0058587 L22,30 L26,30 L26,28.0058587 C26,26.8980535 26.8945138,26 27.9940603,26 L40.7320508,26 L33.4468189,13.3816082 L31.9986575,14.8297697 C31.2127825,15.6156446 29.9526215,15.6094757 29.1715729,14.8284271 C28.385079,14.0419332 28.3899232,12.7816497 29.1702303,12.0013425 L32.0013425,9.17023033 C32.2736348,8.89793807 32.6028653,8.72073101 32.9493771,8.6378952 C33.9565852,8.0554104 35.1805639,8.38454265 35.7345241,9.34402983 Z M10,33 C10,34.6530947 11.344814,36 12.994557,36 L15.005443,36 C16.6526916,36 18,34.6530299 18,33 L18,30 L10,30 L10,33 Z M30,33 C30,34.6530947 31.344814,36 32.994557,36 L35.005443,36 C36.6526916,36 38,34.6530299 38,33 L38,30 L30,30 L30,33 Z" id="Combined-Shape"></path>
                </g>
            </g>
            <g id="Others" transform="translate(96.000000, 1056.000000)"></g>
        </g>
    </g>
</svg>