<?xml version="1.0" encoding="UTF-8"?>
<svg width="48px" height="48px" viewBox="0 0 48 48" version="1.1" xmlns="http://www.w3.org/2000/svg" xmlns:xlink="http://www.w3.org/1999/xlink">
    <!-- Generator: Sketch 49.3 (51167) - http://www.bohemiancoding.com/sketch -->
    <title>theicons.co/svg/clothes-11</title>
    <desc>Created with Sketch.</desc>
    <defs></defs>
    <g id="The-Icons" stroke="none" stroke-width="1" fill="none" fill-rule="evenodd">
        <g id="v-1.5" transform="translate(-1344.000000, -960.000000)" fill="#000000">
            <g id="Clothes" transform="translate(96.000000, 960.000000)">
                <g id="Sneaker" transform="translate(1248.000000, 0.000000)">
                    <path d="M25.2796897,17.6023176 C25.2358556,17.4929117 24.4706188,15.4399439 24.3711048,14.9964307 C23.9831211,13.2672673 24.2597131,11.6616667 25.3591534,10.0547995 C26.9641626,7.70902686 28.6447668,7.27365719 31.8632127,7.42820162 C32.0261544,7.4360218 32.0955227,7.43927007 32.1830714,7.44306387 C34.3268215,7.53596023 34.9337869,7.23970959 35.7939182,5.07629478 C36.2020031,4.04987358 37.3649001,3.54861298 38.3913213,3.9566979 C39.4177425,4.36478282 39.9190031,5.52767979 39.5109182,6.55410099 C37.9394072,10.5067886 35.7011112,11.599267 32.0098996,11.4393136 C31.9140899,11.4351618 31.8375241,11.4315765 31.6713604,11.4235981 C29.7134726,11.3295835 29.2517809,11.4491873 28.6603779,12.3135418 C28.2039973,12.9805566 28.1233221,13.4488715 28.2740643,14.1206981 C28.373092,14.5620445 28.4055305,14.6489931 28.9927568,16.1146574 C30.0894138,18.8518154 30.4375463,21.0545383 29.7180292,23.6714099 L32.0127227,24.8649132 L32.1468069,24.4965201 C32.5245192,23.4587641 33.6649085,22.921118 34.7101007,23.3015369 C35.7480565,23.6793219 36.2859659,24.8194917 35.9055774,25.8646006 L35.5918777,26.7264834 L42.1804626,30.1533018 C45.192627,31.5102539 46,34.9001762 46,35.992017 L46,38.0000004 C47.1046982,38.0007439 48,38.8881957 48,40 C48,41.1045695 47.1050616,42 45.9986107,42 L2.20238337,42 L2,42.0092049 C0.895301779,41.9992561 0,41.1118043 0,40 C0,38.8958928 0.89418941,38.0007496 2,38.0000005 L2,23.99923 C2,21.7905162 3.79722667,20 6.00779351,20 L7.60351562,20 C8.35644531,20 10,20.3943034 10,21.9941413 C10,23.1029399 10.9650879,24 13,24 C15.0349121,24 16,23.1019465 16,21.9941413 C16,21.795645 16.2272715,20 18.440918,20 L21.6595105,20 C22.2077518,20 23.0574293,20.2071354 23.548695,20.4626498 L26.0330824,21.7548156 C26.2108747,20.4315576 25.9284835,19.221649 25.2796897,17.6023176 Z M8.4365109,29.7056632 C11.5108102,30.9886161 13.5226383,33.7407462 14.0259525,38 L42,38 L42,35.992017 C42,35.448202 41.3594521,34.1705925 40.5375158,33.8003179 L34.2135118,30.5135124 L33.8531931,31.5034799 C33.4754808,32.5412359 32.3350915,33.078882 31.2898993,32.6984631 C30.2519435,32.3206781 29.7140341,31.1805083 30.0944226,30.1353994 L30.6339411,28.6530846 L28.2497535,27.4139392 L27.8525764,28.5051745 C27.4752047,29.5419946 26.3350915,30.078882 25.2898993,29.6984631 C24.2519435,29.3206781 23.7201243,28.1637756 24.0938059,27.1370939 L24.6701828,25.5535114 L21.6863023,24.0026845 C21.6863023,24.0026845 20.6595866,24 19.65979,24 C19.3220825,25.7242432 16.8920874,28 13,28 C9.86925634,28 7.24621229,26.5281203 6.33955632,24.0108271 C6.10894775,23.9992299 6.553989,24 6,23.99923 L6,29.0403481 C6.80559885,29.1541822 7.62539247,29.3671709 8.4365109,29.7056632 Z M6,38 L9.99845829,38 C9.61273936,35.4658185 8.50846248,34.070022 6.89600863,33.39712 C6.65298748,33.2957035 6.33859425,33.2200198 6,33.1636007 L6,38 Z" id="Rectangle-371"></path>
                </g>
            </g>
        </g>
    </g>
</svg>