<?xml version="1.0" encoding="UTF-8"?>
<svg width="48px" height="48px" viewBox="0 0 48 48" version="1.1" xmlns="http://www.w3.org/2000/svg" xmlns:xlink="http://www.w3.org/1999/xlink">
    <!-- Generator: Sketch 49.3 (51167) - http://www.bohemiancoding.com/sketch -->
    <title>theicons.co/svg/clothes-26</title>
    <desc>Created with Sketch.</desc>
    <defs></defs>
    <g id="The-Icons" stroke="none" stroke-width="1" fill="none" fill-rule="evenodd">
        <g id="v-1.5" transform="translate(-672.000000, -960.000000)" fill="#000000">
            <g id="Clothes" transform="translate(96.000000, 960.000000)">
                <g id="Skirt" transform="translate(576.000000, 0.000000)">
                    <path d="M27,8 C27,9.65685425 25.6568542,11 24,11 C22.3431458,11 21,9.65685425 21,8 L11.9995927,8 C11.9995927,8 11.9417505,13.8971631 11.936176,14 L29.9629494,14 C30.0101205,13.9990715 30.0570604,13.9998238 30.1036992,14.0022106 C31.0466419,14.0462609 31.8180575,14.7438184 31.9720183,15.6620524 L33.9611614,25.6077677 C34.1777853,26.6908872 33.4753518,27.7445375 32.3922323,27.9611614 C31.3091128,28.1777853 30.2554625,27.4753518 30.0388386,26.3922323 L28.3603922,18 L19.6396078,18 L17.9611614,26.3922323 C17.7445375,27.4753518 16.6908872,28.1777853 15.6077677,27.9611614 C14.5246482,27.7445375 13.8222147,26.6908872 14.0388386,25.6077677 L15.5603922,18 L11.5191772,18 C11.3559519,18.9821335 11.1508372,19.8645661 10.8941129,20.6334269 C10.4970246,21.8226619 9.325926,25.4868009 7.60261752,30.9193457 C6.85789795,33.2671249 6.06161343,35.7827552 5.26644063,38.2984069 C5.07434516,38.9061305 4.72093183,40 4.72093183,40 L43.2927246,40 C43.2927246,40 41.1062636,33.2831069 40.3492604,30.922554 C38.6064597,25.4880126 37.4178268,21.786892 37.0385681,20.6165518 C36.7329216,19.6733688 36.5060413,18.5384668 36.3382935,17.2396501 C36.1893671,16.0865622 36.0946299,14.8640307 36.0420782,13.6433573 C36.0237451,13.2175167 36,8 36,8 L27,8 Z M8,13.5003345 L8,6.99077797 C8,5.33620739 9.33805524,4 10.9965348,4 L37.0034652,4 C38.6555587,4 40,5.34356018 40,6.99077797 L40,13.4713109 C40,13.4713109 40.1726786,15.7001083 40.3053434,16.7272882 C40.4441505,17.8020258 40.6259,18.7111742 40.8437561,19.3834482 C41.2249135,20.5596476 47.5453017,40.2682411 47.5989488,40.4356958 C48.1813162,42.2533406 46.9054189,44 44.9983277,44 L3.00167227,44 C1.09963988,44 -0.177870799,42.255015 0.392400152,40.4487966 C0.445390354,40.2808586 6.69335838,20.5845024 7.10002777,19.3665731 C7.32243224,18.7004966 7.50880425,17.833604 7.65386063,16.8227645 C7.80417354,15.7752942 8,13.5003345 8,13.5003345 Z" id="Combined-Shape"></path>
                </g>
            </g>
        </g>
    </g>
</svg>