<?xml version="1.0" encoding="UTF-8"?>
<svg width="48px" height="48px" viewBox="0 0 48 48" version="1.1" xmlns="http://www.w3.org/2000/svg" xmlns:xlink="http://www.w3.org/1999/xlink">
    <!-- Generator: Sketch 49.3 (51167) - http://www.bohemiancoding.com/sketch -->
    <title>theicons.co/svg/clothes-19</title>
    <desc>Created with Sketch.</desc>
    <defs></defs>
    <g id="The-Icons" stroke="none" stroke-width="1" fill="none" fill-rule="evenodd">
        <g id="v-1.5" transform="translate(-288.000000, -1056.000000)">
            <g id="Clothes" transform="translate(96.000000, 960.000000)" fill="#000000">
                <g id="Wallet" transform="translate(192.000000, 96.000000)">
                    <path d="M12.9688459,4.57549977 C13.7722073,2.39264617 16.2144726,1.4881011 18.2535047,2.60428324 L24.7364856,6 L40.00077,6 C42.2094838,6 44,7.79652125 44,9.99582624 L44,38.0031611 C44,40.2105543 42.2035752,42 39.9999745,42 L8.00002553,42 C5.79087243,42 4,40.2058797 4,38.0031611 L4,12 C4,8.68706295 6.67989999,6 9.99017859,6 L12.4445833,6 L12.9688459,4.57549977 Z M31.9907535,24 C29.786613,24 28,25.788987 28,28 C28,30.2049822 29.7915524,32 31.9907535,32 L39.9990682,32 L39.9994568,24 L31.9907535,24 Z M16.6420898,6.2746582 L13.7546387,14 L31.385376,14 L16.6420898,6.2746582 Z M8,38.0031611 L39.9999745,38 L39.9991954,36 L31.9907535,36 C27.5775822,36 24,32.4092877 24,28 C24,23.581722 27.5755992,20 31.9907535,20 L39.9997838,20 L39.9999733,18 L9.99017859,18 C9.29250787,18 8.62268754,17.8803307 8,17.6604268 L8,38.0031611 Z M40,9.99582624 L32.3698771,9.99828958 L40.0005133,13.995136 L40,9.99582624 Z M9.99017859,10 C8.89143267,10 8,10.8938153 8,12 C8,12.9405362 8.64997375,13.7312022 9.52100972,13.9437887 L10.9724527,10 L9.99017859,10 Z M32,30 C30.8954305,30 30,29.1045695 30,28 C30,26.8954305 30.8954305,26 32,26 C33.1045695,26 34,26.8954305 34,28 C34,29.1045695 33.1045695,30 32,30 Z" id="Combined-Shape"></path>
                </g>
            </g>
            <g id="Others" transform="translate(96.000000, 1056.000000)"></g>
        </g>
    </g>
</svg>