<?xml version="1.0" encoding="UTF-8"?>
<svg width="48px" height="48px" viewBox="0 0 48 48" version="1.1" xmlns="http://www.w3.org/2000/svg" xmlns:xlink="http://www.w3.org/1999/xlink">
    <!-- Generator: Sketch 49.3 (51167) - http://www.bohemiancoding.com/sketch -->
    <title>theicons.co/svg/clothes-28</title>
    <desc>Created with Sketch.</desc>
    <defs></defs>
    <g id="The-Icons" stroke="none" stroke-width="1" fill="none" fill-rule="evenodd">
        <g id="v-1.5" transform="translate(-192.000000, -960.000000)" fill="#000000">
            <g id="Clothes" transform="translate(96.000000, 960.000000)">
                <g id="Sport-T-shirt-2" transform="translate(96.000000, 0.000000)">
                    <path d="M26,28 C27.1054196,28 28,28.8877296 28,30 C28,31.1045695 27.1132936,32 26.0018986,32 L21.9981014,32 C20.8945804,32 20,31.1122704 20,30 C20,28.8954305 20.8867064,28 21.9981014,28 L22,26 C20.8944962,26 20,25.1122704 20,24 C20,22.8954305 20.8982606,22 21.9979131,22 C22.0045547,20.8946432 22.8905821,20 24,20 C25.1045695,20 26,20.9019504 26,22.0085302 L26,28 Z M10.9476436,23.9947712 C10.9765593,23.4453742 10.5684948,23.1442916 10.0492822,23.3179118 L6.8984375,24.3715267 C5.84995942,24.7221286 4.80459008,24.1263828 4.56602979,23.0521044 L3.43397021,17.9542433 C3.19429508,16.8749445 3.63313117,15.3668688 4.41154632,14.5884537 L11.5884537,7.41154632 C12.3680292,6.63197081 13.8896739,6 14.991155,6 L18.0090493,6 C18.5563363,6 19.105731,6.42629719 19.275928,6.96405029 C19.275928,6.96405029 19.9655767,11 24,11 C28.0344233,11 28.7282115,6.95223077 28.7282115,6.95223077 C28.8783161,6.42632824 29.4443335,6 29.9909507,6 L33.008845,6 C34.1085295,6 35.6331312,6.63313117 36.4115463,7.41154632 L43.5884537,14.5884537 C44.3680292,15.3680292 44.8082316,16.8670779 44.5660298,17.9621895 L43.4339702,23.0807792 C43.1942951,24.1644666 42.1530722,24.7545942 41.1015625,24.3965607 L37.9375,23.3192139 C37.419733,23.1429169 37.0237329,23.4509254 37.0523564,23.9947712 L37.8948725,40.0025781 C37.9529328,41.1057238 37.1001025,42 36.0087557,42 L11.9912443,42 C10.8915104,42 10.0468908,41.1090746 10.1051275,40.0025781 L10.9476436,23.9947712 Z M14.9749444,10.0099418 C14.326807,10.0099418 7.3684706,17.3000118 7.3684706,17.3000118 L7.93561244,19.8115152 L8.7645491,19.534326 C11.9459204,18.4705032 15.1038282,20.834396 14.9259044,24.2149483 L14.1888065,38.0099418 L33.7663941,38.0099418 L33.0416745,24.2149483 C32.8649712,20.8575868 36.0011705,18.4498489 39.2105796,19.542636 L40.0453959,19.8312016 L40.6119827,17.2857296 C40.6119827,17.2857296 33.7033504,9.9395838 32.9926344,10.0099418 C32.9926344,10.0099418 32.5357909,9.99999994 32.0530243,10.0003602 C30.582156,12.968988 27.5213179,15.0099418 23.9837894,15.0099418 C20.4461179,15.0099418 17.3851752,12.9688229 15.9143761,10 C15.4300179,9.99999994 14.9749444,10.0099418 14.9749444,10.0099418 Z" id="Rectangle-688-Copy-2"></path>
                </g>
            </g>
        </g>
    </g>
</svg>