<?xml version="1.0" encoding="UTF-8"?>
<svg width="48px" height="48px" viewBox="0 0 48 48" version="1.1" xmlns="http://www.w3.org/2000/svg" xmlns:xlink="http://www.w3.org/1999/xlink">
    <!-- Generator: Sketch 49.3 (51167) - http://www.bohemiancoding.com/sketch -->
    <title>theicons.co/svg/clothes-24</title>
    <desc>Created with Sketch.</desc>
    <defs></defs>
    <g id="The-Icons" stroke="none" stroke-width="1" fill="none" fill-rule="evenodd">
        <g id="v-1.5" transform="translate(-864.000000, -1056.000000)">
            <g id="Clothes" transform="translate(96.000000, 960.000000)" fill="#000000">
                <g id="Umbrella" transform="translate(768.000000, 96.000000)">
                    <path d="M29.412092,21.0024465 C29.0591681,19.286954 28.6039025,17.2421489 28.2817095,16.2556641 C26.9292754,12.1148055 25.273798,10 24,10 C22.726202,10 21.0707246,12.1148055 19.7182905,16.2556641 C19.3960845,17.2421887 18.9407952,19.287119 18.5878653,21.0026541 C20.2845092,21.0026078 27.7135077,21.0024594 29.412092,21.0024465 Z M22,25 L5.97221712,25 C5.23291014,25 4.15651458,25.116921 4.34958509,23.4000244 C4.34958509,23.4000244 6.07910448,7.32513843 22,6.07667844 C22,4.89449617 22.8877296,4 24,4 C25.1045695,4 26,4.89826062 26,5.99791312 C41.9208956,7.32513843 43.6504153,23.4000244 43.6504149,23.4000244 C43.8652941,25.1148189 42.9560565,25 42.0409286,25 L26,25 L26,37.9110942 C26,41.2633639 23.3233757,44 20,44 C16.6788551,44 14,41.2591004 14,37.9041798 L14,36.5777477 C14,35.4731782 14.8954305,34.5777477 16,34.5777477 C17.1045695,34.5777477 18,35.4731782 18,36.5777477 L18,37.9041798 C18,39.0702004 18.9087522,40 20,40 C21.0941424,40 22,39.0738324 22,37.9110942 L22,25 Z M38.9743652,21.0029449 C38.9743652,21.0029449 37.8030259,18.313008 37.0574672,17.064025 C35.448472,14.3685861 33.3268947,12.3595608 30.5215636,11.1866617 C32.1564855,14.3667226 33.079138,18.3272384 33.5572213,21.0024504 C36.7691358,21.0024897 38.9743652,21.0029449 38.9743652,21.0029449 Z M17.4784364,11.1866617 C14.6731053,12.3595608 12.551528,14.3685861 10.9425328,17.064025 C9.96993788,18.6933462 9.13126945,21.0029453 9.13126945,21.0029453 C9.13126945,21.0029453 11.4478832,21.0028689 14.4427205,21.0027756 C14.9207872,18.3275594 15.8434483,14.3668515 17.4784364,11.1866617 Z" id="Rectangle-796"></path>
                </g>
            </g>
            <g id="Others" transform="translate(96.000000, 1056.000000)"></g>
        </g>
    </g>
</svg>