<?xml version="1.0" encoding="UTF-8"?>
<svg width="48px" height="48px" viewBox="0 0 48 48" version="1.1" xmlns="http://www.w3.org/2000/svg" xmlns:xlink="http://www.w3.org/1999/xlink">
    <!-- Generator: Sketch 49.3 (51167) - http://www.bohemiancoding.com/sketch -->
    <title>theicons.co/svg/clothes-04</title>
    <desc>Created with Sketch.</desc>
    <defs></defs>
    <g id="The-Icons" stroke="none" stroke-width="1" fill="none" fill-rule="evenodd">
        <g id="v-1.5" transform="translate(-480.000000, -960.000000)" fill="#000000">
            <g id="Clothes" transform="translate(96.000000, 960.000000)">
                <g id="Shirt" transform="translate(384.000000, 0.000000)">
                    <path d="M28,23 C28,24.1045695 27.1045695,25 26,25 L26,29 C27.1045695,29 28,29.8954305 28,31 C28,32.1045695 27.1045695,33 26,33 L26,38.0013181 L34,38.0021969 L34.0000001,36.9947795 L34,27.0058587 C34,25.8980535 34.8877296,25 36,25 C37.1045695,25 38,25.8970601 38,27.0058587 L38,28 L41.6521735,28 C41.4659863,24.886966 41.2268569,21.5303623 41.081762,20.8048878 C40.9419581,20.1058684 40.5175862,18.9635983 39.8730517,17.5745413 C39.6143581,17.0170225 37.9221727,13.7807656 37.3564297,12.8051423 C37.1585625,12.4639205 36.5554216,11.4580598 36.5554216,11.4580598 C36.3252794,11.0587394 35.742852,10.6169178 35.142434,10.3254386 L32.7862069,15.0877847 C31.8249814,17.0305892 29.4668639,17.9034098 27.4819516,17.048732 L26,16.4106228 L26,21 C27.1045695,21 28,21.8954305 28,23 Z M20.7243882,17.048732 C18.748357,17.8995857 16.3898368,17.0430163 15.4079792,15.1211101 L12.9396585,10.2895738 C12.3103625,10.5816838 11.6805118,11.0486567 11.4333804,11.4710555 C11.4333804,11.4710555 10.8425592,12.4539264 10.6450091,12.7939721 C10.0801752,13.766228 8.39118848,16.9901936 8.13308894,17.5453031 C7.48920266,18.9301464 7.0655197,20.0684796 6.92663272,20.7629144 C6.780548,21.493338 6.53870327,24.8741578 6.35080075,28 L10,28 L10,27.0058587 C10,25.8980535 10.8877296,25 12,25 C13.1045695,25 14,25.8970601 14,27.0058587 L14,37.9999999 L22,38.0008787 L22,16.49947 L20.7243882,17.048732 Z M19.1424569,13.3748386 L21.7477301,12.243108 L17.8593124,7.80543279 L16.7306568,8.91788623 C16.7306568,8.91788623 19.1057061,13.390663 19.1424569,13.3748386 Z M21.5956508,5.99999997 L24.0929155,8.85001519 L26.5695628,5.99999995 L21.5956508,5.99999997 Z M26.4492231,12.2489997 L29.0638829,13.3748386 C29.0917527,13.3868389 31.3316153,9.00766057 31.3316153,9.00766057 L30.2149236,7.90660267 L26.4492231,12.2489997 Z M10,32 L6,32 L6,34.0005493 L10,34.0002759 L10,32 Z M42,32 L38,32 L38,34.0130264 L42,34 L42,32 Z M29.0319312,2 C29.5838397,2 30.3429192,2.31387329 30.7413481,2.71511984 L34.0031611,6 C36.2105543,6 38.9143105,7.54039956 40.0210463,9.4607001 C40.0210463,9.4607001 44.2641882,16.3209409 45.0040847,20.0204233 C45.8714975,24.3574876 45.9642285,36.0170339 45.9642285,36.0170339 C45.9839846,37.1121958 45.1132936,38.0002435 44.0018986,38.0005488 L38,38.0021973 L37.9999998,40.0010986 C37.9999997,41.1050614 37.1001021,42 36.0087553,42 L11.9912444,42 C10.8915105,42 10.0000001,41.1122704 10,40 L10,38 L3.99810135,38 C2.89458045,38 2.01420313,37.1021965 2.03705573,35.9982951 C2.03705573,35.9982951 2.13409893,24.3295053 3.00431002,19.9784499 C3.74140827,16.2929586 7.98087205,9.45110852 7.98087205,9.45110852 C9.09600562,7.54511391 11.7941203,6 13.9968389,6 L17.3596923,2.69674683 C17.7514379,2.31194418 18.5233372,2 19.0683292,2 L29.0319312,2 Z" id="Rectangle-691"></path>
                </g>
            </g>
        </g>
    </g>
</svg>