<?xml version="1.0" encoding="UTF-8"?>
<svg width="48px" height="48px" viewBox="0 0 48 48" version="1.1" xmlns="http://www.w3.org/2000/svg" xmlns:xlink="http://www.w3.org/1999/xlink">
    <!-- Generator: Sketch 49.3 (51167) - http://www.bohemiancoding.com/sketch -->
    <title>theicons.co/svg/common-01</title>
    <desc>Created with Sketch.</desc>
    <defs></defs>
    <g id="The-Icons" stroke="none" stroke-width="1" fill="none" fill-rule="evenodd">
        <g id="v-1.5" transform="translate(-96.000000, -3360.000000)" fill="#000000" fill-rule="nonzero">
            <g id="Common" transform="translate(96.000000, 3360.000000)">
                <g id="Close">
                    <path d="M39.4141889,11.4152148 C40.1952511,10.6341798 40.1952732,9.36784987 39.4142382,8.58678766 C38.6332033,7.80572546 37.3668733,7.80570338 36.5858111,8.58673834 L24,21.1721105 L11.4141889,8.58673834 C10.6331267,7.80570338 9.36679674,7.80572546 8.58576178,8.58678766 C7.80472681,9.36784987 7.8047489,10.6341798 8.5858111,11.4152148 L21.1715235,24.0004883 L8.5858111,36.5857618 C7.8047489,37.3667967 7.80472681,38.6331267 8.58576178,39.4141889 C9.36679674,40.1952511 10.6331267,40.1952732 11.4141889,39.4142382 L24,26.8288661 L36.5858111,39.4142382 C37.3668733,40.1952732 38.6332033,40.1952511 39.4142382,39.4141889 C40.1952732,38.6331267 40.1952511,37.3667967 39.4141889,36.5857618 L26.8284765,24.0004883 L39.4141889,11.4152148 Z" id="Combined-Shape"></path>
                </g>
            </g>
        </g>
    </g>
</svg>