<?xml version="1.0" encoding="UTF-8"?>
<svg width="48px" height="48px" viewBox="0 0 48 48" version="1.1" xmlns="http://www.w3.org/2000/svg" xmlns:xlink="http://www.w3.org/1999/xlink">
    <!-- Generator: Sketch 49.3 (51167) - http://www.bohemiancoding.com/sketch -->
    <title>theicons.co/svg/common-15</title>
    <desc>Created with Sketch.</desc>
    <defs></defs>
    <g id="The-Icons" stroke="none" stroke-width="1" fill="none" fill-rule="evenodd">
        <g id="v-1.5" transform="translate(-1440.000000, -3360.000000)" fill="#000000" fill-rule="nonzero">
            <g id="Common" transform="translate(96.000000, 3360.000000)">
                <g id="Arrow-11" transform="translate(1344.000000, 0.000000)">
                    <path d="M36.0756931,14.752734 L36.0651895,20.033131 C36.0629923,21.1376983 36.9566399,22.0349082 38.0612072,22.0371054 C39.1657745,22.0393026 40.0629844,21.145655 40.0651816,20.0410877 L40.0850733,10.0410877 C40.0872736,8.93496645 39.1912008,8.03710938 38.0850773,8.03710938 L28.0651855,8.03710938 C26.960616,8.03710938 26.0651855,8.93253988 26.0651855,10.0371094 C26.0651855,11.1416789 26.960616,12.0371094 28.0651855,12.0371094 L33.1344635,12.0371094 L23.9814453,21.1901276 L11.4142136,8.62289581 C10.633165,7.84184723 9.36683502,7.84184723 8.58578644,8.62289581 C7.80473785,9.4039444 7.80473785,10.6702744 8.58578644,11.4513229 L21.1530182,24.0185547 L8.58578644,36.5857864 C7.80473785,37.366835 7.80473785,38.633165 8.58578644,39.4142136 C9.36683502,40.1952621 10.633165,40.1952621 11.4142136,39.4142136 L23.9814453,26.8469818 L33.1344635,36 L28.0651855,36 C26.960616,36 26.0651855,36.8954305 26.0651855,38 C26.0651855,39.1045695 26.960616,40 28.0651855,40 L38.0850773,40 C39.1912008,40 40.0872736,39.1021429 40.0850733,37.9960217 L40.0651816,27.9960217 C40.0629844,26.8914543 39.1657745,25.9978068 38.0612072,26.000004 C36.9566399,26.0022011 36.0629923,26.899411 36.0651895,28.0039783 L36.0756931,33.2843754 L26.8098724,24.0185547 L36.0756931,14.752734 Z" id="Combined-Shape"></path>
                </g>
            </g>
        </g>
    </g>
</svg>