<?xml version="1.0" encoding="UTF-8"?>
<svg width="48px" height="48px" viewBox="0 0 48 48" version="1.1" xmlns="http://www.w3.org/2000/svg" xmlns:xlink="http://www.w3.org/1999/xlink">
    <!-- Generator: Sketch 49.3 (51167) - http://www.bohemiancoding.com/sketch -->
    <title>theicons.co/svg/finance-26</title>
    <desc>Created with Sketch.</desc>
    <defs></defs>
    <g id="The-Icons" stroke="none" stroke-width="1" fill="none" fill-rule="evenodd">
        <g id="v-1.5" transform="translate(-960.000000, -1920.000000)" fill="#000000">
            <g id="Finance-&amp;-Commerce" transform="translate(96.000000, 1824.000000)">
                <g id="Shopping-Cart" transform="translate(864.000000, 96.000000)">
                    <path d="M11.5319169,9.07610401 L43.342897,11.0267516 C44.444028,11.0881589 45.1712049,12.0237217 44.9700441,13.1005876 L42.3666269,27.0373517 C42.1641444,28.1212924 41.1056623,29 40.0017862,29 L16.131729,29 L16.5934673,31 L39,31 C40.1045695,31 41,31.8954305 41,33 C41,34.1045695 40.1045695,35 39,35 L15,35 C14.068688,35 13.260632,34.3571812 13.0512176,33.449719 L7.26618754,8.3812554 L4.13888504,6.8102092 C3.15046026,6.31716739 2.74887301,5.11620142 3.24191482,4.12777664 C3.73495664,3.13935186 4.9359226,2.73776461 5.92434738,3.23080643 L9.89273117,5.21029861 C10.4271601,5.47688017 10.8144902,5.9683483 10.9487824,6.55028099 L11.5319169,9.07610401 Z M38.6781779,24.999138 L40.5722182,14.8598516 L12.4703484,13.140881 L15.2082508,24.9999924 L38.6781779,24.999138 Z M35,45 C32.790861,45 31,43.209139 31,41 C31,38.790861 32.790861,37 35,37 C37.209139,37 39,38.790861 39,41 C39,43.209139 37.209139,45 35,45 Z M17,45 C14.790861,45 13,43.209139 13,41 C13,38.790861 14.790861,37 17,37 C19.209139,37 21,38.790861 21,41 C21,43.209139 19.209139,45 17,45 Z" id="Combined-Shape"></path>
                </g>
            </g>
        </g>
    </g>
</svg>