<?xml version="1.0" encoding="UTF-8"?>
<svg width="48px" height="48px" viewBox="0 0 48 48" version="1.1" xmlns="http://www.w3.org/2000/svg" xmlns:xlink="http://www.w3.org/1999/xlink">
    <!-- Generator: Sketch 49.3 (51167) - http://www.bohemiancoding.com/sketch -->
    <title>theicons.co/svg/finance-24</title>
    <desc>Created with Sketch.</desc>
    <defs></defs>
    <g id="The-Icons" stroke="none" stroke-width="1" fill="none" fill-rule="evenodd">
        <g id="v-1.5" transform="translate(-768.000000, -1920.000000)" fill="#000000">
            <g id="Finance-&amp;-Commerce" transform="translate(96.000000, 1824.000000)">
                <g id="Shopping-Bag-2" transform="translate(672.000000, 96.000000)">
                    <path d="M24,2 C29.5200425,2 34,6.48051622 34,11.9952753 L35.9957423,12 C38.2072328,12 40.1118142,13.7890275 40.2492575,15.9881206 L41.7507425,40.0118794 C41.8884036,42.2144576 40.2147544,44 38.0098214,44 L9.99017859,44 C7.7864638,44 6.11181422,42.2109725 6.24925753,40.0118794 L7.75074247,15.9881206 C7.8884036,13.7855424 9.78902751,12 12.0042577,12 L14,12 C14,6.47752559 18.4836492,2 24,2 Z M30,12 C30,8.68954356 27.3107918,6 24,6 C20.6915654,6 18,8.68788931 18,11.9952753 L30,12 Z M14,16 L12.0042577,16 C11.9013855,16 11.7488615,16.1430943 11.7429528,16.2376337 L10.2727082,39.9999469 L37.741869,39.9947823 L36.2570472,16.2376337 C36.2513637,16.1466974 36.094993,16 35.9957423,16 L34,16 L34,20 C34,21.1045695 33.1045695,22 32,22 C30.8954305,22 30,21.1045695 30,20 L30,16 L18,16 L18,20 C18,21.1045695 17.1045695,22 16,22 C14.8954305,22 14,21.1045695 14,20 L14,16 Z M14,34 C14,32.8954305 14.8982124,32 15.9907951,32 L32.0092049,32 C33.1086907,32 34,32.8877296 34,34 C34,35.1045695 33.1017876,36 32.0092049,36 L15.9907951,36 C14.8913093,36 14,35.1122704 14,34 Z" id="Combined-Shape"></path>
                </g>
            </g>
        </g>
    </g>
</svg>