<?xml version="1.0" encoding="UTF-8"?>
<svg width="48px" height="48px" viewBox="0 0 48 48" version="1.1" xmlns="http://www.w3.org/2000/svg" xmlns:xlink="http://www.w3.org/1999/xlink">
    <!-- Generator: Sketch 49.3 (51167) - http://www.bohemiancoding.com/sketch -->
    <title>theicons.co/svg/finance-27</title>
    <desc>Created with Sketch.</desc>
    <defs></defs>
    <g id="The-Icons" stroke="none" stroke-width="1" fill="none" fill-rule="evenodd">
        <g id="v-1.5" transform="translate(-1056.000000, -1920.000000)" fill="#000000">
            <g id="Finance-&amp;-Commerce" transform="translate(96.000000, 1824.000000)">
                <g id="Add-to-Shopping-Cart" transform="translate(960.000000, 96.000000)">
                    <path d="M37.9941413,29 C39.1019465,29 40,29.8877296 40,31 C40,32.1045695 39.1029399,33 37.9941413,33 L35,33 L35,35.9941413 C35,37.1019465 34.1122704,38 33,38 C31.8954305,38 31,37.1029399 31,35.9941413 L31,33 L28.0058587,33 C26.8980535,33 26,32.1122704 26,31 C26,29.8954305 26.8970601,29 28.0058587,29 L31,29 L31,26.0058587 C31,24.8980535 31.8877296,24 33,24 C34.1045695,24 35,24.8970601 35,26.0058587 L35,29 L37.9941413,29 Z M48,31 C48,39.2842712 41.2842712,46 33,46 C26.1009381,46 20.289723,41.342374 18.5392327,35 L12,35 C11.068688,35 10.260632,34.3571812 10.0512176,33.449719 L4.26618754,8.3812554 L1.13888504,6.8102092 C0.150460256,6.31716739 -0.251126988,5.11620142 0.241914824,4.12777664 C0.734956636,3.13935186 1.9359226,2.73776461 2.92434738,3.23080643 L6.89273117,5.21029861 C7.42716012,5.47688017 7.81449023,5.9683483 7.94878239,6.55028099 L8.53191691,9.07610401 L40.342897,11.0267516 C41.444028,11.0881589 42.1712049,12.0237217 41.9700441,13.1005876 L40.9973871,18.3074716 C45.2051787,20.9643148 48,25.6557747 48,31 Z M13.131729,29 L13.5934673,31 L18,31 C18,30.3218824 18.0449981,29.6542747 18.1321713,29 L13.131729,29 Z M33,16 C34.4745089,16 35.8993262,16.2127548 37.2454286,16.6092409 L37.5722182,14.8598516 L9.47034836,13.140881 L12.2082508,24.9999924 L19.2482464,24.9997361 C21.5629765,19.7021627 26.849145,16 33,16 Z M14,45 C11.790861,45 10,43.209139 10,41 C10,38.790861 11.790861,37 14,37 C16.209139,37 18,38.790861 18,41 C18,43.209139 16.209139,45 14,45 Z M33,42 C39.0751322,42 44,37.0751322 44,31 C44,24.9248678 39.0751322,20 33,20 C26.9248678,20 22,24.9248678 22,31 C22,37.0751322 26.9248678,42 33,42 Z" id="Combined-Shape"></path>
                </g>
            </g>
        </g>
    </g>
</svg>