<?xml version="1.0" encoding="UTF-8"?>
<svg width="48px" height="48px" viewBox="0 0 48 48" version="1.1" xmlns="http://www.w3.org/2000/svg" xmlns:xlink="http://www.w3.org/1999/xlink">
    <!-- Generator: Sketch 49.3 (51167) - http://www.bohemiancoding.com/sketch -->
    <title>theicons.co/svg/finance-20</title>
    <desc>Created with Sketch.</desc>
    <defs></defs>
    <g id="The-Icons" stroke="none" stroke-width="1" fill="none" fill-rule="evenodd">
        <g id="v-1.5" transform="translate(-288.000000, -1920.000000)" fill="#000000">
            <g id="Finance-&amp;-Commerce" transform="translate(96.000000, 1824.000000)">
                <g id="Sale-1" transform="translate(192.000000, 96.000000)">
                    <path d="M24.8945921,43.9621974 C24.4005225,43.7188339 23.6012617,43.7179551 23.1054079,43.9621974 L20.1723118,45.4069505 C18.1903167,46.3832204 15.7535797,45.5983079 14.7170561,43.629772 L13.1812231,40.7129622 C12.9234718,40.2234482 12.2773688,39.749349 11.7337427,39.6532596 L8.52996727,39.0869721 C6.35044447,38.7017277 4.83160941,36.6225411 5.1396421,34.4281049 L5.60025923,31.1466514 C5.67727831,30.5979646 5.43112263,29.8317348 5.04737092,29.4320166 L2.76898236,27.0588329 C1.23971563,25.4659391 1.24543259,22.8773933 2.76898236,21.2904543 L5.04737092,18.9172706 C5.42974179,18.5189907 5.67755645,17.753304 5.60025923,17.2026358 L5.1396421,13.9211824 C4.83254419,11.7334055 6.34788303,9.64801231 8.52996727,9.26231515 L11.7337427,8.6960276 C12.2754127,8.60028401 12.9225409,8.12760677 13.1812231,7.63632501 L14.7170561,4.71951521 C15.7479155,2.76173668 18.1928422,1.96731077 20.1723118,2.94233671 L23.1054079,4.38708981 C23.5994775,4.6304533 24.3987383,4.63133215 24.8945921,4.38708981 L27.8276882,2.94233671 C29.8096833,1.96606677 32.2464203,2.7509793 33.2829439,4.71951521 L34.8187769,7.63632501 C35.0765282,8.12583901 35.7226312,8.59993826 36.2662573,8.6960276 L39.4700327,9.26231515 C41.6495555,9.64755956 43.1683906,11.7267461 42.8603579,13.9211824 L42.3997408,17.2026358 C42.3227217,17.7513226 42.5688774,18.5175524 42.9526291,18.9172706 L45.2310176,21.2904543 C46.7602844,22.8833481 46.7545674,25.471894 45.2310176,27.0588329 L42.9526291,29.4320166 C42.5702582,29.8302965 42.3224436,30.5959832 42.3997408,31.1466514 L42.8603579,34.4281049 C43.1674558,36.6158818 41.652117,38.7012749 39.4700327,39.0869721 L36.2662573,39.6532596 C35.7245873,39.7490032 35.0774591,40.2216804 34.8187769,40.7129622 L33.2829439,43.629772 C32.2520845,45.5875505 29.8071578,46.3819764 27.8276882,45.4069505 L24.8945921,43.9621974 Z M29.7436061,41.7661498 L31.2794391,38.84934 C32.1131042,37.2660671 33.8086186,36.0256578 35.5700245,35.7143181 C35.5700245,35.7143181 38.9068416,35.0386268 38.8991923,34.9841331 L38.4385752,31.7026796 C38.1909249,29.93841 38.8340469,27.946224 40.0671601,26.6618057 C40.0671601,26.6618057 42.3859655,24.1027637 42.3455487,24.0606653 L40.0671601,21.6874816 C38.8329342,20.4019042 38.1911476,18.4092909 38.4385752,16.6466076 C38.4385752,16.6466076 38.837118,13.2124485 38.7738,13.2012566 L35.5700245,12.6349691 C33.8070267,12.3233481 32.1123548,11.0817969 31.2794391,9.49994727 C31.2794391,9.49994727 29.6373704,6.50986561 29.5951799,6.53064736 L26.6620837,7.97540046 C25.0519958,8.7684803 22.9465529,8.76776545 21.3379163,7.97540046 C21.3379163,7.97540046 18.2775123,6.54302991 18.2563939,6.58313746 L16.7205609,9.49994727 C15.8868958,11.0832202 14.1913814,12.3236295 12.4299755,12.6349691 L9.22620005,13.2012566 C9.164849,13.2121008 9.56142479,16.6466076 9.56142479,16.6466076 C9.80907506,18.4108772 9.16595311,20.4030632 7.93283991,21.6874816 L5.65445135,24.0606653 C5.6141329,24.1026612 7.93283991,26.6618057 7.93283991,26.6618057 C9.16706583,27.9473831 9.80885239,29.9399963 9.56142479,31.7026796 L9.10080767,34.9841331 C9.09286263,35.0407338 12.4299755,35.7143181 12.4299755,35.7143181 C14.1929733,36.0259391 15.8876452,37.2674903 16.7205609,38.84934 C16.7205609,38.84934 18.3626296,41.8394216 18.4048201,41.8186399 L21.3379163,40.3738868 C22.9480042,39.5808069 25.0534471,39.5815218 26.6620837,40.3738868 C26.6620837,40.3738868 29.7224877,41.8062573 29.7436061,41.7661498 Z M19.4142136,31.4142136 C18.633165,32.1952621 17.366835,32.1952621 16.5857864,31.4142136 C15.8047379,30.633165 15.8047379,29.366835 16.5857864,28.5857864 L28.5857864,16.5857864 C29.366835,15.8047379 30.633165,15.8047379 31.4142136,16.5857864 C32.1952621,17.366835 32.1952621,18.633165 31.4142136,19.4142136 L19.4142136,31.4142136 Z M19,22 C17.3431458,22 16,20.6568542 16,19 C16,17.3431458 17.3431458,16 19,16 C20.6568542,16 22,17.3431458 22,19 C22,20.6568542 20.6568542,22 19,22 Z M29,32 C27.3431458,32 26,30.6568542 26,29 C26,27.3431458 27.3431458,26 29,26 C30.6568542,26 32,27.3431458 32,29 C32,30.6568542 30.6568542,32 29,32 Z" id="Combined-Shape"></path>
                </g>
            </g>
        </g>
    </g>
</svg>