<?xml version="1.0" encoding="UTF-8"?>
<svg width="48px" height="48px" viewBox="0 0 48 48" version="1.1" xmlns="http://www.w3.org/2000/svg" xmlns:xlink="http://www.w3.org/1999/xlink">
    <!-- Generator: Sketch 49.3 (51167) - http://www.bohemiancoding.com/sketch -->
    <title>theicons.co/svg/finance-29</title>
    <desc>Created with Sketch.</desc>
    <defs></defs>
    <g id="The-Icons" stroke="none" stroke-width="1" fill="none" fill-rule="evenodd">
        <g id="v-1.5" transform="translate(-1248.000000, -1920.000000)" fill="#000000">
            <g id="Finance-&amp;-Commerce" transform="translate(96.000000, 1824.000000)">
                <g id="Add-to-Shopping-Basket" transform="translate(1152.000000, 96.000000)">
                    <path d="M34,29 L36.9941413,29 C38.1019465,29 39,29.8877296 39,31 C39,32.1045695 38.1029399,33 36.9941413,33 L34,33 L34,35.9941413 C34,37.1019465 33.1122704,38 32,38 C30.8954305,38 30,37.1029399 30,35.9941413 L30,33 L27.0058587,33 C25.8980535,33 25,32.1122704 25,31 C25,29.8954305 25.8970601,29 27.0058587,29 L30,29 L30,26.0058587 C30,24.8980535 30.8877296,24 32,24 C33.1045695,24 34,24.8970601 34,26.0058587 L34,29 Z M17.1321713,29 C17.3700005,27.214983 17.9217506,25.529207 18.7300932,24 L6.26062012,24 L7.6192627,29 L17.1321713,29 Z M8.99124431,42 C7.89151044,42 6.76479289,41.1375739 6.47279862,40.0669283 L1.52720138,21.9330717 C1.2360361,20.8654657 1.89153983,20 2.99729162,20 L7.83935493,20 L15.2635137,7.00772212 C15.8115337,6.04868723 17.033243,5.71549378 17.9922779,6.26351372 C18.9513128,6.81153365 19.2845062,8.03324298 18.7364863,8.99227788 L12.4463594,20 L21.801863,20 C23.446698,18.474353 25.4342932,17.3131022 27.636279,16.6446171 L23.2635137,8.99227788 C22.7154938,8.03324298 23.0486872,6.81153365 24.0077221,6.26351372 C24.966757,5.71549378 26.1884663,6.04868723 26.7364863,7.00772212 L31.8752212,16.0005082 C40.2842712,16 47,22.7157288 47,31 C47,39.2842712 40.2842712,46 32,46 C28.0618371,46 24.4781405,44.4823491 21.801863,42 L8.99124431,42 Z M17.1321713,33 L8.70617676,33 L10.0648193,38 L18.7300932,38 C17.9217506,36.470793 17.3700005,34.785017 17.1321713,33 Z M32,42 C38.0751322,42 43,37.0751322 43,31 C43,24.9248678 38.0751322,20 32,20 C25.9248678,20 21,24.9248678 21,31 C21,37.0751322 25.9248678,42 32,42 Z" id="Combined-Shape"></path>
                </g>
            </g>
        </g>
    </g>
</svg>