<?xml version="1.0" encoding="UTF-8"?>
<svg width="48px" height="48px" viewBox="0 0 48 48" version="1.1" xmlns="http://www.w3.org/2000/svg" xmlns:xlink="http://www.w3.org/1999/xlink">
    <!-- Generator: Sketch 49.3 (51167) - http://www.bohemiancoding.com/sketch -->
    <title>theicons.co/svg/finance-04</title>
    <desc>Created with Sketch.</desc>
    <defs></defs>
    <g id="The-Icons" stroke="none" stroke-width="1" fill="none" fill-rule="evenodd">
        <g id="v-1.5" transform="translate(-384.000000, -1824.000000)" fill="#000000">
            <g id="Finance-&amp;-Commerce" transform="translate(96.000000, 1824.000000)">
                <g id="Money-Bag" transform="translate(288.000000, 0.000000)">
                    <path d="M30.3412287,7.73888824 C27.4582885,8.83775308 24.9091562,9.00084005 23.9950175,9.0000093 C23.0809887,9.00084005 20.5318564,8.83775308 17.6489161,7.73888824 C17.8646313,8.3033244 18.4381242,9.73599409 18.9465375,11 L29.0436073,11 C29.5520207,9.73599409 30.1255136,8.3033244 30.3412287,7.73888824 Z M36,16 C36,17.6116995 35.2382122,19.0452935 34.0540084,19.9596666 C37.3846342,23.5003111 40,28.0549923 40,32 C40,40.5637381 33.2270631,46 24,46 C14.7729369,46 8,40.5637381 8,32 C8,28.054404 10.6161459,23.4989527 13.9474848,19.9580794 C12.7629264,19.0426862 12,17.6084893 12,16 C12,14.0118381 13.1592294,12.294703 14.8406307,11.4889262 L12.1405331,4.7432112 C11.4472362,3.011132 13.2103376,1.56024265 14.9392286,2.23568775 C17.648916,3.29431153 20.7066156,4.49764387 21.8873482,4.77317569 C22.8590242,4.99992276 23.3690728,5.0013344 23.9950724,5.00000595 C24.6210721,5.0013344 25.1311207,4.99992276 26.1027967,4.77317569 C27.2835293,4.49764387 30.3412289,3.29431153 33.0509163,2.23568775 C34.7798072,1.56024265 36.5429086,3.011132 35.8496118,4.7432112 L33.1505596,11.4863145 C34.8357128,12.2919013 36,14.0129586 36,16 Z M17.0535827,22.5179811 C13.9205921,25.6365333 12,29.110287 12,32 C12,38.1372606 16.8125147,42 24,42 C31.1874853,42 36,38.1372606 36,32 C36,29.110287 34.0794079,25.6365333 30.9464173,22.5179811 C30.4032111,21.9772783 29.8397382,21.467972 29.2770219,21 L18.7229781,21 C18.1602618,21.467972 17.5967889,21.9772783 17.0535827,22.5179811 Z M16,16 C16,16.548948 16.45088,17 17.0019727,17 L30.9980273,17 C31.553427,17 32,16.5534089 32,16 C32,15.451052 31.54912,15 30.9980273,15 L17.0019727,15 C16.446573,15 16,15.4465911 16,16 Z M26,25 C27.1045695,25 28,25.8954305 28,27 C28,28.1045695 27.1045695,29 26,29 L24,29 C22.8954305,29 22,29.8954305 22,31 C22,32.1045695 22.8954305,33 24,33 L26,33 C27.1045695,33 28,33.8954305 28,35 C28,36.1045695 27.1045695,37 26,37 L24,37 C20.6862915,37 18,34.3137085 18,31 C18,27.6862915 20.6862915,25 24,25 L26,25 Z" id="Combined-Shape"></path>
                </g>
            </g>
        </g>
    </g>
</svg>