<?xml version="1.0" encoding="UTF-8"?>
<svg width="48px" height="48px" viewBox="0 0 48 48" version="1.1" xmlns="http://www.w3.org/2000/svg" xmlns:xlink="http://www.w3.org/1999/xlink">
    <!-- Generator: Sketch 49.3 (51167) - http://www.bohemiancoding.com/sketch -->
    <title>theicons.co/svg/finance-21</title>
    <desc>Created with Sketch.</desc>
    <defs></defs>
    <g id="The-Icons" stroke="none" stroke-width="1" fill="none" fill-rule="evenodd">
        <g id="v-1.5" transform="translate(-480.000000, -1920.000000)" fill="#000000">
            <g id="Finance-&amp;-Commerce" transform="translate(96.000000, 1824.000000)">
                <g id="Price-Tag" transform="translate(384.000000, 96.000000)">
                    <path d="M11.3240698,6.92757972 C10.2871382,6.5469927 9.75506569,5.39786675 10.1356527,4.36093507 C10.5162397,3.3240034 11.6653657,2.79193092 12.7022973,3.17251794 C17.2823184,4.85353184 20.1781627,7.95423916 21.5836654,12 L25,12 C25.535577,12 26.0487776,12.2148086 26.4246674,12.5963182 L40.8293528,27.2163591 C42.3749322,28.7850455 42.3703384,31.3090173 40.8132879,32.8701771 L29.8505293,43.8618687 C28.2933261,45.4231817 25.7615971,45.4278952 24.1950606,43.8770634 L9.59292885,29.4213201 C9.2134895,29.0456847 9,28.5339253 9,28 L9,14 C9,12.8954305 9.8954305,12 11,12 L17.2554488,12 C16.1136776,9.70713313 14.2026752,7.98411976 11.3240698,6.92757972 Z M13,16 L13,27.1697998 L27,41 L38,30 L24,16 L22.4643316,16 C22.6041789,17.3027281 22.6140665,18.6091651 22.5204343,19.8938052 C23.4231762,20.6272085 24,21.7462421 24,23 C24,25.209139 22.209139,27 20,27 C17.790861,27 16,25.209139 16,23 C16,21.3020826 17.0579104,19.8512535 18.5505432,19.2707006 C18.610136,18.1807083 18.5781975,17.0794563 18.4333901,16 L13,16 Z" id="Combined-Shape"></path>
                </g>
            </g>
        </g>
    </g>
</svg>