<?xml version="1.0" encoding="UTF-8"?>
<svg width="48px" height="48px" viewBox="0 0 48 48" version="1.1" xmlns="http://www.w3.org/2000/svg" xmlns:xlink="http://www.w3.org/1999/xlink">
    <!-- Generator: Sketch 49.3 (51167) - http://www.bohemiancoding.com/sketch -->
    <title>theicons.co/svg/finance-56</title>
    <desc>Created with Sketch.</desc>
    <defs></defs>
    <g id="The-Icons" stroke="none" stroke-width="1" fill="none" fill-rule="evenodd">
        <g id="v-1.5" transform="translate(-384.000000, -1920.000000)" fill="#000000">
            <g id="Finance-&amp;-Commerce" transform="translate(96.000000, 1824.000000)">
                <g id="Sale-2" transform="translate(288.000000, 96.000000)">
                    <path d="M24.0062256,3 C29.5262681,3 34.0062256,7.48051622 34.0062256,12.9952753 L36.0019679,13 C38.2134583,13 40.1180398,14.7890275 40.2554831,16.9881206 L41.7569681,41.0118794 C41.8946292,43.2144576 40.22098,45 38.016047,45 L9.99640417,45 C7.79268939,45 6.11803981,43.2109725 6.25548312,41.0118794 L7.75696805,16.9881206 C7.89462919,14.7855424 9.7952531,13 12.0104833,13 L14.0062256,13 C14.0062256,7.47752559 18.4898748,3 24.0062256,3 Z M30.0062256,13 C30.0062256,9.68954356 27.3170174,7 24.0062256,7 C20.697791,7 18.0062256,9.68788931 18.0062256,12.9952753 L30.0062256,13 Z M12.0104833,17 C11.9076111,17 11.7550871,17.1430943 11.7491784,17.2376337 L10.2789338,40.9999469 L37.7480946,40.9947823 L36.2632728,17.2376337 C36.2575893,17.1466974 36.1012186,17 36.0019679,17 L12.0104833,17 Z M19.4142136,36.4142136 C18.633165,37.1952621 17.366835,37.1952621 16.5857864,36.4142136 C15.8047379,35.633165 15.8047379,34.366835 16.5857864,33.5857864 L28.5857864,21.5857864 C29.366835,20.8047379 30.633165,20.8047379 31.4142136,21.5857864 C32.1952621,22.366835 32.1952621,23.633165 31.4142136,24.4142136 L19.4142136,36.4142136 Z M19,27 C17.3431458,27 16,25.6568542 16,24 C16,22.3431458 17.3431458,21 19,21 C20.6568542,21 22,22.3431458 22,24 C22,25.6568542 20.6568542,27 19,27 Z M29,37 C27.3431458,37 26,35.6568542 26,34 C26,32.3431458 27.3431458,31 29,31 C30.6568542,31 32,32.3431458 32,34 C32,35.6568542 30.6568542,37 29,37 Z" id="Combined-Shape"></path>
                </g>
            </g>
        </g>
    </g>
</svg>