<?xml version="1.0" encoding="UTF-8"?>
<svg width="48px" height="48px" viewBox="0 0 48 48" version="1.1" xmlns="http://www.w3.org/2000/svg" xmlns:xlink="http://www.w3.org/1999/xlink">
    <!-- Generator: Sketch 49.3 (51167) - http://www.bohemiancoding.com/sketch -->
    <title>theicons.co/svg/finance-25</title>
    <desc>Created with Sketch.</desc>
    <defs></defs>
    <g id="The-Icons" stroke="none" stroke-width="1" fill="none" fill-rule="evenodd">
        <g id="v-1.5" transform="translate(-864.000000, -1920.000000)" fill="#000000">
            <g id="Finance-&amp;-Commerce" transform="translate(96.000000, 1824.000000)">
                <g id="Add-to-Shopping-Bag-2" transform="translate(768.000000, 96.000000)">
                    <path d="M37.9941413,29 C39.1019465,29 40,29.8877296 40,31 C40,32.1045695 39.1029399,33 37.9941413,33 L35,33 L35,35.9941413 C35,37.1019465 34.1122704,38 33,38 C31.8954305,38 31,37.1029399 31,35.9941413 L31,33 L28.0058587,33 C26.8980535,33 26,32.1122704 26,31 C26,29.8954305 26.8970601,29 28.0058587,29 L31,29 L31,26.0058587 C31,24.8980535 31.8877296,24 33,24 C34.1045695,24 35,24.8970601 35,26.0058587 L35,29 L37.9941413,29 Z M3.99017859,44 C1.7864638,44 0.11181422,42.2109725 0.249257535,40.0118794 L1.75074247,15.9881206 C1.8884036,13.7855424 3.78902751,12 6.0042577,12 L8,12 C8,6.47752559 12.4836492,2 18,2 C23.5200425,2 28,6.48051622 28,11.9952753 L29.9957423,12 C32.2072328,12 34.1118142,13.7890275 34.2492575,15.9881206 C41.951103,16.6883324 48,23.1377684 48,31 C48,39.2842712 41.2842712,46 33,46 C30.2726545,46 27.7153164,45.2721115 25.5116513,44 L3.99017859,44 Z M18.8535285,36 L9.99079514,36 C8.89130934,36 8,35.1122704 8,34 C8,32.8954305 8.89821238,32 9.99079514,32 L18.0328046,32 C18.0110494,31.6694764 18,31.3360286 18,31 C18,23.652315 23.2830605,17.5385549 30.2578249,16.2500764 C30.2513637,16.1466974 30.094993,16 29.9957423,16 L12,16 L12,20 C12,21.1045695 11.1045695,22 10,22 C8.8954305,22 8,21.1045695 8,20 L8,16 L6.0042577,16 C5.90138549,16 5.74886149,16.1430943 5.74295278,16.2376337 L4.27270825,39.9999469 L20.9965004,39.9968026 C20.0921985,38.7922133 19.364992,37.4470631 18.8535285,36 Z M24,12 C24,8.68954356 21.3107918,6 18,6 C14.6915654,6 12,8.68788931 12,11.9952753 L24,12 Z M33,42 C39.0751322,42 44,37.0751322 44,31 C44,24.9248678 39.0751322,20 33,20 C26.9248678,20 22,24.9248678 22,31 C22,37.0751322 26.9248678,42 33,42 Z" id="Combined-Shape"></path>
                </g>
            </g>
        </g>
    </g>
</svg>