<?xml version="1.0" encoding="UTF-8"?>
<svg width="48px" height="48px" viewBox="0 0 48 48" version="1.1" xmlns="http://www.w3.org/2000/svg" xmlns:xlink="http://www.w3.org/1999/xlink">
    <!-- Generator: Sketch 49.3 (51167) - http://www.bohemiancoding.com/sketch -->
    <title>theicons.co/svg/finance-28</title>
    <desc>Created with Sketch.</desc>
    <defs></defs>
    <g id="The-Icons" stroke="none" stroke-width="1" fill="none" fill-rule="evenodd">
        <g id="v-1.5" transform="translate(-1152.000000, -1920.000000)" fill="#000000">
            <g id="Finance-&amp;-Commerce" transform="translate(96.000000, 1824.000000)">
                <g id="Shoping-Basket" transform="translate(1056.000000, 96.000000)">
                    <path d="M9.26062012,24 L10.6192627,29 L37.392769,29 L38.7579346,24 L9.26062012,24 Z M42.0027084,20 C43.1057821,20 43.7647929,20.8624261 43.4727986,21.9330717 L38.5272014,40.0669283 C38.2360361,41.1345343 37.1001025,42 36.0087557,42 L11.9912443,42 C10.8915104,42 9.76479289,41.1375739 9.47279862,40.0669283 L4.52720138,21.9330717 C4.2360361,20.8654657 4.89153983,20 5.99729162,20 L10.8393549,20 L18.2635137,7.00772212 C18.8115337,6.04868723 20.033243,5.71549378 20.9922779,6.26351372 C21.9513128,6.81153365 22.2845062,8.03324298 21.7364863,8.99227788 L15.4463594,20 L32.5536406,20 L26.2635137,8.99227788 C25.7154938,8.03324298 26.0486872,6.81153365 27.0077221,6.26351372 C27.966757,5.71549378 29.1884663,6.04868723 29.7364863,7.00772212 L37.1606451,20 L42.0027084,20 Z M13.0648193,38 L34.9354709,38 L36.3006365,33 L11.7061768,33 L13.0648193,38 Z" id="Combined-Shape"></path>
                </g>
            </g>
        </g>
    </g>
</svg>