<?xml version="1.0" encoding="UTF-8"?>
<svg width="48px" height="48px" viewBox="0 0 48 48" version="1.1" xmlns="http://www.w3.org/2000/svg" xmlns:xlink="http://www.w3.org/1999/xlink">
    <!-- Generator: Sketch 49.3 (51167) - http://www.bohemiancoding.com/sketch -->
    <title>theicons.co/svg/food-17</title>
    <desc>Created with Sketch.</desc>
    <defs></defs>
    <g id="The-Icons" stroke="none" stroke-width="1" fill="none" fill-rule="evenodd">
        <g id="v-1.5" transform="translate(-1152.000000, -480.000000)" fill="#000000">
            <g id="Food" transform="translate(96.000000, 480.000000)">
                <g id="Soup" transform="translate(1056.000000, 0.000000)">
                    <path d="M25.9115416,18 L34.3172581,4.91420105 C34.9142316,3.98484836 36.1515635,3.71540179 37.0809161,4.31237529 C38.0102688,4.90934879 38.2797154,6.14668064 37.6827419,7.07603333 L32.0488997,15.8466511 L42.7643569,7.42736332 C43.6329002,6.74493648 44.8902098,6.89581364 45.5726367,7.7643569 C46.2550635,8.63290015 46.1041864,9.89020984 45.2356431,10.5726367 L35.7826352,18 L42.0027084,18 C44.2140034,18 46,19.7935689 46,22.003902 L46,24.0078041 C46,30.9446805 42.0360855,37.1456329 35.9812325,40.1399173 C35.9812325,42.1827393 34.2156465,44 32.0092049,44 L15.9907951,44 C13.8402975,44 12.0796746,42.2964853 12,40.15979 C6.78430176,38.1523438 2,31.4025965 2,24.0078041 L2,22.003902 C2,19.7878439 3.78669818,18 5.99729162,18 L25.9115416,18 Z M6,22.003902 L6,24.0078041 C6,29.7587402 9.50568476,34.8619291 14.7502007,36.9841008 L15.0655778,37.1117169 C15.576875,37.3186111 15.9999494,37.9339994 15.999887,38.4819138 C15.999887,38.4819138 16.001954,40 15.9907951,40 C15.9907951,40 32,40.0010027 32,39.997699 L32,38.4811157 C32,37.9383354 32.4184098,37.3207462 32.9345445,37.1119474 L33.2499629,36.984347 C38.4947725,34.8625949 42,29.7605575 42,24.0078041 C42,24.0078041 42.0010671,22 42.0027084,22 C42.0027084,22 6,21.9997467 6,22.003902 Z M11.9872089,7.74648158 C11.9197995,7.68683865 11.8842176,7.6598913 11.8962912,7.66788095 C10.975146,7.0583194 10.7225575,5.8174364 11.3321191,4.89629119 C11.9416806,3.97514597 13.1825636,3.72255751 14.1037088,4.33211905 C14.5305053,4.61454868 15.0721116,5.09375434 15.5989346,5.7948882 C16.4708202,6.95525597 17,8.36770471 17,10 C17,11.6322953 16.4708202,13.044744 15.5989346,14.2051118 C15.0721116,14.9062457 14.5305053,15.3854513 14.1037088,15.6678809 C13.1825636,16.2774425 11.9416806,16.024854 11.3321191,15.1037088 C10.7225575,14.1825636 10.975146,12.9416806 11.8962912,12.3321191 C11.8842176,12.3401087 11.9197995,12.3131614 11.9872089,12.2535184 C12.1248249,12.1317577 12.2673847,11.9801852 12.4010654,11.8022735 C12.7791798,11.2990517 13,10.7096542 13,10 C13,9.29034582 12.7791798,8.70094826 12.4010654,8.19772655 C12.2673847,8.01981476 12.1248249,7.86824227 11.9872089,7.74648158 Z M19.9872089,7.74648158 C19.9197995,7.68683865 19.8842176,7.6598913 19.8962912,7.66788095 C18.975146,7.0583194 18.7225575,5.8174364 19.3321191,4.89629119 C19.9416806,3.97514597 21.1825636,3.72255751 22.1037088,4.33211905 C22.5305053,4.61454868 23.0721116,5.09375434 23.5989346,5.7948882 C24.4708202,6.95525597 25,8.36770471 25,10 C25,11.6322953 24.4708202,13.044744 23.5989346,14.2051118 C23.0721116,14.9062457 22.5305053,15.3854513 22.1037088,15.6678809 C21.1825636,16.2774425 19.9416806,16.024854 19.3321191,15.1037088 C18.7225575,14.1825636 18.975146,12.9416806 19.8962912,12.3321191 C19.8842176,12.3401087 19.9197995,12.3131614 19.9872089,12.2535184 C20.1248249,12.1317577 20.2673847,11.9801852 20.4010654,11.8022735 C20.7791798,11.2990517 21,10.7096542 21,10 C21,9.29034582 20.7791798,8.70094826 20.4010654,8.19772655 C20.2673847,8.01981476 20.1248249,7.86824227 19.9872089,7.74648158 Z" id="Combined-Shape"></path>
                </g>
            </g>
        </g>
    </g>
</svg>