<?xml version="1.0" encoding="UTF-8"?>
<svg width="48px" height="48px" viewBox="0 0 48 48" version="1.1" xmlns="http://www.w3.org/2000/svg" xmlns:xlink="http://www.w3.org/1999/xlink">
    <!-- Generator: Sketch 49.3 (51167) - http://www.bohemiancoding.com/sketch -->
    <title>theicons.co/svg/food-12</title>
    <desc>Created with Sketch.</desc>
    <defs></defs>
    <g id="The-Icons" stroke="none" stroke-width="1" fill="none" fill-rule="evenodd">
        <g id="v-1.5" transform="translate(-1440.000000, -480.000000)" fill="#000000">
            <g id="Food" transform="translate(96.000000, 480.000000)">
                <g id="Glass-of-Water" transform="translate(1344.000000, 0.000000)">
                    <path d="M24.9253019,36.5414912 C24.6262446,37.604806 23.5218237,38.2243592 22.4585088,37.9253019 C21.395194,37.6262446 20.7756408,36.5218237 21.0746981,35.4585088 L23.4106673,27.1528406 C22.0415141,26.3513717 21.405712,26.1118164 20.4589844,26.1118164 C19.4664819,26.1118164 18.8000126,26.3907872 17.5564029,27.2232723 C17.4870508,27.2696974 15.9197998,28.3531494 15.1227834,28.6184407 L15.7851563,40 L32.2812509,40.0000005 L32.9477196,28.2746813 C31.6756401,28.7465918 30.3386747,29.0161133 28.9541016,29.0161133 C28.266695,29.0161133 27.6696868,28.9577081 27.0944365,28.8290126 L24.9253019,36.5414912 Z M14.2720337,14 L14.8662816,24.2109684 C16.5597534,23.0768433 18.4969783,22.1118164 20.4589844,22.1118164 C21.9939253,22.1118164 23.0774558,22.4268446 24.5244461,23.1927382 L27.1099037,14 L14.2720337,14 Z M28.1835083,24.9567574 C28.4284385,24.9985178 28.678048,25.0161133 28.9541016,25.0161133 C30.1980775,25.0161133 32.190918,24.4943848 33.2060198,23.7303522 L33.7590942,14 L31.2650963,14 L28.1835083,24.9567574 Z M30.0746981,3.45850885 C30.3964982,2.31433067 31.6392217,1.70162275 32.7427814,2.14304662 L42.7427814,6.14304662 C43.7683484,6.55327343 44.2671802,7.71721432 43.8569534,8.74278135 C43.4467266,9.76834839 42.2827857,10.2671802 41.2572186,9.85695338 L33.3352436,6.63947617 L32.3900963,10 L36.0087557,10 C37.1084896,10 37.9475329,10.8919411 37.8823576,11.9999204 L36.1176424,42.0000796 C36.0526703,43.1046051 35.1029738,44 33.9950534,44 L14.0049466,44 C12.8976452,44 11.9475329,43.1080589 11.8823576,42.0000796 L10.1176424,11.9999204 C10.0526703,10.8953949 10.8998975,10 11.9912443,10 L28.2349037,10 L30.0746981,3.45850885 Z M19,33 C17.8954305,33 17,32.1045695 17,31 C17,29.8954305 17.8954305,29 19,29 C20.1045695,29 21,29.8954305 21,31 C21,32.1045695 20.1045695,33 19,33 Z M29,38 C27.8954305,38 27,37.1045695 27,36 C27,34.8954305 27.8954305,34 29,34 C30.1045695,34 31,34.8954305 31,36 C31,37.1045695 30.1045695,38 29,38 Z" id="Combined-Shape"></path>
                </g>
            </g>
        </g>
    </g>
</svg>