<?xml version="1.0" encoding="UTF-8"?>
<svg width="48px" height="48px" viewBox="0 0 48 48" version="1.1" xmlns="http://www.w3.org/2000/svg" xmlns:xlink="http://www.w3.org/1999/xlink">
    <!-- Generator: Sketch 49.3 (51167) - http://www.bohemiancoding.com/sketch -->
    <title>theicons.co/svg/food-13</title>
    <desc>Created with Sketch.</desc>
    <defs></defs>
    <g id="The-Icons" stroke="none" stroke-width="1" fill="none" fill-rule="evenodd">
        <g id="v-1.5" transform="translate(-1536.000000, -480.000000)" fill="#000000">
            <g id="Food" transform="translate(96.000000, 480.000000)">
                <g id="Coke" transform="translate(1440.000000, 0.000000)">
                    <path d="M34.210941,1.12380081 C34.7046935,0.135730827 35.9059479,-0.264992697 36.8940179,0.228759766 C37.8820879,0.722512228 38.2828114,1.92376666 37.789059,2.91183664 L35.2339799,8.00539106 C37.8867752,8.12788902 40,10.3224638 40,13 L40,16.000385 C40,17.1047419 39.1107383,18 37.9982567,18 L37.4894823,18 L34.2655489,42.021405 C34.1188903,43.1141528 33.1017876,44 32.0092049,44 L15.9907951,44 C14.8913093,44 13.8802879,43.10803 13.7344511,42.021405 L10.5105177,18 L10.0017433,18 C8.89621101,18 8,17.1125667 8,16.000385 L8,13 C8,10.2385763 10.2374593,8 13,8 L30.7650493,8 L34.210941,1.12380081 Z M13,12 C12.4471222,12 12,12.4471912 12,13 L12.0340572,14.0002004 L36,14.0025635 L36,13 C36,12.4506991 35.5496505,12 35,12 L13,12 Z M14.5762881,18 L17.5100122,39.9985645 L30.5028194,39.9862879 L33.4222587,18 L14.5762881,18 Z M24,34 C20.6862915,34 18,31.3137085 18,28 C18,24.6862915 20.6862915,22 24,22 C27.3137085,22 30,24.6862915 30,28 C30,31.3137085 27.3137085,34 24,34 Z M24,30 C25.1045695,30 26,29.1045695 26,28 C26,26.8954305 25.1045695,26 24,26 C22.8954305,26 22,26.8954305 22,28 C22,29.1045695 22.8954305,30 24,30 Z" id="Combined-Shape"></path>
                </g>
            </g>
        </g>
    </g>
</svg>