<?xml version="1.0" encoding="UTF-8"?>
<svg width="48px" height="48px" viewBox="0 0 48 48" version="1.1" xmlns="http://www.w3.org/2000/svg" xmlns:xlink="http://www.w3.org/1999/xlink">
    <!-- Generator: Sketch 49.3 (51167) - http://www.bohemiancoding.com/sketch -->
    <title>theicons.co/svg/food-18</title>
    <desc>Created with Sketch.</desc>
    <defs></defs>
    <g id="The-Icons" stroke="none" stroke-width="1" fill="none" fill-rule="evenodd">
        <g id="v-1.5" transform="translate(-192.000000, -480.000000)" fill="#000000">
            <g id="Food" transform="translate(96.000000, 480.000000)">
                <g id="Strawberry" transform="translate(96.000000, 0.000000)">
                    <path d="M26.1702388,6.19813339 C28.891726,3.47664617 31.9182158,4.0486477 31.9182158,4.0486477 C33.0130437,4.03164079 33.930592,4.97969769 33.9513685,6.08180043 C33.9513685,6.08180043 34.52337,9.1082902 31.8018828,11.8297774 C31.487127,12.1445332 31.1415987,12.4147312 30.7766261,12.6464679 C36.7108166,13.967982 40,17.3928551 40,23.625 C40,33.1744744 32.4387691,44 24,44 C15.5612309,44 8,33.1744744 8,23.625 C8,17.3928551 11.2891834,13.967982 17.2233739,12.6464679 C16.8584013,12.4147312 16.512873,12.1445332 16.1981172,11.8297774 C13.47663,9.1082902 14.0486315,6.08180043 14.0486315,6.08180043 C14.069408,4.97969769 14.9869563,4.03164079 16.0817842,4.0486477 C16.0817842,4.0486477 19.108274,3.47664617 21.8297612,6.19813339 C23.462745,7.83111718 23.8963956,10.2923867 23.9820534,12.0000035 C24.1036044,10.2923867 24.537255,7.83111718 26.1702388,6.19813339 Z M24,40 C29.8594645,40 36,31.2085048 36,23.625 C36,18.1353705 32.242432,16 24,16 C15.757568,16 12,18.1353705 12,23.625 C12,31.2085048 18.1405355,40 24,40 Z M19,28 C17.3431458,28 15.9992676,24.9870605 16.0010986,23.001709 C16.0029297,21.0163574 17.3431458,20 19,20 C20.6568542,20 22.0177002,21.0007324 22.013916,23.001709 C22.0101318,25.0026855 20.6568542,28 19,28 Z M29,28 C27.3431458,28 25.9992676,24.9870605 26.0010986,23.001709 C26.0029297,21.0163574 27.3431458,20 29,20 C30.6568542,20 32.0177002,21.0007324 32.013916,23.001709 C32.0101318,25.0026855 30.6568542,28 29,28 Z M24,36 C22.3431458,36 20.9992676,32.9870605 21.0010986,31.001709 C21.0029297,29.0163574 22.3431458,28 24,28 C25.6568542,28 27.0177002,29.0007324 27.013916,31.001709 C27.0101318,33.0026855 25.6568542,36 24,36 Z" id="Combined-Shape"></path>
                </g>
            </g>
        </g>
    </g>
</svg>