<?xml version="1.0" encoding="UTF-8"?>
<svg width="48px" height="48px" viewBox="0 0 48 48" version="1.1" xmlns="http://www.w3.org/2000/svg" xmlns:xlink="http://www.w3.org/1999/xlink">
    <!-- Generator: Sketch 49.3 (51167) - http://www.bohemiancoding.com/sketch -->
    <title>theicons.co/svg/food-01</title>
    <desc>Created with Sketch.</desc>
    <defs></defs>
    <g id="The-Icons" stroke="none" stroke-width="1" fill="none" fill-rule="evenodd">
        <g id="v-1.5" transform="translate(-96.000000, -480.000000)" fill="#000000">
            <g id="Food" transform="translate(96.000000, 480.000000)">
                <g id="Apple">
                    <path d="M27.4142136,17.5857864 C27.581257,17.5909402 29.9688773,17.1440401 30.7956119,17.0640735 C31.2041803,17.0245543 31.5980456,17.0027608 31.9861038,17.0000488 C36.4672713,17.029715 39.9409169,21.3856874 40.0000005,27.9820868 C39.9224739,36.480981 33.4934259,44.0372299 24.0000411,44.0000171 C14.5066548,44.0372299 8.07760686,36.480981 8.00008022,27.9820868 C8.05916383,21.3856874 11.5328094,17.029715 16.0139769,17.0000488 C16.4020352,17.0027608 16.7959004,17.0245543 17.2044689,17.0640735 C18.0312035,17.1440401 21.5001232,17.7886255 22.0342531,17.8626802 L15.5857864,11.4142136 C14.8047379,10.633165 14.8047379,9.36683502 15.5857864,8.58578644 C16.366835,7.80473785 17.633165,7.80473785 18.4142136,8.58578644 L20.1666289,10.3382018 C20.429096,8.92504831 20.9871365,7.37834813 22.1299675,6.23551712 C24.8636375,3.50184708 27.9036755,4.07640918 27.9036755,4.07640918 C29.0158883,4.05962037 29.9254637,5.00406997 29.9468309,6.10178419 C29.9468309,6.10178419 30.5204918,9.15870133 27.7868217,11.8923714 C26.6439907,13.0352024 25.0972906,13.5932428 23.6841371,13.8557099 L27.4142136,17.5857864 Z M19.3758387,21.4642449 C17.9117402,21.1837799 16.2496997,21.0017939 16.0133232,20.9999556 C13.9699407,21.0135682 12.0409912,23.4324823 11.9999161,27.9816796 C12.0585661,34.3841144 16.8634461,40.0302021 23.9887831,40.0000298 C31.1366347,40.0302021 35.9415146,34.3841144 36.0001646,27.9816796 C35.9590895,23.4324823 34.0301401,21.0135682 31.9867575,20.9999556 C31.7503811,21.0017939 30.0883405,21.1837799 28.624242,21.4642449 C26.5939649,21.8531679 25.4508794,22.0063484 24.0000447,22.000021 C22.5492013,22.0063484 21.4061158,21.8531679 19.3758387,21.4642449 Z" id="Combined-Shape"></path>
                </g>
            </g>
        </g>
    </g>
</svg>