<?xml version="1.0" encoding="UTF-8"?>
<svg width="48px" height="48px" viewBox="0 0 48 48" version="1.1" xmlns="http://www.w3.org/2000/svg" xmlns:xlink="http://www.w3.org/1999/xlink">
    <!-- Generator: Sketch 49.3 (51167) - http://www.bohemiancoding.com/sketch -->
    <title>theicons.co/svg/food-04</title>
    <desc>Created with Sketch.</desc>
    <defs></defs>
    <g id="The-Icons" stroke="none" stroke-width="1" fill="none" fill-rule="evenodd">
        <g id="v-1.5" transform="translate(-576.000000, -480.000000)" fill="#000000">
            <g id="Food" transform="translate(96.000000, 480.000000)">
                <g id="Seed" transform="translate(480.000000, 0.000000)">
                    <path d="M19.4387225,26.2181317 C18.2225256,26.0313904 16.9367507,26.4063951 16,27.3431458 C14.7722546,28.5708911 12.870319,31.65528 11.7028968,34.5127972 C11.0889319,36.0156084 10.630249,38.3613281 10.630249,38.3613281 C10.630249,38.3613281 12.9843916,37.9110681 14.4872028,37.2971032 C17.34472,36.129681 20.4291089,34.2277454 21.6568542,33 C22.8068018,31.8500525 23.1102083,30.1741318 22.5670738,28.7466347 L20.2412981,31.0724104 C19.460991,31.8527175 18.2007075,31.8575617 17.4142136,31.0710678 C16.633165,30.2900192 16.6269961,29.0298582 17.412871,28.2439832 L19.4387225,26.2181317 Z M25.449461,12.2778881 C25.0930906,13.6123553 25.438364,15.0952183 26.4852814,16.1421356 C27.7130268,17.369881 30.7974156,19.2718166 33.6549328,20.4392388 C35.157744,21.0532037 37.5183072,21.4699299 37.5183072,21.4699299 C37.5183072,21.4699299 37.0532037,19.157744 36.4392388,17.6549328 C35.2718166,14.7974156 33.369881,11.7130268 32.1421356,10.4852814 C31.0952183,9.43836403 29.6123553,9.09309057 28.2778881,9.449461 L29.8297697,11.0013425 C30.6100768,11.7816497 30.614921,13.0419332 29.8284271,13.8284271 C29.0473785,14.6094757 27.7872175,14.6156446 27.0013425,13.8297697 L25.449461,12.2778881 Z M13.1715729,24.5147186 C16.2957672,21.3905243 21.361087,21.3905243 24.4852814,24.5147186 C27.6094757,27.638913 27.6094757,32.7042328 24.4852814,35.8284271 C21.361087,38.9526215 10.638913,44.6094757 7.51471863,41.4852814 C4.39052429,38.361087 10.0473785,27.638913 13.1715729,24.5147186 Z M23.6568542,18.9705627 C20.5326599,15.8463684 20.5326599,10.7810486 23.6568542,7.65685425 C26.7810486,4.53265992 31.8463684,4.53265992 34.9705627,7.65685425 C38.0947571,10.7810486 43.7516113,21.5032227 40.627417,24.627417 C37.5032227,27.7516113 26.7810486,22.0947571 23.6568542,18.9705627 Z M8.25735931,19.2279221 C7.01065419,17.9812169 9.2680135,13.7025492 10.5147186,12.4558441 C11.7614237,11.209139 13.7827321,11.209139 15.0294373,12.4558441 C16.2761424,13.7025492 16.2761424,15.7238576 15.0294373,16.9705627 C13.7827321,18.2172679 9.50406444,20.4746272 8.25735931,19.2279221 Z M38.0294373,38.0294373 C36.7827321,39.2761424 32.5040644,37.0187831 31.2573593,35.7720779 C30.0106542,34.5253728 30.0106542,32.5040644 31.2573593,31.2573593 C32.5040644,30.0106542 34.5253728,30.0106542 35.7720779,31.2573593 C37.0187831,32.5040644 39.2761424,36.7827321 38.0294373,38.0294373 Z" id="Combined-Shape"></path>
                </g>
            </g>
        </g>
    </g>
</svg>