<?xml version="1.0" encoding="UTF-8"?>
<svg width="48px" height="48px" viewBox="0 0 48 48" version="1.1" xmlns="http://www.w3.org/2000/svg" xmlns:xlink="http://www.w3.org/1999/xlink">
    <!-- Generator: Sketch 49.3 (51167) - http://www.bohemiancoding.com/sketch -->
    <title>theicons.co/svg/food-02</title>
    <desc>Created with Sketch.</desc>
    <defs></defs>
    <g id="The-Icons" stroke="none" stroke-width="1" fill="none" fill-rule="evenodd">
        <g id="v-1.5" transform="translate(-384.000000, -480.000000)" fill="#000000">
            <g id="Food" transform="translate(96.000000, 480.000000)">
                <g id="Carrot" transform="translate(288.000000, 0.000000)">
                    <path d="M18.2536532,7.7127966 C17.456479,5.64909552 18.6002208,3.98041785 20.8109953,3.98570721 L27.1719759,4.00092609 C29.3815311,4.00621254 30.5296078,5.67640538 29.733289,7.73914621 L26.5441956,16 L28.0083475,16 C32.4220153,16 35.4933972,19.5462193 34.8697995,23.9114032 L33.1302005,36.0885968 C32.506008,40.4579441 28.4092877,44 24,44 C19.581722,44 15.4933972,40.4537807 14.8697995,36.0885968 L13.1302005,23.9114032 C12.506008,19.5420559 15.5800761,16 19.9916525,16 L21.4548651,16 L18.2536532,7.7127966 Z M25.9981014,36 C24.8945804,36 24,35.1122704 24,34 C24,32.8954305 24.8867064,32 25.9981014,32 L29.6736755,32 L30.2451041,28 L25.999615,28 C24.8952581,28 24,27.1122704 24,26 C24,24.8954305 24.8874333,24 25.999615,24 L30.8165327,24 L30.9100016,23.3457177 C31.1896145,21.3884271 29.9859603,20 28.0083475,20 L19.9916525,20 C18.0133641,20 16.810182,21.387003 17.0899984,23.3457177 L18.8295975,35.5229114 C19.1718168,37.9184465 21.5732807,40 24,40 C26.2605889,40 28.5055934,38.1873105 29.0743371,36 L25.9981014,36 Z" id="Combined-Shape"></path>
                </g>
            </g>
        </g>
    </g>
</svg>