<?xml version="1.0" encoding="UTF-8"?>
<svg width="48px" height="48px" viewBox="0 0 48 48" version="1.1" xmlns="http://www.w3.org/2000/svg" xmlns:xlink="http://www.w3.org/1999/xlink">
    <!-- Generator: Sketch 49.3 (51167) - http://www.bohemiancoding.com/sketch -->
    <title>theicons.co/svg/grid-10</title>
    <desc>Created with Sketch.</desc>
    <defs></defs>
    <g id="The-Icons" stroke="none" stroke-width="1" fill="none" fill-rule="evenodd">
        <g id="v-1.5" transform="translate(-960.000000, -2208.000000)" fill="#000000">
            <g id="Grid" transform="translate(96.000000, 2208.000000)">
                <g id="Dublicate" transform="translate(864.000000, 0.000000)">
                    <path d="M18,18 L18,7.99700887 C18,6.89409133 18.8970262,6 20.0049466,6 L39.9950534,6 C41.1023548,6 42,6.89702623 42,8.00494659 L42,27.9950534 C42,29.1023548 41.1092129,30 40.0081681,30 L30,30 L30,39.9950534 C30,41.1023548 29.1029738,42 27.9950534,42 L8.00494659,42 C6.89764516,42 6,41.1029738 6,39.9950534 L6,20.0049466 C6,18.8976452 6.89702623,18 8.00494659,18 L18,18 Z M22.0104037,18 L27.9950534,18 C29.1023548,18 30,18.8970262 30,20.0049466 L30,26 L38.0070801,26 L38,10 L22.0533447,10 L22.0104037,18 Z M9.98694588,38.0018557 L26.0012614,38.0168495 L26.0114746,22 L10.0250244,22 L9.98694588,38.0018557 Z" id="Combined-Shape"></path>
                </g>
            </g>
        </g>
    </g>
</svg>