<?xml version="1.0" encoding="UTF-8"?>
<svg width="48px" height="48px" viewBox="0 0 48 48" version="1.1" xmlns="http://www.w3.org/2000/svg" xmlns:xlink="http://www.w3.org/1999/xlink">
    <!-- Generator: Sketch 49.3 (51167) - http://www.bohemiancoding.com/sketch -->
    <title>theicons.co/svg/grid-14</title>
    <desc>Created with Sketch.</desc>
    <defs></defs>
    <g id="The-Icons" stroke="none" stroke-width="1" fill="none" fill-rule="evenodd">
        <g id="v-1.5" transform="translate(-1344.000000, -2208.000000)" fill="#000000">
            <g id="Grid" transform="translate(96.000000, 2208.000000)">
                <g id="Drag" transform="translate(1248.000000, 0.000000)">
                    <path d="M11,22 L13.0934754,19.7633911 C13.8778552,18.9790112 13.8860011,17.7154261 13.0995071,16.9289322 C12.3184586,16.1478836 11.0475184,16.1524938 10.2650483,16.934964 L4.62025753,22.5797547 C4.22470494,22.9753073 4.03059073,23.4866724 4.03091576,23.9985269 C4.02738944,24.5110703 4.22198558,25.0219734 4.61422577,25.4142136 C4.61824729,25.418233 10.2650483,31.065036 10.2650483,31.065036 C11.0494281,31.8494159 12.3130132,31.8575617 13.0995071,31.0710678 C13.8805557,30.2900192 13.8759455,29.019079 13.0934754,28.2366089 L10.8568665,26 L22,26 L22,37.1798149 L19.8000724,34.943206 C19.0176023,34.1607359 17.7466621,34.1561256 16.9656135,34.9371742 C16.1791196,35.7236681 16.1872655,36.9872533 16.9716453,37.7716331 C16.9716453,37.7716331 22.6184484,43.4184341 22.6224678,43.4224556 C23.014708,43.8146958 23.5256111,44.0092919 24.0381544,44.0057656 C24.550009,44.0060906 25.0613741,43.8119764 25.4569267,43.4164238 L31.1017174,37.7716331 C31.8841875,36.989163 31.8887978,35.7182228 31.1077492,34.9371742 C30.3212553,34.1506803 29.0576701,34.1588261 28.2732903,34.943206 L26,37.1798149 L26,26 L37.2137329,26 L34.977124,28.2366089 C34.1946539,29.019079 34.1900436,30.2900192 34.9710922,31.0710678 C35.7575861,31.8575617 37.0211713,31.8494159 37.8055511,31.065036 C37.8055511,31.065036 43.4523521,25.418233 43.4563736,25.4142136 C43.8486138,25.0219734 44.0432099,24.5110703 44.0396836,23.9985269 C44.0400086,23.4866724 43.8458944,22.9753073 43.4503418,22.5797547 L37.8055511,16.934964 C37.023081,16.1524938 35.7521408,16.1478836 34.9710922,16.9289322 C34.1845983,17.7154261 34.1927442,18.9790112 34.977124,19.7633911 L37.2137329,22 L26,22 L26.0366814,10.8229484 L28.2732903,13.0595574 C29.0576701,13.8439372 30.3212553,13.852083 31.1077492,13.0655891 C31.8887978,12.2845406 31.8841875,11.0136004 31.1017174,10.2311302 L25.4569267,4.58633952 C25.0613741,4.19078693 24.550009,3.99667272 24.0381544,3.99699775 C23.5256111,3.99347143 23.014708,4.18806757 22.6224678,4.58030776 C22.6184484,4.58432928 16.9716453,10.2311302 16.9716453,10.2311302 C16.1872655,11.0155101 16.1791196,12.2790952 16.9656135,13.0655891 C17.7466621,13.8466377 19.0176023,13.8420275 19.8000724,13.0595574 L22,10.8229484 L22,22 L11,22 Z" id="Rectangle-586"></path>
                </g>
            </g>
        </g>
    </g>
</svg>