<?xml version="1.0" encoding="UTF-8"?>
<svg width="48px" height="48px" viewBox="0 0 48 48" version="1.1" xmlns="http://www.w3.org/2000/svg" xmlns:xlink="http://www.w3.org/1999/xlink">
    <!-- Generator: Sketch 49.3 (51167) - http://www.bohemiancoding.com/sketch -->
    <title>theicons.co/svg/home-25</title>
    <desc>Created with Sketch.</desc>
    <defs></defs>
    <g id="The-Icons" stroke="none" stroke-width="1" fill="none" fill-rule="evenodd">
        <g id="v-1.5" transform="translate(-1056.000000, -672.000000)" fill="#000000">
            <g id="Home" transform="translate(96.000000, 576.000000)">
                <g id="Candles" transform="translate(960.000000, 96.000000)">
                    <path d="M13.9981014,28 C12.8867064,28 12,28.8992496 12,30.0085302 L12,40 L20,40 L20,33 L19,33 C17.3431458,33 16,31.6503296 16,29.9907455 L16,28 L13.9981014,28 Z M18,24 L22.0059397,24 C23.1072288,24 24,24.8982124 24,25.9907951 L24,40 L26,40 L26,22.0067025 C26,19.4246829 27.6251936,17.2231697 29.90894,16.3740051 C29.295696,15.8963129 28.0619674,14.6802831 28.0619674,12.6281961 C28.0619674,9.89742216 30.3342285,8.47736701 31.0465088,7.44886359 C31.7587891,6.42036017 31.88106,4.55015252 31.88106,4.55015252 C31.9467488,3.99991102 32.3310483,3.85037623 32.739108,4.22255663 C32.739108,4.22255663 35.8128543,6.91583828 36.8412642,8.61931828 C37.7400096,10.108019 39.1056444,13.1552366 36.4605961,16 L37.9941413,16 C39.1019465,16 40,16.8998975 40,17.9912443 L40,40 L42.0027084,40 C43.1057821,40 44,40.8877296 44,42 C44,43.1045695 43.1084602,44 42.0027084,44 L5.99729162,44 C4.89421792,44 4,43.1122704 4,42 C4,40.8954305 4.89153983,40 5.99729162,40 L8,40 L8,30.0006595 C8,26.6876934 10.6762521,24.0017943 14,24.0000009 L14,19.999615 C14,18.8952581 14.8877296,18 16,18 C17.1045695,18 18,18.8874333 18,19.999615 L18,24 Z M30,21.9907951 L30,40 L36,40 L36,20 L31.9979131,20 C30.8982606,20 30,20.8913093 30,21.9907951 Z" id="Combined-Shape"></path>
                </g>
            </g>
        </g>
    </g>
</svg>