<?xml version="1.0" encoding="UTF-8"?>
<svg width="48px" height="48px" viewBox="0 0 48 48" version="1.1" xmlns="http://www.w3.org/2000/svg" xmlns:xlink="http://www.w3.org/1999/xlink">
    <!-- Generator: Sketch 49.3 (51167) - http://www.bohemiancoding.com/sketch -->
    <title>theicons.co/svg/home-27</title>
    <desc>Created with Sketch.</desc>
    <defs></defs>
    <g id="The-Icons" stroke="none" stroke-width="1" fill="none" fill-rule="evenodd">
        <g id="v-1.5" transform="translate(-1248.000000, -672.000000)" fill="#000000">
            <g id="Home" transform="translate(96.000000, 576.000000)">
                <g id="Globe" transform="translate(1152.000000, 96.000000)">
                    <path d="M30.6542969,25.5961914 C28.8730469,22.5754395 30.0646972,20.0576172 31.4975585,19.1970215 C32.5627984,18.5572241 35.3139238,18.9919865 36.9499138,20.056558 C36.9830506,19.7088388 37,19.3563988 37,19 C37,12.9248678 32.0751322,8 26,8 C23.9422136,8 22.0164007,8.56504586 20.3692528,9.54844607 C21.4760013,10.4965005 21.2053328,12.8112738 20.4194336,14.227783 C19.3234863,16.2031246 16.5014648,17.354492 18.9489746,20.7578123 C21.1677027,23.8430063 22.5261224,26.1882716 22.4906053,29.4283221 C23.5927372,29.7990721 24.772904,30 26,30 C27.7728868,30 29.4478138,29.5805839 30.9309713,28.8355612 C31.2894493,27.9385345 31.3761594,26.8203697 30.6542969,25.5961914 Z M43.2366089,33.4081818 C44.0209888,34.1925616 44.0291346,35.4561468 43.2426407,36.2426407 C42.4615921,37.0236893 41.1906519,37.019079 40.4081818,36.2366089 L39.3685609,35.196988 C36.0417569,37.949438 32.0654299,39.5188833 27.9979107,39.9053239 C27.9992985,39.936064 28,42 28,42 L35.9950534,42 C37.1023548,42 38,42.8877296 38,44 C38,45.1045695 37.1029738,46 35.9950534,46 L16.0049466,46 C14.8976452,46 14,45.1122704 14,44 C14,42.8954305 14.8970262,42 16.0049466,42 L24,42 L24,39.9981014 C19.311684,39.4597075 14.7425285,37.4410133 11.1507576,33.8492424 C3.42673904,26.1252239 2.97749051,13.8812427 9.803012,5.63143913 L8.76339107,4.5918182 C7.97901124,3.80743837 7.9708654,2.54385322 8.75735931,1.75735931 C9.5384079,0.976310729 10.8093481,0.980920966 11.5918182,1.76339107 L16.9017545,7.07332736 C19.4253522,5.14527158 22.5789299,4 26,4 C34.2842712,4 41,10.7157288 41,19 C41,22.4210701 39.8547284,25.5746478 37.9266726,28.0982455 L43.2366089,33.4081818 Z M26,34 C17.7157288,34 11,27.2842712 11,19 C11,15.5789299 12.1452716,12.4253522 14.0733274,9.90175448 L12.6472828,8.47570995 C7.37475213,15.1481082 7.81871943,24.86035 13.9791847,31.0208153 C20.13965,37.1812806 29.8518918,37.6252479 36.5242901,32.3527172 L35.0982455,30.9266726 C32.5746478,32.8547284 29.4210701,34 26,34 Z" id="Path"></path>
                </g>
            </g>
        </g>
    </g>
</svg>