<?xml version="1.0" encoding="UTF-8"?>
<svg width="48px" height="48px" viewBox="0 0 48 48" version="1.1" xmlns="http://www.w3.org/2000/svg" xmlns:xlink="http://www.w3.org/1999/xlink">
    <!-- Generator: Sketch 49.3 (51167) - http://www.bohemiancoding.com/sketch -->
    <title>theicons.co/svg/home-05</title>
    <desc>Created with Sketch.</desc>
    <defs></defs>
    <g id="The-Icons" stroke="none" stroke-width="1" fill="none" fill-rule="evenodd">
        <g id="v-1.5" transform="translate(-480.000000, -576.000000)" fill="#000000">
            <g id="Home" transform="translate(96.000000, 576.000000)">
                <g id="Pan" transform="translate(384.000000, 0.000000)">
                    <path d="M41.3043968,17.3117237 C41.6885678,17.6918482 42,18.4509752 42,18.990778 L42,22.0020869 C42,23.1055038 41.1101074,24 40.0002927,24 L40,27.0680907 L42.9708084,25.2851342 C43.9179026,24.7167274 45.146459,25.0237142 45.7148658,25.9708084 C46.2832726,26.9179026 45.9762858,28.146459 45.0291916,28.7148658 L40,31.7331788 L40,41.9950534 C40,43.1023548 39.1107383,44 37.9982567,44 L10.0017433,44 C8.89621101,44 8,43.1029738 8,41.9950534 L8,31.7331788 L2.9708084,28.7148658 C2.02371418,28.146459 1.71672739,26.9179026 2.28513422,25.9708084 C2.85354105,25.0237142 4.08209738,24.7167274 5.0291916,25.2851342 L8,27.0680907 L8,24 C6.89529944,24 6,23.1017394 6,22.0020869 L6,18.990778 C6,18.4435864 6.31949222,17.6858617 6.73133456,17.3233869 C6.73133456,17.3233869 10.0115322,13.624499 18.4963212,12.39328 C18.1770531,11.6600984 18,10.8507257 18,10 C18,6.6862915 20.6862915,4 24,4 C27.3137085,4 30,6.6862915 30,10 C30,10.829785 29.831556,11.6202277 29.5269962,12.3389999 C38.2094826,13.5097804 41.3043968,17.3117237 41.3043968,17.3117237 Z M12.007658,29.4733215 L15.0291916,31.2867211 C15.9762858,31.855128 16.2832726,33.0836843 15.7148658,34.0307785 C15.146459,34.9778727 13.9179026,35.2848595 12.9708084,34.7164527 L12.0141695,34.1423176 L12.0223389,40 L36,39.9827881 L36,34.1338136 L35.0291916,34.7164527 C34.0820974,35.2848595 32.853541,34.9778727 32.2851342,34.0307785 C31.7167274,33.0836843 32.0237142,31.855128 32.9708084,31.2867211 L36,29.4687255 L36,24 L12.0000247,24 L12.007658,29.4733215 Z M10.0249634,20 L38,20 C38,20 38.0434732,19.6987216 37.8868283,19.5697466 C37.3632701,19.1386705 36.6637913,18.682966 35.7691199,18.23908 C32.9857869,16.8581456 29.1940195,16 24.2163086,16 C19.2251037,16 15.3413587,16.8662434 12.4166009,18.268546 C11.4630542,18.7257329 10.7037045,19.1985146 10.1233106,19.6496803 C9.84077242,19.8693097 10.0249634,20 10.0249634,20 Z M24,12 C25.1045695,12 26,11.1045695 26,10 C26,8.8954305 25.1045695,8 24,8 C22.8954305,8 22,8.8954305 22,10 C22,11.1045695 22.8954305,12 24,12 Z" id="Combined-Shape"></path>
                </g>
            </g>
        </g>
    </g>
</svg>