<?xml version="1.0" encoding="UTF-8"?>
<svg width="48px" height="48px" viewBox="0 0 48 48" version="1.1" xmlns="http://www.w3.org/2000/svg" xmlns:xlink="http://www.w3.org/1999/xlink">
    <!-- Generator: Sketch 49.3 (51167) - http://www.bohemiancoding.com/sketch -->
    <title>theicons.co/svg/home-38</title>
    <desc>Created with Sketch.</desc>
    <defs></defs>
    <g id="The-Icons" stroke="none" stroke-width="1" fill="none" fill-rule="evenodd">
        <g id="v-1.5" transform="translate(-480.000000, -672.000000)" fill="#000000">
            <g id="Home" transform="translate(96.000000, 576.000000)">
                <g id="Hair-Dryer" transform="translate(384.000000, 96.000000)">
                    <path d="M25,31 C25,32.6568542 23.6568542,34 22,34 C21.8577014,34 21.7177168,33.9900927 21.5806984,33.9709302 L20.7181424,38.4562212 C20.120688,41.5629841 17.1642851,44 14,44 C10.6877314,44 8,41.3142932 8,38.0052166 L8,25.7655679 C4.4215856,24.0922021 2,20.4676505 2,16 C2,9.2702511 7.50545126,4.44969404 14.1705921,5.33837949 L33.7443129,7.94820892 L43.2572186,4.14304662 C44.5709474,3.6175551 46,4.58507079 46,6 L46,26 C46,27.4149292 44.5709474,28.3824449 43.2572186,27.8569534 L33.7443129,24.0517911 L23.2183281,25.4552557 L22.7125811,28.0851401 C24.0254453,28.4049772 25,29.5886789 25,31 Z M12,38.0052166 C12,39.1044792 12.8961959,40 14,40 C15.2481076,40 16.5551675,38.9225671 16.7901166,37.7008316 L19.0378432,26.0126537 L14.1705921,26.6616205 C13.4306871,26.7602745 12.7051873,26.7887098 12,26.7521018 L12,38.0052166 Z M36,20.6459341 L42,23.0459341 L42,8.95406592 L36,11.3540659 L36,20.6459341 Z M32,11.7510328 L13.6419373,9.30329109 C9.37481749,8.73434179 6,11.6893221 6,16 C6,20.3143449 9.3696895,23.2663419 13.6419373,22.6967089 L32,20.2489672 L32,11.7510328 Z" id="Combined-Shape"></path>
                </g>
            </g>
        </g>
    </g>
</svg>