<?xml version="1.0" encoding="UTF-8"?>
<svg width="48px" height="48px" viewBox="0 0 48 48" version="1.1" xmlns="http://www.w3.org/2000/svg" xmlns:xlink="http://www.w3.org/1999/xlink">
    <!-- Generator: Sketch 49.3 (51167) - http://www.bohemiancoding.com/sketch -->
    <title>theicons.co/svg/home-30</title>
    <desc>Created with Sketch.</desc>
    <defs></defs>
    <g id="The-Icons" stroke="none" stroke-width="1" fill="none" fill-rule="evenodd">
        <g id="v-1.5" transform="translate(-1536.000000, -672.000000)" fill="#000000">
            <g id="Home" transform="translate(96.000000, 576.000000)">
                <g id="Lamp-1" transform="translate(1440.000000, 96.000000)">
                    <path d="M35,30.7638935 C35.6137494,31.313214 36,32.1115002 36,33 C36,34.6568542 34.6568542,36 33,36 C31.3431458,36 30,34.6568542 30,33 C30,32.1115002 30.3862506,31.313214 31,30.7638935 L31,28 L26,28 L26,40 L33.9950534,40 C35.1023548,40 36,40.8877296 36,42 C36,43.1045695 35.1029738,44 33.9950534,44 L14.0049466,44 C12.8976452,44 12,43.1122704 12,42 C12,40.8954305 12.8970262,40 14.0049466,40 L22,40 L22,28 L10.0017433,28 C8.89621101,28 8.14710599,27.117364 8.32733679,26.0359793 L11.6726632,5.96402073 C11.8534463,4.87932203 12.8970262,4 14.0049466,4 L33.9950534,4 C35.1023548,4 36.147106,4.88263595 36.3273368,5.96402073 L39.6726632,26.0359793 C39.8534463,27.120678 39.1107383,28 37.9982567,28 L35,28 L35,30.7638935 Z M12.7021484,24 L35.2770641,23.9934345 L32.6140137,8 L15.366333,7.99999996 L12.7021484,24 Z" id="Rectangle-621"></path>
                </g>
            </g>
        </g>
    </g>
</svg>