<?xml version="1.0" encoding="UTF-8"?>
<svg width="48px" height="48px" viewBox="0 0 48 48" version="1.1" xmlns="http://www.w3.org/2000/svg" xmlns:xlink="http://www.w3.org/1999/xlink">
    <!-- Generator: Sketch 49.3 (51167) - http://www.bohemiancoding.com/sketch -->
    <title>theicons.co/svg/keyboard-14</title>
    <desc>Created with Sketch.</desc>
    <defs></defs>
    <g id="The-Icons" stroke="none" stroke-width="1" fill="none" fill-rule="evenodd">
        <g id="v-1.5" transform="translate(-1728.000000, -2400.000000)">
            <g id="Phone" transform="translate(96.000000, 2304.000000)"></g>
            <g id="Keyboard" transform="translate(384.000000, 2400.000000)" fill="#000000">
                <g id="Volume-Off" transform="translate(1344.000000, 0.000000)">
                    <path d="M42.4142136,19.4142136 C43.1952621,18.633165 43.1952621,17.366835 42.4142136,16.5857864 C41.633165,15.8047379 40.366835,15.8047379 39.5857864,16.5857864 L35,21.1715729 L30.4142136,16.5857864 C29.633165,15.8047379 28.366835,15.8047379 27.5857864,16.5857864 C26.8047379,17.366835 26.8047379,18.633165 27.5857864,19.4142136 L32.1715729,24 L27.5857864,28.5857864 C26.8047379,29.366835 26.8047379,30.633165 27.5857864,31.4142136 C28.366835,32.1952621 29.633165,32.1952621 30.4142136,31.4142136 L35,26.8284271 L39.5857864,31.4142136 C40.366835,32.1952621 41.633165,32.1952621 42.4142136,31.4142136 C43.1952621,30.633165 43.1952621,29.366835 42.4142136,28.5857864 L37.8284271,24 L42.4142136,19.4142136 Z M22,20 C24.209139,20 26,21.790861 26,24 C26,26.209139 24.209139,28 22,28 L22,36.0087557 C22,37.1084896 21.2900534,37.46754 20.400308,36.800231 L14,32 L10,32 C7.790861,32 6,30.2111696 6,28.0037973 L6,19.9962027 C6,17.7891609 7.79535615,16 10,16 L14,16 L20.400308,11.199769 C21.2837935,10.5371549 22,10.8998975 22,11.9912443 L22,20 Z M15.3333333,20 L10,20 C10.0013989,20 10,28.0037973 10,28.0037973 C10,28.0010144 15.3333333,28 15.3333333,28 L18,30.0588379 L18,17.9799805 L15.3333333,20 Z" id="Combined-Shape"></path>
                </g>
            </g>
        </g>
    </g>
</svg>