<?xml version="1.0" encoding="UTF-8"?>
<svg width="48px" height="48px" viewBox="0 0 48 48" version="1.1" xmlns="http://www.w3.org/2000/svg" xmlns:xlink="http://www.w3.org/1999/xlink">
    <!-- Generator: Sketch 49.3 (51167) - http://www.bohemiancoding.com/sketch -->
    <title>theicons.co/svg/keyboard-13</title>
    <desc>Created with Sketch.</desc>
    <defs></defs>
    <g id="The-Icons" stroke="none" stroke-width="1" fill="none" fill-rule="evenodd">
        <g id="v-1.5" transform="translate(-1632.000000, -2400.000000)">
            <g id="Phone" transform="translate(96.000000, 2304.000000)"></g>
            <g id="Keyboard" transform="translate(384.000000, 2400.000000)" fill="#000000">
                <g id="Volume-Up" transform="translate(1248.000000, 0.000000)">
                    <path d="M22,20 C24.209139,20 26,21.790861 26,24 C26,26.209139 24.209139,28 22,28 L22,36.0087557 C22,37.1084896 21.2900534,37.46754 20.400308,36.800231 L14,32 L10,32 C7.790861,32 6,30.2111696 6,28.0037973 L6,19.9962027 C6,17.7891609 7.79535615,16 10,16 L14,16 L20.400308,11.199769 C21.2837935,10.5371549 22,10.8998975 22,11.9912443 L22,20 Z M15.3333333,20 L10,20 C10.0013989,20 10,28.0037973 10,28.0037973 C10,28.0010144 15.3333333,28 15.3333333,28 L18,30.0588379 L18,17.9799805 L15.3333333,20 Z M35.3936718,39.2913205 C34.5895012,40.0485413 33.3237433,40.0104809 32.5665225,39.2063103 C31.8093017,38.4021396 31.8473621,37.1363818 32.6515327,36.3791609 C36.0434612,33.1852632 38,28.7514887 38,24 C38,19.2493027 36.044118,14.816202 32.6531815,11.6223918 C31.849111,10.8650646 31.8112182,9.59930169 32.5685454,8.79523124 C33.3258726,7.9911608 34.5916355,7.95326791 35.3957059,8.71059511 C39.5810271,12.6526099 42,18.1353284 42,24 C42,29.8656499 39.580216,35.349199 35.3936718,39.2913205 Z M29.8634956,33.5099709 C29.0556045,34.263221 27.7900495,34.2189257 27.0367994,33.4110346 C26.2835493,32.6031435 26.3278446,31.3375885 27.1357357,30.5843383 C28.9518019,28.8911001 30,26.5318994 30,24 C30,21.5067494 28.9838387,19.1805008 27.2162463,17.4916511 C26.4176116,16.7285939 26.3887703,15.4625924 27.1518275,14.6639576 C27.9148847,13.8653228 29.1808861,13.8364815 29.9795209,14.5995387 C32.5290494,17.0354909 34,20.4028666 34,24 C34,27.6530161 32.482791,31.0678292 29.8634956,33.5099709 Z" id="Combined-Shape"></path>
                </g>
            </g>
        </g>
    </g>
</svg>