<?xml version="1.0" encoding="UTF-8"?>
<svg width="48px" height="48px" viewBox="0 0 48 48" version="1.1" xmlns="http://www.w3.org/2000/svg" xmlns:xlink="http://www.w3.org/1999/xlink">
    <!-- Generator: Sketch 49.3 (51167) - http://www.bohemiancoding.com/sketch -->
    <title>theicons.co/svg/keyboard-15</title>
    <desc>Created with Sketch.</desc>
    <defs></defs>
    <g id="The-Icons" stroke="none" stroke-width="1" fill="none" fill-rule="evenodd">
        <g id="v-1.5" transform="translate(-1824.000000, -2400.000000)">
            <g id="Phone" transform="translate(96.000000, 2304.000000)"></g>
            <g id="Keyboard" transform="translate(384.000000, 2400.000000)" fill="#000000">
                <g id="Bluetooth-Sound" transform="translate(1440.000000, 0.000000)">
                    <path d="M43.4142136,30.5857864 C44.1952621,31.366835 44.1952621,32.633165 43.4142136,33.4142136 C43.3890493,33.4393778 35.4142136,41.4142136 35.4142136,41.4142136 C34.1542838,42.6741433 32,41.7818097 32,40 L32,28.8284271 L27.4142136,33.4142136 C26.633165,34.1952621 25.366835,34.1952621 24.5857864,33.4142136 C23.8047379,32.633165 23.8047379,31.366835 24.5857864,30.5857864 L31.1715729,24 L24.5857864,17.4142136 C23.8047379,16.633165 23.8047379,15.366835 24.5857864,14.5857864 C25.366835,13.8047379 26.633165,13.8047379 27.4142136,14.5857864 L32,19.1715729 L32,8 C32,6.2181903 34.1542838,5.32585672 35.4142136,6.58578644 L43.4142136,14.5857864 C44.1952621,15.366835 44.1952621,16.633165 43.4142136,17.4142136 L36.8284271,24 L43.4142136,30.5857864 Z M36,12.8284271 L39.1715729,16 L36,19.1715729 L36,12.8284271 Z M39.1715729,32 L36,35.1715729 L36,28.8284271 L39.1715729,32 Z M20,11.9912443 C20,10.8998975 19.2837935,10.5371549 18.400308,11.199769 L12,16 L8,16 C5.79535615,16 4,17.7891609 4,19.9962027 L4,28.0037973 C4,30.2111696 5.790861,32 8,32 L12,32 L18.400308,36.800231 C19.2900534,37.46754 20,37.1084896 20,36.0087557 L20,28 C22.209139,28 24,26.209139 24,24 C24,21.790861 22.209139,20 20,20 L20,11.9912443 Z M13.3333333,20 L8,20 C8.00139887,20 8,28.0037973 8,28.0037973 C8,28.0010144 13.3333333,28 13.3333333,28 L16,30.0588379 L16,17.9799805 L13.3333333,20 Z" id="Combined-Shape"></path>
                </g>
            </g>
        </g>
    </g>
</svg>