<?xml version="1.0" encoding="UTF-8"?>
<svg width="48px" height="48px" viewBox="0 0 48 48" version="1.1" xmlns="http://www.w3.org/2000/svg" xmlns:xlink="http://www.w3.org/1999/xlink">
    <!-- Generator: Sketch 49.3 (51167) - http://www.bohemiancoding.com/sketch -->
    <title>theicons.co/svg/keyboard-03</title>
    <desc>Created with Sketch.</desc>
    <defs></defs>
    <g id="The-Icons" stroke="none" stroke-width="1" fill="none" fill-rule="evenodd">
        <g id="v-1.5" transform="translate(-576.000000, -2400.000000)">
            <g id="Phone" transform="translate(96.000000, 2304.000000)"></g>
            <g id="Keyboard" transform="translate(384.000000, 2400.000000)" fill="#000000" fill-rule="nonzero">
                <g id="Shift" transform="translate(192.000000, 0.000000)">
                    <path d="M19.9991336,17.9996391 C21.105728,17.9996391 22.0028,18.8967822 22.0028,20.0056833 L22.0028001,32.0009345 L26,32.0028076 L26,20.0059517 C26,18.8978958 26.8882357,18.0017769 28.0072045,18.0044701 L30.6067913,18.010727 L24.0047381,9.61101011 L17.4041291,17.9996391 L19.9991336,17.9996391 Z M30,21.9999999 L30,34.0092049 C30,35.1086907 29.0980496,36 27.9914698,36 L20.0085302,36 C18.8992496,36 18,35.1017876 18,34.0092049 L18,22.0000003 L11.1591617,22.0000004 C10.0587146,22.0000005 9.72095036,21.2955168 10.4055984,20.4254064 L22.7586412,4.72608332 C23.4429068,3.85645902 24.5520891,3.8559729 25.2369236,4.72608326 L37.593332,20.4254057 C38.277784,21.2950299 37.944797,21.9999997 36.8401063,21.9999998 L30,21.9999999 Z M10,42 C10,40.8954305 10.8998975,40 11.9912443,40 L36.0087557,40 C37.1084896,40 38,40.8877296 38,42 C38,43.1045695 37.1001025,44 36.0087557,44 L11.9912443,44 C10.8915104,44 10,43.1122704 10,42 Z" id="Combined-Shape"></path>
                </g>
            </g>
        </g>
    </g>
</svg>