<?xml version="1.0" encoding="UTF-8"?>
<svg width="48px" height="48px" viewBox="0 0 48 48" version="1.1" xmlns="http://www.w3.org/2000/svg" xmlns:xlink="http://www.w3.org/1999/xlink">
    <!-- Generator: Sketch 49.3 (51167) - http://www.bohemiancoding.com/sketch -->
    <title>theicons.co/svg/mail-06</title>
    <desc>Created with Sketch.</desc>
    <defs></defs>
    <g id="The-Icons" stroke="none" stroke-width="1" fill="none" fill-rule="evenodd">
        <g id="v-1.5" transform="translate(-768.000000, -2976.000000)" fill="#000000">
            <g id="Mail-&amp;-Chat" transform="translate(96.000000, 2976.000000)">
                <g id="Sent" transform="translate(671.000000, 0.000000)">
                    <path d="M30.999198,26.8292292 L28.4142136,29.4142136 C27.6360165,30.1924107 26.3753176,30.1956669 25.5931109,29.4215003 L21.6230135,25.4922103 C20.8379406,24.7152069 20.831399,23.4488938 21.6084024,22.6638209 C22.3854058,21.878748 23.6517188,21.8722063 24.4367917,22.6492097 L27,25.224756 L42.178852,10 L2.99729162,10 C1.89272212,10 0.997291623,9.1045695 0.997291623,8 C0.997291623,6.8954305 1.89272212,6 2.99729162,6 L45.0027084,6 C47.212674,6 49,7.78701418 49,10.0017433 L49,37.9982567 C49,40.2078772 47.2135188,42 45.0027084,42 L14.9972916,42 C13.8927221,42 12.9972916,41.1045695 12.9972916,40 C12.9972916,38.8954305 13.8927221,38 14.9972916,38 C14.9972916,38 34.6972705,38.001022 42.1709418,37.9996541 L30.999198,26.8292292 Z M45.0028094,12.8256178 L33.8276251,24.000802 L45.0003651,35.1722229 L45.0028094,12.8256178 Z M5,18 C5,16.8954305 5.89706013,16 7.00585866,16 L16.9941413,16 C18.1019465,16 19,16.8877296 19,18 C19,19.1045695 18.1029399,20 16.9941413,20 L7.00585866,20 C5.89805351,20 5,19.1122704 5,18 Z M9,30 C9,28.8954305 9.88743329,28 10.999615,28 L17.000385,28 C18.1047419,28 19,28.8877296 19,30 C19,31.1045695 18.1125667,32 17.000385,32 L10.999615,32 C9.89525812,32 9,31.1122704 9,30 Z" id="Combined-Shape"></path>
                </g>
            </g>
        </g>
    </g>
</svg>