<?xml version="1.0" encoding="UTF-8"?>
<svg width="48px" height="48px" viewBox="0 0 48 48" version="1.1" xmlns="http://www.w3.org/2000/svg" xmlns:xlink="http://www.w3.org/1999/xlink">
    <!-- Generator: Sketch 49.3 (51167) - http://www.bohemiancoding.com/sketch -->
    <title>theicons.co/svg/medical-17</title>
    <desc>Created with Sketch.</desc>
    <defs></defs>
    <g id="The-Icons" stroke="none" stroke-width="1" fill="none" fill-rule="evenodd">
        <g id="v-1.5" transform="translate(-1824.000000, -1536.000000)" fill="#000000">
            <g id="Medical" transform="translate(96.000000, 1536.000000)">
                <g id="DNA" transform="translate(1728.000000, 0.000000)">
                    <path d="M14.8057261,38 L33.2084513,38 C32.8176864,36.6352273 32.283248,35.2931711 31.5872832,34 L16.4268942,34 C15.7309294,35.2931711 15.196491,36.6352273 14.8057261,38 Z M28.7197751,30 C27.4079525,28.5967709 25.8451089,27.3504716 24.0070887,26.2835826 C22.1690685,27.3504716 20.6062249,28.5967709 19.2944023,30 L28.7197751,30 Z M31.5309927,14 C32.2304648,12.7061672 32.7711711,11.3640884 33.1704779,10 L14.8436995,10 C15.2430063,11.3640884 15.7837126,12.7061672 16.4831847,14 L31.5309927,14 Z M24.0070887,21.7107337 C25.8189558,20.6442024 27.3644144,19.3999176 28.6664433,18 L19.3477341,18 C20.649763,19.3999176 22.1952216,20.6442024 24.0070887,21.7107337 Z M14.0094124,43.8620251 C13.9940491,44.927002 13.2540901,45.9190337 12.1521522,45.9952351 C11.0502143,46.0714365 10.0951437,45.2399127 10.0189423,44.1379749 C10.0156796,44.0907936 10.0118626,44.0189023 10.008402,43.9234569 C9.96484772,42.7221994 10.0598097,41.1261964 10.4033885,39.2704152 C10.9253268,36.4512563 11.9226447,33.6594996 13.5128362,31.0414809 C15.1622235,28.3260048 17.3646882,25.9452762 20.1677672,23.990228 C17.4075021,22.0421292 15.2281468,19.6759693 13.5840892,16.9804015 C11.9685049,14.3315181 10.9513284,11.5063434 10.4131436,8.65679354 C10.0625123,6.80029137 9.96084488,5.21840602 9.9964022,4.05198093 C9.99867398,3.97745729 10.0008149,3.92965477 10.0034152,3.88317132 C10.0679378,2.78048796 11.0141453,1.93889245 12.1168287,2.00341515 C13.219512,2.06793785 13.9945449,2.94384766 13.9945449,4.17386038 C13.9945449,5.40387311 14,6 14,6 L34,6 C34,6 34.0288437,4.56408691 34.0175925,4.11682868 C34.0288437,3.01745605 34.7946653,2.06793785 35.8973487,2.00341515 C37.0000321,1.93889245 37.9462395,2.78048796 38.0107622,3.88317132 C38.0133625,3.92965477 38.0155034,3.97745729 38.0177752,4.05198093 C38.0533325,5.21840602 37.951665,6.80029137 37.6010338,8.65679354 C37.062849,11.5063434 36.0456725,14.3315181 34.4300882,16.9804015 C32.7860306,19.6759693 30.6066753,22.0421292 27.8464102,23.990228 C30.6494892,25.9452762 32.8519539,28.3260048 34.5013412,31.0414809 C36.0915327,33.6594996 37.0888506,36.4512563 37.6107889,39.2704152 C37.9543677,41.1261964 38.0493297,42.7221994 38.0057754,43.9234569 C38.0023148,44.0189023 37.9984977,44.0907936 37.9952351,44.1379749 C37.9190337,45.2399127 36.963963,46.0714365 35.8620251,45.9952351 C34.7600873,45.9190337 34.0201282,44.963562 34.008402,43.7785233 C34,43.4279175 34.0175925,42 34.0175925,42 L14.0094124,42 C14.0094124,42 14.0094124,43.4422607 14.0094124,43.8620251 Z" id="Combined-Shape"></path>
                </g>
            </g>
        </g>
    </g>
</svg>