<?xml version="1.0" encoding="UTF-8"?>
<svg width="48px" height="48px" viewBox="0 0 48 48" version="1.1" xmlns="http://www.w3.org/2000/svg" xmlns:xlink="http://www.w3.org/1999/xlink">
    <!-- Generator: Sketch 49.3 (51167) - http://www.bohemiancoding.com/sketch -->
    <title>theicons.co/svg/medical-15</title>
    <desc>Created with Sketch.</desc>
    <defs></defs>
    <g id="The-Icons" stroke="none" stroke-width="1" fill="none" fill-rule="evenodd">
        <g id="v-1.5" transform="translate(-1632.000000, -1536.000000)" fill="#000000">
            <g id="Medical" transform="translate(96.000000, 1536.000000)">
                <g id="Microscope" transform="translate(1536.000000, 0.000000)">
                    <path d="M21.9998988,20.00077 C21.9998988,22.2094838 20.2110798,24 18.0037214,24 L16.9999304,24 C16.9999304,25.6568542 15.6567932,27 13.9999494,27 C12.3431056,27 10.9999684,25.6568542 10.9999684,24 L9.99617744,24 C7.78914958,24 6,22.2075324 6,20.00077 L6,7.99922997 C6,5.79051625 7.78881906,4 9.99617744,4 L20.0058512,4 C22.6458332,4.00601257 24.8797282,5.70666895 25.6822705,8.06868619 C31.8988542,8.50071626 36.2626567,11.5307046 39.097346,16.5691258 C41.3122559,20.5059414 41.95934,26.1546779 41.9995447,35.9390068 C41.9997723,40.418278 38.418073,44 33.9998229,44 L12.9917589,44 C11.340142,44 9.99997471,42.654313 9.99997471,41.009222 L9.99997471,34 L7.99599513,34 C6.89363746,34 6,33.1122704 6,32 C6,30.8954305 6.8945081,30 7.99404767,30 L20.0058512,30 C21.1071333,30 21.9998988,30.8938998 21.9998988,32.0048815 L21.9998988,34 L26.2519069,34 C27.1399869,30.5495456 30.2721676,28 33.9998229,28 C35.3785716,28 36.6758569,28.348788 37.808259,28.9629433 C37.513182,24.0166319 36.8494445,20.7312844 35.6112419,18.5304836 C33.4503259,14.6896377 30.3249999,12.4627635 25.6310631,12.0758854 C25.015599,13.7448822 23.6793412,15.0649871 21.9998988,15.6585886 L21.9998988,20.00077 Z M10,8 L10,20 L18,20 L18,15.6585886 C15.6696153,14.8349158 14,12.6124377 14,10 C14,9.29872915 14.1203084,8.62555785 14.3414114,8 L10,8 Z M34,32 C31.790861,32 30,33.790861 30,36 C30,38.209139 31.790861,40 34,40 C36.2078458,40 37.9979032,38.211235 37.9999982,36.0038791 L37.9998403,35.9638839 C37.9804486,33.7713754 36.1970878,32 34,32 Z M26.252035,38 L14.0027466,38 L14.0009061,40 L27.0702576,40 C26.712178,39.3809871 26.4346584,38.7095418 26.252035,38 Z M20,12 C21.1045695,12 22,11.1045695 22,10 C22,8.8954305 21.1045695,8 20,8 C18.8954305,8 18,8.8954305 18,10 C18,11.1045695 18.8954305,12 20,12 Z" id="Combined-Shape"></path>
                </g>
            </g>
        </g>
    </g>
</svg>