<?xml version="1.0" encoding="UTF-8"?>
<svg width="48px" height="48px" viewBox="0 0 48 48" version="1.1" xmlns="http://www.w3.org/2000/svg" xmlns:xlink="http://www.w3.org/1999/xlink">
    <!-- Generator: Sketch 49.3 (51167) - http://www.bohemiancoding.com/sketch -->
    <title>theicons.co/svg/medical-13</title>
    <desc>Created with Sketch.</desc>
    <defs></defs>
    <g id="The-Icons" stroke="none" stroke-width="1" fill="none" fill-rule="evenodd">
        <g id="v-1.5" transform="translate(-1440.000000, -1536.000000)" fill="#000000">
            <g id="Medical" transform="translate(96.000000, 1536.000000)">
                <g id="Beaker" transform="translate(1344.000000, 0.000000)">
                    <path d="M17.1081077,32 L30.8918682,32 L28,24.7703296 L28.0395646,20 L20.0339739,20 L20,24.7703296 L17.1081077,32 Z M15.5080944,36 L13.9080811,40 L34.1038801,40.03003 L32.4918682,36 L15.5080944,36 Z M32,20 L32,24 L38.5140101,40.2850252 C39.3346996,42.3367491 38.2109725,44 35.9957423,44 L12.0042577,44 C9.79276724,44 8.66831553,42.3292112 9.48598993,40.2850252 L16,24 L16,20 L14.991155,20 C13.8914705,20 13,19.1122704 13,18 C13,16.8954305 13.8896739,16 14.991155,16 L33.008845,16 C34.1085295,16 35,16.8877296 35,18 C35,19.1045695 34.1103261,20 33.008845,20 L32,20 Z M28,8 C26.8954305,8 26,7.1045695 26,6 C26,4.8954305 26.8954305,4 28,4 C29.1045695,4 30,4.8954305 30,6 C30,7.1045695 29.1045695,8 28,8 Z M21,14 C19.3431458,14 18,12.6568542 18,11 C18,9.34314575 19.3431458,8 21,8 C22.6568542,8 24,9.34314575 24,11 C24,12.6568542 22.6568542,14 21,14 Z" id="Path"></path>
                </g>
            </g>
        </g>
    </g>
</svg>