<?xml version="1.0" encoding="UTF-8"?>
<svg width="48px" height="48px" viewBox="0 0 48 48" version="1.1" xmlns="http://www.w3.org/2000/svg" xmlns:xlink="http://www.w3.org/1999/xlink">
    <!-- Generator: Sketch 49.3 (51167) - http://www.bohemiancoding.com/sketch -->
    <title>theicons.co/svg/medical-01</title>
    <desc>Created with Sketch.</desc>
    <defs></defs>
    <g id="The-Icons" stroke="none" stroke-width="1" fill="none" fill-rule="evenodd">
        <g id="v-1.5" transform="translate(-96.000000, -1536.000000)" fill="#000000" fill-rule="nonzero">
            <g id="Medical" transform="translate(96.000000, 1536.000000)">
                <g id="Tooth">
                    <path d="M24.0124534,5.72181287 C24.0124534,5.72181287 24.1309285,5.6019785 25.1711657,5.18808552 C27.352496,4.32017065 29.7430742,3.89837635 32.2446571,4.1756231 C38.1394819,4.82893786 43.0509115,9.81252853 43.0509115,16.0263021 C43.0509115,21.0997479 41.8293273,27.7777477 39.9427361,33.4246369 C37.7498186,39.9884129 35.2177469,44.0382756 32.0221515,44.0347644 C29.1354783,44.0315927 26.6850586,41.2084961 24,35 C21.2293701,41.3786621 18.8737405,44.0466752 15.9677018,43.9997392 C13.0616632,43.9528032 10.2853867,39.9007696 8.10378747,33.3720419 C6.21871809,27.7307194 5,21.0734243 5,16 C5,9.75609277 9.9260861,4.85884117 15.8002385,4.17345332 C20.0048828,3.68286133 24.0124534,5.72181287 24.0124534,5.72181287 Z M29.6750055,10.8589551 C30.2887373,11.7773271 30.0417777,13.0193426 29.1234057,13.6330744 C28.2050338,14.2468062 26.9630183,13.9998465 26.3492865,13.0814746 C25.8797313,12.3788446 22.3227539,7.58532715 16.1948853,8.0480957 C12.27892,8.34382423 9,11.8874668 9,16 C9,20.6128283 10.1417799,26.8498453 11.8975858,32.1043297 C13.488324,36.8648269 15.4338747,39.9905956 16.0322982,40.0002608 C16.6326175,40.0099567 20.1748047,34.657959 21.792587,29.3207677 C22.5267242,26.8987912 25.470588,27.0083466 26.2253732,29.3735739 C28.1549072,35.4200439 31.3947024,40.0340726 32.0265465,40.0347668 C32.0951439,40.0348422 34.1708984,38.2005615 36.1488695,32.1571292 C37.8743517,26.8851434 39.0509115,20.6393981 39.0509115,16.0263021 C39.0509115,11.9382554 35.738419,8.48899228 31.7927246,8.05169678 C30.4006751,7.89741798 29.0363448,8.11135538 27.7383475,8.51698428 C28.4534841,9.22477276 29.103866,10.004317 29.6750055,10.8589551 Z M17,10 C18.1045695,10 19,10.8954305 19,12 C19,13.1045695 18.1045695,14 17,14 C15.8954305,14 15,14.8954305 15,16 C15,17.1045695 14.1045695,18 13,18 C11.8954305,18 11,17.1045695 11,16 C11,12.6862915 13.6862915,10 17,10 Z" id="Combined-Shape"></path>
                </g>
            </g>
        </g>
    </g>
</svg>