<?xml version="1.0" encoding="UTF-8"?>
<svg width="48px" height="48px" viewBox="0 0 48 48" version="1.1" xmlns="http://www.w3.org/2000/svg" xmlns:xlink="http://www.w3.org/1999/xlink">
    <!-- Generator: Sketch 49.3 (51167) - http://www.bohemiancoding.com/sketch -->
    <title>theicons.co/svg/medical-02</title>
    <desc>Created with Sketch.</desc>
    <defs></defs>
    <g id="The-Icons" stroke="none" stroke-width="1" fill="none" fill-rule="evenodd">
        <g id="v-1.5" transform="translate(-192.000000, -1536.000000)" fill="#000000">
            <g id="Medical" transform="translate(96.000000, 1536.000000)">
                <g id="Toothpaste" transform="translate(96.000000, 0.000000)">
                    <path d="M34.6951583,4.91288978 L36.1135719,6.33130336 L40.3575551,2.08732013 C41.1378622,1.30701301 42.3974222,1.30144519 43.1832971,2.08732013 L46.0144094,4.91843234 C46.7947165,5.69873946 46.8002843,6.95829943 46.0144094,7.74417438 L41.7704261,11.9881576 L43.1888397,13.4065712 C43.9675687,14.1853002 44.0395207,15.5157504 43.3500742,16.3775586 L21.9714362,43.100856 L19.1430091,45.9292831 C17.580912,47.4913803 15.0528961,47.4960244 13.4931885,45.9363167 L2.16541279,34.608541 C0.607200166,33.0503284 0.613527762,30.517639 2.17244638,28.9587204 L5.0008735,26.1302932 L31.7241709,4.75165533 C32.5862729,4.06197368 33.9176615,4.13539298 34.6951583,4.91288978 Z M7.82930062,28.9587204 L5.0008735,31.7871475 L16.3216156,43.1078896 L19.1430091,40.2724289 L7.82930062,28.9587204 Z M32.988728,8.86331377 L10.9851703,26.4577358 L21.6574591,37.1300246 L39.2465676,15.1211534 L32.988728,8.86331377 Z M28.8284271,24.8284271 C27.26633,26.3905243 24.73367,26.3905243 23.1715729,24.8284271 C21.6094757,23.26633 21.6094757,20.73367 23.1715729,19.1715729 C24.73367,17.6094757 27.26633,17.6094757 28.8284271,19.1715729 C30.3905243,20.73367 30.3905243,23.26633 28.8284271,24.8284271 Z" id="Combined-Shape"></path>
                </g>
            </g>
        </g>
    </g>
</svg>