<?xml version="1.0" encoding="UTF-8"?>
<svg width="48px" height="48px" viewBox="0 0 48 48" version="1.1" xmlns="http://www.w3.org/2000/svg" xmlns:xlink="http://www.w3.org/1999/xlink">
    <!-- Generator: Sketch 49.3 (51167) - http://www.bohemiancoding.com/sketch -->
    <title>theicons.co/svg/medical-16</title>
    <desc>Created with Sketch.</desc>
    <defs></defs>
    <g id="The-Icons" stroke="none" stroke-width="1" fill="none" fill-rule="evenodd">
        <g id="v-1.5" transform="translate(-1728.000000, -1536.000000)" fill="#000000">
            <g id="Medical" transform="translate(96.000000, 1536.000000)">
                <g id="Atom" transform="translate(1632.000000, 0.000000)">
                    <path d="M15.8998769,23.9443321 C16.344704,24.511221 16.8500094,25.1197804 17.4164375,25.7622085 C19.2958977,27.8938439 21.5162715,30.0296541 24.0853664,32.0749871 C25.4793594,30.8944251 26.8748933,29.6103881 28.2426407,28.2426407 C29.658752,26.8265294 30.9851282,25.3806318 32.199833,23.9374977 C31.4347503,22.9918435 30.6006695,22.0462065 29.7068176,21.1050464 C27.964612,19.2706326 26.0918048,17.5512465 24.2191709,16.000365 C24.1522565,15.9449478 24.0858422,15.8901637 24.0199451,15.8360197 C22.5909457,17.040956 21.1595507,18.3551679 19.7573593,19.7573593 C18.3798987,21.1348199 17.0873416,22.540463 15.8998769,23.9443321 Z M9.78885438,32.8944272 C8.03062453,36.4108869 7.74110724,38.8538056 8.44365081,39.5563492 C9.14619438,40.2588928 11.5891131,39.9693755 15.1055728,38.2111456 C16.9147532,37.3065554 18.8661942,36.0884514 20.8690732,34.6180426 C18.4143782,32.6006078 16.2661316,30.5058353 14.4161125,28.4075913 C14.0299166,27.9695778 13.6765675,27.5549473 13.3557373,27.1666729 C11.8970642,29.157023 10.6880622,31.0960115 9.78885438,32.8944272 Z M32.6072003,18.3504538 C33.3518416,19.1345062 34.0603665,19.9240016 34.7286732,20.7178245 C36.1496167,18.7679771 37.3293406,16.8691828 38.2111456,15.1055728 C39.9693755,11.5891131 40.2588928,9.14619438 39.5563492,8.44365081 C38.8538056,7.74110724 36.4108869,8.03062453 32.8944272,9.78885438 C31.1162348,10.6779506 29.2006135,11.8699127 27.2337983,13.3066233 C29.0665538,14.8504257 30.8907955,16.5432063 32.6072003,18.3504538 Z M5.61522369,5.61522369 C8.94251397,2.28793341 16.2056412,4.76715812 24,10.7071869 C31.7943588,4.76715812 39.057486,2.28793341 42.3847763,5.61522369 C45.7120666,8.94251397 43.2328419,16.2056412 37.2928131,24 C43.2328419,31.7943588 45.7120666,39.057486 42.3847763,42.3847763 C39.057486,45.7120666 31.7943588,43.2328419 24,37.2928131 C16.2056412,43.2328419 8.94251397,45.7120666 5.61522369,42.3847763 C2.28793341,39.057486 4.76715812,31.7943588 10.7071869,24 C4.76715812,16.2056412 2.28793341,8.94251397 5.61522369,5.61522369 Z M16.9289322,16.9289322 C18.2079041,15.6499603 19.5000506,14.444981 20.7903996,13.3243098 C18.8150992,11.8796933 16.8910568,10.6815964 15.1055728,9.78885438 C11.5891131,8.03062453 9.14619438,7.74110724 8.44365081,8.44365081 C7.74110724,9.14619438 8.03062453,11.5891131 9.78885438,15.1055728 C10.6815964,16.8910568 11.8796933,18.8150992 13.3243098,20.7903996 C14.444981,19.5000506 15.6499603,18.2079041 16.9289322,16.9289322 Z M31.0710678,31.0710678 C29.7920959,32.3500397 28.4999494,33.555019 27.2096004,34.6756902 C29.1849008,36.1203067 31.1089432,37.3184036 32.8944272,38.2111456 C36.4108869,39.9693755 38.8538056,40.2588928 39.5563492,39.5563492 C40.2588928,38.8538056 39.9693755,36.4108869 38.2111456,32.8944272 C37.3184036,31.1089432 36.1203067,29.1849008 34.6756902,27.2096004 C33.555019,28.4999494 32.3500397,29.7920959 31.0710678,31.0710678 Z M24,27 C22.3431458,27 21,25.6568542 21,24 C21,22.3431458 22.3431458,21 24,21 C25.6568542,21 27,22.3431458 27,24 C27,25.6568542 25.6568542,27 24,27 Z" id="Combined-Shape"></path>
                </g>
            </g>
        </g>
    </g>
</svg>