<?xml version="1.0" encoding="UTF-8"?>
<svg width="48px" height="48px" viewBox="0 0 48 48" version="1.1" xmlns="http://www.w3.org/2000/svg" xmlns:xlink="http://www.w3.org/1999/xlink">
    <!-- Generator: Sketch 49.3 (51167) - http://www.bohemiancoding.com/sketch -->
    <title>theicons.co/svg/nature-04</title>
    <desc>Created with Sketch.</desc>
    <defs></defs>
    <g id="The-Icons" stroke="none" stroke-width="1" fill="none" fill-rule="evenodd">
        <g id="v-1.5" transform="translate(-576.000000, -1728.000000)" fill="#000000">
            <g id="Nature" transform="translate(96.000000, 1728.000000)">
                <g id="Mountain-1" transform="translate(480.000000, 0.000000)">
                    <path d="M15.8075936,24.4627759 L17.9259185,27.9882605 L23.5457514,23.282032 C24.391249,22.5739852 25.7379894,22.6058415 26.5454897,23.3455901 L37.8628663,33.788135 L27.5133151,16.6091239 L24.8323613,18.3503918 C24.3688029,18.651471 23.6182535,18.6489653 23.1473453,18.3503918 L20.4785903,16.6583011 L15.8075936,24.4627759 Z M7.08928273,39.0296536 L19.8878031,39.019801 L13.4789146,28.3536193 L7.08928273,39.0296536 Z M24.5424391,39 L37.71521,39 L24.9990975,27.2841895 L20.0155655,31.4660171 L24.5424391,39 Z M25.5476967,5.57834035 L45.9379965,39.5632216 C47.0768096,41.4613019 46.2059475,43 43.9901068,43 L4.00989318,43 C1.79529033,43 0.922043604,41.4632607 2.06206705,39.5632216 L22.4529957,5.57834038 C23.3073826,4.15436228 24.6927004,4.15398401 25.5476967,5.57834035 Z" id="Shape"></path>
                </g>
            </g>
        </g>
    </g>
</svg>