<?xml version="1.0" encoding="UTF-8"?>
<svg width="48px" height="48px" viewBox="0 0 48 48" version="1.1" xmlns="http://www.w3.org/2000/svg" xmlns:xlink="http://www.w3.org/1999/xlink">
    <!-- Generator: Sketch 49.3 (51167) - http://www.bohemiancoding.com/sketch -->
    <title>theicons.co/svg/nature-17</title>
    <desc>Created with Sketch.</desc>
    <defs></defs>
    <g id="The-Icons" stroke="none" stroke-width="1" fill="none" fill-rule="evenodd">
        <g id="v-1.5" transform="translate(-480.000000, -1728.000000)" fill="#000000" fill-rule="nonzero">
            <g id="Nature" transform="translate(96.000000, 1728.000000)">
                <g id="Dead-Tree" transform="translate(384.000000, 0.000000)">
                    <path d="M14.2205948,25.4676084 C10.051902,21.2623504 7.37374136,17.3030003 6.07052515,12.5264283 C5.7797868,11.4608088 6.40795212,10.3612635 7.47357165,10.0705251 C8.53919119,9.7797868 9.6387365,10.4079521 9.92947485,11.4735717 C10.5278321,13.6666816 11.4951125,15.6870887 12.8621038,17.68516 C13.1023873,16.1529149 13.5947589,14.8256463 14.4264515,13.7655183 C15.1082369,12.8964714 16.3654349,12.7446661 17.2344817,13.4264515 C18.1035286,14.1082369 18.2553339,15.3654349 17.5735485,16.2344817 C17.1748714,16.7426608 16.8943328,17.5759796 16.7659048,18.6532374 C16.636353,19.7399219 16.6711017,20.9452688 16.810309,22.1017355 C16.8253827,22.2269606 16.9918882,22.5814924 17.0613453,22.6515586 C17.8886431,23.486113 20.5457154,25.9756752 22,27.3726988 L22,17 C22,14.5488219 20.9961447,11.8218778 19.2990393,9.07789248 C18.6878601,8.08970006 18.030994,7.17209753 17.3756037,6.35264631 C17.1479093,6.0679542 16.5718072,5.40083471 16.5406757,5.36761568 C15.7853624,4.56165313 15.8264218,3.295989 16.6323843,2.54067572 C17.4383469,1.78536244 18.704011,1.82642178 19.4593243,2.63238432 C19.6809832,2.86890706 20.0431423,3.28379685 20.4993963,3.85426286 C21.250256,4.79308192 21.9996399,5.83992641 22.7009607,6.97386534 C23.5136038,8.28779706 24.19983,9.61205047 24.7323837,10.9386104 C25.5366205,9.45479149 26.4599565,8.01206036 27.4194053,6.774553 C28.096201,5.90161464 29.3525086,5.7426096 30.225447,6.41940529 C31.0983854,7.09620098 31.2573904,8.35250865 30.5805947,9.225447 C28.2021947,12.2931329 26,17.0828233 26,19 L26,23.3710563 C27.5075096,21.6856104 29.2365785,20.3662363 31.2086052,19.5459731 C30.6908365,17.6776838 30.944755,15.6338975 32.4329407,13.7572912 C33.1192699,12.8918282 34.3772459,12.7466116 35.2427088,13.4329407 C36.1081718,14.1192699 36.2533884,15.3772459 35.5670593,16.2427088 C35.1424708,16.7781161 34.9668287,17.3056098 34.9703833,17.8269826 C37.2590453,16.4869963 38.2946556,14.9718168 39.0858824,12.4098357 C39.4118212,11.3544506 40.5316054,10.7631175 41.5869905,11.0890562 C42.6423756,11.414995 43.2337087,12.5347792 42.9077699,13.5901643 C41.4082212,18.445682 38.896953,20.8591509 32.9410703,23.1604962 C32.6811531,23.2609278 32.4251414,23.3753443 32.173126,23.5031823 C32.4177777,23.888073 32.7177651,24.2751923 33.0693004,24.6328152 C33.7634666,25.3390023 34.5635062,25.8350778 35.4745675,26.0566432 C36.5478538,26.3176609 37.2063276,27.399328 36.9453099,28.4726144 C36.6842922,29.5459007 35.6026251,30.2043745 34.5293388,29.9433568 C32.8355582,29.5314381 31.4016329,28.6423131 30.2166985,27.4368591 C29.7346334,26.946446 29.3374004,26.4560116 29.0184206,25.9969341 C28.8376665,26.1972524 28.6600506,26.4053233 28.4856274,26.620808 C27.7374284,27.5451425 27.0972115,28.5445243 26.569822,29.5432591 C26.3861172,29.891147 26.0234086,30.6778027 26,30.7337693 L26,33.958117 C26.0000687,33.9737017 26,42 26,42 C26,43.1045695 25.1045695,44 24,44 C22.8954305,44 22,43.1045695 22,42 L22,36.0146879 C21.9993075,35.8356103 21.9766127,35.5317325 21.9079419,35.1287288 C21.7901316,34.4373435 21.5781603,33.7503832 21.2571115,33.1270637 C20.0158343,30.7171116 17.4812604,29.6832606 12.5146147,30.9272532 C11.4431434,31.1956239 10.3569867,30.5445822 10.088616,29.4731108 C9.82024522,28.4016395 10.4712869,27.3154828 11.5427583,27.0471121 C12.8593183,26.7173541 14.0883728,26.5219408 15.2296058,26.4519514 C14.8081626,26.0473053 14.453758,25.7028168 14.2205948,25.4676084 Z" id="Combined-Shape"></path>
                </g>
            </g>
        </g>
    </g>
</svg>