<?xml version="1.0" encoding="UTF-8"?>
<svg width="48px" height="48px" viewBox="0 0 48 48" version="1.1" xmlns="http://www.w3.org/2000/svg" xmlns:xlink="http://www.w3.org/1999/xlink">
    <!-- Generator: Sketch 49.3 (51167) - http://www.bohemiancoding.com/sketch -->
    <title>theicons.co/svg/nature-07</title>
    <desc>Created with Sketch.</desc>
    <defs></defs>
    <g id="The-Icons" stroke="none" stroke-width="1" fill="none" fill-rule="evenodd">
        <g id="v-1.5" transform="translate(-960.000000, -1728.000000)" fill="#000000" fill-rule="nonzero">
            <g id="Nature" transform="translate(96.000000, 1728.000000)">
                <g id="Raindrop" transform="translate(864.000000, 0.000000)">
                    <path d="M10,30 C10,22.5308722 15.3269255,20.3236268 22.4742894,6.97173918 C22.9743489,6.03758526 23.0973904,5.77578913 23.0973904,5.77578913 C23.5958879,4.79504788 24.407133,4.78925268 24.9245354,5.78414096 C24.9245354,5.78414096 25.0700951,6.08416935 25.5896861,7.03766487 C32.8330569,20.3298914 38,22.5354565 38,30 C38,37.7319865 31.7319865,44 24,44 C16.2680135,44 10,37.7319865 10,30 Z M19.8145067,18.8441661 C19.1775034,19.7455958 15.4867542,24.9664373 15.0644314,25.7653602 C14.31803,27.1773537 14,28.3964782 14,30 C14,35.5228475 18.4771525,40 24,40 C29.5228475,40 34,35.5228475 34,30 C34,28.3742245 33.6856714,27.1435495 32.9503,25.7308556 C32.5339484,24.9310184 28.8201932,19.6382004 28.2531683,18.8352604 C26.7332676,16.6829931 24,12.3703898 24,12.3703898 C24,12.3703898 22.2049,15.4614967 19.8145067,18.8441661 Z M24,38 C19.581722,38 16,34.418278 16,30 C16,28.8954305 16.8954305,28 18,28 C19.1045695,28 20,28.8954305 20,30 C20,32.209139 21.790861,34 24,34 C25.1045695,34 26,34.8954305 26,36 C26,37.1045695 25.1045695,38 24,38 Z" id="Combined-Shape"></path>
                </g>
            </g>
        </g>
    </g>
</svg>