<?xml version="1.0" encoding="UTF-8"?>
<svg width="48px" height="48px" viewBox="0 0 48 48" version="1.1" xmlns="http://www.w3.org/2000/svg" xmlns:xlink="http://www.w3.org/1999/xlink">
    <!-- Generator: Sketch 49.3 (51167) - http://www.bohemiancoding.com/sketch -->
    <title>theicons.co/svg/nature-06</title>
    <desc>Created with Sketch.</desc>
    <defs></defs>
    <g id="The-Icons" stroke="none" stroke-width="1" fill="none" fill-rule="evenodd">
        <g id="v-1.5" transform="translate(-864.000000, -1728.000000)" fill="#000000">
            <g id="Nature" transform="translate(96.000000, 1728.000000)">
                <g id="Snowflake" transform="translate(768.000000, 0.000000)">
                    <path d="M26,27.4597776 L31.4325391,30.6021622 L32.5268053,34.781651 C32.8144555,35.8551762 33.9088714,36.4799143 34.9758037,36.1940306 C36.0501743,35.9061539 36.6761209,34.8122942 36.3905086,33.7463748 L36.3012046,33.4130876 L38.5856874,34.7320343 C39.5432965,35.2849102 40.7631079,34.9552146 41.3153927,33.9986293 C41.8715278,33.0353749 41.5409772,31.8194696 40.5856874,31.2679327 L38.2834843,29.9387551 L38.6447227,29.8419616 C39.710642,29.5563494 40.344979,28.4673339 40.0571023,27.3929633 C39.7712187,26.326031 38.6829716,25.6906081 37.6094465,25.9782583 L33.419826,27.1307207 L28,24.0015827 L33.4427699,20.8591981 C33.5381233,20.9016181 37.6094465,22.0012801 37.6094465,22.0012801 C38.6829716,22.2889303 39.7712187,21.6535073 40.0571023,20.5865751 C40.344979,19.5122045 39.710642,18.423189 38.6447227,18.1375768 L38.3114354,18.0482727 L40.5959182,16.729326 C41.5535273,16.1764501 41.8779082,14.9552146 41.3256235,13.9986293 C40.7694883,13.0353749 39.551208,12.7136875 38.5959182,13.2652243 L36.2937151,14.5944019 L36.3905086,14.2331635 C36.6761209,13.1672442 36.0501743,12.0733845 34.9758037,11.7855077 C33.9088714,11.4996241 32.8144555,12.1243622 32.5268053,13.1978873 C32.5268053,13.1978873 31.4404446,17.290385 31.4300568,17.4024364 L26,20.5433879 L26,14.8195416 L29.0826412,11.767455 C29.8685161,10.9815801 29.8623472,9.72141904 29.0812986,8.94037046 C28.2948047,8.15387655 27.0345212,8.1587208 26.254214,8.93902791 L25.9897692,9.20347277 L25.9897692,5.98706081 C25.9897692,4.88130902 25.0943387,3.98976919 23.9897692,3.98976919 C22.8774988,3.98976919 21.9897692,4.88398711 21.9897692,5.98706081 L21.9897692,9.18301115 L21.745786,8.93902791 C20.9654788,8.1587208 19.7051953,8.15387655 18.9187014,8.94037046 C18.1376528,9.72141904 18.1314839,10.9815801 18.9173588,11.767455 C18.9173588,11.767455 21.9155865,14.7434934 22,14.8048618 L22,20.5315743 L17.0532346,17.6814648 L15.956486,13.4769157 C15.6688358,12.4033906 14.5744199,11.7786525 13.5074877,12.0645361 C12.433117,12.3524129 11.8071705,13.4462726 12.0927827,14.5121919 L12.1895763,14.8734303 L9.4040818,13.2652243 C8.44647266,12.7123484 7.22666127,13.0420441 6.67437652,13.9986293 C6.11824134,14.9618837 6.44879195,16.1777891 7.4040818,16.729326 L10.171856,18.3273011 L9.83856869,18.4166052 C8.77264934,18.7022174 8.13831232,19.7912329 8.42618908,20.8656035 C8.7120727,21.9325357 9.80031973,22.5679587 10.8738449,22.2803085 L15.0405215,21.1382265 L20,24.0015827 L15.0634654,26.8516923 L10.8738449,25.6992299 C9.80031973,25.4115797 8.7120727,26.0470027 8.42618908,27.1139349 C8.13831232,28.1883055 8.77264934,29.277321 9.83856869,29.5629332 L10.1998071,29.6597267 L7.41431261,31.2679327 C6.45670347,31.8208086 6.13232258,33.0420441 6.68460733,33.9986293 C7.24074251,34.9618837 8.45902276,35.2835712 9.41431261,34.7320343 L12.1820868,33.1340592 L12.0927827,33.4673465 C11.8071705,34.5332658 12.433117,35.6271255 13.5074877,35.9150022 C14.5744199,36.2008859 15.6688358,35.5761478 15.956486,34.5026226 L17.0507523,30.3231338 L22,27.4715911 L22,33.7327333 L18.9173588,36.7701401 C18.1314839,37.5560151 18.1376528,38.8161761 18.9187014,39.5972247 C19.7051953,40.3837186 20.9654788,40.3788744 21.745786,39.5985673 L21.9897692,39.354584 L21.9897692,41.9924776 C21.9897692,43.0982294 22.8851997,43.9897692 23.9897692,43.9897692 C25.1020395,43.9897692 25.9897692,43.0955513 25.9897692,41.9924776 L25.9897692,39.3341224 L26.254214,39.5985673 C27.0345212,40.3788744 28.2948047,40.3837186 29.0812986,39.5972247 C29.8623472,38.8161761 29.8685161,37.5560151 29.0826412,36.7701401 L26,33.7180535 L26,27.4597776 Z" id="Rectangle-691"></path>
                </g>
            </g>
        </g>
    </g>
</svg>