<?xml version="1.0" encoding="UTF-8"?>
<svg width="48px" height="48px" viewBox="0 0 48 48" version="1.1" xmlns="http://www.w3.org/2000/svg" xmlns:xlink="http://www.w3.org/1999/xlink">
    <!-- Generator: Sketch 49.3 (51167) - http://www.bohemiancoding.com/sketch -->
    <title>theicons.co/svg/nature-11</title>
    <desc>Created with Sketch.</desc>
    <defs></defs>
    <g id="The-Icons" stroke="none" stroke-width="1" fill="none" fill-rule="evenodd">
        <g id="v-1.5" transform="translate(-1344.000000, -1728.000000)" fill="#000000">
            <g id="Nature" transform="translate(96.000000, 1728.000000)">
                <g id="Rake" transform="translate(1248.000000, 0.000000)">
                    <path d="M23.8345238,27.0961941 L29.4936133,32.7552836 C31.054476,34.3161463 31.0556399,36.8456407 29.4844745,38.4168061 L21.7192352,46.1820454 C20.9348554,46.9664252 19.6712702,46.9745711 18.8847763,46.1880772 C18.1037277,45.4070286 18.108338,44.1360884 18.8908081,43.3536183 L22.4203102,39.8241161 L19.5918831,36.995689 L16.0560769,40.5314952 C15.2751787,41.3123934 14.014416,41.3177168 13.2279221,40.5312229 C12.4468735,39.7501743 12.4412186,38.4894993 13.2276498,37.703068 L16.763456,34.1672619 L13.9350288,31.3388348 L10.3992227,34.8746409 C9.61832446,35.6555391 8.35756172,35.6608626 7.57106781,34.8743687 C6.79001923,34.0933201 6.78436435,32.832645 7.57079556,32.0462138 L11.1066017,28.5104076 L8.27817459,25.6819805 L4.74867245,29.2114827 C3.96429262,29.9958625 2.70070747,30.0040083 1.91421356,29.2175144 C1.13316498,28.4364658 1.13777522,27.1655256 1.92024532,26.3830555 L9.68548467,18.6178162 C11.2513945,17.0519063 13.7894499,17.0511202 15.3470071,18.6086774 L21.0060967,24.267767 L36.5624458,8.71141777 L32.3132963,4.46226826 C31.5358425,3.6848144 31.5333112,2.42684387 32.3198052,1.64034995 C33.1008537,0.859301372 34.3691508,0.861268458 35.1417235,1.63384113 L46.4684496,12.9605673 C47.2459035,13.7380211 47.2484347,14.9959917 46.4619408,15.7824856 C45.6808922,16.5635342 44.4125951,16.5615671 43.6400225,15.7889944 L39.390873,11.5398449 L23.8345238,27.0961941 Z M11.1073786,22.8543302 L25.2337182,37.0107081 L26.6560474,35.5883789 C26.6645321,35.5798943 12.51858,21.4371046 12.51858,21.4371046 C12.5235132,21.4420377 11.1073786,22.8543302 11.1073786,22.8543302 Z" id="Combined-Shape"></path>
                </g>
            </g>
        </g>
    </g>
</svg>