<?xml version="1.0" encoding="UTF-8"?>
<svg width="48px" height="48px" viewBox="0 0 48 48" version="1.1" xmlns="http://www.w3.org/2000/svg" xmlns:xlink="http://www.w3.org/1999/xlink">
    <!-- Generator: Sketch 49.3 (51167) - http://www.bohemiancoding.com/sketch -->
    <title>theicons.co/svg/nature-05</title>
    <desc>Created with Sketch.</desc>
    <defs></defs>
    <g id="The-Icons" stroke="none" stroke-width="1" fill="none" fill-rule="evenodd">
        <g id="v-1.5" transform="translate(-768.000000, -1728.000000)" fill="#000000">
            <g id="Nature" transform="translate(96.000000, 1728.000000)">
                <g id="Bonfire" transform="translate(672.000000, 0.000000)">
                    <path d="M14.1916618,44.5136997 C11.561588,46.0321735 8.19518457,45.1252567 6.67949192,42.5 C5.16070886,39.8693906 6.07030044,36.5008639 8.69166178,34.9874202 L13,32.5 L8.69166178,30.0125798 C6.06158799,28.494106 5.16379928,25.1252567 6.67949192,22.5 C8.19827499,19.8693906 11.5703004,18.9728567 14.1916618,20.4863003 L23.9347629,26.1114824 C28.0125186,23.7731297 33.8083382,20.4863003 33.8083382,20.4863003 C34.5840368,20.0384506 35.4237858,19.8015762 36.2612144,19.7575377 C38.2669638,19.6460329 40.2610017,20.6413991 41.3340654,22.5 C42.8528485,25.1306094 41.9515351,28.4943567 39.3209257,30.0131397 C39.2409277,30.0593266 35,32.5 35,32.5 L39.3083382,34.9874202 C41.938412,36.505894 42.8362007,39.8747433 41.3205081,42.5 C39.801725,45.1306094 36.4296996,46.0271433 33.8083382,44.5136997 L24,38.850853 L14.1916618,44.5136997 Z M17,34.8094011 L10.6916618,38.4515218 C9.97964094,38.8626073 9.73158994,39.7863888 10.1435935,40.5 C10.5562224,41.2146941 11.4773654,41.4619973 12.1916618,41.0495981 L20,36.5414519 L17,34.8094011 Z M31.807786,28 C31.5465476,27.5475219 31.3569096,27.0733534 31.2353565,26.5906142 L27.9990293,28.4579877 L31.2651207,30.3436664 C31.7450404,29.9838473 32.231231,29.5959478 32.7664147,29.223842 C32.3991457,28.8719011 32.0749264,28.4627008 31.807786,28 Z M35.8083382,41.0495981 C36.5203591,41.4606835 37.4444029,41.2136112 37.8564065,40.5 C38.2690353,39.7853059 38.0226346,38.863921 37.3083382,38.4515218 L16.776476,26.5974457 C16.6548569,27.0778268 16.4657773,27.5496565 16.2057714,28 C15.9457654,28.4503435 15.6316887,28.8500061 15.276476,29.1955219 L35.8083382,41.0495981 Z M10.1435935,24.5 C9.72937998,25.2174389 9.97519271,26.1348245 10.6926316,26.5490381 C11.4100706,26.9632517 12.3274562,26.7174389 12.7416698,26 C13.1558833,25.2825611 12.9100706,24.3651755 12.1926316,23.9509619 C11.4751927,23.5367483 10.5578071,23.7825611 10.1435935,24.5 Z M37.8564065,24.5 C37.4421929,23.7825611 36.5248073,23.5367483 35.8073684,23.9509619 C35.0899294,24.3651755 34.8441167,25.2825611 35.2583302,26 C35.6725438,26.7174389 36.5899294,26.9632517 37.3073684,26.5490381 C38.0248073,26.1348245 38.27062,25.2174389 37.8564065,24.5 Z M24.4674139,21.6105951 C22.7174139,21.6105951 21.5786631,21.172685 21.5786631,21.172685 C21.0552332,21.0183904 20.2361223,20.7000636 19.7599626,20.4247748 C19.7599626,20.4247748 16.0004883,18.9633197 16.0004883,14.0170902 C16.0004883,9.7211327 19.6490983,7.85220079 20.6309094,6.43450598 C21.6127204,5.01681116 22.2210943,2.81697444 22.2210943,2.81697444 C22.3824069,2.30227426 22.8735772,2.16546252 23.2779751,2.5236017 C23.2779751,2.5236017 27.1443467,5.06872011 26.5535774,11.0986555 C27.9548667,10.0615702 28.8959072,7.8242002 28.8959072,7.8242002 C29.1345764,7.32758059 29.5810479,7.29569876 29.8729146,7.7649175 C29.8729146,7.7649175 35.1720288,14.8170195 28.9642401,19.9973138 C28.1007328,20.6616618 26.2174139,21.6105951 24.4674139,21.6105951 Z" id="Path-250-Copy"></path>
                </g>
            </g>
        </g>
    </g>
</svg>