<?xml version="1.0" encoding="UTF-8"?>
<svg width="48px" height="48px" viewBox="0 0 48 48" version="1.1" xmlns="http://www.w3.org/2000/svg" xmlns:xlink="http://www.w3.org/1999/xlink">
    <!-- Generator: Sketch 49.3 (51167) - http://www.bohemiancoding.com/sketch -->
    <title>theicons.co/svg/nature-10</title>
    <desc>Created with Sketch.</desc>
    <defs></defs>
    <g id="The-Icons" stroke="none" stroke-width="1" fill="none" fill-rule="evenodd">
        <g id="v-1.5" transform="translate(-1248.000000, -1728.000000)" fill="#000000">
            <g id="Nature" transform="translate(96.000000, 1728.000000)">
                <g id="Bucket" transform="translate(1152.000000, 0.000000)">
                    <path d="M35.9957423,12 C38.2072328,12 40,13.7877996 40,16.009763 L40,17.990237 C40,19.5957911 39.05962,20.9809459 37.6982213,21.6213447 L36.2492575,39.0089096 C36.1115964,40.6608432 34.6582294,42 33.0089096,42 L14.9910904,42 C13.3391568,42 11.8881858,40.6582294 11.7507425,39.0089096 L10.3018187,21.6218246 C8.94161573,20.9828381 8,19.6005556 8,17.990237 L8,16.009763 C8,13.795232 9.78902751,12 12.0042577,12 L21.6230268,12 C22.065019,10.9556367 22.5709146,9.93645539 23.1545546,8.9734936 C24.9935656,5.93926473 27.2093557,4.02026367 30.019043,4.02026367 C32.954633,4.02026367 34.8266353,5.62038559 35.3098748,8.0959506 C35.5561276,9.35746747 35.4166721,10.8006107 35.0590842,12 L35.9957423,12 Z M31.0907496,11.2373302 C31.3573443,10.6108963 31.5203003,9.5606871 31.3839728,8.86230134 C31.2616478,8.2356482 31.0096668,8.02026367 30.019043,8.02026367 C28.998469,8.02026367 27.7590589,9.09366372 26.5753038,11.04677 C26.3883378,11.3552498 26.2094322,11.6743668 26.0391918,12 L30.7728142,12 C30.8913011,11.7112635 30.997482,11.4564869 31.0907496,11.2373302 Z M29.72432,25.7420588 C29.9012678,26.1246347 30,26.5507873 30,27 C30,28.6568542 28.6568542,30 27,30 C25.3431458,30 24,28.6568542 24,27 C24,25.6756065 24.8582002,24.5516564 26.0488279,24.1539224 C26.0918182,24.040955 26.6407168,22.6006612 26.8703413,22 L14.3515338,22 L15.7022095,38 L32.3286133,38 L33.6546308,22 L31.153588,22 C30.746435,23.0613715 29.7874261,25.5761746 29.72432,25.7420588 Z M12.0042577,16 C12.0012682,16 12,16.0012708 12,16.009763 L12,17.990237 C12,18.0005775 11.9994226,18 12.0042577,18 L28.4074311,18 C28.6814957,17.2910885 28.9406872,16.6233388 29.1838167,16 L12.0042577,16 Z M32.6975543,18 L35.9957423,18 C35.9987318,18 36,17.9987292 36,17.990237 L36,16.009763 C36,15.9994225 36.0005774,16 35.9957423,16 L33.4800037,16 C33.2404562,16.6080112 32.978954,17.2765118 32.6975543,18 Z" id="Combined-Shape"></path>
                </g>
            </g>
        </g>
    </g>
</svg>