<?xml version="1.0" encoding="UTF-8"?>
<svg width="48px" height="48px" viewBox="0 0 48 48" version="1.1" xmlns="http://www.w3.org/2000/svg" xmlns:xlink="http://www.w3.org/1999/xlink">
    <!-- Generator: Sketch 49.3 (51167) - http://www.bohemiancoding.com/sketch -->
    <title>theicons.co/svg/nature-12</title>
    <desc>Created with Sketch.</desc>
    <defs></defs>
    <g id="The-Icons" stroke="none" stroke-width="1" fill="none" fill-rule="evenodd">
        <g id="v-1.5" transform="translate(-1440.000000, -1728.000000)" fill="#000000">
            <g id="Nature" transform="translate(96.000000, 1728.000000)">
                <g id="Shovel" transform="translate(1344.000000, 0.000000)">
                    <path d="M14.0091663,22.7831213 L7.04492982,29.7473578 L8.92703524,39.1789609 L18.358937,41.0607677 L25.3228748,34.0968298 L21.0789109,29.8528659 L18.5370447,32.3947321 C17.7591137,33.1726632 16.5007563,33.1755812 15.7142624,32.3890873 C14.9332138,31.6080387 14.9365695,30.3383531 15.7086176,29.566305 L18.2504838,27.0244388 L14.0091663,22.7831213 Z M23.9086613,27.025762 L29.5620177,32.6791185 C30.3449981,33.4620988 30.3472123,34.7293466 29.5697155,35.5068434 L21.0760341,44.0005248 C20.2973051,44.7792538 18.7813667,45.2336075 17.6996172,45.0172577 L7.49028831,42.9753919 C6.40427372,42.758189 5.34695416,41.6974573 5.13060428,40.6157078 L3.0887385,30.4063789 C2.87153558,29.3203644 3.32797457,27.8074588 4.10547137,27.029962 L12.5991528,18.5362806 C13.3778818,17.7575516 14.6434596,17.7605604 15.4268777,18.5439784 L21.0802341,24.1973349 L36.6365833,8.6409857 L32.3874338,4.39183619 C31.60998,3.61438233 31.6074487,2.3564118 32.3939426,1.56991789 C33.1749912,0.788869309 34.4432883,0.790836395 35.2158609,1.56340907 L46.5425871,12.8901352 C47.3200409,13.6675891 47.3225722,14.9255596 46.5360783,15.7120535 C45.7550297,16.4931021 44.4867326,16.491135 43.71416,15.7185623 L39.4650104,11.4694128 L23.9086613,27.025762 Z" id="Combined-Shape"></path>
                </g>
            </g>
        </g>
    </g>
</svg>