<?xml version="1.0" encoding="UTF-8"?>
<svg width="48px" height="48px" viewBox="0 0 48 48" version="1.1" xmlns="http://www.w3.org/2000/svg" xmlns:xlink="http://www.w3.org/1999/xlink">
    <!-- Generator: Sketch 49.3 (51167) - http://www.bohemiancoding.com/sketch -->
    <title>theicons.co/svg/nature-08</title>
    <desc>Created with Sketch.</desc>
    <defs></defs>
    <g id="The-Icons" stroke="none" stroke-width="1" fill="none" fill-rule="evenodd">
        <g id="v-1.5" transform="translate(-1056.000000, -1728.000000)" fill="#000000" fill-rule="nonzero">
            <g id="Nature" transform="translate(96.000000, 1728.000000)">
                <g id="Leaf" transform="translate(960.000000, 0.000000)">
                    <path d="M16.4639548,38.2401223 C16.2875367,39.2555548 16.1686601,40.1962788 16.0966365,41.0360639 C16.0544404,41.5280646 16.0372402,41.8681554 16.0340325,42.0302847 C16.0152543,42.9794018 15.3382747,43.7609911 14.4472822,43.9480995 C14.2980516,43.9818568 14.1425555,43.9989073 13.9828893,43.9972001 C12.878383,43.9853906 11.9925772,43.0804377 12.0043868,41.9759313 C12.0047686,41.9015305 12.0004792,41.7427291 11.986081,41.5177565 C11.9619651,41.1409452 11.9171682,40.720723 11.8466435,40.2692327 C11.6485694,39.0011879 11.2897967,37.7408045 10.7390849,36.5837178 C9.64969811,34.2948346 7.95295949,32.6834691 5.45184595,31.9279937 C4.39446036,31.6086044 3.79619614,30.4925079 4.1155854,29.4351223 C4.43497466,28.3777367 5.5510712,27.7794725 6.60845678,28.0988618 C9.65891298,29.0202692 11.9318017,30.8514108 13.4995446,33.3201995 C13.7018341,32.6251445 13.9250886,31.9340481 14.1703733,31.2489506 C11.6721838,28.8054481 10.4846191,25.2700863 10.4846191,21.6247559 C10.4846191,11.6237322 19.2981212,0.77707678 42.0055563,6.50973685 C42.9854943,6.75712947 43.1090187,6.80578129 43.1090187,6.80578129 C44.167941,7.10693475 44.4147302,8.00620681 43.6654516,8.8174921 C43.6654516,8.8174921 42.8673998,9.64737727 42.0247642,10.6606339 C38.0116014,15.4864015 37.3064573,18.5662258 36.0009766,24.1000919 C34.4213867,30.7958927 29.627417,34.5161071 23,34.5161071 C20.943555,34.5161071 19.1544548,34.157114 17.6225531,33.5200827 C17.1214836,35.069618 16.7394567,36.6543801 16.4639548,38.2401223 Z M23,30.5161071 C27.8246191,30.5161071 30.9663687,28.0203145 32.107841,23.1816719 C32.4280634,21.8242656 32.5331704,21.3837388 32.6924431,20.7432354 C33.3563156,18.0735219 33.95122,16.2413693 34.8378585,14.3658726 C35.5860338,12.7832656 36.5178835,11.2559843 37.7232947,9.65063915 C31.468689,8.30706788 24.4118038,8.62314588 19.8947409,11.5305996 C16.3601711,13.8056616 14.4846191,17.5115963 14.4846191,21.6247559 C14.4846191,23.8201172 14.9839221,25.7026619 15.948289,27.1628071 C18.1017784,23.0268265 21.0761777,19.6449537 24.989392,17.2980078 C25.9366574,16.7298864 27.1651212,17.0372433 27.7332426,17.9845088 C28.301364,18.9317742 27.9940071,20.160238 27.0467416,20.7283594 C23.5872406,22.8031914 20.982723,25.8937264 19.1200086,29.7611605 C20.2174923,30.262566 21.5182515,30.5161071 23,30.5161071 Z" id="Shape"></path>
                </g>
            </g>
        </g>
    </g>
</svg>