<?xml version="1.0" encoding="UTF-8"?>
<svg width="48px" height="48px" viewBox="0 0 48 48" version="1.1" xmlns="http://www.w3.org/2000/svg" xmlns:xlink="http://www.w3.org/1999/xlink">
    <!-- Generator: Sketch 49.3 (51167) - http://www.bohemiancoding.com/sketch -->
    <title>theicons.co/svg/nature-16</title>
    <desc>Created with Sketch.</desc>
    <defs></defs>
    <g id="The-Icons" stroke="none" stroke-width="1" fill="none" fill-rule="evenodd">
        <g id="v-1.5" transform="translate(-1824.000000, -1728.000000)" fill="#000000">
            <g id="Nature" transform="translate(96.000000, 1728.000000)">
                <g id="City-Sign" transform="translate(1728.000000, 0.000000)">
                    <path d="M26,42.0027084 C26,43.1057821 25.1122704,44 24,44 C22.8954305,44 22,43.1084602 22,42.0027084 L22,26 L13,26 C12.4693664,26 11.9604831,25.7891273 11.5853771,25.4138041 L7.58653501,21.4126462 C6.80587238,20.6315315 6.80605562,19.3655173 7.58694433,18.5846285 L11.5857864,14.5857864 C11.9608592,14.2107137 12.469567,14 13,14 L22,14 L22,5.99729162 C22,4.89421792 22.8877296,4 24,4 C25.1045695,4 26,4.89153983 26,5.99729162 L26,10 L35.0011579,10 C35.5315909,10 36.0402987,10.2107137 36.4153715,10.5857864 L40.4142136,14.5846285 C41.1951023,15.3655173 41.1952855,16.6315315 40.4146229,17.4126462 L36.4157808,21.4138041 C36.0406748,21.7891273 35.5317915,22 35.0011579,22 L26,22 L26,42.0027084 Z M34.1698042,18 L36.2247007,16 L34.213072,14 L26,14 L26,18 L34.1698042,18 Z M22,22 L22,18 L13.7880859,18 L11.7764572,20 L13.8313537,22 L22,22 Z" id="Combined-Shape"></path>
                </g>
            </g>
        </g>
    </g>
</svg>