<?xml version="1.0" encoding="UTF-8"?>
<svg width="48px" height="48px" viewBox="0 0 48 48" version="1.1" xmlns="http://www.w3.org/2000/svg" xmlns:xlink="http://www.w3.org/1999/xlink">
    <!-- Generator: Sketch 49.3 (51167) - http://www.bohemiancoding.com/sketch -->
    <title>theicons.co/svg/nature-03</title>
    <desc>Created with Sketch.</desc>
    <defs></defs>
    <g id="The-Icons" stroke="none" stroke-width="1" fill="none" fill-rule="evenodd">
        <g id="v-1.5" transform="translate(-288.000000, -1728.000000)" fill="#000000">
            <g id="Nature" transform="translate(96.000000, 1728.000000)">
                <g id="Tree:-3" transform="translate(192.000000, 0.000000)">
                    <path d="M11.1795654,38 C8.47291262,38 7.12526094,35.4662208 8.62738062,33.2209109 L16.1155293,20.99972 C13.4135501,20.9689485 12.1395269,18.4073319 13.713231,16.2041461 L21.2134276,5.52807617 C22.6552979,3.50945776 25.3608604,3.51081985 26.8017578,5.52807617 L34.3271742,16.2041461 C35.9091213,18.4188721 34.608426,20.991176 31.8896111,20.9999774 L39.404968,33.2209109 C40.9097096,35.4701399 39.5636955,38 36.8527832,38 L26,38 L26,42.0059397 C26,43.1072288 25.1122704,44 24,44 C22.8954305,44 22,43.1054862 22,42.0059397 L22,38 L11.1795654,38 Z M35,34 L27.6763463,21.7790891 C27.4329111,21.4152117 26.6574443,21 26.2220523,21 L21.7796946,21 C21.3468836,21 20.5685886,21.4155811 20.3254005,21.7790891 L13,34 L22,34 L22,29.9940603 C22,28.8927712 22.8877296,28 24,28 C25.1045695,28 26,28.8945138 26,29.9940603 L26,34 L35,34 Z M30,17 L24.0036843,8.43577202 L18,16.9892388 L30,17 Z" id="Combined-Shape"></path>
                </g>
            </g>
        </g>
    </g>
</svg>