<?xml version="1.0" encoding="UTF-8"?>
<svg width="48px" height="48px" viewBox="0 0 48 48" version="1.1" xmlns="http://www.w3.org/2000/svg" xmlns:xlink="http://www.w3.org/1999/xlink">
    <!-- Generator: Sketch 49.3 (51167) - http://www.bohemiancoding.com/sketch -->
    <title>theicons.co/svg/nature-19</title>
    <desc>Created with Sketch.</desc>
    <defs></defs>
    <g id="The-Icons" stroke="none" stroke-width="1" fill="none" fill-rule="evenodd">
        <g id="v-1.5" transform="translate(-672.000000, -1728.000000)" fill="#000000">
            <g id="Nature" transform="translate(96.000000, 1728.000000)">
                <g id="Mountain-2" transform="translate(576.000000, 0.000000)">
                    <path d="M27,16 L27,20.2014496 L45.4499989,39.6225011 C46.6602655,40.896466 45.7571943,43 44,43 L4,43 C2.42912892,43 1.47144338,41.2720981 2.30400339,39.9400021 L12.3040034,23.9400021 C13.0873385,22.686666 14.9126615,22.686666 15.6959966,23.9400021 L17.621765,27.0212316 L23,20.2984379 L23,3.99079514 C23,2.89130934 23.8877296,2 25,2 C26.1045695,2 27,2.89821238 27,3.99079514 L27,4 L36.9068697,4 C38.0066143,4 38.3330685,4.70001891 37.6382612,5.56076643 L34.0548506,10 L37.6382612,14.4392336 C38.3340694,15.3012211 38.0076005,16 36.9068697,16 L27,16 Z M19.8684753,30.615968 L25.1084953,39 L39.3413772,39 L25.129308,24.0399272 L19.8684753,30.615968 Z M14,28.7735925 L7.60849528,39 L20.3915047,39 L14,28.7735925 Z" id="Combined-Shape"></path>
                </g>
            </g>
        </g>
    </g>
</svg>