<?xml version="1.0" encoding="UTF-8"?>
<svg width="48px" height="48px" viewBox="0 0 48 48" version="1.1" xmlns="http://www.w3.org/2000/svg" xmlns:xlink="http://www.w3.org/1999/xlink">
    <!-- Generator: Sketch 49.3 (51167) - http://www.bohemiancoding.com/sketch -->
    <title>theicons.co/svg/nature-18</title>
    <desc>Created with Sketch.</desc>
    <defs></defs>
    <g id="The-Icons" stroke="none" stroke-width="1" fill="none" fill-rule="evenodd">
        <g id="v-1.5" transform="translate(-384.000000, -1728.000000)" fill="#000000">
            <g id="Nature" transform="translate(96.000000, 1728.000000)">
                <g id="Palm-Tree" transform="translate(288.000000, 0.000000)">
                    <path d="M30.4115705,19.0428056 C29.3306419,18.8155016 28.2701097,19.5075009 28.0428056,20.5884295 C27.8155016,21.6693581 28.5075009,22.7298903 29.5884295,22.9571944 C30.8485766,23.2221856 31.4895722,23.7835188 31.819951,24.63202 C31.9708649,25.0196071 32.0465343,25.4454809 32.0650156,25.8588753 C29.3710549,27.5616371 27.5453701,29.8441864 26.5143573,32.5414044 C25.4053363,35.4426986 25.3072735,38.4652787 25.7923693,41.2575428 C25.8950629,41.8486583 26.0016282,42.2941462 26.0816035,42.5654686 C26.3939032,43.6249698 27.5059675,44.2306962 28.5654686,43.9183965 C29.6249698,43.6060968 30.2306962,42.4940325 29.9183965,41.4345314 C29.8797989,41.3035859 29.8085048,41.0055466 29.733339,40.5728842 C29.3609976,38.4296464 29.4366002,36.0993552 30.2506924,33.9696202 C31.0270247,31.9386682 32.4252898,30.2566497 34.6149704,28.9904075 C35.0151164,28.9993647 35.4828677,29.0390784 36.0053462,29.1239752 C37.1164153,29.3045115 38.2080966,29.6535092 39.2161092,30.2047195 C40.4481308,30.8784244 41.496791,31.8226919 42.3246755,33.0923772 C42.9279788,34.0176333 44.167121,34.2786277 45.0923772,33.6753245 C46.0176333,33.0720212 46.2786277,31.832879 45.6753245,30.9076228 C44.4761312,29.0684797 42.9309411,27.6771112 41.1352338,26.6951667 C40.4389064,26.3143948 39.7223075,26.0039424 38.9936454,25.7567549 C40.3457628,25.2397179 41.7534635,25.2229817 43.2226468,25.8427485 C44.2403687,26.2720688 45.4134281,25.7950751 45.8427485,24.7773532 C46.2720688,23.7596313 45.7950751,22.5865719 44.7773532,22.1572515 C42.738505,21.2971747 40.7596846,21.1679244 38.89481,21.603109 C39.0765427,20.1671055 38.9333499,18.7166119 38.3712712,17.2890147 C38.1914521,16.8323007 37.9698784,16.3873559 37.7058928,15.9560029 C37.1293091,15.0138644 35.8981415,14.7175236 34.9560029,15.2941072 C34.0138644,15.8706909 33.7175236,17.1018585 34.2941072,18.0439971 C34.4367619,18.2770949 34.554592,18.513711 34.6493638,18.7544175 C35.0172911,19.6888988 35.043648,20.7122712 34.7961784,21.770035 C33.849063,20.4211104 32.3850428,19.4577991 30.4115705,19.0428056 Z M6.85112373,10.1058854 C5.22972832,10.8917109 3.74716623,12.103269 2.43336632,13.7568089 C1.74623148,14.6216322 1.8902765,15.879743 2.75509988,16.5668778 C3.61992326,17.2540127 4.87803399,17.1099676 5.56516883,16.2451443 C6.51369374,15.0513371 7.52672501,14.2234822 8.59566846,13.7054081 C10.1074153,12.9727248 11.7301202,12.858702 13.3697194,13.2101795 C11.652716,14.5889329 10.4591158,16.3956288 10.067448,18.6561114 C9.87887195,19.7444647 10.6082855,20.7796205 11.6966388,20.9681965 C12.784992,21.1567726 13.8201478,20.427359 14.0087239,19.3390058 C14.2371908,18.0204249 14.9845955,16.9678574 16.1448636,16.122086 C16.5985035,15.7914075 17.0876622,15.5139138 17.5814701,15.2893543 C18.6176528,17.4136986 19.3184175,19.8076434 19.7097709,22.4324834 C20.4205496,27.1997351 20.0822318,32.3646905 19.0798727,37.3746694 C18.8606553,38.4703594 18.6262079,39.4673732 18.3926548,40.3444968 C18.254869,40.8619598 18.1501204,41.2181604 18.09463,41.3920812 C17.7588857,42.444388 18.3397744,43.5696257 19.3920812,43.90537 C20.444388,44.2411143 21.5696257,43.6602256 21.90537,42.6079188 C21.9800054,42.3739926 22.102977,41.9558243 22.2579744,41.3737218 C22.5123932,40.4182361 22.7659177,39.3400943 23.0021407,38.1594074 C24.0875729,32.7342137 24.4545728,27.1313789 23.6660394,21.8426192 C23.2168025,18.8295497 22.4010171,16.0431038 21.1755203,13.5325231 C22.904779,13.3162484 24.9068044,13.6218074 27.0619188,14.7663532 C28.0374488,15.2844412 29.2482653,14.9136111 29.7663532,13.9380812 C30.2844412,12.9625512 29.9136111,11.7517347 28.9380812,11.2336468 C26.3686449,9.86906138 23.88133,9.37165449 21.6208426,9.48126378 C23.4663737,6.75569316 26.1796799,5.65851509 30.4321605,6.91769609 C31.4912748,7.23130519 32.604087,6.62695381 32.9176961,5.5678395 C33.2313052,4.5087252 32.6269538,3.39591301 31.5678395,3.08230391 C25.8217875,1.38086888 21.499042,2.97688269 18.7001236,6.69101688 C18.2139577,5.69002765 17.1875611,5 16,5 C14.3431458,5 13,6.34314575 13,8 C13,8.39502609 13.0763495,8.7722198 13.2150968,9.11762952 C11.0938386,8.82790675 8.94113835,9.09293884 6.85112373,10.1058854 Z" id="Combined-Shape"></path>
                </g>
            </g>
        </g>
    </g>
</svg>