<?xml version="1.0" encoding="UTF-8"?>
<svg width="48px" height="48px" viewBox="0 0 48 48" version="1.1" xmlns="http://www.w3.org/2000/svg" xmlns:xlink="http://www.w3.org/1999/xlink">
    <!-- Generator: Sketch 49.3 (51167) - http://www.bohemiancoding.com/sketch -->
    <title>theicons.co/svg/others-42</title>
    <desc>Created with Sketch.</desc>
    <defs></defs>
    <g id="The-Icons" stroke="none" stroke-width="1" fill="none" fill-rule="evenodd">
        <g id="v-1.5" transform="translate(-288.000000, -1344.000000)">
            <g id="Others" transform="translate(96.000000, 1056.000000)" fill="#000000">
                <g id="Megaphone" transform="translate(192.000000, 288.000000)">
                    <path d="M11.9952753,31 C6.47752559,31 2,26.5163508 2,21 C2,15.4799575 6.48051622,11 11.9952753,11 L29.3948975,11 L37.1905799,4.80436431 C39.3708203,3.09069861 42,4.36909106 42,7.13877691 L42,17 C44.209139,17 46,18.790861 46,21 C46,23.209139 44.209139,25 42,25 L42,34.9012621 C42,37.6722163 39.3718114,38.9525606 37.1977003,37.2350075 L29.287944,31 L26.5543429,31 L28.9145874,40.551948 C29.4914365,42.8864661 27.8641969,44.9748535 25.45351,44.9748535 L19.45274,44.9748535 C17.4293005,44.9748535 15.5163162,43.474024 15.0313782,41.511472 L12.4340395,31 L11.9952753,31 Z M18.9145874,40.551948 C18.9586363,40.7302149 19.2704571,40.9748535 19.45274,41 L24.9049683,41 L22.4340359,31 L16.5543429,31 L18.9145874,40.551948 Z M15.0027601,23 C13.8966663,23 13,22.1122704 13,21 C13,19.8954305 13.8935426,19 15.0027601,19 L22,19 L22,15 L11.9952753,15 C8.68954356,15 6,17.6892082 6,21 C6,24.3084346 8.68788931,27 11.9952753,27 L22,27 L22,23 L15.0027601,23 Z M38,9.29699707 L31.2359194,14.5724195 C30.8835023,14.8494189 30.4482483,15 30,15 L26,15 L26,27 L30,27 C30.4499417,27 30.886739,27.1517193 31.2397997,27.4306381 L38.0041292,32.7744749 L38.0020812,21.130271 C38.0006973,21.0870172 38,21.04359 38,21 C38,20.9568911 38.0006819,20.9139414 38.0020356,20.8711612 L38,9.29699707 Z" id="Combined-Shape"></path>
                </g>
            </g>
            <g id="Sports" transform="translate(96.000000, 1344.000000)"></g>
        </g>
    </g>
</svg>