<?xml version="1.0" encoding="UTF-8"?>
<svg width="48px" height="48px" viewBox="0 0 48 48" version="1.1" xmlns="http://www.w3.org/2000/svg" xmlns:xlink="http://www.w3.org/1999/xlink">
    <!-- Generator: Sketch 49.3 (51167) - http://www.bohemiancoding.com/sketch -->
    <title>theicons.co/svg/others-47</title>
    <desc>Created with Sketch.</desc>
    <defs></defs>
    <g id="The-Icons" stroke="none" stroke-width="1" fill="none" fill-rule="evenodd">
        <g id="v-1.5" transform="translate(-768.000000, -1344.000000)">
            <g id="Others" transform="translate(96.000000, 1056.000000)" fill="#000000">
                <g id="Brush" transform="translate(672.000000, 288.000000)">
                    <path d="M14.825244,37.4673567 C15.4625165,36.8300843 15.918435,35.776221 16.1687278,34.4878324 C16.2199305,34.2242657 16.2744817,33.6999519 16.3134148,33.2632834 L14.8213394,31.771208 C12.9155484,31.9583083 11.3897034,32.4351786 10.5895356,33.2340108 C9.85034787,33.9719648 9.75058987,34.3519111 9.83070107,35.5969679 C9.82873592,35.5664263 9.85474049,36.0015891 9.87366359,36.3470816 C10.19445,36.1280675 10.5822691,36 11,36 C12.1045695,36 13,36.8954305 13,38 C13,38.2563982 12.9517524,38.5015276 12.8638409,38.7268044 C13.5906295,38.4589332 14.2477261,38.0448747 14.825244,37.4673567 Z M21.8989879,36.0204294 C21.3314262,36.587991 20.5070062,36.7425163 19.797881,36.483742 C19.3627568,37.969928 18.6762627,39.2731924 17.6536712,40.2957839 C15.4658956,42.4835595 12.6429411,43.1668132 9.63269041,42.9595346 C7.8915881,42.8396464 6.47831002,42.5513083 5.54682338,42.1560557 C4.29234574,41.62375 3.92593572,40.0201508 4.82473792,38.9958373 C4.86931578,38.9450345 6.07067869,37.7294312 6.07067869,35.6868905 C6.06890903,33.1915292 6.08123882,32.0826475 7.76347192,30.4032222 C8.7858552,29.3825454 10.067503,28.7139222 11.56305,28.2938072 C11.2658966,27.5707499 11.4088708,26.7115565 11.9994929,26.1209344 C12.710617,25.4098103 13.8249762,25.3471012 14.6105577,25.9333245 C14.6353191,25.8745298 16.5490723,21.4217529 19.7803578,18.3400747 C22.5235379,15.7239028 27.0417304,11.9040142 31.0253519,9.14340202 C36.8315635,5.11975204 40.3205351,3.53028837 42.4050845,5.61483777 C44.4896365,7.69938972 42.9001728,11.1883613 38.8765228,16.994573 C36.1159107,20.9781945 32.3889771,25.479248 29.6798501,28.2395671 C26.5987588,31.3788793 22.145481,33.3845691 22.0867284,33.4093133 C22.6731155,34.1936878 22.6150016,35.3044157 21.8989879,36.0204294 Z M18.9574176,30.250432 C19.545399,30.0710759 20.2792087,29.833522 20.6811355,29.6602897 C22.775783,28.7574866 24.879515,27.3756171 26.8514138,25.4111594 C29.3463212,22.9067305 32.9583244,18.5120548 35.5888052,14.7162156 C37.0245074,12.644467 38.114425,10.8341392 38.736607,9.46841093 L38.7926112,9.33712117 C38.8377255,9.23136027 38.7994335,9.17755991 38.6828025,9.22731253 L38.5515139,9.28331785 C37.1857857,9.90549988 35.3754579,10.9954174 33.3037093,12.4311197 C29.5078701,15.0616005 25.1131944,18.6736036 22.6087655,21.1685111 C20.6443078,23.1404099 19.2624383,25.2441419 18.3596352,27.3387894 C18.1864028,27.7407161 17.9488489,28.4745259 17.7694929,29.0625073 L18.9574176,30.250432 Z" id="Combined-Shape"></path>
                </g>
            </g>
            <g id="Sports" transform="translate(96.000000, 1344.000000)"></g>
        </g>
    </g>
</svg>