<?xml version="1.0" encoding="UTF-8"?>
<svg width="48px" height="48px" viewBox="0 0 48 48" version="1.1" xmlns="http://www.w3.org/2000/svg" xmlns:xlink="http://www.w3.org/1999/xlink">
    <!-- Generator: Sketch 49.3 (51167) - http://www.bohemiancoding.com/sketch -->
    <title>theicons.co/svg/others-03</title>
    <desc>Created with Sketch.</desc>
    <defs></defs>
    <g id="The-Icons" stroke="none" stroke-width="1" fill="none" fill-rule="evenodd">
        <g id="v-1.5" transform="translate(-1344.000000, -1056.000000)">
            <g id="Clothes" transform="translate(96.000000, 960.000000)"></g>
            <g id="Others" transform="translate(96.000000, 1056.000000)" fill="#000000">
                <g id="Student" transform="translate(1248.000000, 0.000000)">
                    <path d="M14,34.3277355 C14.3955078,34.7581177 15.0681272,35.3796124 15.7498085,35.8321228 C17.7750106,37.1764828 20.481824,37.9968262 24.0075073,37.9968262 C27.5327089,37.9968262 30.2360967,37.1767742 32.2561657,35.8331416 C32.9358774,35.3810368 33.7449341,34.7315674 34,34.3299532 L34,25.9446436 L26.663079,29.4359388 C25.1236135,30.1684979 22.8761254,30.1678738 21.3412991,29.4346064 L14,25.927281 L14,34.3277355 Z M10,24.0162702 L1.18446629,19.8046252 C-0.333767492,19.0792849 -0.332327963,16.9175457 1.1868705,16.1942281 L21.3343748,6.60164016 C22.8734995,5.86883531 25.1230469,5.86668986 26.660679,6.59587291 L46.8979859,16.1929023 C48.4209054,16.9151082 48.4223445,19.0817291 46.9003858,19.8059576 L46,20.2344088 L46,29.7638935 C46.6137494,30.313214 47,31.1115002 47,32 C47,33.6568542 45.6568542,35 44,35 C42.3431458,35 41,33.6568542 41,32 C41,31.1115002 41.3862506,30.313214 42,29.7638935 L42,22.1378204 L38,24.041232 L38,34.9676811 C38.0062365,35.3322315 37.9129256,35.7028671 37.7097934,36.0375966 C37.5513029,36.2987635 37.2754207,36.6741449 36.8685609,37.1233583 C36.2301323,37.8282466 35.43508,38.5227337 34.4714496,39.1636846 C31.7962557,40.9430683 28.3224318,41.9968262 24.0075073,41.9968262 C19.6930646,41.9968262 16.2170358,40.9433597 13.5375908,39.1647033 C12.5726456,38.5241581 11.7760636,37.8301563 11.1360001,37.1257998 C10.7281817,36.677017 10.4514953,36.3020742 10.2924863,36.0413439 C10.0878483,35.7057945 9.99378547,35.3338238 10,34.9679249 L10,24.0162702 Z M23.0538955,10.2131839 L6.68240253,17.9982257 L23.0656282,25.8253559 C23.5112324,26.0382445 24.4935822,26.0385173 24.9443386,25.8240235 L41.3694053,18.0081079 L24.9467386,10.2100683 C24.4960336,9.99633288 23.5073718,9.99727578 23.0538955,10.2131839 Z" id="Combined-Shape"></path>
                </g>
            </g>
        </g>
    </g>
</svg>