<?xml version="1.0" encoding="UTF-8"?>
<svg width="48px" height="48px" viewBox="0 0 48 48" version="1.1" xmlns="http://www.w3.org/2000/svg" xmlns:xlink="http://www.w3.org/1999/xlink">
    <!-- Generator: Sketch 49.3 (51167) - http://www.bohemiancoding.com/sketch -->
    <title>theicons.co/svg/others-19</title>
    <desc>Created with Sketch.</desc>
    <defs></defs>
    <g id="The-Icons" stroke="none" stroke-width="1" fill="none" fill-rule="evenodd">
        <g id="v-1.5" transform="translate(-1632.000000, -1248.000000)" fill="#000000">
            <g id="Others" transform="translate(96.000000, 1056.000000)">
                <g id="Gift" transform="translate(1536.000000, 192.000000)">
                    <path d="M42.0027084,16 C43.1057821,16 44,16.9019504 44,18.0085302 L44,25.9914698 C44,27.1007504 43.109122,28 41.9990853,28 L40,28 L40,42.0092049 C40,43.1086907 39.1107383,44 37.9982567,44 L10.0017433,44 C8.89621101,44 8,43.1017876 8,42.0092049 L8,28 L6.00873405,28 C4.89934087,28 4,27.0980496 4,25.9914698 L4,18.0085302 C4,16.8992496 4.89153983,16 5.99729162,16 L12.8474312,16 C11.6950714,14.7131112 11.0454102,13.1203105 11.0454102,11.1889575 C11.0454102,6.73091812 14.5931238,3.86910226 18.7421128,4.24738569 C20.8758805,4.44193163 22.7293267,5.43727036 24.0291835,7.02809606 C25.3290403,5.43727036 27.1824865,4.44193163 29.3162542,4.24738569 C33.4652433,3.86910226 37.0129569,6.73091812 37.0129569,11.1889575 C37.0129569,13.1203105 36.3632956,14.7131112 35.2109358,16 L42.0027084,16 Z M22.0001286,13.1427623 C22.0340863,10.148594 20.4934611,8.4236559 18.3789199,8.23086293 C16.4674106,8.05658137 15.0454102,9.20365917 15.0454102,11.1889575 C15.0454102,13.0226937 16.46721,14.3538959 19.1831763,15.2676763 C20.2135366,15.6143386 21.897989,15.9550864 22.0252913,15.9806363 C22.0265187,15.8723103 22.0097399,13.959034 22.0001286,13.1427623 Z M30,39.9907951 L36,39.9907951 L36,28 L30,28 L30,39.9907951 Z M40,24 L40,20 L30,20 L30,24 L40,24 Z M22,20 L22,39.9907951 L26,39.9907951 L26,20 L22,20 Z M8,20 L8,24 L18,24 L18,20 L8,20 Z M12,28 L12,39.9907951 L18,39.9907951 L18,28 L12,28 Z M28.8497757,15.2676763 C31.565742,14.3538959 32.9875418,13.0226937 32.9875418,11.1889575 C32.9875418,9.20365917 31.5655413,8.05658137 29.6540321,8.23086293 C27.5394909,8.4236559 25.9988657,10.148594 26.0328234,13.1427623 C26.0196078,14.2651463 26,15.9821696 26,15.9821696 C26,15.9821696 27.7784539,15.62812 28.8497757,15.2676763 Z" id="Combined-Shape"></path>
                </g>
            </g>
        </g>
    </g>
</svg>