<?xml version="1.0" encoding="UTF-8"?>
<svg width="48px" height="48px" viewBox="0 0 48 48" version="1.1" xmlns="http://www.w3.org/2000/svg" xmlns:xlink="http://www.w3.org/1999/xlink">
    <!-- Generator: Sketch 49.3 (51167) - http://www.bohemiancoding.com/sketch -->
    <title>theicons.co/svg/others-48</title>
    <desc>Created with Sketch.</desc>
    <defs></defs>
    <g id="The-Icons" stroke="none" stroke-width="1" fill="none" fill-rule="evenodd">
        <g id="v-1.5" transform="translate(-1536.000000, -1248.000000)" fill="#000000">
            <g id="Others" transform="translate(96.000000, 1056.000000)">
                <g id="Happy-Hat" transform="translate(1440.000000, 192.000000)">
                    <path d="M24,16 C23.110357,16 22.2659369,15.8063774 21.5065812,15.4589735 L17.0572348,24.3576663 C18.5667928,23.7169021 24.4615479,20.7266846 27.3781385,17.228413 L26.4934188,15.4589735 C25.7340631,15.8063774 24.889643,16 24,16 Z M41.7888544,37.1055728 C42.1965253,37.9209146 42.0012815,38.9087629 41.3140831,39.5077087 C41.0889648,39.7039165 35.8310438,43.9929174 24.0011973,43.9999996 C12.1713509,44.0070819 6.90792238,39.7018697 6.68336568,39.5054813 C5.99813143,38.9062026 5.80403852,37.919787 6.21114562,37.1055728 L18.529689,12.4684861 C18.1894127,11.7155965 18,10.8799181 18,10 C18,6.6862915 20.6862915,4 24,4 C27.3137085,4 30,6.6862915 30,10 C30,10.8799181 29.8105873,11.7155965 29.470311,12.4684861 L41.7888544,37.1055728 Z M32.8279663,28.1280686 C30.88566,29.9942392 25.4199219,34.8857422 12.5218477,38.1690599 C14.7457918,39.024062 17.4338577,39.6266659 20.6201154,39.874383 C20.7246617,39.8317559 29.2732546,36.711792 34.5889442,31.6500244 L32.8279663,28.1280686 Z M30.6081963,39.471536 C34.0132293,39.026123 37.4182623,37.3086606 37.4182623,37.3086606 L36.4466558,35.3654475 C35.2379377,36.4162793 33.2495117,37.8743896 30.6081963,39.471536 Z M14.4915853,29.4889654 L12.1652508,34.1416344 C15.3530883,33.3626239 24.6621094,30.8461914 30.9357035,24.343543 L29.2732546,21.0186452 C27.8021908,22.4493181 22.2176867,27.3054199 14.4915853,29.4889654 Z M26,10 C26,8.8954305 25.1045695,8 24,8 C22.8954305,8 22,8.8954305 22,10 C22,11.1045695 22.8954305,12 24,12 C25.1045695,12 26,11.1045695 26,10 Z" id="Combined-Shape"></path>
                </g>
            </g>
        </g>
    </g>
</svg>