<?xml version="1.0" encoding="UTF-8"?>
<svg width="48px" height="48px" viewBox="0 0 48 48" version="1.1" xmlns="http://www.w3.org/2000/svg" xmlns:xlink="http://www.w3.org/1999/xlink">
    <!-- Generator: Sketch 49.3 (51167) - http://www.bohemiancoding.com/sketch -->
    <title>theicons.co/svg/others-31</title>
    <desc>Created with Sketch.</desc>
    <defs></defs>
    <g id="The-Icons" stroke="none" stroke-width="1" fill="none" fill-rule="evenodd">
        <g id="v-1.5" transform="translate(-768.000000, -1248.000000)" fill="#000000">
            <g id="Others" transform="translate(96.000000, 1056.000000)">
                <g id="Radar" transform="translate(672.000000, 192.000000)">
                    <path d="M26.8326691,26.8269608 C25.2705719,28.3890579 22.737912,28.3890579 21.1758148,26.8269608 C19.6137177,25.2648636 19.6137177,22.7322037 21.1758148,21.1701065 C22.2227322,20.1231892 23.7055951,19.7779157 25.0400623,20.1342861 L28.068667,17.1056815 C25.0008559,15.2938131 20.9832547,15.7058124 18.3473877,18.3416794 C15.2231934,21.4658737 15.2231934,26.5311936 18.3473877,29.6553879 C21.471582,32.7795822 26.5369019,32.7795822 29.6610962,29.6553879 C30.8801589,28.4363252 31.6524465,26.8941592 31.9098531,25.2282637 C32.0785245,24.1366485 33.1001886,23.3884548 34.1918038,23.5571262 C35.283419,23.7257976 36.0316128,24.7474617 35.8629414,25.8390769 C35.4768247,28.3379642 34.3146498,30.6586885 32.4895233,32.483815 C27.8032318,37.1701065 20.2052521,37.1701065 15.5189606,32.483815 C10.8326691,27.7975235 10.8326691,20.1995438 15.5189606,15.5132523 C19.7234122,11.3088006 26.27158,10.8765031 30.9579888,14.2163597 L33.8162059,11.3581426 C27.5393468,6.473147 18.4599841,6.91537453 12.6905335,12.6848251 C6.44214478,18.9332138 6.44214478,29.0638535 12.6905335,35.3122421 C18.9389221,41.5606308 29.0695618,41.5606308 35.3179504,35.3122421 C36.3518663,34.2783263 37.2276871,33.1258466 37.9336533,31.8799895 C38.4782086,30.9189831 39.6987075,30.5813828 40.6597139,31.125938 C41.6207203,31.6704933 41.9583207,32.8909922 41.4137654,33.8519986 C40.5305576,35.4106437 39.4357119,36.8513349 38.1463776,38.1406693 C30.3358917,45.9511551 17.6725922,45.9511551 9.86210633,38.1406693 C2.05162049,30.3301834 2.05162049,17.6668838 9.86210633,9.85639801 C17.1952959,2.5232084 28.8063139,2.0750796 36.6623369,8.51201159 C37.5160128,7.6583357 38.7740972,7.65569054 39.5605911,8.44218445 C40.3416397,9.22323304 40.3457102,10.4854925 39.5668455,11.2643572 L27.8684894,22.9627133 C28.2248599,24.2971804 27.8795864,25.7800434 26.8326691,26.8269608 Z M43.1203005,26.1435196 C44.2918734,24.9719467 44.2918734,23.0724518 43.1203005,21.9008789 C41.9487276,20.729306 40.0492327,20.729306 38.8776598,21.9008789 C37.7060869,23.0724518 37.7060869,24.9719467 38.8776598,26.1435196 C40.0492327,27.3150925 41.9487276,27.3150925 43.1203005,26.1435196 Z" id="Combined-Shape"></path>
                </g>
            </g>
        </g>
    </g>
</svg>