<?xml version="1.0" encoding="UTF-8"?>
<svg width="48px" height="48px" viewBox="0 0 48 48" version="1.1" xmlns="http://www.w3.org/2000/svg" xmlns:xlink="http://www.w3.org/1999/xlink">
    <!-- Generator: Sketch 49.3 (51167) - http://www.bohemiancoding.com/sketch -->
    <title>theicons.co/svg/others-11</title>
    <desc>Created with Sketch.</desc>
    <defs></defs>
    <g id="The-Icons" stroke="none" stroke-width="1" fill="none" fill-rule="evenodd">
        <g id="v-1.5" transform="translate(-480.000000, -1152.000000)" fill="#000000" fill-rule="nonzero">
            <g id="Others" transform="translate(96.000000, 1056.000000)">
                <g id="Anchor" transform="translate(384.000000, 96.000000)">
                    <path d="M26,20 L33.9950534,20 C35.1023548,20 36,20.8877296 36,22 C36,23.1045695 35.1029738,24 33.9950534,24 L26,24 L26,39.8981026 C31.3059373,39.3433394 35.2521566,36.5437322 37.2288433,32 L33.999615,32 C32.8952581,32 32,31.1122704 32,30 C32,28.8954305 32.8874333,28 33.999615,28 L40.000385,28 C41.0999989,28 41.9923062,28.8801207 41.9999505,29.9856815 C42.0040181,30.1623504 41.9845561,30.342496 41.9392147,30.5221829 C39.8151054,38.9399856 33.0709039,44 24,44 C14.9315381,44 8.18878145,38.9431765 6.06102666,30.5284099 C6.01564613,30.3489406 5.99608844,30.1690008 6.00001359,29.9925144 C6.00401224,28.8913878 6.88994675,28 7.99961498,28 L14.000385,28 C15.1047419,28 16,28.8877296 16,30 C16,31.1045695 15.1125667,32 14.000385,32 L10.7703553,32 C12.7480178,36.5440807 16.6941736,39.3434052 22,39.8981117 L22,24 L14.0049466,24 C12.8976452,24 12,23.1122704 12,22 C12,20.8954305 12.8970262,20 14.0049466,20 L22,20 L22,15.6585886 C19.6696153,14.8349158 18,12.6124377 18,10 C18,6.6862915 20.6862915,4 24,4 C27.3137085,4 30,6.6862915 30,10 C30,12.6124377 28.3303847,14.8349158 26,15.6585886 L26,20 Z M24,12 C25.1045695,12 26,11.1045695 26,10 C26,8.8954305 25.1045695,8 24,8 C22.8954305,8 22,8.8954305 22,10 C22,11.1045695 22.8954305,12 24,12 Z" id="Combined-Shape"></path>
                </g>
            </g>
        </g>
    </g>
</svg>