<?xml version="1.0" encoding="UTF-8"?>
<svg width="48px" height="48px" viewBox="0 0 48 48" version="1.1" xmlns="http://www.w3.org/2000/svg" xmlns:xlink="http://www.w3.org/1999/xlink">
    <!-- Generator: Sketch 49.3 (51167) - http://www.bohemiancoding.com/sketch -->
    <title>theicons.co/svg/others-12</title>
    <desc>Created with Sketch.</desc>
    <defs></defs>
    <g id="The-Icons" stroke="none" stroke-width="1" fill="none" fill-rule="evenodd">
        <g id="v-1.5" transform="translate(-576.000000, -1152.000000)" fill="#000000">
            <g id="Others" transform="translate(96.000000, 1056.000000)">
                <g id="Bomb" transform="translate(480.000000, 96.000000)">
                    <path d="M19.9914698,16 C21.1007504,16 22,16.8874333 22,17.999615 L22,23.6053863 C25.5868082,25.6802429 28,29.5583059 28,34 C28,40.627417 22.627417,46 16,46 C9.372583,46 4,40.627417 4,34 C4,29.5583059 6.41319178,25.6802429 10,23.6053863 L10,17.999615 C10,16.8952581 10.9019504,16 12.0085302,16 L14.013745,16 C14.015136,15.6268667 14.0329591,9.09946094 14.032959,8.02832054 C14.0329586,4.79162112 16.63873,1.90494484 20.0560691,2.00078609 L19.9016919,2.00241758 C23.4887925,1.82588373 26.1598386,4.72478599 25.9976907,8.0960821 L25.9993321,7.94831503 C26.0726648,10.7850507 26.0957968,11.8467528 26.0938893,12.0137955 C26.0932879,12.1706761 26.1163066,12.5127607 26.1894229,12.9636857 C26.3106348,13.7112275 26.5291784,14.4533934 26.8606388,15.1272269 C27.770231,16.9763574 29.3384049,18.0275879 32.0634766,18.0275879 C34.7829495,18.0275879 36.3295238,16.9831357 37.2143439,15.1432242 C37.3835349,14.7914052 37.5217646,14.420484 37.6312825,14.0394596 C37.6312825,14.0394596 36.7305298,14.4464111 35.903595,14.8358177 C35.0766602,15.2252243 34.2240954,14.6376907 34.5872369,13.6937233 C34.9503784,12.7497559 35.8042261,10.236068 35.8042261,10.236068 L33.4382148,7.92977695 C32.6439107,7.15552183 32.8918312,6.39827339 33.9875639,6.2390541 L37.2573111,5.76393202 L38.7195865,2.80103843 C39.2104934,1.80635237 40.0072912,1.80813613 40.4973177,2.80103843 L41.9595931,5.76393202 L45.2293403,6.2390541 C46.3270416,6.39855943 46.5715692,7.15691029 45.7786895,7.92977695 L43.4126782,10.236068 L44.9530029,13.7908936 C45.1405127,14.8841593 44.0630493,15.055481 43.5147882,14.8358177 C42.966527,14.6161545 41.7237065,14.112055 41.7237065,14.112055 C41.5411588,15.0508256 41.2487451,15.9835171 40.8191644,16.8767954 C39.2888997,20.0588564 36.3736973,22.0275879 32.0634766,22.0275879 C27.7588546,22.0275879 24.8321097,20.0656348 23.2713802,16.8927927 C22.7499622,15.8327901 22.4215704,14.7175842 22.2409917,13.6039132 C22.1300121,12.9194761 22.0924828,12.3617473 22.0940024,11.9858414 C22.0942128,11.9626295 22.0023093,7.9039179 22.0023093,7.9039179 C22.0544894,6.81901431 21.2455986,5.94112021 20.0983081,5.99758242 L19.9439309,5.99921391 C18.9045271,5.97006323 18.0329589,6.93558739 18.032959,8.02832009 C18.0329591,9.10350228 18.0151459,15.6313308 18.0137728,16 L19.9914698,16 Z M16,42 C20.418278,42 24,38.418278 24,34 C24,29.581722 20.418278,26 16,26 C11.581722,26 8,29.581722 8,34 C8,38.418278 11.581722,42 16,42 Z M18.0195312,20 L14,19.9589844 L14,22.1659169 C14.6504169,22.0567976 15.3185756,22 16,22 C16.6845497,22 17.3557117,22.0573198 18.0089481,22.1674216 L18.0195312,20 Z" id="Star-2"></path>
                </g>
            </g>
        </g>
    </g>
</svg>