<?xml version="1.0" encoding="UTF-8"?>
<svg width="48px" height="48px" viewBox="0 0 48 48" version="1.1" xmlns="http://www.w3.org/2000/svg" xmlns:xlink="http://www.w3.org/1999/xlink">
    <!-- Generator: Sketch 49.3 (51167) - http://www.bohemiancoding.com/sketch -->
    <title>theicons.co/svg/others-10</title>
    <desc>Created with Sketch.</desc>
    <defs></defs>
    <g id="The-Icons" stroke="none" stroke-width="1" fill="none" fill-rule="evenodd">
        <g id="v-1.5" transform="translate(-288.000000, -1152.000000)" fill="#000000">
            <g id="Others" transform="translate(96.000000, 1056.000000)">
                <g id="Skull" transform="translate(192.000000, 96.000000)">
                    <path d="M42,17 C42,20.2257852 41.6204933,22.3087933 40.8569574,24.2286616 C40.7346213,24.5362688 40.3461212,25.4327658 40.2819461,25.5950478 C40.0761857,26.1153622 39.9970703,26.4794032 39.9970703,27 C39.9970703,28.0122962 40.0803385,28.4421994 40.3828904,29.3758238 C40.8094425,30.6920922 40.9698486,31.5222091 40.9698486,33.0240479 C40.9698486,37.431153 38.1218597,40.0139545 32.9916273,39.9999926 C32.9970703,42.2139378 31.2111365,44 28.9911513,44 L19.0059191,44 C16.7859338,44 15,42.2139378 15.005443,39.9999926 C9.87521065,40.0139545 7.02722168,37.431153 7.02722168,33.0240479 C7.02722168,31.5222091 7.1876278,30.6920922 7.61417991,29.3758238 C7.91673185,28.4421994 8,28.0122962 8,27 C8,26.4794032 7.92088465,26.1153622 7.71512419,25.5950478 C7.65094908,25.4327658 7.26244897,24.5362688 7.14011292,24.2286616 C6.37657704,22.3087933 5.99707031,20.2257852 5.99707031,17 C5.99707031,8.44601787 12.8479322,3.00047691 23.9985351,3.00000003 C35.1491382,3.00047691 42,8.44601787 42,17 Z M9.99707031,17 C9.99707031,19.731246 10.2852342,21.3128982 10.8569574,22.7504644 C10.9488383,22.9814937 11.3393997,23.8827473 11.4348332,24.1240737 C11.8149576,25.0853089 12,25.9367621 12,27 C12,28.4861642 11.8406245,29.3090003 11.4162031,30.6186934 C11.1115877,31.5586856 11.0272217,31.9952876 11.0272217,33.0240479 C11.0272217,35.1284207 11.9972926,36.0081645 15.0337678,36.0002851 C15.6985876,36.0115114 16.3487561,36.0114432 16.9638603,36.0003265 C18.0823879,35.9801116 19,36.8812897 19,38 C19,38 18.9951372,40 19.0059191,40 L28.9911513,40 C29.0019331,40 28.9970703,38 28.9970703,38 C28.9970703,36.8812897 29.9146824,35.9801116 31.03321,36.0003265 C31.6483142,36.0114432 32.2984827,36.0115114 32.9633025,36.0002851 C35.9997778,36.0081645 36.9698486,35.1284207 36.9698486,33.0240479 C36.9698486,31.9952876 36.8854826,31.5586856 36.5808672,30.6186934 C36.1564458,29.3090003 35.9970703,28.4861642 35.9970703,27 C35.9970703,25.9367621 36.1821127,25.0853089 36.5622371,24.1240737 C36.6576706,23.8827473 37.048232,22.9814937 37.1401129,22.7504644 C37.7118361,21.3128982 38,19.731246 38,17 C38,10.883254 33.1161364,7.00083174 24,7.00000013 C14.8819803,7 9.99707031,10.8825987 9.99707031,17 Z M22.6830941,30.9507178 C22.8581164,30.4256509 23.4438648,30 24,30 C24.5522847,30 25.1438351,30.4315052 25.3169059,30.9507178 L26.3671875,34.1015625 C26.7166802,35.1500406 26.1017394,36 25.0020869,36 L22.9979131,36 C21.8944962,36 21.2823093,35.1530722 21.6328125,34.1015625 L22.6830941,30.9507178 Z M18,29 C16.3431458,29 15,27.6568542 15,26 C15,24.3431458 16.3431458,23 18,23 C19.6568542,23 21,24.3431458 21,26 C21,27.6568542 19.6568542,29 18,29 Z M30,29 C28.3431458,29 27,27.6568542 27,26 C27,24.3431458 28.3431458,23 30,23 C31.6568542,23 33,24.3431458 33,26 C33,27.6568542 31.6568542,29 30,29 Z" id="Combined-Shape"></path>
                </g>
            </g>
        </g>
    </g>
</svg>