<?xml version="1.0" encoding="UTF-8"?>
<svg width="48px" height="48px" viewBox="0 0 48 48" version="1.1" xmlns="http://www.w3.org/2000/svg" xmlns:xlink="http://www.w3.org/1999/xlink">
    <!-- Generator: Sketch 49.3 (51167) - http://www.bohemiancoding.com/sketch -->
    <title>theicons.co/svg/others-01</title>
    <desc>Created with Sketch.</desc>
    <defs></defs>
    <g id="The-Icons" stroke="none" stroke-width="1" fill="none" fill-rule="evenodd">
        <g id="v-1.5" transform="translate(-1152.000000, -1056.000000)">
            <g id="Clothes" transform="translate(96.000000, 960.000000)"></g>
            <g id="Others" transform="translate(96.000000, 1056.000000)" fill="#000000">
                <g id="Lips" transform="translate(1056.000000, 0.000000)">
                    <path d="M6.51373846,25 C7.45600252,25.9883114 8.417538,26.9499323 9.02731844,27.4374823 C13.4096349,30.9413637 18.4140243,33.0193428 23.9868045,33.0000118 C29.618337,33.0193641 34.6351273,30.9421267 38.990082,27.44085 C39.5972373,26.9527121 40.551056,25.98906 41.4835915,25 L6.51373846,25 Z M40.9923958,21 C40.5141802,20.4723072 40.0940791,19.9609325 39.6859098,19.4218385 C39.5907613,19.2961701 38.2435205,17.4639925 37.9994919,17.1492831 C36.4194393,15.1115821 34.238569,13.9725877 32.0382077,13.9998468 C31.0820037,13.9888414 30.2476641,14.2180663 28.5370246,14.8813204 C26.2779798,15.7572037 25.397465,16.0240527 24.0510146,16.0329701 C22.6026379,16.0240527 21.7221231,15.7572037 19.4630783,14.8813204 C17.7524388,14.2180663 16.9180992,13.9888414 15.9618952,13.9998468 C13.7615339,13.9725877 11.5806636,15.1115821 10.000611,17.1492831 C9.75658237,17.4639925 8.40934161,19.2961701 8.31419314,19.4218385 C7.90602381,19.9609325 7.48592267,20.4723072 7.00770715,21 L40.9923958,21 Z M41.4930454,30.5592936 C36.4745275,34.5940587 30.6088317,37.0227915 23.9868863,36.9999879 C17.4231144,37.0228128 11.5757929,34.5948218 6.53275598,30.5626613 C4.95995637,29.3051293 1.42257604,25.4236063 0.532912569,24.3598004 C0.100297496,23.8601513 -0.0527149435,23.2914628 0.0158331992,22.7485976 C0.0793562554,22.259382 0.317570084,21.8006896 0.711398666,21.4697456 C3.03059704,19.4648856 4.12591166,18.3305724 5.12879115,17.0060087 C5.21241961,16.8955555 6.57455989,15.043372 6.84321113,14.6969083 C9.16418626,11.703683 12.5090676,9.95676509 15.9623964,10.0001471 C17.5392058,9.98100869 18.7365799,10.309973 20.9068269,11.1514274 C22.6868833,11.841596 23.3102447,12.0295947 24.0000515,12.0331514 C24.6898582,12.0295947 25.3132196,11.841596 27.093276,11.1514274 C29.263523,10.309973 30.4608971,9.98100869 32.0377065,10.0001471 C35.4910353,9.95676509 38.8359166,11.703683 41.1568918,14.6969083 C41.425543,15.043372 42.7876833,16.8955555 42.8713117,17.0060087 C43.8769157,18.3341708 44.9754576,19.4710472 47.3076324,21.4861042 C48.1430353,22.207913 48.2356104,23.4708489 47.5144048,24.3069505 C47.4398536,24.3933785 42.9744377,29.3682905 41.4930454,30.5592936 Z" id="Combined-Shape"></path>
                </g>
            </g>
        </g>
    </g>
</svg>