<?xml version="1.0" encoding="UTF-8"?>
<svg width="48px" height="48px" viewBox="0 0 48 48" version="1.1" xmlns="http://www.w3.org/2000/svg" xmlns:xlink="http://www.w3.org/1999/xlink">
    <!-- Generator: Sketch 49.3 (51167) - http://www.bohemiancoding.com/sketch -->
    <title>theicons.co/svg/others-50</title>
    <desc>Created with Sketch.</desc>
    <defs></defs>
    <g id="The-Icons" stroke="none" stroke-width="1" fill="none" fill-rule="evenodd">
        <g id="v-1.5" transform="translate(-1440.000000, -1152.000000)" fill="#000000">
            <g id="Others" transform="translate(96.000000, 1056.000000)">
                <g id="Matrioshka" transform="translate(1344.000000, 96.000000)">
                    <path d="M11.9999894,29.9934231 C12.0004786,36.6278955 17.3728782,42 24,42 C30.6223781,42 35.9918296,36.6355836 35.9999907,30.0151146 C36.0009326,29.645677 35.9909471,29.3122708 35.9693525,28.9904704 C30.8673941,28.8069342 26.4373231,25.9874954 24,21.8530146 C21.5626667,25.9875128 17.1325687,28.8069579 12.0305831,28.9904727 C12.0090074,29.3119939 11.9990205,29.6451008 11.9999894,29.9934231 Z M24,8.75258751 C22.8009469,10.9485673 20.6293059,12.5307246 18.0688112,12.9116291 C18.5079781,15.7926996 20.9962177,18 24,18 C27.0037823,18 29.4920219,15.7926996 29.9311888,12.9116291 C27.3706941,12.5307246 25.1990531,10.9485673 24,8.75258751 Z M10.9017111,20.7513892 C10.9882391,20.6138322 11.8420631,19.2681807 11.9850139,19.0304187 C12.3118963,18.4867335 12.5496061,18.0382465 12.7315914,17.6120567 C13.2636272,16.3660866 13.6191596,15.0215893 13.8263184,13.6815349 C13.8989157,13.2119229 14.0000188,11.9803889 14.0000188,11.9803889 C14.0106025,6.46655775 18.483691,2 24,2 C29.5172977,2 33.9910009,6.46815895 33.9999864,11.9833536 C33.9999864,11.9833536 34.1010201,13.2119229 34.1736174,13.6815349 C34.3807762,15.0215893 34.7363086,16.3660866 35.2683444,17.6120567 C35.4503297,18.0382465 35.6880395,18.4867335 36.014922,19.0304187 C36.1578727,19.2681807 37.0116967,20.6138322 37.0982247,20.7513892 C39.0959819,23.9273013 40.0072946,26.3932667 39.999969,29.988747 C40,38.836556 32.836556,46 24,46 C15.1643893,46 8.00153273,38.8380886 8.00000025,30.002836 C7.99026342,26.3997047 8.90134557,23.9314478 10.9017111,20.7513892 Z" id="Combined-Shape"></path>
                </g>
            </g>
        </g>
    </g>
</svg>