<?xml version="1.0" encoding="UTF-8"?>
<svg width="48px" height="48px" viewBox="0 0 48 48" version="1.1" xmlns="http://www.w3.org/2000/svg" xmlns:xlink="http://www.w3.org/1999/xlink">
    <!-- Generator: Sketch 49.3 (51167) - http://www.bohemiancoding.com/sketch -->
    <title>theicons.co/svg/others-04</title>
    <desc>Created with Sketch.</desc>
    <defs></defs>
    <g id="The-Icons" stroke="none" stroke-width="1" fill="none" fill-rule="evenodd">
        <g id="v-1.5" transform="translate(-1440.000000, -1056.000000)">
            <g id="Clothes" transform="translate(96.000000, 960.000000)"></g>
            <g id="Others" transform="translate(96.000000, 1056.000000)" fill="#000000">
                <g id="Judge" transform="translate(1344.000000, 0.000000)">
                    <path d="M23.5707238,17.2570153 L29.7422965,23.428588 L35.3974681,17.7700511 L29.2258953,11.5984783 L23.5707238,17.2570153 Z M26.3974681,8.77005108 L25.2426407,7.61522369 L19.5857864,13.2720779 L20.7422965,14.428588 L26.3974681,8.77005108 Z M32.5707238,26.2570153 L33.7279221,27.4142136 L39.3847763,21.7573593 L38.2258953,20.5984783 L32.5707238,26.2570153 Z M44.0081969,40 C44.5559546,40 45,40.4433532 45,41.0093689 L45,42.9906311 C45,43.5480902 44.5446944,44 44.0081969,44 L25.9918031,44 C25.4440454,44 25,43.5566468 25,42.9906311 L25,41.0093689 C25,40.4519098 25.4553056,40 25.9918031,40 L29,40 L29,37.9979131 C29,36.8944962 29.9019504,36 31.0085302,36 L38.9914698,36 C40.1007504,36 41,36.8982606 41,37.9979131 L41,40 L44.0081969,40 Z M27.363961,26.7071068 L13.9330609,40.1380069 C11.9781592,42.0929086 8.80651264,42.0907839 6.85786438,40.1421356 C4.90524292,38.1895142 4.90909664,35.0198355 6.86199308,33.0669391 L20.2928932,19.636039 L16.7551241,16.0982698 C15.1942614,14.5374071 15.1938263,12.0071839 16.7546742,10.4463359 L22.4168987,4.78411147 C23.9775129,3.22349724 26.5112753,3.22700404 28.0688326,4.78456131 L42.2154387,18.9311674 C43.7763014,20.4920301 43.7767365,23.0222534 42.2158885,24.5831013 L36.5536641,30.2453258 C34.9930499,31.80594 32.4592875,31.8024332 30.9017302,30.2448759 L27.363961,26.7071068 Z M23.1213203,22.4644661 L9.68049542,35.905291 C9.30113438,36.2846521 9.29576721,36.9231842 9.6862915,37.3137085 C10.0795385,37.7069555 10.7073858,37.7068278 11.094709,37.3195046 L24.5355339,23.8786797 L23.1213203,22.4644661 Z" id="Combined-Shape"></path>
                </g>
            </g>
        </g>
    </g>
</svg>