<?xml version="1.0" encoding="UTF-8"?>
<svg width="48px" height="48px" viewBox="0 0 48 48" version="1.1" xmlns="http://www.w3.org/2000/svg" xmlns:xlink="http://www.w3.org/1999/xlink">
    <!-- Generator: Sketch 49.3 (51167) - http://www.bohemiancoding.com/sketch -->
    <title>theicons.co/svg/others-20</title>
    <desc>Created with Sketch.</desc>
    <defs></defs>
    <g id="The-Icons" stroke="none" stroke-width="1" fill="none" fill-rule="evenodd">
        <g id="v-1.5" transform="translate(-1344.000000, -1152.000000)" fill="#000000">
            <g id="Others" transform="translate(96.000000, 1056.000000)">
                <g id="Maneki-Neko" transform="translate(1248.000000, 96.000000)">
                    <path d="M10,7 C10,5.63488455 11.3373933,4.67094599 12.6324555,5.1026334 L24,8.89181489 L35.3675445,5.1026334 C36.6626067,4.67094599 38,5.63488455 38,7 L38,13.3420953 C38.6258999,13.1205592 39.2991631,13 40,13 C43.3137085,13 46,15.6833309 46,18.9954807 L46,38.0045193 C46,41.3157319 43.3069658,44 40,44 L8,44 C4.6862915,44 2,41.3062995 2,38.0064359 L2,32.9935641 C2,29.68341 4.69303423,27 8,27 L10,27 L10,7 Z M14,38.0064359 C14,38.7053515 13.8799409,39.376326 13.6593935,40 L34,40 L34,32.7979655 C31.4589659,35.3910656 27.9173763,37 24,37 C20.0826237,37 16.5410341,35.3910656 14,32.7979655 L14,38.0064359 Z M34,9.82299805 L30.9275807,10.8313465 C32.0601051,11.4774798 33.093694,12.2771582 34,13.2020345 L34,9.82299805 Z M17.1057151,10.8124109 L14,9.77832363 L14,13.2020345 C14.9151801,12.2681023 15.9601479,11.4618317 17.1057151,10.8124109 Z M24,33 C29.5228475,33 34,28.5228475 34,23 C34,17.4771525 29.5228475,13 24,13 C18.4771525,13 14,17.4771525 14,23 C14,28.5228475 18.4771525,33 24,33 Z M38.0067139,40 L40,40 C41.1015239,40 42,39.102897 42,38.0045193 L42,18.9954807 C42,17.8935654 41.1056645,17 40,17 C38.8984761,17 38,17.897103 38,18.9954807 L38.0067139,40 Z M25.4135343,22.5851075 C25.5781847,22.7495999 25.9210303,23.043266 26.3598751,23.3357355 C26.9969158,23.7602933 27.590349,23.998439 28,24 C29.1045695,24 30,24.8954305 30,26 C30,27.1045695 29.1045695,28 27.9808578,27.9999633 C26.6445774,27.9948475 25.3715063,27.4839621 24.1415661,26.6642645 C24.0804467,26.6235313 24.020546,26.5828075 23.9618945,26.5421777 C23.9337219,26.595624 23.8198308,26.6369658 23.7788696,26.6642645 C22.5489294,27.4839621 21.3554226,27.9948475 20.0191422,27.9999633 C18.8954305,28 18,27.1045695 18,26 C18,24.8954305 18.8954305,24 20.0038285,23.9999927 C20.409651,23.998439 21.0030842,23.7602933 21.6401249,23.3357355 C22.0783677,23.0436672 22.4208744,22.7504056 22.585787,22.5857853 C23.366515,21.8050418 24.6323373,21.8046604 25.4135343,22.5851075 Z M6,38.0064359 C6,39.1008148 6.89908447,40 8,40 C9.10180964,40 10,39.103469 10,38.0064359 L10,31 L8,31 C6.89819036,31 6,31.896531 6,32.9935641 L6,38.0064359 Z" id="Combined-Shape"></path>
                </g>
            </g>
        </g>
    </g>
</svg>