<?xml version="1.0" encoding="UTF-8"?>
<svg width="48px" height="48px" viewBox="0 0 48 48" version="1.1" xmlns="http://www.w3.org/2000/svg" xmlns:xlink="http://www.w3.org/1999/xlink">
    <!-- Generator: Sketch 49.3 (51167) - http://www.bohemiancoding.com/sketch -->
    <title>theicons.co/svg/others-34</title>
    <desc>Created with Sketch.</desc>
    <defs></defs>
    <g id="The-Icons" stroke="none" stroke-width="1" fill="none" fill-rule="evenodd">
        <g id="v-1.5" transform="translate(-1152.000000, -1248.000000)" fill="#000000">
            <g id="Others" transform="translate(96.000000, 1056.000000)">
                <g id="Snowman" transform="translate(1056.000000, 192.000000)">
                    <path d="M33.2777768,21.8937961 L38.4081818,16.7633911 C39.1925616,15.9790112 40.4561468,15.9708654 41.2426407,16.7573593 C42.0236893,17.5384079 42.019079,18.8093481 41.2366089,19.5918182 L35.6345595,25.1938676 C36.5083466,26.9414 37,28.9132841 37,31 C37,38.1797017 31.1797017,44 24,44 C16.8202983,44 11,38.1797017 11,31 C11,28.9132841 11.4916534,26.9414 12.3654405,25.1938676 L6.76339107,19.5918182 C5.98092097,18.8093481 5.97631073,17.5384079 6.75735931,16.7573593 C7.54385322,15.9708654 8.80743837,15.9790112 9.5918182,16.7633911 L14.7222232,21.8937961 C15.2808282,21.3247325 15.8913783,20.8068353 16.5461959,20.3477819 C15.0671117,18.6161266 14.1740489,16.3688441 14.1740489,13.9129756 C14.1740489,8.43819033 18.6122392,4 24.0870244,4 C29.5618097,4 34,8.43819033 34,13.9129756 C34,16.4051859 33.0803107,18.6825912 31.5618069,20.4243169 C32.17585,20.8641515 32.7499984,21.3561363 33.2777768,21.8937961 Z M30,13.9129756 C30,10.6473293 27.3526707,8 24.0870244,8 C20.8213782,8 18.1740489,10.6473293 18.1740489,13.9129756 C18.1740489,15.731383 18.9983011,17.4042449 20.3709407,18.5133007 C20.9007913,18.3595739 21.4445927,18.2386575 22,18.1528964 L22,15.9981014 C22,14.8945804 22.8877296,14 24,14 C25.1045695,14 26,14.8867064 26,15.9981014 L26,18.1528964 C26.5998866,18.2455256 27.1862338,18.3791663 27.7560874,18.5508639 C29.1573476,17.4418198 30,15.7517267 30,13.9129756 Z M24,40 C28.9705627,40 33,35.9705627 33,31 C33,26.0294373 28.9705627,22 24,22 C19.0294373,22 15,26.0294373 15,31 C15,35.9705627 19.0294373,40 24,40 Z M24,30 C22.8954305,30 22,29.1045695 22,28 C22,26.8954305 22.8954305,26 24,26 C25.1045695,26 26,26.8954305 26,28 C26,29.1045695 25.1045695,30 24,30 Z M24,36 C22.8954305,36 22,35.1045695 22,34 C22,32.8954305 22.8954305,32 24,32 C25.1045695,32 26,32.8954305 26,34 C26,35.1045695 25.1045695,36 24,36 Z" id="Oval-111"></path>
                </g>
            </g>
        </g>
    </g>
</svg>