<?xml version="1.0" encoding="UTF-8"?>
<svg width="48px" height="48px" viewBox="0 0 48 48" version="1.1" xmlns="http://www.w3.org/2000/svg" xmlns:xlink="http://www.w3.org/1999/xlink">
    <!-- Generator: Sketch 49.3 (51167) - http://www.bohemiancoding.com/sketch -->
    <title>theicons.co/svg/others-14</title>
    <desc>Created with Sketch.</desc>
    <defs></defs>
    <g id="The-Icons" stroke="none" stroke-width="1" fill="none" fill-rule="evenodd">
        <g id="v-1.5" transform="translate(-768.000000, -1152.000000)" fill="#000000">
            <g id="Others" transform="translate(96.000000, 1056.000000)">
                <g id="Sword" transform="translate(672.000000, 96.000000)">
                    <path d="M24.4802825,39.0725971 C25.2595324,39.851847 26.525543,39.8515276 27.3065916,39.0704791 C28.0930855,38.2839852 28.0885885,37.0240488 27.3087096,36.24417 L25.1852713,34.1207316 L44.2822551,15.0237477 C44.6643929,14.64161 44.9846487,13.8718408 44.9851267,13.31686 L44.9922936,4.99662156 C44.9932496,3.88681253 44.0993267,2.9990501 42.9956728,3.00000076 L34.6754344,3.00716764 C34.1144458,3.00765086 33.3562538,3.32233202 32.9685466,3.71003923 L13.8715628,22.8070231 L11.7481244,20.6835847 C10.9688745,19.9043348 9.70286388,19.9046542 8.9218153,20.6857028 C8.13532139,21.4721967 8.13981844,22.732133 8.91969727,23.5120119 L12.4573492,27.0496638 L3.97152333,35.5354897 C2.41110673,37.0959063 2.40864932,39.6283809 3.96911654,41.1888481 L6.80344624,44.0231778 C8.35858972,45.5783213 10.8950083,45.5825675 12.4568047,44.020771 L20.9426306,35.5349452 L24.4802825,39.0725971 Z M15.2857763,29.8780909 L13.8878177,31.2760496 L14.5840291,36.2361133 C15.7922305,35.0277043 17.0439234,33.7760601 18.1139015,32.7062161 L15.2857763,29.8780909 Z M11.0422189,39.7797816 C10.1822867,40.6407235 9.63080613,41.1936835 9.63187337,41.1947507 C9.63187337,41.1947507 6.80040248,38.3634648 6.79995046,38.3639168 L10.3457787,34.8180885 L11.0422189,39.7797816 Z M30.8486343,19.9720872 C31.621207,19.1995145 31.6231741,17.9312174 30.8421255,17.1501688 C30.0556316,16.3636749 28.7976611,16.3662062 28.0202072,17.14366 L18.1142035,27.0496638 L16.6999899,25.6354502 L35.3304668,7.0049733 L41.006417,7.00171575 L40.9872366,12.6883141 L22.3585852,31.2940455 L20.9426306,29.8780909 L30.8486343,19.9720872 Z" id="Rectangle-850"></path>
                </g>
            </g>
        </g>
    </g>
</svg>