<?xml version="1.0" encoding="UTF-8"?>
<svg width="48px" height="48px" viewBox="0 0 48 48" version="1.1" xmlns="http://www.w3.org/2000/svg" xmlns:xlink="http://www.w3.org/1999/xlink">
    <!-- Generator: Sketch 49.3 (51167) - http://www.bohemiancoding.com/sketch -->
    <title>theicons.co/svg/others-09</title>
    <desc>Created with Sketch.</desc>
    <defs></defs>
    <g id="The-Icons" stroke="none" stroke-width="1" fill="none" fill-rule="evenodd">
        <g id="v-1.5" transform="translate(-192.000000, -1152.000000)" fill="#000000">
            <g id="Others" transform="translate(96.000000, 1056.000000)">
                <g id="Crossbones" transform="translate(96.000000, 96.000000)">
                    <path d="M28.9526863,12.9762459 L28.7607888,12.5525165 C28.2231522,11.1488774 28.1026867,9.6363277 28.7195547,8.14359926 C28.9935569,7.48055481 29.4041602,6.86791771 29.9497475,6.32233047 C32.2928932,3.97918472 36.0918831,3.97918472 38.4350288,6.32233047 C38.7688137,6.65611533 39.653595,7.77862549 39.8935602,9.10618845 C41.2806702,9.33349609 42.3438847,10.2311863 42.6776695,10.5649712 C45.0208153,12.9081169 45.0208153,16.7071068 42.6776695,19.0502525 C42.0943296,19.6335925 41.4313426,20.0600989 40.7113119,20.3288051 C39.2741335,20.8651416 37.826636,20.7370922 36.4754806,20.2320268 C36.038576,20.0687108 36.0236015,20.0474663 36.0236015,20.0474663 L32.0710678,24 L36.0198479,27.9487801 L36.4474835,27.7607888 C37.8511226,27.2231522 39.3636723,27.1026867 40.8564007,27.7195547 C41.5194452,27.9935569 42.1320823,28.4041602 42.6776695,28.9497475 C45.0208153,31.2928932 45.0208153,35.0918831 42.6776695,37.4350288 C42.3438847,37.7688137 41.3224182,38.6079102 39.8960016,38.8931101 C39.7019348,40.1546631 38.7688137,41.3438847 38.4350288,41.6776695 C36.0918831,44.0208153 32.2928932,44.0208153 29.9497475,41.6776695 C29.3664075,41.0943296 28.9399011,40.4313426 28.6711949,39.7113119 C28.1348584,38.2741335 28.2629078,36.826636 28.7679732,35.4754806 C28.830914,35.3071008 28.9577512,35.0143187 28.9577512,35.0143187 L25.0018865,31.0691813 L21.0794792,34.9915886 C21.0794792,34.9915886 21.0781122,34.9785878 21.2512576,35.4159163 C21.8394232,36.9014972 21.9419699,38.5177869 21.1851512,40.0937273 C20.9109818,40.6646361 20.5321208,41.1958013 20.0502525,41.6776695 C17.7071068,44.0208153 13.9081169,44.0208153 11.5649712,41.6776695 C11.2311863,41.3438847 10.2946472,40.0937273 10.1036388,38.8800789 C8.85336304,38.7150574 7.65611533,37.7688137 7.32233047,37.4350288 C4.97918472,35.0918831 4.97918472,31.2928932 7.32233047,28.9497475 C7.81419006,28.4578879 8.35802399,28.0738169 8.94329392,27.7992501 C10.5024326,27.0678138 12.0980408,27.1721671 13.5669772,27.7487998 C13.7267675,27.8115257 14.0063604,27.9381854 14.0063604,27.9381854 L17.9346871,24.0057549 L13.9975471,20.068615 L13.5840837,20.2512576 C12.0985028,20.8394232 10.4822131,20.9419699 8.90627274,20.1851512 C8.33536385,19.9109818 7.80419872,19.5321208 7.32233047,19.0502525 C4.97918472,16.7071068 4.97918472,12.9081169 7.32233047,10.5649712 C7.65611533,10.2311863 8.79910278,9.3079834 10.1181127,9.10400549 C10.2887268,7.86242676 11.2311863,6.65611533 11.5649712,6.32233047 C13.9081169,3.97918472 17.7071068,3.97918472 20.0502525,6.32233047 C20.5421121,6.81419006 20.9261831,7.35802399 21.2007499,7.94329392 C21.9321862,9.50243259 21.8278329,11.0980408 21.2512002,12.5669772 C21.1922272,12.7172073 21.0731052,12.9823572 21.0731052,12.9823572 L25.0047957,16.9282607 L28.9526863,12.9762459 Z M17.9305144,15.5163009 C16.946766,14.5325524 16.6849388,12.9330691 17.2445006,11.6754915 C17.2445006,11.6754915 17.4684141,11.2794481 17.5278066,11.1053548 C17.8425598,10.1827393 17.7160645,9.67128771 17.2218254,9.1507576 C16.4613384,8.34981644 15.1553966,8.35415375 14.3933983,9.1507576 C14.0613708,9.49786377 13.9752718,10.2370633 13.9752718,10.2370633 C13.7061581,11.5517321 12.5712508,12.6731035 11.2783896,12.9663561 C11.2783896,12.9663561 10.4513245,13.0857544 10.1507576,13.3933983 C9.37926104,14.1830602 9.36970901,15.4407768 10.1507576,16.2218254 C10.3163263,16.3873941 10.4774762,16.5025663 10.6378801,16.5793869 C11.53302,17.0080872 12.6256792,16.2724855 12.6256792,16.2724855 C13.8897092,15.6567196 15.5252315,15.939445 16.520321,16.9345346 L20.7616377,21.1758512 L22.175113,19.7608994 L17.9305144,15.5163009 Z M27.8284271,28.2426407 L32.072533,32.4867465 C33.0423799,33.4565935 33.3200528,35.0444898 32.7916732,36.2878563 C32.7916732,36.2878563 31.7884521,37.8347778 32.7781746,38.8492424 C33.5493873,39.6397348 34.81073,39.6150569 35.6066017,38.8492424 C35.8505554,38.614502 36.0247282,37.7629367 36.0247282,37.7629367 C36.2938419,36.4482679 37.4287492,35.3268965 38.7216104,35.0336439 C38.7216104,35.0336439 39.4619141,34.9201355 39.8492424,34.6066017 C40.630291,33.8255531 40.630291,32.5592232 39.8492424,31.7781746 C39.674137,31.6030692 39.5048758,31.4834969 39.3287123,31.4163327 C38.4350288,31.0756065 37.3510923,31.7526705 37.3510923,31.7526705 C36.093035,32.3457427 34.474277,32.0600635 33.48982,31.0756065 L29.2426407,26.8284271 L27.8284271,28.2426407 Z M17.9294234,32.4847902 L33.4847902,16.9294234 C34.4551338,15.9590798 36.0438374,15.67967 37.2878563,16.2083268 C37.2878563,16.2083268 38.3890381,16.8845825 39.3127762,16.5812595 C39.4979325,16.5204607 39.6708243,16.4002435 39.8492424,16.2218254 C40.630291,15.4407768 40.6207324,14.1830466 39.8492424,13.3933983 C39.5317078,13.0683899 38.7629367,12.9752718 38.7629367,12.9752718 C37.4482679,12.7061581 36.3268965,11.5712508 36.0336439,10.2783896 C36.0336439,10.2783896 35.9596558,9.50244141 35.6066017,9.1507576 C34.8242624,8.37145459 33.5592232,8.36970901 32.7781746,9.1507576 C32.6030692,9.325863 32.4902415,9.49784765 32.4163327,9.67128771 C32.0705766,10.482666 32.7526705,11.6489077 32.7526705,11.6489077 C33.3465084,12.9085892 33.0554463,14.5303401 32.0705766,15.5152098 L16.5152098,31.0705766 C15.5317321,32.0540544 13.9327038,32.3148987 12.6754915,31.7554994 C12.6754915,31.7554994 11.1347961,30.7051392 10.1507576,31.7781746 C9.4042391,32.5922086 9.36970901,33.8255531 10.1507576,34.6066017 C10.451294,34.8796989 11.2370633,35.0247282 11.2370633,35.0247282 C12.5517321,35.2938419 13.6731035,36.4287492 13.9663561,37.7216104 C13.9663561,37.7216104 14.1079103,38.6073601 14.3933983,38.8492424 C15.1744469,39.630291 16.4684669,39.6569901 17.2218254,38.8492424 C18.2735291,37.7216104 17.2724855,36.3743208 17.2724855,36.3743208 C16.6577344,35.112374 16.9367025,33.4775111 17.9294234,32.4847902 Z" id="Combined-Shape"></path>
                </g>
            </g>
        </g>
    </g>
</svg>