<?xml version="1.0" encoding="UTF-8"?>
<svg width="48px" height="48px" viewBox="0 0 48 48" version="1.1" xmlns="http://www.w3.org/2000/svg" xmlns:xlink="http://www.w3.org/1999/xlink">
    <!-- Generator: Sketch 49.3 (51167) - http://www.bohemiancoding.com/sketch -->
    <title>theicons.co/svg/others-46</title>
    <desc>Created with Sketch.</desc>
    <defs></defs>
    <g id="The-Icons" stroke="none" stroke-width="1" fill="none" fill-rule="evenodd">
        <g id="v-1.5" transform="translate(-672.000000, -1344.000000)">
            <g id="Others" transform="translate(96.000000, 1056.000000)" fill="#000000">
                <g id="Pen" transform="translate(576.000000, 288.000000)">
                    <path d="M45.1076315,13.4618486 C46.1268384,14.7930096 46.7542173,15.9028989 46.9067468,16.973036 C47.5677093,21.6103069 45.5771554,25.9433178 40.818665,28.5876749 C36.5824086,30.9418195 35.0700799,33.6121919 36.6385444,35.8531904 C37.2719098,36.7581335 37.0517527,38.0051789 36.1468096,38.6385444 C35.2418665,39.2719098 33.9948211,39.0517527 33.3614556,38.1468096 C30.0421515,33.4042377 32.8553664,28.4368446 38.8756714,25.0912802 C42.1414137,23.2764633 43.3803636,20.5795336 42.9467691,17.5374621 C42.9314449,17.4299485 42.7953608,17.1565218 42.5574878,16.7825074 L16.0449694,43.2950269 C15.6556235,43.6843728 14.895455,44 14.3336473,44 L6.82842712,44 L6.41421356,44.4142136 C5.63316498,45.1952621 4.36683502,45.1952621 3.58578644,44.4142136 C2.80473785,43.633165 2.80473785,42.366835 3.58578644,41.5857864 L4,41.1715729 L4,33.6676098 C4,33.1118862 4.32021738,32.3414811 4.70533636,31.9567413 L31.5140933,5.17437987 C33.0755061,3.61450445 35.6073672,3.61606155 37.1696859,5.17838025 L37.8743369,5.88303128 C38.4175697,5.33758136 39.1693617,5 40,5 C41.6568542,5 43,6.34314575 43,8 C43,8.83003525 42.6629087,9.5813386 42.1181564,10.1244796 C42.1396005,10.1466851 44.8060807,13.0680005 45.1076315,13.4618486 Z M34.3412587,8.00680738 L25.9244989,16.4097802 L31.59893,22.0842113 L39.997964,13.685177 L34.3412587,8.00680738 Z M13.6686889,40.0144531 L28.7705029,24.9126385 L23.0939736,19.2361092 L8.00101116,34.3072907 L8.00553006,37.1660428 L8.58578644,36.5857864 C9.36683502,35.8047379 10.633165,35.8047379 11.4142136,36.5857864 C12.1952621,37.366835 12.1952621,38.633165 11.4142136,39.4142136 L10.8212468,40.0071803 L13.6686889,40.0144531 Z" id="Combined-Shape"></path>
                </g>
            </g>
            <g id="Sports" transform="translate(96.000000, 1344.000000)"></g>
        </g>
    </g>
</svg>