<?xml version="1.0" encoding="UTF-8"?>
<svg width="48px" height="48px" viewBox="0 0 48 48" version="1.1" xmlns="http://www.w3.org/2000/svg" xmlns:xlink="http://www.w3.org/1999/xlink">
    <!-- Generator: Sketch 49.3 (51167) - http://www.bohemiancoding.com/sketch -->
    <title>theicons.co/svg/others-13</title>
    <desc>Created with Sketch.</desc>
    <defs></defs>
    <g id="The-Icons" stroke="none" stroke-width="1" fill="none" fill-rule="evenodd">
        <g id="v-1.5" transform="translate(-672.000000, -1152.000000)" fill="#000000">
            <g id="Others" transform="translate(96.000000, 1056.000000)">
                <g id="Gun" transform="translate(576.000000, 96.000000)">
                    <path d="M12,10 L14,10 C14,8.89130934 14.8926228,8 15.9950893,8 L43,8 L43,5.99961498 C43,4.89525812 43.8877296,4 45,4 C46.1045695,4 47,4.88743329 47,5.99961498 L47,17.9914698 C47,19.1007504 46.1090746,20 45.0025781,20 L32,20 L32,29.9946916 C32,33.3113318 29.3063916,36 25.9946916,36 L20.0883164,36 C19.8625211,38.2254174 20.016113,40.0457745 20.016113,40.0457745 C20.016113,40.0457745 20.016113,42 17.9794919,42 L2.9995714,42 C1.89523861,42 1.16477198,41.1200353 1.38298569,40.0457742 C1.38298569,40.0457742 1.58178406,26.2169945 7.99253456,20.463181 C6.76936995,19.3637382 6,17.7697859 6,16 C6,15.2121106 6.15224527,14.4596909 6.42878922,13.7704157 C5.62993395,13.3664676 4.81967941,13.3231696 3.932722,13.7817996 C2.9515602,14.289141 1.74488994,13.9050337 1.23754853,12.9238719 C0.730207122,11.9427101 1.11431444,10.7360398 2.09547624,10.2286984 C4.49653533,8.98715323 6.85036278,9.30575869 8.84935569,10.5473664 C8.94741689,10.6082739 9.04152631,10.66939 9.13165975,10.7303617 C9.98441447,10.2646795 10.961962,10 12,10 Z M14,14 L12,14 C10.89915,14 10,14.8984525 10,16 C10,17.10085 10.8984525,18 12,18 L14,18 L14,14 Z M43,12.000385 L32,12 L32,16.0024414 L43,16.0091553 L43.0090626,12.1932055 C43.0030667,12.1297903 43,12.0654725 43,12.000385 Z M6.96174828,30.1825294 C6.30925462,32.3340022 5.86813717,34.6839104 5.6072909,37.0407486 C5.51553813,37.8697674 5.51202393,38 5.51202393,38 C5.51202393,38 15.6402585,38.0005875 16,38.0005877 C15.9871637,36.4571561 16.1355539,34.8258144 16.4715981,33.2089387 C16.8849455,31.2201194 17.5558565,29.4467293 18.5098463,28 L15.9950893,28 C14.8932319,28 14,27.1017876 14,26.0092049 L14,22.0125555 C10.8523521,22.237694 8.52793941,25.0183143 6.96174828,30.1825294 Z M20.9662145,32 L25.9946916,32 C27.0994673,32 28,31.0999788 28,29.9946916 L28,28 L26.0395505,28 C23.3216769,28 21.8045909,29.7954495 20.9662145,32 Z M28.0178707,20 L23.999615,20 C22.8952581,20 22,19.1122704 22,18 C22,16.8954305 22.8874333,16 23.999615,16 L28.0356077,16 L28.0444762,14 L23.999615,14 C22.8952581,14 22,13.1122704 22,12 L18.0047607,12 L18.0058594,24 L22.000035,24.01205 C22,22.8954305 22.8874333,22 23.999615,22 L28.0090022,22 L28.0178707,20 Z" id="Rectangle-815"></path>
                </g>
            </g>
        </g>
    </g>
</svg>