<?xml version="1.0" encoding="UTF-8"?>
<svg width="48px" height="48px" viewBox="0 0 48 48" version="1.1" xmlns="http://www.w3.org/2000/svg" xmlns:xlink="http://www.w3.org/1999/xlink">
    <!-- Generator: Sketch 49.3 (51167) - http://www.bohemiancoding.com/sketch -->
    <title>theicons.co/svg/others-45</title>
    <desc>Created with Sketch.</desc>
    <defs></defs>
    <g id="The-Icons" stroke="none" stroke-width="1" fill="none" fill-rule="evenodd">
        <g id="v-1.5" transform="translate(-576.000000, -1344.000000)">
            <g id="Others" transform="translate(96.000000, 1056.000000)" fill="#000000">
                <g id="Pencil" transform="translate(480.000000, 288.000000)">
                    <path d="M8.00101116,34.3072907 L8.00397618,36.1830286 C9.05359401,35.8231956 10.2630278,36.0620177 11.1005051,36.8994949 C11.9416251,37.740615 12.1788707,38.9569345 11.8122418,40.0097115 L13.6686889,40.0144531 L16.7705031,36.9126388 L11.085674,31.2278097 C9.21877608,33.0915591 8.00101116,34.3072907 8.00101116,34.3072907 Z M30.3412587,12.0068074 L36.0114914,17.6716496 L19.5989302,34.0842116 L13.9164962,28.4017775 C20.5347922,21.794718 30.3412587,12.0068074 30.3412587,12.0068074 Z M37.1696859,5.17838025 L42.8372457,10.8459401 C44.3993304,12.4080248 44.4012037,14.9387914 42.8399186,16.5000766 L16.0449694,43.2950269 C15.6556235,43.6843728 14.895455,44 14.3336473,44 L6.00126003,44 C4.89599463,44 4,43.1102778 4,41.9989834 L4,33.6676098 C4,33.1118862 4.32021738,32.3414811 4.70533636,31.9567413 L31.5140933,5.17437987 C33.0755061,3.61450445 35.6073672,3.61606155 37.1696859,5.17838025 Z" id="Combined-Shape"></path>
                </g>
            </g>
            <g id="Sports" transform="translate(96.000000, 1344.000000)"></g>
        </g>
    </g>
</svg>