<?xml version="1.0" encoding="UTF-8"?>
<svg width="48px" height="48px" viewBox="0 0 48 48" version="1.1" xmlns="http://www.w3.org/2000/svg" xmlns:xlink="http://www.w3.org/1999/xlink">
    <!-- Generator: Sketch 49.3 (51167) - http://www.bohemiancoding.com/sketch -->
    <title>theicons.co/svg/others-02</title>
    <desc>Created with Sketch.</desc>
    <defs></defs>
    <g id="The-Icons" stroke="none" stroke-width="1" fill="none" fill-rule="evenodd">
        <g id="v-1.5" transform="translate(-1248.000000, -1056.000000)">
            <g id="Clothes" transform="translate(96.000000, 960.000000)"></g>
            <g id="Others" transform="translate(96.000000, 1056.000000)" fill="#000000">
                <g id="Mustache" transform="translate(1151.000000, 0.000000)">
                    <path d="M4.32913136,20.2782704 C5.59171739,20.538112 6.92298961,20.5648767 8.10254118,20.2275579 C9.04264555,19.9587142 9.83128978,19.4715187 10.4714754,18.7101889 C14.2770414,14.2003029 15.8651141,13.0306402 19.0154871,13.0000619 C20.6580552,13.012982 22.3148797,13.4536145 23.935452,14.1711145 C24.3269664,14.3444555 24.6834911,14.5184142 24.9998313,14.6846762 C25.3161715,14.5184142 25.6726962,14.3444555 26.0642107,14.1711145 C27.684783,13.4536145 29.3416074,13.012982 30.9841756,13.0000619 C34.1345486,13.0306402 35.7226212,14.2003029 39.5281872,18.7101889 C40.1683729,19.4715187 40.9570171,19.9587142 41.8971215,20.2275579 C43.0766731,20.5648767 44.4079453,20.538112 45.6705313,20.2782704 C46.0166722,20.2070343 46.2568397,20.1400422 46.3571909,20.1060016 C46.8147646,19.9533433 47.316295,19.9607216 47.7841808,20.1601358 C48.8003097,20.593213 49.2729665,21.7680266 48.8398894,22.7841555 C48.6711107,23.180161 48.3608702,23.8351163 47.9152679,24.6649353 C47.1768585,26.0400318 46.3163674,27.4154647 45.3353702,28.7087076 C42.3876746,32.5946376 38.9642133,35 35.0000252,35 C31.1848308,35 28.1064001,33.4228014 25.7702254,30.8422721 C25.4968113,30.5402599 25.0000126,29.9182755 25.0000126,29.9182755 C24.7597545,30.2315312 24.5032139,30.5402599 24.2297998,30.8422721 C21.8936251,33.4228014 18.8151945,35 15,35 C11.0358119,35 7.61235064,32.5946376 4.664655,28.7087076 C3.68365786,27.4154647 2.8231667,26.0400318 2.0847573,24.6649353 C1.63915504,23.8351163 1.32891455,23.180161 1.16013584,22.7841555 C0.727058706,21.7680266 1.19971556,20.593213 2.21584447,20.1601358 C2.68891812,19.9585105 3.19638674,19.9532033 3.64738765,20.107658 C3.75052289,20.1421835 3.98851975,20.2081722 4.32913136,20.2782704 Z M7.85151932,26.2912924 C10.1188963,29.2803624 12.5663915,31 15,31 C17.5947787,31 19.6399137,29.9521986 21.2644629,28.1577279 C21.8486455,27.5124422 22.3336631,26.8155808 22.7200358,26.1212482 C22.9447791,25.7173723 23.0804913,25.4202771 23.132613,25.2838685 C23.3290627,24.7721068 23.7338696,24.3427396 24.2862519,24.1317046 C25.318083,23.7374985 26.4741145,24.2543957 26.8683206,25.2862267 C26.9195339,25.4202771 27.0552462,25.7173723 27.2799894,26.1212482 C27.6663621,26.8155808 28.1513798,27.5124422 28.7355623,28.1577279 C30.3601115,29.9521986 32.4052465,31 35.0000252,31 C37.4336338,31 39.8811289,29.2803624 42.1485059,26.2912924 C42.432925,25.9163443 42.8644816,25.2251016 43.3127792,24.4708368 C42.4725733,24.4370036 41.6294123,24.3113467 40.7973202,24.0733916 C39.1181317,23.5931905 37.640318,22.6802514 36.4689114,21.2871676 C33.3699079,17.6146167 32.5562819,17.015357 30.980297,16.9999039 C29.9971642,17.0079493 29.0186474,17.330439 27.7484741,17.8286642 C27.0079346,18.1191406 25.8486981,19.0009094 24.9998313,19.0002058 C24.1509646,18.9995023 22.9868069,18.150545 22.3160908,17.8286642 C21.0112305,17.2024536 20.0024985,17.0079493 19.0193657,16.9999039 C17.4433807,17.015357 16.6297548,17.6146167 13.5307513,21.2871676 C12.3593446,22.6802514 10.881531,23.5931905 9.20234244,24.0733916 C8.37036726,24.3113133 7.52732623,24.4369683 6.68723753,24.4708225 C7.1355382,25.2250929 7.56709838,25.916342 7.85151932,26.2912924 Z" id="Combined-Shape"></path>
                </g>
            </g>
        </g>
    </g>
</svg>