<?xml version="1.0" encoding="UTF-8"?>
<svg width="48px" height="48px" viewBox="0 0 48 48" version="1.1" xmlns="http://www.w3.org/2000/svg" xmlns:xlink="http://www.w3.org/1999/xlink">
    <!-- Generator: Sketch 49.3 (51167) - http://www.bohemiancoding.com/sketch -->
    <title>theicons.co/svg/others-08</title>
    <desc>Created with Sketch.</desc>
    <defs></defs>
    <g id="The-Icons" stroke="none" stroke-width="1" fill="none" fill-rule="evenodd">
        <g id="v-1.5" transform="translate(-96.000000, -1152.000000)" fill="#000000">
            <g id="Others" transform="translate(96.000000, 1056.000000)">
                <g id="Diamond" transform="translate(0.000000, 96.000000)">
                    <path d="M20.2454134,14 L29.7631153,14 L26.6706237,8.0000215 C25.5712045,8.00017953 24.4524436,8.00040181 23.3531109,8.00070814 L20.2454134,14 Z M19.8023178,18 L25.0170975,33.6927587 L30.2517692,18 L19.8023178,18 Z M40.8638942,14 L36.8792114,8 C36.8792114,8 34.4656268,7.99963135 31.1780271,7.99967957 L34.2862574,14 L40.8638942,14 Z M40.3492004,18 L34.4684419,18 L30.1335929,30.9952258 L40.3492004,18 Z M9.7501232,18 L19.8982545,31.0101908 L15.5584136,18 L9.7501232,18 Z M9.15418358,14 L15.7405981,14 L18.8473107,8.00260924 C15.5695071,8.00461286 13.1619506,8.00791869 13.1519112,8.01330596 C13.1344826,8.02265842 10.6704285,11.7220192 9.15418358,14 Z M4.11236572,14.3314514 L9.88763428,5.66854858 C10.5019769,4.74703465 11.8998975,4 12.9912443,4 L37.0087557,4 C38.1084896,4 39.5004358,4.75065374 40.1123657,5.66854858 L45.8876343,14.3314514 C46.5019769,15.2529654 46.4451737,16.7061426 45.7700436,17.5653991 L26.2299564,42.4346009 C25.5506702,43.299147 24.4451737,43.2938574 23.7700436,42.4346009 L4.22995641,17.5653991 C3.55067024,16.700853 3.50043583,15.2493463 4.11236572,14.3314514 Z" id="Combined-Shape"></path>
                </g>
            </g>
        </g>
    </g>
</svg>