<?xml version="1.0" encoding="UTF-8"?>
<svg width="48px" height="48px" viewBox="0 0 48 48" version="1.1" xmlns="http://www.w3.org/2000/svg" xmlns:xlink="http://www.w3.org/1999/xlink">
    <!-- Generator: Sketch 49.3 (51167) - http://www.bohemiancoding.com/sketch -->
    <title>theicons.co/svg/others-23</title>
    <desc>Created with Sketch.</desc>
    <defs></defs>
    <g id="The-Icons" stroke="none" stroke-width="1" fill="none" fill-rule="evenodd">
        <g id="v-1.5" transform="translate(-1824.000000, -1152.000000)" fill="#000000">
            <g id="Others" transform="translate(96.000000, 1056.000000)">
                <g id="Sand-Watches" transform="translate(1728.000000, 96.000000)">
                    <path d="M31.7000754,16 C31.7433956,15.9346275 33.0813562,13.951962 33.4329054,13.4162788 C34.1925725,12.2587142 34.7517623,11.3228957 35.1786134,10.4696836 C35.7378714,9.35180962 36.0000004,8.49638327 36.0000004,8.00000043 C36.0000004,7.99696908 12.0294001,7.99999997 12.0294001,7.99999997 C12.0287385,9.25785685 12.7676528,10.7636808 15.0594838,14.250914 C15.5272434,14.9626534 15.8911305,15.5211515 16.1952208,16 L31.7000754,16 Z M24.0727539,26 C22.6862851,26 20.4844498,25.3083035 18.9057714,24.7384682 C18.7401815,25.9124759 18.349818,28.1967025 17.6834534,29.4449276 C17.6118424,29.5790682 17.5361534,29.7178579 17.4086699,29.9508773 C16.8083725,31.0529168 16.2980835,31.8630949 15.0594838,33.747739 C12.7676528,37.2349722 12.0287385,38.7407962 12.0294001,39.998653 C12.0294001,39.998653 36.0000004,40.0016839 36.0000004,39.9986526 C36.0000004,39.5022697 35.7378714,38.6468434 35.1786134,37.5289694 C34.7517623,36.6757573 34.1925725,35.7399388 33.4329054,34.5823742 C33.0813562,34.046691 31.8832034,32.2737227 31.8332176,32.1988293 C31.1758877,31.2139568 30.7469573,30.5244121 30.4025342,29.8607652 C29.6902359,28.4882833 29.2725592,25.9974917 29.0988018,24.751215 C27.5551702,25.3185642 25.4205892,26 24.0727539,26 Z M13.895996,28.0388184 C14.4950508,26.93906 15.0372314,26.0129394 15.0372314,24 C15.0372314,21.9664306 14.4950508,21.0609399 13.895996,19.9611816 C11.7382812,16 8.02873849,12.0048828 8.02873847,7.99413631 C8.02873846,5.79316875 9.81989568,3.99999997 12.0294001,3.99999997 L35.9993384,3.99999997 C38.2125792,3.99999997 40.0000002,5.78823893 40.0000004,8 C40.0000004,12 35.3586583,17.2717482 33.9528745,19.980463 C33.4067219,21.0328095 33.0035405,21.9946289 33.0035405,24 C33.0035405,25.9504394 33.4067219,26.9671905 33.9528745,28.0195369 C35.3586583,30.7282518 40.0000004,36 40.0000004,40.0058565 C40.0000002,42.211761 38.2125792,44 35.9993384,44 L12.0294001,44 C9.81989568,44 8.02873846,42.2068312 8.02873847,40 C8.02873849,35.9951172 11.7382812,32 13.895996,28.0388184 Z M24,34 C22.3431458,34 21,32.6568542 21,31 C21,29.3431458 22.3431458,28 24,28 C25.6568542,28 27,29.3431458 27,31 C27,32.6568542 25.6568542,34 24,34 Z" id="Rectangle-903"></path>
                </g>
            </g>
        </g>
    </g>
</svg>