<?xml version="1.0" encoding="UTF-8"?>
<svg width="48px" height="48px" viewBox="0 0 48 48" version="1.1" xmlns="http://www.w3.org/2000/svg" xmlns:xlink="http://www.w3.org/1999/xlink">
    <!-- Generator: Sketch 49.3 (51167) - http://www.bohemiancoding.com/sketch -->
    <title>theicons.co/svg/people-02</title>
    <desc>Created with Sketch.</desc>
    <defs></defs>
    <g id="The-Icons" stroke="none" stroke-width="1" fill="none" fill-rule="evenodd">
        <g id="v-1.5" transform="translate(-192.000000, -288.000000)" fill="#000000">
            <g id="People" transform="translate(96.000000, 288.000000)">
                <g id="Woman" transform="translate(96.000000, 0.000000)">
                    <path d="M30.5145742,16 C27.4229617,16 24.8354713,13.0999158 24.1767848,10.0019147 C24.1180105,10.0006404 23.8917736,10.0005385 23.8378541,10.0016105 C23.1792723,13.099726 20.5917137,16 17.5,16 C17.0766356,16 16.6567765,16 16.2504707,16.0060874 C16.0869514,16.643494 16,17.3115927 16,18 C16,22.418278 19.581722,26 24,26 C28.418278,26 32,22.418278 32,18 C32,17.3115148 31.9130289,16.6433427 31.7494737,16.005871 C31.3477227,16 30.9328593,16 30.5145742,16 Z M38.5374896,27.9300033 L41.918443,40.0702409 C42.2152903,41.1361522 41.5624838,42.0009804 40.4467399,42.0018999 L7.58194666,42.0289839 C6.47230014,42.0298983 5.81078188,41.1687628 6.10678323,40.09697 L9.46597068,27.9336697 C9.76090693,26.8657334 10.8998975,26 11.9912443,26 L12,18 C12,11.372583 17.372583,6 24,6 C30.627417,6 36,11.372583 36,18 L36,26 C37.1084896,26 38.2395703,26.8602426 38.5374896,27.9300033 Z M34.9549561,30.0001934 L13.0422244,30.0042144 L10.8208223,38 L37.2053248,38.0016934 L34.9549561,30.0001934 Z" id="Combined-Shape"></path>
                </g>
            </g>
        </g>
    </g>
</svg>