<?xml version="1.0" encoding="UTF-8"?>
<svg width="48px" height="48px" viewBox="0 0 48 48" version="1.1" xmlns="http://www.w3.org/2000/svg" xmlns:xlink="http://www.w3.org/1999/xlink">
    <!-- Generator: Sketch 49.3 (51167) - http://www.bohemiancoding.com/sketch -->
    <title>theicons.co/svg/people-06</title>
    <desc>Created with Sketch.</desc>
    <defs></defs>
    <g id="The-Icons" stroke="none" stroke-width="1" fill="none" fill-rule="evenodd">
        <g id="v-1.5" transform="translate(-576.000000, -288.000000)" fill="#000000">
            <g id="People" transform="translate(96.000000, 288.000000)">
                <g id="Skull" transform="translate(480.000000, 0.000000)">
                    <path d="M28,25 L28,22.3349371 L31.7523067,18.588585 C31.7876155,18.5533323 32,18.0412125 32,17.9941413 L32,17.4970806 C32,13.3610205 28.6370229,10 24.4920648,10 L23.5079352,10 C19.3583636,10 16,13.3559363 16,17.4970806 L16,17.9941413 C16,18.0433324 16.2108606,18.5540063 16.2386775,18.5818232 L20,22.3431458 L20,25 L22,25 L22,22.9979131 C22,21.8944962 22.8877296,21 24,21 C25.1045695,21 26,21.8982606 26,22.9979131 L26,25 L28,25 Z M22,32.9973917 C22,31.8942627 22.8877296,31 24,31 C25.1045695,31 26,31.8958578 26,32.9973917 L26,33.8138141 C30.1361042,33.0105786 36.199141,29.8823901 36.199141,29.8823901 C37.193728,29.3950595 38.2624512,29.8529663 38.5902138,30.9181948 L41.4097862,40.0818052 C41.7357523,41.1411949 41.1101074,42 40.0002927,42 L7.99970728,42 C6.89529944,42 6.26245117,41.1470337 6.59021378,40.0818052 L9.40978622,30.9181948 C9.73575229,29.8588051 10.8045741,29.3840394 11.8061157,29.8481818 C11.8061157,29.8481818 17.6721304,32.7453139 22,33.6993784 L22,32.9973917 Z M36.5889893,38 L35.5452883,34.6169576 C35.5452883,34.6169576 34.409435,35.1569407 33.254256,35.6360328 C32.3217481,36.0227756 31.4125255,36.3733856 30.5359994,36.6796349 C28.9529007,37.2327537 27.387822,37.6294798 26,37.83625 L26,38 L36.5889893,38 Z M22,37.8170296 C20.7964246,37.6069048 19.4921349,37.2215014 17.902641,36.6905232 C16.9827823,36.38324 16.0277023,36.0309343 15.0477011,35.6420157 C13.8357188,35.1610341 12.4755825,34.5558273 12.4755825,34.5558273 L11.4133478,38 L22,38 L22,37.8170296 Z M13.4102504,21.4102504 C12.6313906,20.6313906 12,19.1029399 12,17.9941413 L12,17.4970806 C12,11.1474183 17.1486021,6 23.5079352,6 L24.4920648,6 C30.8477219,6 36,11.15344 36,17.4970806 L36,17.9941413 C36,19.1019465 35.3661881,20.6328061 34.5784869,21.4192573 L32,23.9936523 L32,26.9925732 C32,28.1012444 31.1054862,29 30.0059397,29 L17.9940603,29 C16.8927712,29 16,28.1061002 16,26.9951185 L16,24 L13.4102504,21.4102504 Z M28,19 C26.8954305,19 26,18.1045695 26,17 C26,15.8954305 26.8954305,15 28,15 C29.1045695,15 30,15.8954305 30,17 C30,18.1045695 29.1045695,19 28,19 Z M20,19 C18.8954305,19 18,18.1045695 18,17 C18,15.8954305 18.8954305,15 20,15 C21.1045695,15 22,15.8954305 22,17 C22,18.1045695 21.1045695,19 20,19 Z" id="Combined-Shape"></path>
                </g>
            </g>
        </g>
    </g>
</svg>