<?xml version="1.0" encoding="UTF-8"?>
<svg width="48px" height="48px" viewBox="0 0 48 48" version="1.1" xmlns="http://www.w3.org/2000/svg" xmlns:xlink="http://www.w3.org/1999/xlink">
    <!-- Generator: Sketch 49.3 (51167) - http://www.bohemiancoding.com/sketch -->
    <title>theicons.co/svg/people-08</title>
    <desc>Created with Sketch.</desc>
    <defs></defs>
    <g id="The-Icons" stroke="none" stroke-width="1" fill="none" fill-rule="evenodd">
        <g id="v-1.5" transform="translate(-768.000000, -288.000000)" fill="#000000" fill-rule="nonzero">
            <g id="People" transform="translate(96.000000, 288.000000)">
                <g id="Ghost" transform="translate(672.000000, 0.000000)">
                    <path d="M17,28 C17,29.1045695 16.102371,29.9937878 14.9968825,29.9861372 L13.1298017,29.9732158 L11.1270752,38 L36.882689,38 L34.892395,30 L32.9918078,30 C31.8917627,30 31,29.1122704 31,28 L31,16 C31,12.1340068 27.8659932,9 24,9 C20.1340068,9 17,12.1340068 17,16 L17,28 Z M36.0087557,26 C37.027405,26 38.2150574,26.8602295 38.4864795,27.9459181 L41.5135205,40.0540819 C41.7821957,41.1287828 41.1101074,42 40.0002927,42 L7.99970728,42 C6.89529944,42 6.21505737,41.1397705 6.48647953,40.0540819 L9.51352047,27.9459181 C9.7821957,26.8712172 10.8998975,26 11.9912443,26 L13,26 L12.974365,16 C13.8707273,9.24707031 19.3406321,6 24,6 C29.7380426,6 34.4499282,10.3935 34.955157,16 L35,26 L36.0087557,26 Z M14,36 C14,34.8954305 14.8877296,34 16,34 C17.1045695,34 18,34.8877296 18,36 L18,38 L14,38 L14,36 Z M20,33.9979131 C20,32.8944962 20.8877296,32 22,32 C23.1045695,32 24,32.8982606 24,33.9979131 L24,38 L20,38 L20,33.9979131 Z M21,20 C19.8954305,20 19,19.1045695 19,18 C19,16.8954305 19.8954305,16 21,16 C22.1045695,16 23,16.8954305 23,18 C23,19.1045695 22.1045695,20 21,20 Z M24,36 L26.9906311,36 C27.5480902,36 28,36.4438648 28,37 L28,38 L24,38 L24,36 Z M27,20 C25.8954305,20 25,19.1045695 25,18 C25,16.8954305 25.8954305,16 27,16 C28.1045695,16 29,16.8954305 29,18 C29,19.1045695 28.1045695,20 27,20 Z M30,36 C30,34.8954305 30.8877296,34 32,34 C33.1045695,34 34,34.8877296 34,36 L34,38 L30,38 L30,36 Z" id="Shape"></path>
                </g>
            </g>
        </g>
    </g>
</svg>