<?xml version="1.0" encoding="UTF-8"?>
<svg width="48px" height="48px" viewBox="0 0 48 48" version="1.1" xmlns="http://www.w3.org/2000/svg" xmlns:xlink="http://www.w3.org/1999/xlink">
    <!-- Generator: Sketch 49.3 (51167) - http://www.bohemiancoding.com/sketch -->
    <title>theicons.co/svg/people-15</title>
    <desc>Created with Sketch.</desc>
    <defs></defs>
    <g id="The-Icons" stroke="none" stroke-width="1" fill="none" fill-rule="evenodd">
        <g id="v-1.5" transform="translate(-1440.000000, -288.000000)" fill="#000000">
            <g id="People" transform="translate(96.000000, 288.000000)">
                <g id="Burglar" transform="translate(1344.000000, 0.000000)">
                    <path d="M38.4864795,27.9459181 L41.5135205,40.0540819 C41.7821957,41.1287828 41.1101074,42 40.0002927,42 L7.99970728,42 C6.89529944,42 6.21505737,41.1397705 6.48647953,40.0540819 L9.51352047,27.9459181 C9.7821957,26.8712172 10.8726772,26.2178423 11.9372761,26.4638672 L12,18 C12,11.372583 17.3711258,6 24,6 C30.627417,6 36,11.3711258 36,18 L36,26.4807722 C37.132652,26.2076804 38.2150574,26.8602295 38.4864795,27.9459181 Z M31,25.9979131 C31,24.8982606 30.1019465,24 28.9941413,24 L19.0058587,24 C17.8970601,24 17,24.8944962 17,25.9979131 L17,27.4673977 C18.9935936,27.7587142 21.4227259,28 24,28 C26.5772741,28 29.0064064,27.7587142 31,27.4673977 L31,25.9979131 Z M17,18 C17,19.1122704 17.8944962,20 18.9979131,20 L21.0020869,20 C22.1017394,20 23,19.1045695 23,18 C23,16.8877296 22.1055038,16 21.0020869,16 L18.9979131,16 C17.8982606,16 17,16.8954305 17,18 Z M25,18 C25,19.1122704 25.8944962,20 26.9979131,20 L29.0020869,20 C30.1017394,20 31,19.1045695 31,18 C31,16.8877296 30.1055038,16 29.0020869,16 L26.9979131,16 C25.8982606,16 25,16.8954305 25,18 Z M11.1524658,38 L36.8997682,38 C36.8997682,38 35.3737154,31.8283261 35.0910587,30.8026599 C34.5190565,30.9225979 33.8714198,31.0479388 33.1569488,31.1724979 C30.1912153,31.6895365 27.0961073,32 24,32 C20.9038927,32 17.8087847,31.6895365 14.8430512,31.1724979 C14.1446165,31.0507346 13.5100496,30.9282241 12.9475713,30.810744 C12.6184083,32 11.1524658,38 11.1524658,38 Z" id="Combined-Shape"></path>
                </g>
            </g>
        </g>
    </g>
</svg>