<?xml version="1.0" encoding="UTF-8"?>
<svg width="48px" height="48px" viewBox="0 0 48 48" version="1.1" xmlns="http://www.w3.org/2000/svg" xmlns:xlink="http://www.w3.org/1999/xlink">
    <!-- Generator: Sketch 49.3 (51167) - http://www.bohemiancoding.com/sketch -->
    <title>theicons.co/svg/people-10</title>
    <desc>Created with Sketch.</desc>
    <defs></defs>
    <g id="The-Icons" stroke="none" stroke-width="1" fill="none" fill-rule="evenodd">
        <g id="v-1.5" transform="translate(-960.000000, -288.000000)" fill="#000000">
            <g id="People" transform="translate(96.000000, 288.000000)">
                <g id="Batman" transform="translate(864.000000, 0.000000)">
                    <path d="M36,18 C36,21.0734177 34.8445857,23.876974 32.944426,26 L35.972608,26 C37.0723419,26 38.2034226,26.8602426 38.5013419,27.9300033 L41.8822954,40.0702409 C42.1791427,41.1361522 41.5263362,42.0009804 40.4105922,42.0018999 L7.54579899,42.0289839 C6.43615247,42.0298983 5.77463421,41.1687628 6.07063555,40.09697 L9.429823,27.9336697 C9.72475926,26.8657334 10.8637498,26 11.9550966,26 L15.055574,26 C13.1554143,23.876974 12,21.0734177 12,18 L12,6.009763 C12,3.79523205 13.2650073,3.2665069 14.8221555,4.82550111 L17.7483025,7.75511696 C19.5690101,6.64169664 21.7095669,6 24,6 C26.2960833,6 28.44155,6.64486653 30.2651661,7.76336561 L33.1986062,4.82550106 C34.7552525,3.26650688 36.019852,3.79523205 36.019852,6.009763 C36.019852,6.009763 36,17.7653933 36,18 Z M37.1691771,38.0016934 L34.9188084,30.0001934 L13.0060767,30.0042144 L10.7846747,38 L17,38.0003989 C17,35.790861 20.1340068,34 24,34 C27.8659932,34 31,35.790861 31,38 L37.1691771,38.0016934 Z M24.9617255,21.7822506 C24.4305792,21.9161286 23.5729136,21.917009 23.0382745,21.7822506 L16.272221,20.076834 C17.1867425,23.4882359 20.3000443,26 24,26 C27.6999557,26 30.8132575,23.4882359 31.727779,20.076834 L24.9617255,21.7822506 Z M28,18 C29.1045695,18 30,17.1045695 30,16 C30,14.8954305 29.1045695,14 28,14 C26.8954305,14 26,14.8954305 26,16 C26,17.1045695 26.8954305,18 28,18 Z M20,18 C21.1045695,18 22,17.1045695 22,16 C22,14.8954305 21.1045695,14 20,14 C18.8954305,14 18,14.8954305 18,16 C18,17.1045695 18.8954305,18 20,18 Z" id="Combined-Shape"></path>
                </g>
            </g>
        </g>
    </g>
</svg>