<?xml version="1.0" encoding="UTF-8"?>
<svg width="48px" height="48px" viewBox="0 0 48 48" version="1.1" xmlns="http://www.w3.org/2000/svg" xmlns:xlink="http://www.w3.org/1999/xlink">
    <!-- Generator: Sketch 49.3 (51167) - http://www.bohemiancoding.com/sketch -->
    <title>theicons.co/svg/people-09</title>
    <desc>Created with Sketch.</desc>
    <defs></defs>
    <g id="The-Icons" stroke="none" stroke-width="1" fill="none" fill-rule="evenodd">
        <g id="v-1.5" transform="translate(-864.000000, -288.000000)" fill="#000000">
            <g id="People" transform="translate(96.000000, 288.000000)">
                <g id="King" transform="translate(768.000000, 0.000000)">
                    <path d="M22.0000061,16.0049791 C22,14.8954305 22.8954305,14 24,14 C25.1045695,14 26,14.8954305 26,16 L28.0000186,16.0087151 C28,14.8954305 28.8954305,14 30,14 C31.1045695,14 32,14.8954305 32,16 C32,16.0037377 34,16.0124512 34,16.0124512 L34,10.4863025 L32.6755607,11.1343556 C30.6492554,12.1475082 28.0644908,11.7213451 26.4597325,10.1165867 L24,7.64373474 L21.5402675,10.1165867 C19.9399955,11.7168588 17.3624625,12.1533672 15.3244393,11.1343556 L14.0069952,10.4756336 L14.0037842,16 L16.0000004,16.001243 C16,14.8954305 16.8954305,14 18,14 C19.1045695,14 20,14.8954305 20,16 L22.0000061,16.0049791 Z M32.944426,26 L35.972608,26 C37.0723419,26 38.2034226,26.8602426 38.5013419,27.9300033 L41.8822954,40.0702409 C42.1791427,41.1361522 41.5263362,42.0009804 40.4105922,42.0018999 L7.54579899,42.0289839 C6.43615247,42.0298983 5.77463421,41.1687628 6.07063555,40.09697 L9.429823,27.9336697 C9.72475926,26.8657334 10.8637498,26 11.9550966,26 L15.055574,26 C13.5767092,24.3476818 12.5489566,22.2831483 12.1659169,20 L11.9912443,20 C10.8915104,20 10,19.1054862 10,18.0059397 L10,5.99406028 C10,4.8927712 10.7963181,4.39815903 11.7953562,4.89767808 L17.1132936,7.55664682 C17.603008,7.80150402 18.3225861,7.67741394 18.7118404,7.28815961 L22.5856815,3.4143185 C23.366788,2.63321196 24.6307648,2.63076481 25.4143185,3.4143185 L29.2881596,7.28815961 C29.6812982,7.6812982 30.4077196,7.79614019 30.8867064,7.55664682 L36.2046438,4.89767808 C37.1961917,4.40190416 38,4.89451376 38,5.99406028 L38,18.0059397 C38,19.1072288 37.1001025,20 36.0087557,20 L35.8340831,20 C35.4510434,22.2831483 34.4232908,24.3476818 32.944426,26 Z M16.252035,20 C17.1401206,23.4504544 20.2723211,26 24,26 C27.7276789,26 30.8598794,23.4504544 31.747965,20 L16.252035,20 Z M12.8255567,30.6539838 L10.7846747,38 L20.1721754,38.0006025 L12.8255567,30.6539838 Z M24.0710678,36.2426407 L30.3126699,30.0010386 L17.831756,30.0033289 L24.0710678,36.2426407 Z M27.9694598,38.001103 L37.1691771,38.0016934 L35.1496346,30.8209282 L27.9694598,38.001103 Z" id="Combined-Shape"></path>
                </g>
            </g>
        </g>
    </g>
</svg>