<?xml version="1.0" encoding="UTF-8"?>
<svg width="48px" height="48px" viewBox="0 0 48 48" version="1.1" xmlns="http://www.w3.org/2000/svg" xmlns:xlink="http://www.w3.org/1999/xlink">
    <!-- Generator: Sketch 49.3 (51167) - http://www.bohemiancoding.com/sketch -->
    <title>theicons.co/svg/phone-15</title>
    <desc>Created with Sketch.</desc>
    <defs></defs>
    <g id="The-Icons" stroke="none" stroke-width="1" fill="none" fill-rule="evenodd">
        <g id="v-1.5" transform="translate(-1536.000000, -2304.000000)" fill="#000000" fill-rule="nonzero">
            <g id="Phone" transform="translate(96.000000, 2304.000000)">
                <g id="Call" transform="translate(1440.000000, 0.000000)">
                    <path d="M21.9963845,14.689907 L19.8782713,16.8080202 C18.7079588,17.9783327 18.7101072,19.8816801 19.8853813,21.0569542 L26.9430458,28.1146187 C28.1259269,29.2974998 30.0206324,29.2930761 31.1919798,28.1217287 L33.310093,26.0036155 C34.0931384,25.2205701 35.359625,25.2174894 36.1438025,26.0016668 L43.9184612,33.7763255 C45.0910552,34.9489196 45.0964897,36.8446358 43.9136085,38.027517 L39.6738207,42.2673048 C36.9422763,44.9988492 31.9835245,45.7172295 28.6674489,43.7328496 C28.6674489,43.7328496 23.3558634,41.4979991 14.9789959,33.1211315 C6.60212836,24.744264 4.28501449,19.3339032 4.28501449,19.3339032 C2.35300208,15.9860496 3.00852227,11.0503522 5.73269525,8.32617926 L9.97248303,4.08639147 C11.1477571,2.91111736 13.0437096,2.90157393 14.2236745,4.08153885 L21.9983332,11.8561975 C22.7803023,12.6381667 22.7820579,13.9042336 21.9963845,14.689907 Z M8.56112237,11.1546064 C7.11417258,12.6015562 6.86932185,15.4971942 7.74950669,17.3345799 C7.74950669,17.3345799 9.16234999,19.8984863 9.80185185,20.8420574 C11.6920029,23.6309343 14.3206345,26.8059159 17.807423,30.2927044 C21.2936612,33.7789426 24.4490032,36.3912286 27.2050195,38.2546644 C28.1354626,38.8837685 30.721423,40.3004758 30.721423,40.3004758 C32.3957286,41.1767268 35.3725436,40.9117276 36.8453936,39.4388776 L40.3847763,35.8994949 L34.7279221,30.2426407 L34.0204069,30.9501558 C31.2837835,33.6867793 26.8564163,33.6848434 24.1146187,30.9430458 L17.0569542,23.8853813 C14.3218439,21.1502711 14.3151683,16.714269 17.0498442,13.9795931 L17.7573593,13.2720779 L12.1005051,7.61522369 L8.56112237,11.1546064 Z" id="Combined-Shape"></path>
                </g>
            </g>
        </g>
    </g>
</svg>