<?xml version="1.0" encoding="UTF-8"?>
<svg width="48px" height="48px" viewBox="0 0 48 48" version="1.1" xmlns="http://www.w3.org/2000/svg" xmlns:xlink="http://www.w3.org/1999/xlink">
    <!-- Generator: Sketch 49.3 (51167) - http://www.bohemiancoding.com/sketch -->
    <title>theicons.co/svg/phone-05</title>
    <desc>Created with Sketch.</desc>
    <defs></defs>
    <g id="The-Icons" stroke="none" stroke-width="1" fill="none" fill-rule="evenodd">
        <g id="v-1.5" transform="translate(-480.000000, -2304.000000)" fill="#000000">
            <g id="Phone" transform="translate(96.000000, 2304.000000)">
                <g id="Mobile-Data" transform="translate(384.000000, 0.000000)">
                    <path d="M22,36.0292358 L17.5247087,32.8325991 L12.772561,41.9262977 C12.260981,42.9052561 11.0526608,43.2841411 10.0737023,42.772561 C9.0947439,42.260981 8.71585889,41.0526608 9.22743896,40.0737023 L20.6584182,18.1994073 C20.2422328,17.5683682 20,16.8124724 20,16 C20,13.790861 21.790861,12 24,12 C26.209139,12 28,13.790861 28,16 C28,16.7986783 27.7659225,17.5426849 27.3626289,18.1671586 L38.7746891,40.1282859 C39.2840138,41.1084196 38.9023477,42.3158642 37.922214,42.8251889 C36.9420803,43.3345137 35.7346356,42.9528476 35.2253109,41.9727138 L30.4755651,32.8324036 L26,36.0292358 L26,41.000385 C26,42.1047419 25.1122704,43 24,43 C22.8954305,43 22,42.1125667 22,41.000385 L22,36.0292358 Z M19.3946366,29.2543095 L24,32.5500671 L28.6132735,29.2486489 L24.0183779,20.406329 L19.3946366,29.2543095 Z M8.3789992,5.40781683 C9.15899178,4.62571367 10.4253206,4.62400271 11.2074237,5.40399529 C11.9895269,6.18398787 11.9912379,7.45031667 11.2112453,8.23241983 C9.16678115,10.2824161 8,13.0463446 8,16 C8,18.9793216 9.18731236,21.7653015 11.2634055,23.8195352 C12.0485767,24.5964393 12.0552786,25.8627515 11.2783745,26.6479227 C10.5014705,27.433094 9.23515825,27.4397958 8.44998702,26.6628918 C5.62212952,23.8648091 4,20.0585486 4,16 C4,11.9764776 5.59413183,8.20021977 8.3789992,5.40781683 Z M39.5588046,26.6541855 C38.7742711,27.4317335 37.5079538,27.4260705 36.7304058,26.6415369 C35.9528578,25.8570033 35.9585208,24.590686 36.7430544,23.8131381 C38.8152334,21.7594102 40,18.9761516 40,16 C40,13.0606971 38.8446203,10.3091185 36.8177811,8.26163308 C36.0407003,7.4766367 36.0471172,6.210323 36.8321136,5.43324227 C37.61711,4.65616154 38.8834237,4.66257845 39.6605044,5.44757483 C42.4214169,8.23661103 44,11.9960639 44,16 C44,20.0542224 42.3813419,23.8567807 39.5588046,26.6541855 Z M12.6289264,9.64315947 C13.4091053,8.86124221 14.6754345,8.85983301 15.4573518,9.64001194 C16.239269,10.4201909 16.2406782,11.68652 15.4604993,12.4684373 C14.5299806,13.4010293 14,14.6560444 14,16 C14,17.3664988 14.5481042,18.6409043 15.506542,19.5771192 C16.2966974,20.3489536 16.3115495,21.6151965 15.5397151,22.4053518 C14.7678807,23.1955072 13.5016379,23.2103592 12.7114825,22.4385249 C10.9902191,20.7571716 10,18.454798 10,16 C10,13.5858417 10.957598,11.3182118 12.6289264,9.64315947 Z M35.3672161,22.3607043 C34.5865653,23.1421504 33.3202355,23.1427952 32.5387893,22.3621443 C31.7573432,21.5814935 31.7566985,20.3151637 32.5373493,19.5337176 C33.4691747,18.6009429 34,17.345015 34,16 C34,14.6641849 33.4764871,13.4161888 32.5559914,12.4850416 C31.7794486,11.6995131 31.786733,10.4332041 32.5722616,9.6566613 C33.3577901,8.88011852 34.6240991,8.88740292 35.4006419,9.67293147 C37.0540459,11.3454679 38,13.6005163 38,16 C38,18.4160681 37.0408814,20.6853339 35.3672161,22.3607043 Z" id="Combined-Shape"></path>
                </g>
            </g>
        </g>
    </g>
</svg>