<?xml version="1.0" encoding="UTF-8"?>
<svg width="48px" height="48px" viewBox="0 0 48 48" version="1.1" xmlns="http://www.w3.org/2000/svg" xmlns:xlink="http://www.w3.org/1999/xlink">
    <!-- Generator: Sketch 49.3 (51167) - http://www.bohemiancoding.com/sketch -->
    <title>theicons.co/svg/phone-16</title>
    <desc>Created with Sketch.</desc>
    <defs></defs>
    <g id="The-Icons" stroke="none" stroke-width="1" fill="none" fill-rule="evenodd">
        <g id="v-1.5" transform="translate(-1632.000000, -2304.000000)" fill="#000000">
            <g id="Phone" transform="translate(96.000000, 2304.000000)">
                <g id="Call-Ends" transform="translate(1536.000000, 0.000000)">
                    <path d="M19.7138085,21.2285271 C18.5385344,20.053253 18.536386,18.1499055 19.7066984,16.9795931 L21.8248116,14.8614799 C22.6104851,14.0758064 22.6087294,12.8097396 21.8267603,12.0277704 L14.0521016,4.25311173 C12.8721367,3.07314681 10.9761843,3.08269023 9.80091016,4.25796434 L5.56112237,8.49775213 C2.8369494,11.2219251 2.1814292,16.1576224 4.11344162,19.5054761 C4.11344162,19.5054761 6.15990918,24.2838894 13.3592936,31.8122793 L9.09431385,36.077259 C8.32261514,36.8489577 8.31945648,38.1184464 9.10050506,38.8994949 C9.88699897,39.6859888 11.1451117,39.6833154 11.922741,38.9056861 L16.1855055,34.6429216 C23.7625316,41.912867 28.495876,43.9044225 28.495876,43.9044225 C31.8119516,45.8888024 36.7707035,45.170422 39.5022479,42.4388776 L43.7420357,38.1990898 C44.9249168,37.0162087 44.9194824,35.1204925 43.7468883,33.9478984 L35.9722296,26.1732397 C35.1880522,25.3890623 33.9215655,25.392143 33.1385201,26.1751884 L31.0204069,28.2933016 C29.8490596,29.4646489 27.9543541,29.4690727 26.7714729,28.2861915 L24.6568542,26.1715729 L28.9056861,21.922741 C29.6773849,21.1510423 29.6805435,19.8815536 28.8994949,19.1005051 C28.113001,18.3140112 26.8548883,18.3166846 26.077259,19.0943139 L21.8284271,23.3431458 L19.7138085,21.2285271 Z M9.63027897,21.0136303 C8.99077712,20.0700592 7.57793382,17.5061528 7.57793382,17.5061528 C6.69774897,15.668767 6.94259971,12.773129 8.3895495,11.3261793 L11.9289322,7.78679656 L17.5857864,13.4436508 L16.8782713,14.151166 C14.1435954,16.8858418 14.1502711,21.3218439 16.8853813,24.0569542 L19,26.1715729 L16.1881457,28.9834272 C13.4102131,26.0746671 11.2493288,23.4025033 9.63027897,21.0136303 Z M27.0334467,38.4262373 C27.9638897,39.0553413 30.5498501,40.4720486 30.5498501,40.4720486 C32.2241557,41.3482997 35.2009708,41.0833005 36.6738207,39.6104505 L40.2132034,36.0710678 L34.5563492,30.4142136 L33.848834,31.1217287 C31.1122106,33.8583521 26.6848434,33.8564163 23.9430458,31.1146187 L21.8284271,29 L19.0142886,31.8141385 C21.9574811,34.6346767 24.6453734,36.8115802 27.0334467,38.4262373 Z" id="Combined-Shape"></path>
                </g>
            </g>
        </g>
    </g>
</svg>