<?xml version="1.0" encoding="UTF-8"?>
<svg width="48px" height="48px" viewBox="0 0 48 48" version="1.1" xmlns="http://www.w3.org/2000/svg" xmlns:xlink="http://www.w3.org/1999/xlink">
    <!-- Generator: Sketch 49.3 (51167) - http://www.bohemiancoding.com/sketch -->
    <title>theicons.co/svg/phone-03</title>
    <desc>Created with Sketch.</desc>
    <defs></defs>
    <g id="The-Icons" stroke="none" stroke-width="1" fill="none" fill-rule="evenodd">
        <g id="v-1.5" transform="translate(-288.000000, -2304.000000)" fill="#000000">
            <g id="Phone" transform="translate(96.000000, 2304.000000)">
                <g id="Wi-Fi" transform="translate(192.000000, 0.000000)">
                    <path d="M24,42 C22.3431458,42 21,40.6568542 21,39 C21,37.3431458 22.3431458,36 24,36 C25.6568542,36 27,37.3431458 27,39 C27,40.6568542 25.6568542,42 24,42 Z M24,6 C31.4648643,6 38.569273,8.41434794 44.4121426,12.8067799 C45.2950521,13.4705153 45.4727277,14.7243187 44.8089923,15.6072281 C44.1452568,16.4901376 42.8914535,16.6678132 42.008544,16.0040778 C36.8528755,12.1282557 30.5903157,10 24,10 C17.4074655,10 11.1429266,12.1296954 5.986335,16.0079284 C5.10356676,16.6718516 3.84972562,16.4944426 3.18580241,15.6116744 C2.5218792,14.7289062 2.69928815,13.475065 3.58205638,12.8111418 C9.42596797,8.4159808 16.5326206,6 24,6 Z M24,16 C29.2817954,16 34.3092598,17.7130506 38.4389965,20.8277378 C39.320867,21.492853 39.4965818,22.7469327 38.8314666,23.6288031 C38.1663514,24.5106736 36.9122717,24.6863885 36.0304013,24.0212733 C32.5887367,21.4255367 28.4050686,20 24,20 C19.6068013,20 15.4337179,21.4178285 11.9969858,24.0006543 C11.1139814,24.6642634 9.86020344,24.4864084 9.19659437,23.603404 C8.53298529,22.7203995 8.71084035,21.4666216 9.59384475,20.8030125 C13.717698,17.7037908 18.7324521,16 24,16 Z M24,26 C27.112345,26 30.074989,27.0207486 32.4969676,28.8725991 C33.3744349,29.5435126 33.5418798,30.7987232 32.8709663,31.6761905 C32.2000528,32.5536578 30.9448422,32.7211027 30.0673749,32.0501892 C28.3370799,30.7272017 26.2264332,30 24,30 C21.7986923,30 19.7104252,30.7107916 17.9904494,32.0063067 C17.1081581,32.6708635 15.8541899,32.4943549 15.1896331,31.6120636 C14.5250762,30.7297723 14.7015849,29.4758041 15.5838762,28.8112472 C17.9915722,26.9977295 20.9228473,26 24,26 Z" id="Combined-Shape"></path>
                </g>
            </g>
        </g>
    </g>
</svg>