<?xml version="1.0" encoding="UTF-8"?>
<svg width="48px" height="48px" viewBox="0 0 48 48" version="1.1" xmlns="http://www.w3.org/2000/svg" xmlns:xlink="http://www.w3.org/1999/xlink">
    <!-- Generator: Sketch 49.3 (51167) - http://www.bohemiancoding.com/sketch -->
    <title>theicons.co/svg/phone-14</title>
    <desc>Created with Sketch.</desc>
    <defs></defs>
    <g id="The-Icons" stroke="none" stroke-width="1" fill="none" fill-rule="evenodd">
        <g id="v-1.5" transform="translate(-1440.000000, -2304.000000)" fill="#000000">
            <g id="Phone" transform="translate(96.000000, 2304.000000)">
                <g id="Fingerprint" transform="translate(1344.000000, 0.000000)">
                    <path d="M22,29.9940603 C22,28.8927712 22.8877296,28 24,28 C25.1045695,28 26,28.8945138 26,29.9940603 L26,42.0059397 C26,43.1072288 25.1122704,44 24,44 C22.8954305,44 22,43.1054862 22,42.0059397 L22,29.9940603 Z M24,16 C22.8241832,16 21.669174,16.1445202 20.5523666,16.4272628 C19.4815803,16.6983543 18.3937735,16.0500735 18.1226821,14.9792872 C17.8515907,13.908501 18.4998715,12.8206942 19.5706577,12.5496028 C21.0077327,12.1857779 22.4924739,12 24,12 C33.9435762,12 42,20.0587827 42,30.0093255 L42,36 C42,37.1045695 41.1045695,38 40,38 C38.8954305,38 38,37.1045695 38,36 L38,30.0093255 C38,22.2676596 31.734175,16 24,16 Z M24,8 C17.6278596,8 11.701007,10.7191121 7.55027563,15.3873845 C6.81632542,16.2128485 5.55217041,16.2870351 4.72670637,15.5530849 C3.90124233,14.8191347 3.82705571,13.5549797 4.56100591,12.7295157 C9.46308655,7.21621076 16.4734658,4 24,4 C31.5659695,4 38.6110711,7.25272651 43.5158038,12.819129 C44.2460415,13.6478791 44.1661816,14.9116884 43.3374315,15.6419261 C42.5086815,16.3721639 41.2448722,16.2923039 40.5146345,15.4635539 C36.3614267,10.7500603 30.4050531,8 24,8 Z M30,42 L30,37.9763184 C30,36.8717489 30.8954305,35.9763184 32,35.9763184 C33.1045695,35.9763184 34,36.8717489 34,37.9763184 L34,42 C34,43.1045695 33.1045695,44 32,44 C30.8954305,44 30,43.1045695 30,42 Z M10,30.0074211 L10,36 C10,37.1045695 9.1045695,38 8,38 C6.8954305,38 6,37.1045695 6,36 L6,30.0074211 C6,25.4167671 7.72623097,21.0910795 10.7780564,17.7875896 C11.5275888,16.9762481 12.792927,16.926142 13.6042685,17.6756743 C14.41561,18.4252067 14.4657162,19.690545 13.7161838,20.5018865 C11.3406164,23.0733516 10,26.4327444 10,30.0074211 Z M18,29.9941631 L18,42 C18,43.1045695 17.1045695,44 16,44 C14.8954305,44 14,43.1045695 14,42 L14,29.9941631 C14,24.4769648 18.4837114,20 24,20 C29.5234541,20 34,24.4769724 34,30.0018904 C34,31.1064599 33.1045695,32.0018904 32,32.0018904 C30.8954305,32.0018904 30,31.1064599 30,30.0018904 C30,26.6860261 27.3142298,24 24,24 C20.6915032,24 18,26.6874533 18,29.9941631 Z" id="Combined-Shape"></path>
                </g>
            </g>
        </g>
    </g>
</svg>