<?xml version="1.0" encoding="UTF-8"?>
<svg width="48px" height="48px" viewBox="0 0 48 48" version="1.1" xmlns="http://www.w3.org/2000/svg" xmlns:xlink="http://www.w3.org/1999/xlink">
    <!-- Generator: Sketch 49.3 (51167) - http://www.bohemiancoding.com/sketch -->
    <title>theicons.co/svg/photo-17</title>
    <desc>Created with Sketch.</desc>
    <defs></defs>
    <g id="The-Icons" stroke="none" stroke-width="1" fill="none" fill-rule="evenodd">
        <g id="v-1.5" transform="translate(-1728.000000, -2112.000000)" fill="#000000">
            <g id="Photo-Edit" transform="translate(96.000000, 2112.000000)">
                <g id="Horisont" transform="translate(1632.000000, 0.000000)">
                    <path d="M43,24 C43,25.1045695 42.1125667,26 41.000385,26 L34.999615,26 C33.8952581,26 33,25.1122704 33,24 C33,22.8954305 33.8874333,22 34.999615,22 L41.000385,22 C42.1047419,22 43,22.8877296 43,24 Z M29,24 C29,25.1045695 28.1125667,26 27.000385,26 L20.999615,26 C19.8952581,26 19,25.1122704 19,24 C19,22.8954305 19.8874333,22 20.999615,22 L27.000385,22 C28.1047419,22 29,22.8877296 29,24 Z M15,24 C15,25.1045695 14.1125667,26 13.000385,26 L6.99961498,26 C5.89525812,26 5,25.1122704 5,24 C5,22.8954305 5.88743329,22 6.99961498,22 L13.000385,22 C14.1047419,22 15,22.8877296 15,24 Z M12.2971517,9.74736401 L10.7789287,18.347686 C10.586907,19.4354366 9.5494466,20.1615684 8.46169595,19.9695468 C7.37394531,19.7775251 6.64781349,18.7400647 6.83983514,17.652314 L8.35798939,9.0523817 C8.93333484,5.78943553 12.0447355,3.6142853 15.3121672,4.19042166 L38.9391672,8.35649924 C42.2024851,8.93191023 44.3849228,12.0492266 43.8095834,15.3121117 L43.2669067,18.3515329 C43.0727604,19.4389064 42.0338834,20.1630101 40.94651,19.9688638 C39.8591365,19.7747175 39.1350329,18.7358405 39.3291791,17.6484671 L39.8711041,14.6132824 C40.062101,13.5300856 39.3321896,12.4875061 38.2445745,12.2957302 L14.6175745,8.12965267 C13.5243983,7.93689622 12.4887194,8.66092935 12.2971517,9.74736401 Z M35.7035334,38.2487524 L37.2141824,29.6537873 C37.4053904,28.5658933 38.4423074,27.8389857 39.5302014,28.0301937 C40.6180954,28.2214017 41.345003,29.2583187 41.153795,30.3462127 L39.6429552,38.9422615 C39.0671936,42.2075675 35.9558637,44.3858204 32.6878328,43.8095783 L9.06083278,39.6435008 C5.79750471,39.068088 3.61501792,35.9511095 4.18893492,32.696286 L4.71887705,29.6565091 C4.90858185,28.568352 5.9444936,27.8400125 7.0326507,28.0297173 C8.1208078,28.2194221 8.84914729,29.2553338 8.65944248,30.3434909 L8.12883315,33.3870733 C7.93785888,34.4701421 8.66769172,35.5124729 9.75542549,35.7042698 L33.3824255,39.8703473 C34.4750024,40.0629981 35.5115973,39.3372744 35.7035334,38.2487524 Z" id="Combined-Shape"></path>
                </g>
            </g>
        </g>
    </g>
</svg>