<?xml version="1.0" encoding="UTF-8"?>
<svg width="48px" height="48px" viewBox="0 0 48 48" version="1.1" xmlns="http://www.w3.org/2000/svg" xmlns:xlink="http://www.w3.org/1999/xlink">
    <!-- Generator: Sketch 49.3 (51167) - http://www.bohemiancoding.com/sketch -->
    <title>theicons.co/svg/photo-08</title>
    <desc>Created with Sketch.</desc>
    <defs></defs>
    <g id="The-Icons" stroke="none" stroke-width="1" fill="none" fill-rule="evenodd">
        <g id="v-1.5" transform="translate(-864.000000, -2112.000000)" fill="#000000" fill-rule="nonzero">
            <g id="Photo-Edit" transform="translate(96.000000, 2112.000000)">
                <g id="Colour" transform="translate(768.000000, 0.000000)">
                    <path d="M26.2461385,5.61872146 L40.3812785,19.7538615 C41.1642589,20.5368419 41.1701869,21.8003759 40.3835436,22.5870191 L20.5870191,42.3835436 C19.8052898,43.165273 18.5372795,43.1646965 17.7538615,42.3812785 L3.61872146,28.2461385 C2.83574111,27.4631581 2.82981312,26.1996241 3.6164564,25.4129809 L23.4129809,5.6164564 C24.1947102,4.83472701 25.4627205,4.83530345 26.2461385,5.61872146 Z M7.85786438,26.8284271 L19.1719429,38.1425056 L36.1469694,21.1764066 L24.8284271,9.85786438 L7.85786438,26.8284271 Z M16.6339385,21.9976807 L30.5786293,21.9976807 C31.6852895,21.9976807 31.9357956,22.629626 31.1502186,23.4091701 L19.8741095,34.5986824 C19.4808551,34.9889168 18.8462506,34.9883866 18.4560188,34.5981548 L11.4111677,27.5533032 C11.0258263,27.1679619 11.0248856,26.5310453 11.4199894,26.1416333 L14.9091128,22.7027735 C15.3017018,22.3158401 16.0764474,21.9976807 16.6339385,21.9976807 Z M41,37.9894015 C38.790861,37.9894015 37,36.1985405 37,33.9894015 C37,31.7802625 40.0520558,26.4143803 40.0520558,26.4143803 C40.5719299,25.4369964 41.4244091,25.4432913 41.9479442,26.4143803 C41.9479442,26.4143803 45,31.7802625 45,33.9894015 C45,36.1985405 43.209139,37.9894015 41,37.9894015 Z" id="Combined-Shape"></path>
                </g>
            </g>
        </g>
    </g>
</svg>