<?xml version="1.0" encoding="UTF-8"?>
<svg width="48px" height="48px" viewBox="0 0 48 48" version="1.1" xmlns="http://www.w3.org/2000/svg" xmlns:xlink="http://www.w3.org/1999/xlink">
    <!-- Generator: Sketch 49.3 (51167) - http://www.bohemiancoding.com/sketch -->
    <title>theicons.co/svg/photo-09</title>
    <desc>Created with Sketch.</desc>
    <defs></defs>
    <g id="The-Icons" stroke="none" stroke-width="1" fill="none" fill-rule="evenodd">
        <g id="v-1.5" transform="translate(-960.000000, -2112.000000)" fill="#000000" fill-rule="nonzero">
            <g id="Photo-Edit" transform="translate(96.000000, 2112.000000)">
                <g id="Magic-Wand" transform="translate(864.000000, 0.000000)">
                    <path d="M25.920038,18.1239633 L30.1632232,22.3671485 C30.9441214,23.1480467 30.9408408,24.4174134 30.1691421,25.1891121 L13.1861969,42.1720573 C12.4085677,42.9496866 11.1506645,42.9525696 10.3642333,42.1661383 L6.1210481,37.9229532 C5.34014987,37.1420549 5.34343042,35.8726882 6.11512913,35.1009895 L23.0980743,18.1180443 C23.8757036,17.3404151 25.1336068,17.3375321 25.920038,18.1239633 Z M35,17 L32.0754492,18.5375274 C31.0936354,19.0536974 30.4500609,18.5839084 30.6372344,17.4926032 L31.1957739,14.236068 L28.8297626,11.929777 C28.0354586,11.1555218 28.283379,10.3982734 29.3791118,10.2390541 L32.648859,9.76393202 L34.1111344,6.80103843 C34.6020413,5.80635237 35.398839,5.80813613 35.8888656,6.80103843 L37.351141,9.76393202 L40.6208882,10.2390541 C41.7185895,10.3985594 41.963117,11.1569103 41.1702374,11.929777 L38.8042261,14.236068 L39.3627656,17.4926032 C39.5502753,18.5858689 38.904604,19.0527718 37.9245508,18.5375274 L35,17 Z M37.2573111,32.2917961 L35.7848204,33.0659302 C34.8035727,33.5818027 34.1583299,33.1241749 34.3474349,32.0216085 L34.6286556,30.381966 L33.4373856,29.2207648 C32.6435394,28.446956 32.8793784,27.691879 33.986418,27.5310167 L35.6327126,27.2917961 L36.368958,25.8000001 C36.8595819,24.8058875 37.6505811,24.796852 38.1456643,25.8000001 L38.8819096,27.2917961 L40.5282042,27.5310167 C41.6252726,27.69043 41.8782981,28.4399229 41.0772367,29.2207648 L39.8859667,30.381966 L40.1671874,32.0216085 C40.354589,33.1142439 39.7199681,33.5864915 38.7298018,33.0659302 L37.2573111,32.2917961 Z M17.2573111,13.2917961 L15.7848204,14.0659302 C14.8035727,14.5818027 14.1583299,14.1241749 14.3474349,13.0216085 L14.6286556,11.381966 L13.4373856,10.2207648 C12.6435394,9.44695603 12.8793784,8.69187895 13.986418,8.53101668 L15.6327126,8.29179607 L16.368958,6.80000006 C16.8595819,5.80588748 17.6505811,5.796852 18.1456643,6.80000006 L18.8819096,8.29179607 L20.5282042,8.53101668 C21.6252726,8.69043005 21.8782981,9.4399229 21.0772367,10.2207648 L19.8859667,11.381966 L20.1671874,13.0216085 C20.354589,14.1142439 19.7199681,14.5864915 18.7298018,14.0659302 L17.2573111,13.2917961 Z M20.8763431,26.0082397 L10.3661817,36.5196485 L11.7695827,37.9313864 L22.2829022,27.4148576 L20.8763431,26.0082397 Z" id="Combined-Shape"></path>
                </g>
            </g>
        </g>
    </g>
</svg>