<?xml version="1.0" encoding="UTF-8"?>
<svg width="48px" height="48px" viewBox="0 0 48 48" version="1.1" xmlns="http://www.w3.org/2000/svg" xmlns:xlink="http://www.w3.org/1999/xlink">
    <!-- Generator: Sketch 49.3 (51167) - http://www.bohemiancoding.com/sketch -->
    <title>theicons.co/svg/photo-11</title>
    <desc>Created with Sketch.</desc>
    <defs></defs>
    <g id="The-Icons" stroke="none" stroke-width="1" fill="none" fill-rule="evenodd">
        <g id="v-1.5" transform="translate(-1248.000000, -2112.000000)" fill="#000000">
            <g id="Photo-Edit" transform="translate(96.000000, 2112.000000)">
                <g id="Rotate" transform="translate(1152.000000, 0.000000)">
                    <path d="M22.995864,16 C17.4730396,16 13,20.4760839 13,26.0013189 L13,34.0006488 C13,35.1126838 12.1045695,36 11,36 C9.88772964,36 9,35.10486 9,34.0006488 L9,26.0013189 C9,18.2675539 15.2632912,12 22.995864,12 L32.3284271,12 L30.0770996,9.74867245 C29.2927197,8.96429262 29.2845739,7.70070747 30.0710678,6.91421356 C30.8521164,6.13316498 32.1230566,6.13777522 32.9055267,6.92024532 L38.5503174,12.565036 C38.94587,12.9605886 39.1399842,13.4719538 39.1396592,13.9838083 C39.1431855,14.4963517 38.9485894,15.0072547 38.5563492,15.3994949 C38.5523277,15.4035144 32.9055267,21.0503174 32.9055267,21.0503174 C32.1211469,21.8346973 30.8575617,21.8428431 30.0710678,21.0563492 C29.2900192,20.2753006 29.2946295,19.0043604 30.0770996,18.2218903 L32.2989899,16 L22.995864,16 Z M21,25.9950893 C21,24.8932319 21.8926228,24 22.9950893,24 L37.0049107,24 C38.1067681,24 39,24.8926228 39,25.9950893 L39,40.0049107 C39,41.1067681 38.1073772,42 37.0049107,42 L22.9950893,42 C21.8932319,42 21,41.1073772 21,40.0049107 L21,25.9950893 Z M25,28 L25,38 L35,38 L35,28 L25,28 Z" id="Combined-Shape"></path>
                </g>
            </g>
        </g>
    </g>
</svg>