<?xml version="1.0" encoding="UTF-8"?>
<svg width="48px" height="48px" viewBox="0 0 48 48" version="1.1" xmlns="http://www.w3.org/2000/svg" xmlns:xlink="http://www.w3.org/1999/xlink">
    <!-- Generator: Sketch 49.3 (51167) - http://www.bohemiancoding.com/sketch -->
    <title>theicons.co/svg/signs-10</title>
    <desc>Created with Sketch.</desc>
    <defs></defs>
    <g id="The-Icons" stroke="none" stroke-width="1" fill="none" fill-rule="evenodd">
        <g id="v-1.5" transform="translate(-1248.000000, -3264.000000)" fill="#000000">
            <g id="Signs" transform="translate(96.000000, 3264.000000)">
                <g id="Male-3" transform="translate(1152.000000, 0.000000)">
                    <path d="M30.378536,42.0253723 C30.1694763,44.2204986 28.2034788,46 26.0041738,46 L21.9958262,46 C19.7889923,46 17.8294811,44.2095518 17.621464,42.0253723 L16.8571429,34 L15.990053,34 C13.7864076,34 12.3871713,32.2577292 12.8679404,30.0942681 L15.1320596,19.9057319 C15.6114098,17.7486557 17.7888304,16 19.9962027,16 L28.0037973,16 C30.2108391,16 32.3871713,17.7422708 32.8679404,19.9057319 L35.1320596,30.0942681 C35.6114098,32.2513443 34.2157067,34 32.009947,34 L31.1428571,34 L30.378536,42.0253723 Z M24,14 C20.6862915,14 18,11.3137085 18,8 C18,4.6862915 20.6862915,2 24,2 C27.3137085,2 30,4.6862915 30,8 C30,11.3137085 27.3137085,14 24,14 Z M27.4111439,30.992943 C27.4633712,30.4445557 27.9501532,30.0007861 28.5019206,30.0017621 L31.0149151,30.006207 L28.9631922,20.7734537 C28.8896027,20.4423013 28.3382554,20 28.0037973,20 L19.9962027,20 C19.6645792,20 19.1096648,20.4455972 19.0368078,20.7734537 L17.00177,30 L19.502816,30 C20.0503921,30 20.5364159,30.4423212 20.5888561,30.992943 L21.6034459,41.646136 C21.6163865,41.7820121 21.8558817,42 21.9958262,42 L26.0041738,42 C26.1455028,42 26.3834162,41.7840842 26.3965541,41.646136 L27.4111439,30.992943 Z M24,10 C25.1045695,10 26,9.1045695 26,8 C26,6.8954305 25.1045695,6 24,6 C22.8954305,6 22,6.8954305 22,8 C22,9.1045695 22.8954305,10 24,10 Z" id="Combined-Shape"></path>
                </g>
            </g>
        </g>
    </g>
</svg>