<?xml version="1.0" encoding="UTF-8"?>
<svg width="48px" height="48px" viewBox="0 0 48 48" version="1.1" xmlns="http://www.w3.org/2000/svg" xmlns:xlink="http://www.w3.org/1999/xlink">
    <!-- Generator: Sketch 49.3 (51167) - http://www.bohemiancoding.com/sketch -->
    <title>theicons.co/svg/signs-01</title>
    <desc>Created with Sketch.</desc>
    <defs></defs>
    <g id="The-Icons" stroke="none" stroke-width="1" fill="none" fill-rule="evenodd">
        <g id="v-1.5" transform="translate(-96.000000, -3264.000000)" fill="#000000">
            <g id="Signs" transform="translate(96.000000, 3264.000000)">
                <g id="Good-Mask">
                    <path d="M9.11690067,5.20552638 C12.0615649,3.75639334 16.2983749,3.02922453 24.0075719,3.00001433 C31.7899036,3.02947787 36.0213428,3.74468317 38.9734586,5.21355622 C41.8110077,6.6254247 42.9632317,12.7688402 42.9999741,19.9898236 C43.0266911,25.2405028 41.8866876,30.9604412 39.4981665,35.4625074 C36.3027529,41.4854662 31.1190735,45.003249 23.9990873,44.9999998 C16.8791846,44.9967506 11.7012641,41.4866575 8.5103135,35.4744149 C6.12609599,30.9821818 4.98774754,25.2799222 5.00000538,19.9953609 C5.01607689,13.0666615 6.30589811,6.58888162 9.11690067,5.20552638 Z M37.1915804,8.79474456 C34.8861514,7.64764103 31.2161706,7.02733441 24.0075929,6.99998559 C16.8674497,7.02709288 13.1929325,7.6577547 10.8830993,8.79447362 C10.1527558,9.15389148 9.011873,14.8836684 8.99999462,20.0046391 C8.97299339,31.6453241 13.9354765,40.9954068 24.0009127,41.0000002 C34.0630304,41.0045921 39.0589368,31.5879274 39.0000259,20.0101764 C38.9729416,14.6873161 37.9373614,9.16581994 37.1915804,8.79474456 Z M14,17 C14,15.8954305 14.8867064,15 15.9981014,15 L20.0018986,15 C21.1054196,15 22,15.8877296 22,17 C22,18.1045695 21.1132936,19 20.0018986,19 L15.9981014,19 C14.8945804,19 14,18.1122704 14,17 Z M26,17 C26,15.8954305 26.8867064,15 27.9981014,15 L32.0018986,15 C33.1054196,15 34,15.8877296 34,17 C34,18.1045695 33.1132936,19 32.0018986,19 L27.9981014,19 C26.8945804,19 26,18.1122704 26,17 Z M14.3003471,28.0582026 C13.7250193,27.1152967 14.0230003,25.884525 14.9659062,25.3091972 C15.9088122,24.7338694 17.1395839,25.0318504 17.7149117,25.9747563 C17.7400229,26.0159112 18.6836932,27.0760462 19.1327184,27.419269 C20.4266902,28.4083463 22.0267915,29 24,29 C25.9739227,29 27.5775703,28.4078133 28.8764422,27.4176808 C29.327321,27.0739751 30.2764402,26.0119075 30.3019483,25.9703444 C30.8797127,25.0289295 32.1112509,24.7341326 33.0526658,25.311897 C33.9940807,25.8896615 34.2888777,27.1211996 33.7111132,28.0626146 C33.2855772,28.755987 32.497595,29.6869478 31.3014143,30.5987986 C29.3342568,32.0983665 26.892624,33 24,33 C21.1066619,33 18.6667927,32.0978335 16.7035853,30.5972105 C15.5095112,29.6844924 14.7240192,28.7525598 14.3003471,28.0582026 Z" id="Combined-Shape"></path>
                </g>
            </g>
        </g>
    </g>
</svg>