<?xml version="1.0" encoding="UTF-8"?>
<svg width="48px" height="48px" viewBox="0 0 48 48" version="1.1" xmlns="http://www.w3.org/2000/svg" xmlns:xlink="http://www.w3.org/1999/xlink">
    <!-- Generator: Sketch 49.3 (51167) - http://www.bohemiancoding.com/sketch -->
    <title>theicons.co/svg/signs-03</title>
    <desc>Created with Sketch.</desc>
    <defs></defs>
    <g id="The-Icons" stroke="none" stroke-width="1" fill="none" fill-rule="evenodd">
        <g id="v-1.5" transform="translate(-288.000000, -3264.000000)" fill="#000000" fill-rule="nonzero">
            <g id="Signs" transform="translate(96.000000, 3264.000000)">
                <g id="Boobs" transform="translate(192.000000, 0.000000)">
                    <path d="M40.030662,20.5768247 C40.0066163,20.652604 39.6473987,22.0890821 39.5344118,22.68706 C38.6948873,27.1302034 38.7620091,31.9036115 40.3296623,36.319688 C40.9050865,37.9406572 41.6733273,39.4647828 42.6500282,40.8796933 C43.2775208,41.7887185 43.0492935,43.0343123 42.1402683,43.6618049 C41.2312431,44.2892975 39.9856493,44.0610702 39.3581567,43.152045 C38.1773209,41.4414119 37.2505892,39.6028534 36.5601284,37.6578264 C34.7209357,32.4768234 34.6442545,27.0235927 35.603958,21.9444074 C35.0859836,21.9633649 34.5472701,22 34,22 C29.8260585,22 26.1498431,19.8689813 24,16.6355902 C21.8501569,19.8689813 18.1739415,22 14,22 C13.459158,22 12.9266728,21.9642204 12.4047822,21.8948991 C13.3738761,27.0235927 13.2971949,32.4768234 11.4580022,37.6578264 C10.7675414,39.6028534 9.84080971,41.4414119 8.65997384,43.152045 C8.03248126,44.0610702 6.78688748,44.2892975 5.87786226,43.6618049 C4.96883705,43.0343123 4.74060975,41.7887185 5.36810233,40.8796933 C6.34480332,39.4647828 7.11304409,37.9406572 7.68846833,36.319688 C9.25612148,31.9036115 9.32324324,27.1302034 8.48371876,22.68706 C8.37073185,22.0890821 8.01151427,20.652604 7.98746861,20.5768247 C7.96398855,20.5028279 7.94503697,20.4284779 7.93045885,20.3540741 C4.38203525,18.2695015 2,14.4129278 2,10 C2,8.8174305 2.12852132,7.94290833 2.42990216,7.03670978 C2.58688763,6.56468244 2.56552609,6.61567026 3.1484873,5.26733209 C3.5868374,4.25346673 4.76409064,3.78691943 5.777956,4.22526953 C6.79182136,4.66361963 7.25836866,5.84087286 6.82001856,6.85473822 C6.31428976,8.0244446 6.32655636,7.99516547 6.22549563,8.29903709 C6.06625079,8.77785796 6,9.2286609 6,10 C6,14.418278 9.581722,18 14,18 C18.418278,18 22,14.418278 22,10 C22,8.8954305 22.8954305,8 24,8 C24.5522847,8 25.0522847,8.22385763 25.4142136,8.58578644 C25.7761424,8.94771525 26,9.44771525 26,10 C26,14.418278 29.581722,18 34,18 C38.418278,18 42,14.418278 42,10 C42,9.2286609 41.9337492,8.77785796 41.7745044,8.29903709 C41.6734436,7.99516547 41.6857102,8.0244446 41.1799814,6.85473822 C40.7416313,5.84087286 41.2081786,4.66361963 42.222044,4.22526953 C43.2359094,3.78691943 44.4131626,4.25346673 44.8515127,5.26733209 C45.4344739,6.61567026 45.4131124,6.56468244 45.5700978,7.03670978 C45.8714787,7.94290833 46,8.8174305 46,10 C46,14.4044443 43.6271145,18.2546715 40.0899929,20.3420322 C40.0751252,20.4204551 40.0554087,20.498836 40.030662,20.5768247 Z M12,15 C10.8954305,15 10,14.1045695 10,13 C10,11.8954305 10.8954305,11 12,11 C13.1045695,11 14,11.8954305 14,13 C14,14.1045695 13.1045695,15 12,15 Z M36,15 C34.8954305,15 34,14.1045695 34,13 C34,11.8954305 34.8954305,11 36,11 C37.1045695,11 38,11.8954305 38,13 C38,14.1045695 37.1045695,15 36,15 Z M22,35.9979131 C22,34.8944962 22.8877296,34 24,34 C25.1045695,34 26,34.8982606 26,35.9979131 L26,38.0020869 C26,39.1055038 25.1122704,40 24,40 C22.8954305,40 22,39.1017394 22,38.0020869 L22,35.9979131 Z" id="Combined-Shape"></path>
                </g>
            </g>
        </g>
    </g>
</svg>