<?xml version="1.0" encoding="UTF-8"?>
<svg width="48px" height="48px" viewBox="0 0 48 48" version="1.1" xmlns="http://www.w3.org/2000/svg" xmlns:xlink="http://www.w3.org/1999/xlink">
    <!-- Generator: Sketch 49.3 (51167) - http://www.bohemiancoding.com/sketch -->
    <title>theicons.co/svg/signs-05</title>
    <desc>Created with Sketch.</desc>
    <defs></defs>
    <g id="The-Icons" stroke="none" stroke-width="1" fill="none" fill-rule="evenodd">
        <g id="v-1.5" transform="translate(-480.000000, -3264.000000)" fill="#000000">
            <g id="Signs" transform="translate(96.000000, 3264.000000)">
                <g id="Male-1" transform="translate(384.000000, 0.000000)">
                    <path d="M26,26.00077 L26,14 L29.0047466,14 C30.6587988,14 32,12.6574476 32,11 C32,9.8954305 32.8954305,9 34,9 C35.1045695,9 36,9.8954305 36,11 C36,14.5101729 33.3678966,17.4885623 30,17.9935913 L30,26.00077 C30,28.6114939 28.3289237,30.8338451 26,31.6580428 L26,42.0058745 C26,43.1071996 25.1122704,44 24,44 C22.8954305,44 22,43.105457 22,42.0058745 L22,31.6584052 C19.669879,30.8344646 18,28.6117245 18,26.00077 C18,26.00077 18.0118408,19.2599487 18,17.9935913 C14.5617065,17.4335327 12,14.456707 12,11 C12,9.8954305 12.8954305,9 14,9 C15.1045695,9 16,9.8954305 16,11 C16,12.6539478 17.3437313,14 18.9952534,14 L22,14 L22,26.00077 C22,27.0927593 22.8784754,27.9821952 23.9672086,27.999736 C25.1197306,27.982239 26,27.092031 26,26.00077 Z M46.9333358,8.87867119 C47.8419378,12.9496986 48.2791425,17.7741503 47.8101751,23.2176051 C47.4468642,27.4346716 46.7906354,31.3189789 46.0379782,34.8720341 C45.5749546,37.0578212 45.0775026,38.9832285 44.5780727,40.633234 C44.2735866,41.6391881 44.0320227,42.3394692 43.8857539,42.7190843 C43.4886146,43.74979 42.3311176,44.263397 41.3004119,43.8662577 C40.2697063,43.4691184 39.7560993,42.3116214 40.1532386,41.2809157 C40.1769962,41.219257 40.5879227,40.0085887 40.7496071,39.4744194 C41.2166926,37.9312729 41.6857561,36.1157443 42.1248136,34.0430935 C42.8441927,30.6471336 43.4809562,26.9330111 43.8299084,22.8826105 C44.2626251,17.8599289 43.851789,13.4347876 43.0293872,9.74998324 C42.8326131,8.86832921 42.2118077,6.86197412 42.1721072,6.76625951 C41.7489137,5.7459747 42.2329519,4.57580438 43.2532367,4.15261093 C44.2735216,3.72941749 45.4436919,4.21345568 45.8668853,5.23374049 C46.1503857,5.91723675 46.5465487,7.14565602 46.9333358,8.87867119 Z M1.08616041,8.87867119 C1.47294752,7.14565602 1.86911055,5.91723675 2.15261093,5.23374049 C2.57580438,4.21345568 3.7459747,3.72941749 4.76625951,4.15261093 C5.78654432,4.57580438 6.27058251,5.7459747 5.84738907,6.76625951 C5.80768859,6.86197412 5.18688314,8.86832921 4.9901091,9.74998324 C4.16770728,13.4347876 3.75687111,17.8599289 4.18958782,22.8826105 C4.53854007,26.9330111 5.17530359,30.6471336 5.8946827,34.0430935 C6.33374019,36.1157443 6.80280367,37.9312729 7.26988916,39.4744194 C7.43157356,40.0085887 7.84250007,41.219257 7.86625769,41.2809157 C8.26339699,42.3116214 7.74978997,43.4691184 6.71908431,43.8662577 C5.68837865,44.263397 4.53088161,43.74979 4.13374231,42.7190843 C3.98747352,42.3394692 3.74590961,41.6391881 3.44142358,40.633234 C2.94199361,38.9832285 2.44454165,37.0578212 1.98151805,34.8720341 C1.22886085,31.3189789 0.572632061,27.4346716 0.209321121,23.2176051 C-0.259646268,17.7741503 0.177558495,12.9496986 1.08616041,8.87867119 Z" id="Combined-Shape"></path>
                </g>
            </g>
        </g>
    </g>
</svg>