<?xml version="1.0" encoding="UTF-8"?>
<svg width="48px" height="48px" viewBox="0 0 48 48" version="1.1" xmlns="http://www.w3.org/2000/svg" xmlns:xlink="http://www.w3.org/1999/xlink">
    <!-- Generator: Sketch 49.3 (51167) - http://www.bohemiancoding.com/sketch -->
    <title>theicons.co/svg/signs-02</title>
    <desc>Created with Sketch.</desc>
    <defs></defs>
    <g id="The-Icons" stroke="none" stroke-width="1" fill="none" fill-rule="evenodd">
        <g id="v-1.5" transform="translate(-192.000000, -3264.000000)" fill="#000000">
            <g id="Signs" transform="translate(96.000000, 3264.000000)">
                <g id="Sad-Mask" transform="translate(96.000000, 0.000000)">
                    <path d="M9.11690067,5.20552638 C12.0615649,3.75639334 16.2983749,3.02922453 24.0075719,3.00001433 C31.7899036,3.02947787 36.0213428,3.74468317 38.9734586,5.21355622 C41.8110077,6.6254247 42.9632317,12.7688402 42.9999741,19.9898236 C43.0266911,25.2405028 41.8866876,30.9604412 39.4981665,35.4625074 C36.3027529,41.4854662 31.1190735,45.003249 23.9990873,44.9999998 C16.8791846,44.9967506 11.7012641,41.4866575 8.5103135,35.4744149 C6.12609599,30.9821818 4.98774754,25.2799222 5.00000538,19.9953609 C5.01607689,13.0666615 6.30589811,6.58888162 9.11690067,5.20552638 Z M37.1915804,8.79474456 C34.8861514,7.64764103 31.2161706,7.02733441 24.0075929,6.99998559 C16.8674497,7.02709288 13.1929325,7.6577547 10.8830993,8.79447362 C10.1527558,9.15389148 9.011873,14.8836684 8.99999462,20.0046391 C8.97299339,31.6453241 13.9354765,40.9954068 24.0009127,41.0000002 C34.0630304,41.0045921 39.0589368,31.5879274 39.0000259,20.0101764 C38.9729416,14.6873161 37.9373614,9.16581994 37.1915804,8.79474456 Z M14.3003471,29.9579887 C14.7240192,29.2636316 15.5095112,28.331699 16.7035853,27.4189809 C18.6667927,25.9183578 21.1066619,25.0161914 24,25.0161914 C26.892624,25.0161914 29.3342568,25.9178249 31.3014143,27.4173927 C32.497595,28.3292436 33.2855772,29.2602044 33.7111132,29.9535768 C34.2888777,30.8949917 33.9940807,32.1265299 33.0526658,32.7042944 C32.1112509,33.2820588 30.8797127,32.9872618 30.3019483,32.0458469 C30.2764402,32.0042839 29.327321,30.9422163 28.8764422,30.5985105 C27.5775703,29.6083781 25.9739227,29.0161914 24,29.0161914 C22.0267915,29.0161914 20.4266902,29.6078451 19.1327184,30.5969224 C18.6836932,30.9401452 17.7400229,32.0002802 17.7149117,32.041435 C17.1395839,32.984341 15.9088122,33.282322 14.9659062,32.7069942 C14.0230003,32.1316664 13.7250193,30.9008947 14.3003471,29.9579887 Z M27,16.7320508 C27.5522847,15.7754656 28.7679102,15.4433532 29.7304065,15.9990507 L33.1977967,18.0009493 C34.1534738,18.5527098 34.4843384,19.7687964 33.9282032,20.7320508 C33.3759185,21.6886361 32.160293,22.0207484 31.1977967,21.4650509 L27.7304065,19.4631523 C26.7747294,18.9113918 26.4438648,17.6953052 27,16.7320508 Z M15,20.7320508 C14.4477153,19.7754656 14.7679102,18.5566468 15.7304065,18.0009493 L19.1977967,15.9990507 C20.1534738,15.4472902 21.3720681,15.7687964 21.9282032,16.7320508 C22.480488,17.6886361 22.160293,18.9074548 21.1977967,19.4631523 L17.7304065,21.4650509 C16.7747294,22.0168114 15.5561352,21.6953052 15,20.7320508 Z" id="Combined-Shape"></path>
                </g>
            </g>
        </g>
    </g>
</svg>