<?xml version="1.0" encoding="UTF-8"?>
<svg width="48px" height="48px" viewBox="0 0 48 48" version="1.1" xmlns="http://www.w3.org/2000/svg" xmlns:xlink="http://www.w3.org/1999/xlink">
    <!-- Generator: Sketch 49.3 (51167) - http://www.bohemiancoding.com/sketch -->
    <title>theicons.co/svg/signs-06</title>
    <desc>Created with Sketch.</desc>
    <defs></defs>
    <g id="The-Icons" stroke="none" stroke-width="1" fill="none" fill-rule="evenodd">
        <g id="v-1.5" transform="translate(-576.000000, -3264.000000)" fill="#000000">
            <g id="Signs" transform="translate(96.000000, 3264.000000)">
                <g id="Butt" transform="translate(480.000000, 0.000000)">
                    <path d="M26,41.9990903 C26,43.1041622 25.1122704,44 24,44 C22.8954305,44 22,43.0983522 22,41.9990903 L22,27.3808556 C19.664211,29.6223919 16.4929843,31 13,31 C9.8951505,31 7.04452508,29.9115373 4.80888876,28.095377 C5.12205724,30.1778975 5.49566103,32.1594392 5.8946827,34.0430935 C6.33374019,36.1157443 6.80280367,37.9312729 7.26988916,39.4744194 C7.43157356,40.0085887 7.84250007,41.219257 7.86625769,41.2809157 C8.26339699,42.3116214 7.74978997,43.4691184 6.71908431,43.8662577 C5.68837865,44.263397 4.53088161,43.74979 4.13374231,42.7190843 C3.98747352,42.3394692 3.74590961,41.6391881 3.44142358,40.633234 C2.94199361,38.9832285 2.44454165,37.0578212 1.98151805,34.8720341 C1.22886085,31.3189789 0.572632061,27.4346716 0.209321121,23.2176051 C0.07547048,21.6639578 0.0154385292,20.1607358 0.0191165057,18.7110645 C0.00642672773,18.4756531 0,18.2385771 0,18 C0,17.8744499 0.0115685807,17.7516017 0.0336979268,17.6324634 C0.112434391,14.4267387 0.501807347,11.4968886 1.08616041,8.87867119 C1.47294752,7.14565602 1.86911055,5.91723675 2.15261093,5.23374049 C2.57580438,4.21345568 3.7459747,3.72941749 4.76625951,4.15261093 C5.78654432,4.57580438 6.27058251,5.7459747 5.84738907,6.76625951 C5.80768859,6.86197412 5.18688314,8.86832921 4.9901091,9.74998324 C4.41349523,12.3335249 4.03920246,15.2810078 4.01612367,18.5432145 C4.29697906,23.2608492 8.2118268,27 13,27 C17.9705627,27 22,22.9705627 22,18 C22,16.8954305 22.8954305,16 24,16 C24.5522847,16 25.0522847,16.2238576 25.4142136,16.5857864 C25.7761424,16.9477153 26,17.4477153 26,18 C26,22.9705627 30.0294373,27 35,27 C39.9215126,27 43.9203823,23.0496964 43.9988258,18.1468727 C43.9495232,15.041931 43.582557,12.2284828 43.0293872,9.74998324 C42.8326131,8.86832921 42.2118077,6.86197412 42.1721072,6.76625951 C41.7489137,5.7459747 42.2329519,4.57580438 43.2532367,4.15261093 C44.2735216,3.72941749 45.4436919,4.21345568 45.8668853,5.23374049 C46.1503857,5.91723675 46.5465487,7.14565602 46.9333358,8.87867119 C47.527473,11.5407267 47.9200461,14.5249379 47.9894915,17.7937203 C47.9964398,17.861534 48,17.9303512 48,18 C48,18.0898542 47.9990884,18.1794955 47.9972739,18.2689152 C48.0155417,19.8544472 47.9576855,21.5054049 47.8101751,23.2176051 C47.4468642,27.4346716 46.7906354,31.3189789 46.0379782,34.8720341 C45.5749546,37.0578212 45.0775026,38.9832285 44.5780727,40.633234 C44.2735866,41.6391881 44.0320227,42.3394692 43.8857539,42.7190843 C43.4886146,43.74979 42.3311176,44.263397 41.3004119,43.8662577 C40.2697063,43.4691184 39.7560993,42.3116214 40.1532386,41.2809157 C40.1769962,41.219257 40.5879227,40.0085887 40.7496071,39.4744194 C41.2166926,37.9312729 41.6857561,36.1157443 42.1248136,34.0430935 C42.5249902,32.1539868 42.8996016,30.1664252 43.2133254,28.0772904 C40.9743727,29.9043085 38.1151426,31 35,31 C31.5070157,31 28.335789,29.6223919 26,27.3808556 L26,41.9990903 Z" id="Combined-Shape"></path>
                </g>
            </g>
        </g>
    </g>
</svg>