<?xml version="1.0" encoding="UTF-8"?>
<svg width="48px" height="48px" viewBox="0 0 48 48" version="1.1" xmlns="http://www.w3.org/2000/svg" xmlns:xlink="http://www.w3.org/1999/xlink">
    <!-- Generator: Sketch 49.3 (51167) - http://www.bohemiancoding.com/sketch -->
    <title>theicons.co/svg/signs-04</title>
    <desc>Created with Sketch.</desc>
    <defs></defs>
    <g id="The-Icons" stroke="none" stroke-width="1" fill="none" fill-rule="evenodd">
        <g id="v-1.5" transform="translate(-384.000000, -3264.000000)" fill="#000000">
            <g id="Signs" transform="translate(96.000000, 3264.000000)">
                <g id="Female-1" transform="translate(288.000000, 0.000000)">
                    <path d="M22,25.9908022 L22,42.0092056 C22,43.101788 22.8954305,44 24,44 C25.1122704,44 26,43.108691 26,42.0092056 L26,25.9908022 C26,25.925589 25.99681,25.8610683 25.9905758,25.7973897 C28.4864702,25.2286938 30.4741196,23.504427 31.9837597,21.0477558 C33.0325835,19.3409814 33.6517104,17.6607631 33.942339,16.4767798 C34.2056573,15.4040556 33.5495041,14.3209792 32.4767798,14.057661 C31.4040556,13.7943427 30.3209792,14.4504959 30.057661,15.5232202 C30.0131771,15.7044417 29.9037769,16.0713264 29.7241917,16.5586939 C29.4214695,17.3802369 29.0383663,18.2007786 28.5757912,18.9535374 C27.820827,20.1821076 26.967563,21.0647964 26,21.5544731 L26,19.9975669 C26,18.8978171 25.1045695,17.999477 24,17.999477 C22.8877296,17.999477 22,18.8940523 22,19.9975669 L22,21.467927 C21.0475366,20.9594757 20.2068464,20.0979818 19.4643566,18.9286226 C18.9872714,18.1772533 18.5926388,17.3587205 18.2811038,16.5393952 C18.0965078,16.0539146 17.9843011,15.6889628 17.9389671,15.5096872 C17.6681748,14.4388252 16.5805491,13.7902406 15.5096872,14.0610329 C14.4388252,14.3318252 13.7902406,15.4194509 14.0610329,16.4903128 C14.3615195,17.6786024 15.0020314,19.3631245 16.0875569,21.0727363 C17.5936209,23.4446611 19.5590276,25.1292328 22.0150396,25.744448 C22.0051097,25.825169 22,25.9073865 22,25.9908022 Z M1.08616041,8.87867119 C1.47294752,7.14565602 1.86911055,5.91723675 2.15261093,5.23374049 C2.57580438,4.21345568 3.7459747,3.72941749 4.76625951,4.15261093 C5.78654432,4.57580438 6.27058251,5.7459747 5.84738907,6.76625951 C5.80768859,6.86197412 5.18688314,8.86832921 4.9901091,9.74998324 C4.16770728,13.4347876 3.75687111,17.8599289 4.18958782,22.8826105 C4.53854007,26.9330111 5.17530359,30.6471336 5.8946827,34.0430935 C6.33374019,36.1157443 6.80280367,37.9312729 7.26988916,39.4744194 C7.43157356,40.0085887 7.84250007,41.219257 7.86625769,41.2809157 C8.26339699,42.3116214 7.74978997,43.4691184 6.71908431,43.8662577 C5.68837865,44.263397 4.53088161,43.74979 4.13374231,42.7190843 C3.98747352,42.3394692 3.74590961,41.6391881 3.44142358,40.633234 C2.94199361,38.9832285 2.44454165,37.0578212 1.98151805,34.8720341 C1.22886085,31.3189789 0.572632061,27.4346716 0.209321121,23.2176051 C-0.259646268,17.7741503 0.177558495,12.9496986 1.08616041,8.87867119 Z M46.9333358,8.87867119 C47.8419378,12.9496986 48.2791425,17.7741503 47.8101751,23.2176051 C47.4468642,27.4346716 46.7906354,31.3189789 46.0379782,34.8720341 C45.5749546,37.0578212 45.0775026,38.9832285 44.5780727,40.633234 C44.2735866,41.6391881 44.0320227,42.3394692 43.8857539,42.7190843 C43.4886146,43.74979 42.3311176,44.263397 41.3004119,43.8662577 C40.2697063,43.4691184 39.7560993,42.3116214 40.1532386,41.2809157 C40.1769962,41.219257 40.5879227,40.0085887 40.7496071,39.4744194 C41.2166926,37.9312729 41.6857561,36.1157443 42.1248136,34.0430935 C42.8441927,30.6471336 43.4809562,26.9330111 43.8299084,22.8826105 C44.2626251,17.8599289 43.851789,13.4347876 43.0293872,9.74998324 C42.8326131,8.86832921 42.2118077,6.86197412 42.1721072,6.76625951 C41.7489137,5.7459747 42.2329519,4.57580438 43.2532367,4.15261093 C44.2735216,3.72941749 45.4436919,4.21345568 45.8668853,5.23374049 C46.1503857,5.91723675 46.5465487,7.14565602 46.9333358,8.87867119 Z" id="Combined-Shape"></path>
                </g>
            </g>
        </g>
    </g>
</svg>