<?xml version="1.0" encoding="UTF-8"?>
<svg width="48px" height="48px" viewBox="0 0 48 48" version="1.1" xmlns="http://www.w3.org/2000/svg" xmlns:xlink="http://www.w3.org/1999/xlink">
    <!-- Generator: Sketch 49.3 (51167) - http://www.bohemiancoding.com/sketch -->
    <title>theicons.co/svg/social-30</title>
    <desc>Created with Sketch.</desc>
    <defs></defs>
    <g id="The-Icons" stroke="none" stroke-width="1" fill="none" fill-rule="evenodd">
        <g id="v-1.5" transform="translate(-1344.000000, -3552.000000)" fill="#000000">
            <g id="Social" transform="translate(96.000000, 3456.000000)">
                <g id="Weibo" transform="translate(1248.000000, 96.000000)">
                    <path d="M18,32 C19.6568542,32 21,30.6568542 21,29 C21,27.3431458 19.6568542,26 18,26 C17.0731563,26 16.2444808,26.4203079 15.6941783,27.0807187 C17.0163279,27.3939339 18,28.5820925 18,30 C18,30.7300106 17.7392569,31.3991213 17.3058217,31.9192813 C17.5286312,31.9720645 17.7610533,32 18,32 Z M21.2112525,44 C12.0644268,44 5.15289105,40.0636736 2.94281851,33.9282895 C0.832666328,28.0702943 2.68544235,20.9930072 7.84370165,15.8972597 C13.7311236,10.0811861 19.6735417,8.40249403 24.0246097,11.6477995 C24.9685251,12.3518322 25.6656679,13.2934363 26.1594898,14.3934171 C26.3232997,14.758301 26.568864,15.4713956 26.568864,15.4713956 C26.568864,15.4713956 28.4269871,15.0777331 29.5347316,15.0268096 C31.3726811,14.9423182 32.9597928,15.2583734 34.2034804,16.1716437 C35.6094416,17.2040754 36.4248112,18.4240419 36.7679476,20.1377717 C37.111084,21.8515015 36.5810966,23.8845306 36.5810966,23.8845306 C36.5810966,23.8845306 36.4864433,23.6761782 37.6908278,24.5648584 C39.7362867,26.0741429 40.9904785,28.3493644 40.9904785,31.3552246 C40.9904785,38.6243973 31.8969053,44 21.2112525,44 Z M10.6548335,18.742877 C6.57054934,22.7776646 5.14259291,28.2322136 6.70610727,32.5726871 C8.28672845,36.9606508 13.6233211,40 21.2112525,40 C29.9773207,40 36.9904785,35.8542204 36.9904785,31.3552246 C36.9904785,29.6768655 36.3793292,28.5681834 35.3158861,27.7834997 C34.9291867,27.4981656 34.2034804,27.1362915 33.6244566,26.9694307 C32.3344624,26.5976853 31.6114241,25.225953 32.2653638,24.0415098 C32.325701,23.9322245 32.4461886,23.6720598 32.5723546,23.3118168 C32.8690045,22.4647894 32.9846846,21.6200866 32.8450752,20.919483 C32.7250203,20.3170096 32.4209582,19.8253263 31.8359483,19.3957391 C31.4642916,19.1228225 30.7279199,18.9761825 29.7184195,19.0225897 C28.9163475,19.0594613 28.023271,19.2120618 27.1150133,19.4445635 C26.7369159,19.5413514 25.7581873,19.8516454 25.7032931,19.8722657 C24.4180052,20.3550679 23.0870972,19.5562134 23.0007979,18.0564876 C22.9551205,17.2626978 22.7078304,16.471526 22.5103534,16.031649 C22.2774425,15.5128436 21.9829609,15.1150984 21.6331052,14.8541536 C19.2102252,13.0470143 15.3033717,14.1506734 10.6548335,18.742877 Z M11,29 C11,25.1340068 14.1340068,22 18,22 C21.8659932,22 25,25.1340068 25,29 C25,32.8659932 21.8659932,36 18,36 C14.1340068,36 11,32.8659932 11,29 Z M34,10 C38.418278,10 42,13.581722 42,18 C42,19.1045695 41.1045695,20 40,20 C38.8954305,20 38,19.1045695 38,18 C38,15.790861 36.209139,14 34,14 C32.8954305,14 32,13.1045695 32,12 C32,10.8954305 32.8954305,10 34,10 Z M34,4 C41.7319865,4 48,10.2680135 48,18 C48,19.1045695 47.1045695,20 46,20 C44.8954305,20 44,19.1045695 44,18 C44,12.4771525 39.5228475,8 34,8 C32.8954305,8 32,7.1045695 32,6 C32,4.8954305 32.8954305,4 34,4 Z" id="Combined-Shape"></path>
                </g>
            </g>
        </g>
    </g>
</svg>