<?xml version="1.0" encoding="UTF-8"?>
<svg width="48px" height="48px" viewBox="0 0 48 48" version="1.1" xmlns="http://www.w3.org/2000/svg" xmlns:xlink="http://www.w3.org/1999/xlink">
    <!-- Generator: Sketch 49.3 (51167) - http://www.bohemiancoding.com/sketch -->
    <title>theicons.co/svg/social-11</title>
    <desc>Created with Sketch.</desc>
    <defs></defs>
    <g id="The-Icons" stroke="none" stroke-width="1" fill="none" fill-rule="evenodd">
        <g id="v-1.5" transform="translate(-1056.000000, -3456.000000)" fill="#000000">
            <g id="Social" transform="translate(96.000000, 3456.000000)">
                <g id="Slack" transform="translate(960.000000, 0.000000)">
                    <path d="M12.5447862,20.4253563 L6.48507125,21.940285 C5.41348143,22.2081825 4.32761245,21.5566611 4.059715,20.4850713 C3.79181755,19.4134814 4.44333893,18.3276125 5.51492875,18.059715 L11.5746437,16.5447862 L10.059715,10.4850713 C9.79181755,9.41348143 10.4433389,8.32761245 11.5149287,8.059715 C12.5865186,7.79181755 13.6723875,8.44333893 13.940285,9.51492875 L15.4552138,15.5746437 L27.5746437,12.5447862 L26.059715,6.48507125 C25.7918175,5.41348143 26.4433389,4.32761245 27.5149287,4.059715 C28.5865186,3.79181755 29.6723875,4.44333893 29.940285,5.51492875 L31.4552138,11.5746437 L37.5149287,10.059715 C38.5865186,9.79181755 39.6723875,10.4433389 39.940285,11.5149287 C40.2081825,12.5865186 39.5566611,13.6723875 38.4850713,13.940285 L32.4253563,15.4552138 L35.4552138,27.5746437 L41.5149287,26.059715 C42.5865186,25.7918175 43.6723875,26.4433389 43.940285,27.5149287 C44.2081825,28.5865186 43.5566611,29.6723875 42.4850713,29.940285 L36.4253563,31.4552138 L37.940285,37.5149287 C38.2081825,38.5865186 37.5566611,39.6723875 36.4850713,39.940285 C35.4134814,40.2081825 34.3276125,39.5566611 34.059715,38.4850713 L32.5447862,32.4253563 L20.4253563,35.4552138 L21.940285,41.5149287 C22.2081825,42.5865186 21.5566611,43.6723875 20.4850713,43.940285 C19.4134814,44.2081825 18.3276125,43.5566611 18.059715,42.4850713 L16.5447862,36.4253563 L10.4850713,37.940285 C9.41348143,38.2081825 8.32761245,37.5566611 8.059715,36.4850713 C7.79181755,35.4134814 8.44333893,34.3276125 9.51492875,34.059715 L15.5746437,32.5447862 L12.5447862,20.4253563 Z M31.5746437,28.5447862 L28.5447862,16.4253563 L16.4253563,19.4552138 L19.4552138,31.5746437 L31.5746437,28.5447862 Z" id="Combined-Shape"></path>
                </g>
            </g>
        </g>
    </g>
</svg>