<?xml version="1.0" encoding="UTF-8"?>
<svg width="48px" height="48px" viewBox="0 0 48 48" version="1.1" xmlns="http://www.w3.org/2000/svg" xmlns:xlink="http://www.w3.org/1999/xlink">
    <!-- Generator: Sketch 49.3 (51167) - http://www.bohemiancoding.com/sketch -->
    <title>theicons.co/svg/social-36</title>
    <desc>Created with Sketch.</desc>
    <defs></defs>
    <g id="The-Icons" stroke="none" stroke-width="1" fill="none" fill-rule="evenodd">
        <g id="v-1.5" transform="translate(-1728.000000, -3552.000000)" fill="#000000" fill-rule="nonzero">
            <g id="Social" transform="translate(96.000000, 3456.000000)">
                <g id="VK" transform="translate(1632.000000, 96.000000)">
                    <path d="M26,36 C26,37.4685797 24.4700523,38.4363451 23.1430958,37.807129 C22.887522,37.685941 22.443638,37.4573322 21.8382013,37.1172627 C20.8498812,36.5621303 19.7541353,35.8876471 18.5777795,35.0896345 C15.2315033,32.8195979 11.8898768,30.0068353 8.77005115,26.6162993 C5.55934459,23.1150116 3.27376927,19.7824158 1.71381566,16.6711268 C0.752703224,14.7542118 0.243637617,13.3030435 0.0489998372,12.4399981 C-0.194004426,11.3624905 0.482494222,10.2920041 1.56000186,10.0489998 C2.6375095,9.80599557 3.7079959,10.4824942 3.95100016,11.5600019 C3.97421794,11.662952 4.81085537,13.9235844 5.28954127,14.8783116 C6.68483363,17.6611878 8.75996083,20.6869293 11.6525487,23.8414191 C14.6129326,27.0587934 17.7204632,29.6745093 20.8233443,31.7794323 C21.2272919,32.053461 21.619979,32.3110731 22,32.5524387 L22.0023193,14 L20.0046387,14 C18.9000692,14 18.0046387,13.1045695 18.0046387,12 C18.0046387,10.8954305 18.9000692,10 20.0046387,10 L22.0023193,10 C24.2119233,10 26,11.7941976 26,14.0049466 L26,24 C26,24 28.050905,24.0002043 28.076872,24.0006112 C30.8737144,23.9741101 34.4583535,22.5070958 37.0564637,20.0376513 C37.615187,19.5065976 38.2473238,18.8296536 38.9359031,18.0298721 C39.3895209,17.5029972 39.8628043,16.9284603 40.351167,16.3138758 C41.2939318,15.1274452 42.2468693,13.8510828 43.1593853,12.5741078 C43.4790392,12.1267841 44.2876248,10.9621092 44.3419771,10.8815367 C44.9596874,9.96583595 46.2027626,9.7242669 47.1184633,10.3419771 C48.0341641,10.9596874 48.2757331,12.2027626 47.6580229,13.1184633 C47.595207,13.2115822 46.7458159,14.4351642 46.4138478,14.8997204 C45.4645867,16.2281164 44.4723432,17.5571252 43.48284,18.8023742 C42.9633374,19.4561469 42.457049,20.0707499 41.967206,20.6397002 C41.1980324,21.5330916 40.4783466,22.3037901 39.8121887,22.9369581 C38.5042438,24.1801298 37.0067304,25.2228057 35.4388437,26.0326979 C36.7756387,26.5986874 38.1022638,27.2548578 39.2807128,27.9642231 C40.3870887,28.6302042 41.5186459,29.4259237 42.6629705,30.3245159 C43.8569222,31.2620781 45.0032634,32.2621214 46.0648639,33.2622065 C46.4368075,33.6125975 47.3743347,34.5433036 47.4459975,34.6183013 C48.2090886,35.4169037 48.180301,36.6829064 47.3816987,37.4459975 C46.5830963,38.2090886 45.3170936,38.180301 44.5540025,37.3816987 C44.5031629,37.3284932 43.6645735,36.4964063 43.3220503,36.1737308 C42.342317,35.250769 41.2842856,34.3277653 40.1925684,33.4704836 C39.1702277,32.6676805 38.1709317,31.9649682 37.2178224,31.3912456 C34.1022606,29.5158386 29.6386341,28.0402464 28.0629559,28.0008095 C28.0419479,28.0009209 26,28.0009766 26,28.0009766 L26,36 Z" id="Combined-Shape"></path>
                </g>
            </g>
        </g>
    </g>
</svg>