<?xml version="1.0" encoding="UTF-8"?>
<svg width="48px" height="48px" viewBox="0 0 48 48" version="1.1" xmlns="http://www.w3.org/2000/svg" xmlns:xlink="http://www.w3.org/1999/xlink">
    <!-- Generator: Sketch 49.3 (51167) - http://www.bohemiancoding.com/sketch -->
    <title>theicons.co/svg/social-10</title>
    <desc>Created with Sketch.</desc>
    <defs></defs>
    <g id="The-Icons" stroke="none" stroke-width="1" fill="none" fill-rule="evenodd">
        <g id="v-1.5" transform="translate(-960.000000, -3456.000000)" fill="#000000">
            <g id="Social" transform="translate(96.000000, 3456.000000)">
                <g id="Medium" transform="translate(864.000000, 0.000000)">
                    <path d="M29.5389356,7.84270054 C30.1790286,6.40386871 31.8483505,5.66063101 33.3394458,6.14961628 L38.1454437,7.72568076 L42.5865073,9.08793066 C43.4265301,9.34559888 44,10.1213469 44,11 L44,40 C44,41.3650971 42.66264,42.3290338 41.3675858,41.8973804 L20.3576371,34.8945728 C19.9572914,34.7611339 19.6094126,34.5044811 19.3637787,34.161339 L18.0466655,32.3213775 L18.0544933,39.2628065 C18.0566482,41.17368 16.3015583,42.4581732 14.4867097,41.8612009 L6.34056209,39.1816253 C4.99530983,38.739121 4.02182553,37.3843927 4.02074502,35.9664519 L4.00000089,8.74430807 C3.99854622,6.83537321 5.75116375,5.55030773 7.5654301,6.14527277 L15.7028866,8.81384574 C16.375878,9.0345445 16.9557568,9.48365404 17.3675603,10.054869 L23.8648433,20.5971963 L29.5389356,7.84270054 Z M30.5408175,31.4367273 L39.0640134,12.2336637 L32.8733555,10.1884236 L26.406743,24.7243842 L30.5408175,31.4367273 Z M40,37.2390113 L40,19.9990405 L33.3286952,35.0173428 L40,37.2390113 Z M22.2562291,31.3300057 L26.685833,32.8051462 L18.0313647,18.753208 L18.0389038,25.4385481 L22.2562291,31.3300057 Z M8.00136438,10.5320698 L8.00432724,35.5197473 L14,37.5164332 L14,12.4763217 L8.00136438,10.5320698 Z" id="Combined-Shape"></path>
                </g>
            </g>
        </g>
    </g>
</svg>