<?xml version="1.0" encoding="UTF-8"?>
<svg width="48px" height="48px" viewBox="0 0 48 48" version="1.1" xmlns="http://www.w3.org/2000/svg" xmlns:xlink="http://www.w3.org/1999/xlink">
    <!-- Generator: Sketch 49.3 (51167) - http://www.bohemiancoding.com/sketch -->
    <title>theicons.co/svg/social-35</title>
    <desc>Created with Sketch.</desc>
    <defs></defs>
    <g id="The-Icons" stroke="none" stroke-width="1" fill="none" fill-rule="evenodd">
        <g id="v-1.5" transform="translate(-1728.000000, -3456.000000)" fill="#000000" fill-rule="nonzero">
            <g id="Social" transform="translate(96.000000, 3456.000000)">
                <g id="Ok" transform="translate(1632.000000, 0.000000)">
                    <path d="M24,22 C27.3137085,22 30,19.3137085 30,16 C30,12.6862915 27.3137085,10 24,10 C20.6862915,10 18,12.6862915 18,16 C18,19.3137085 20.6862915,22 24,22 Z M35.8438907,29.5547137 C36.675402,28.8276218 36.7600506,27.5641242 36.0329587,26.7326129 C35.3058667,25.9011016 34.0423691,25.8164529 33.2108578,26.5435449 C30.6766914,28.7594762 27.4371544,30 24,30 C20.5643508,30 17.3261316,28.7605694 14.7924044,26.5463965 C13.9606695,25.8195603 12.697198,25.9045974 11.9703618,26.7363323 C11.2435255,27.5680671 11.3285627,28.8315386 12.1602975,29.5583749 C14.5418245,31.639543 17.4129044,33.0525461 20.5102106,33.6613623 L14.5857864,39.5857864 C13.8047379,40.366835 13.8047379,41.633165 14.5857864,42.4142136 C15.366835,43.1952621 16.633165,43.1952621 17.4142136,42.4142136 L24,35.8284271 L30.5857864,42.4142136 C31.366835,43.1952621 32.633165,43.1952621 33.4142136,42.4142136 C34.1952621,41.633165 34.1952621,40.366835 33.4142136,39.5857864 L27.489789,33.6613619 C30.5889384,33.052183 33.4615733,31.637865 35.8438907,29.5547137 Z M24,26 C18.4771525,26 14,21.5228475 14,16 C14,10.4771525 18.4771525,6 24,6 C29.5228475,6 34,10.4771525 34,16 C34,21.5228475 29.5228475,26 24,26 Z" id="Combined-Shape"></path>
                </g>
            </g>
        </g>
    </g>
</svg>