<?xml version="1.0" encoding="UTF-8"?>
<svg width="48px" height="48px" viewBox="0 0 48 48" version="1.1" xmlns="http://www.w3.org/2000/svg" xmlns:xlink="http://www.w3.org/1999/xlink">
    <!-- Generator: Sketch 49.3 (51167) - http://www.bohemiancoding.com/sketch -->
    <title>theicons.co/svg/social-17</title>
    <desc>Created with Sketch.</desc>
    <defs></defs>
    <g id="The-Icons" stroke="none" stroke-width="1" fill="none" fill-rule="evenodd">
        <g id="v-1.5" transform="translate(-96.000000, -3552.000000)" fill="#000000">
            <g id="Social" transform="translate(96.000000, 3456.000000)">
                <g id="Windows" transform="translate(0.000000, 96.000000)">
                    <path d="M19,22 L19,11.862067 L8,13.7154541 L7.98629844,22 L19,22 Z M7.96600018,34.2731964 L19,36.1471856 L19,26 L7.97968297,26 L7.96600018,34.2731964 Z M40.0883626,8.30889422 L23,11.188108 L23,22 L40.051191,22 L40.0883626,8.30889422 Z M40.0403309,26 L23,26 L23,36.8265364 L40.0030963,39.7143032 L40.0403309,26 Z M4,35.0034652 L4,12.9965348 C4,11.4555458 5.17407471,10.101514 6.69208863,9.87381186 L40.7145496,4.17044272 C42.4746176,3.90643252 44,5.23128597 44,7.00877516 L44,40.9912248 C44,42.7664139 42.4679374,44.0925654 40.7145496,43.8295573 L6.69208863,38.1261881 C5.16756252,37.8975092 4,36.5508228 4,35.0034652 Z" id="Combined-Shape"></path>
                </g>
            </g>
        </g>
    </g>
</svg>