<?xml version="1.0" encoding="UTF-8"?>
<svg width="48px" height="48px" viewBox="0 0 48 48" version="1.1" xmlns="http://www.w3.org/2000/svg" xmlns:xlink="http://www.w3.org/1999/xlink">
    <!-- Generator: Sketch 49.3 (51167) - http://www.bohemiancoding.com/sketch -->
    <title>theicons.co/svg/social-13</title>
    <desc>Created with Sketch.</desc>
    <defs></defs>
    <g id="The-Icons" stroke="none" stroke-width="1" fill="none" fill-rule="evenodd">
        <g id="v-1.5" transform="translate(-1248.000000, -3456.000000)" fill="#000000" fill-rule="nonzero">
            <g id="Social" transform="translate(96.000000, 3456.000000)">
                <g id="Snapchat" transform="translate(1152.000000, 0.000000)">
                    <path d="M37.3349609,27.4415283 C37.897569,28.3952932 38.5285329,29.0553414 39.3224996,29.7876746 C40.0967455,30.5018179 40.9324675,31.1107995 41.7662975,31.6107364 C42.2560182,31.9043567 42.622163,32.0901154 42.8002171,32.1681323 C44.2915091,32.8215627 44.4902482,34.7232515 42.8520128,35.8667297 C42.2111816,36.3140259 41.357563,37.298112 41.3127307,37.3453887 C40.828472,37.8592349 40.4544229,38.4097587 40.1797574,38.9545959 C40.0869472,39.1386976 40.0141745,39.3053422 39.9234223,39.5481301 C39.6622427,40.4646254 38.7906882,41.0695387 37.8407308,40.9936482 C37.81961,40.9919609 37.7583148,40.9881224 37.6608427,40.9838604 C36.1577346,40.9181368 34.3242998,41.0622848 32.6228626,41.5763854 C32.3289374,41.6651969 32.046108,41.7636913 31.7755358,41.8719887 C27.9081697,43.4199158 26,44 24,44 C22.0116674,44.0302824 20.5549425,43.5817255 16.2453382,41.856791 C15.9659375,41.7449599 15.6731951,41.6437599 15.3684166,41.5530582 C13.6863304,41.0524715 11.8704981,40.9152299 10.3689918,40.9850283 C10.2619579,40.9900039 10.194087,40.9945119 10.1699629,40.9965516 C9.2061944,41.0780378 8.32221389,40.4581744 8.03699602,39.4294438 C7.98606395,39.2893134 7.91729688,39.1260521 7.82912206,38.9455804 C7.56805046,38.4112326 7.20968315,37.8713155 6.74295167,37.3675539 C6.70180844,37.3231464 5.44122314,35.963623 5.05113201,35.7605822 C3.63786878,35.0249843 3.67014802,32.8414654 5.19314386,32.1699773 C5.37227037,32.0910005 5.7402057,31.9032896 6.23221289,31.606836 C7.06987703,31.1021105 7.90945234,30.4876666 8.68735191,29.7674729 C9.52257125,28.9942114 10.326043,28.055566 10.9071655,27.0437622 C11.4105192,26.1673634 11.7568601,25.2620489 11.9104141,24.6210437 C11.5436865,24.2272429 11.1140982,23.8318153 10.628323,23.4625153 C9.68363271,22.744335 8.64443382,22.2147389 7.52784291,21.943468 C6.4544952,21.6827028 5.79576689,20.6011906 6.05653205,19.5278429 C6.31729721,18.4544952 7.39880938,17.7957669 8.47215709,18.056532 C9.74153901,18.3649229 10.9179846,18.87992 12,19.5539613 L12,16.0004544 C12,9.37242489 17.3717302,4 24,4 C30.6304771,4 36,9.36618397 36,16.0004544 L36,19.5539613 C37.0820154,18.87992 38.258461,18.3649229 39.5278429,18.056532 C40.6011906,17.7957669 41.6827028,18.4544952 41.943468,19.5278429 C42.2042331,20.6011906 41.5455048,21.6827028 40.4721571,21.943468 C39.3555662,22.2147389 38.3163673,22.744335 37.371677,23.4625153 C36.8980252,23.8225988 36.4777908,24.207522 36.1171603,24.5915571 C36.3213376,25.387668 36.7745748,26.4915301 37.3349609,27.4415283 Z M32.0023084,23.8989483 L32,16.0004544 C32,11.5758801 28.4218949,8 24,8 C19.580985,8 16,11.5814481 16,16.0004544 L16,23.9733481 C15.9995801,24.1084312 15.9939665,24.1917288 15.983168,24.2744349 C15.5477305,27.6094959 13.8774866,30.4134272 11.4048141,32.7026729 C10.7471172,33.3115809 9.36466595,34.3409705 9.36466595,34.3409705 C9.36466595,34.3409705 9.61131709,34.5779541 9.67716502,34.6490264 C10.3651457,35.3915909 10.9058427,36.1828319 11.318894,36.9799805 C12.1016235,36.9090576 14.3249247,37.0691436 16.5093594,37.7192287 C16.9284366,37.8439455 17.3362738,37.9849332 17.7317126,38.143209 C21.5398309,39.6674219 22.4587306,40.0152543 24.0359144,40.0152543 C25.6130981,40.0152543 26.8197127,39.547066 30.2891614,38.1584068 C30.6703477,38.0058356 31.0629368,37.8691178 31.4658972,37.7473606 C33.2584832,37.2057188 35.0802191,36.987433 36.7271479,36.9695827 C37.050354,36.2539062 37.5764771,35.4710693 38.6533817,34.3424253 C38.6533817,34.3424253 37.5998402,33.640463 36.6104973,32.72792 C34.1844407,30.4901916 32.5346788,27.7573865 32.0679146,24.5169821 C32.014275,24.3160649 31.9919616,24.1073853 32.0023084,23.8989483 Z" id="Combined-Shape"></path>
                </g>
            </g>
        </g>
    </g>
</svg>