<?xml version="1.0" encoding="UTF-8"?>
<svg width="48px" height="48px" viewBox="0 0 48 48" version="1.1" xmlns="http://www.w3.org/2000/svg" xmlns:xlink="http://www.w3.org/1999/xlink">
    <!-- Generator: Sketch 49.3 (51167) - http://www.bohemiancoding.com/sketch -->
    <title>theicons.co/svg/social-21</title>
    <desc>Created with Sketch.</desc>
    <defs></defs>
    <g id="The-Icons" stroke="none" stroke-width="1" fill="none" fill-rule="evenodd">
        <g id="v-1.5" transform="translate(-480.000000, -3552.000000)" fill="#000000" fill-rule="nonzero">
            <g id="Social" transform="translate(96.000000, 3456.000000)">
                <g id="Vimeo" transform="translate(384.000000, 96.000000)">
                    <path d="M9.64746094,18.214445 C11.1516113,17.1518555 12.4313851,18.1180794 12.7434082,18.9364014 L21.1312384,40.7125519 C21.6957765,42.1931276 23.6758431,42.4604966 24.6128484,41.1826749 C24.6442748,41.1398177 24.6442748,41.1398177 24.7919351,40.9381891 C24.9938409,40.6623247 25.1063553,40.5084963 25.2964963,40.2482871 C25.8395802,39.505073 26.4446588,38.6752398 27.096254,37.7793765 C28.95815,35.2194985 30.8201367,32.6428903 32.5586163,30.2139345 C32.7085119,30.0044625 32.7085119,30.0044625 32.8583554,29.794891 C35.7049857,25.8127477 37.9006198,22.6709324 39.2185153,20.6688913 C44.1810412,13.1302203 38.1640382,4.70526781 30.0243246,9.25413131 C29.0601079,9.79298196 28.7152807,11.0114588 29.2541313,11.9756754 C29.792982,12.9398921 30.9354518,13.1286242 31.9756754,12.7458687 C34.0688477,11.9756754 38.1625977,14.8626709 34.9641113,19.6643066 C33.6718211,21.6043203 32.4224226,23.5264449 29.6042883,27.4687252 C29.4551351,27.6773313 29.4551351,27.6773313 29.3059079,27.8858693 C27.5740229,30.3056112 23.5571697,35.8476249 23.5571697,35.8476249 L16.1186986,16.3392509 C14.8537891,13.0218586 11.2507603,11.9983946 8.43232625,14.1523882 L6.78555503,15.4109363 C5.90793939,16.0816557 5.74021687,17.3368293 6.41093631,18.214445 C7.08165575,19.0920606 8.33682933,19.2597831 9.21444497,18.5890637 L9.64746094,18.214445 Z" id="Path-7"></path>
                </g>
            </g>
        </g>
    </g>
</svg>