<?xml version="1.0" encoding="UTF-8"?>
<svg width="48px" height="48px" viewBox="0 0 48 48" version="1.1" xmlns="http://www.w3.org/2000/svg" xmlns:xlink="http://www.w3.org/1999/xlink">
    <!-- Generator: Sketch 49.3 (51167) - http://www.bohemiancoding.com/sketch -->
    <title>theicons.co/svg/social-27</title>
    <desc>Created with Sketch.</desc>
    <defs></defs>
    <g id="The-Icons" stroke="none" stroke-width="1" fill="none" fill-rule="evenodd">
        <g id="v-1.5" transform="translate(-1056.000000, -3552.000000)" fill="#000000">
            <g id="Social" transform="translate(96.000000, 3456.000000)">
                <g id="Foursquare" transform="translate(960.000000, 96.000000)">
                    <path d="M34.6307663,16 L35.8401593,9.60481199 C36.0173906,8.66762522 35.4998524,8.04257646 34.5413136,8.04083993 L15.9996577,8.00724921 C14.8879069,8.00523512 14,8.89003499 14,9.99017859 L14,37.1936035 L22.5857864,28.5857864 C22.9608592,28.2107137 23.469567,28 24,28 L30.0158379,28 C31.2662994,28 32.5647323,26.9250469 32.7963973,25.7000181 L33.8743269,20 L24.0058587,20 C22.8980535,20 22,19.1122704 22,18 C22,16.8954305 22.8970601,16 24.0058587,16 L34.6307663,16 Z M10,42 L10,9.99017859 C10,6.67654643 12.6847038,4.00123715 16.0069042,4.00725577 L34.5485601,4.0408465 C38.0101931,4.04711772 40.4132303,6.94934913 39.7704972,10.3480776 L36.7267352,26.4432837 C36.1376998,29.558063 33.1880907,32 30.0158379,32 L24.8181152,32 L13.4142136,43.4142136 C12.1542838,44.6741433 10,43.7818097 10,42 Z" id="Combined-Shape"></path>
                </g>
            </g>
        </g>
    </g>
</svg>