<?xml version="1.0" encoding="UTF-8"?>
<svg width="48px" height="48px" viewBox="0 0 48 48" version="1.1" xmlns="http://www.w3.org/2000/svg" xmlns:xlink="http://www.w3.org/1999/xlink">
    <!-- Generator: Sketch 49.3 (51167) - http://www.bohemiancoding.com/sketch -->
    <title>theicons.co/svg/social-02</title>
    <desc>Created with Sketch.</desc>
    <defs></defs>
    <g id="The-Icons" stroke="none" stroke-width="1" fill="none" fill-rule="evenodd">
        <g id="v-1.5" transform="translate(-192.000000, -3456.000000)" fill="#000000">
            <g id="Social" transform="translate(96.000000, 3456.000000)">
                <g id="Android" transform="translate(96.000000, 0.000000)">
                    <path d="M24,4 C25.5588752,4 27.0582427,4.25489308 28.4587322,4.72520838 C28.5010487,4.67417093 28.5462897,4.62475098 28.5944537,4.577172 L30.5944537,2.601464 C31.3802599,1.82520219 32.6465662,1.83293946 33.422828,2.61874566 C34.1990898,3.40455186 34.1913525,4.67085818 33.4055463,5.44711999 L32.1918275,6.64609699 C35.7104124,9.18921261 38,13.3268946 38,17.9958407 L38,36.0098214 C38,38.2135362 36.2058797,40 34.0031611,40 L32,40 L32,44.000385 C32,45.1047419 31.1122704,46 30,46 C28.8954305,46 28,45.1125667 28,44.000385 L28,40 L20,40 L20,44.000385 C20,45.1047419 19.1122704,46 18,46 C16.8954305,46 16,45.1125667 16,44.000385 L16,40 L13.9968389,40 C11.7894457,40 10,38.2147544 10,36.0098214 L10,17.9958407 C10,13.3242797 12.2888224,9.18728785 15.8071029,6.64504039 L14.5944537,5.44711999 C13.8086475,4.67085818 13.8009102,3.40455186 14.577172,2.61874566 C15.3534338,1.83293946 16.6197401,1.82520219 17.4055463,2.601464 L19.4055463,4.577172 C19.4535467,4.62458933 19.4986438,4.67383515 19.5408364,4.72468826 C20.9413699,4.25468015 22.4408652,4 24,4 Z M34.0031611,36 L34.0000865,20 L14,20 L14,36.0098214 L34.0031611,36 Z M31,14 C29.8954305,14 29,13.1045695 29,12 C29,11.1759655 29.4983524,10.4683275 30.2101092,10.1620339 C28.5041024,8.80863927 26.3461865,8 24,8 C21.6524041,8 19.4941308,8.80816179 17.788241,10.1613248 C18.5008774,10.4672343 19,11.175329 19,12 C19,13.1045695 18.1045695,14 17,14 C16.2841019,14 15.6560558,13.6238611 15.3027072,13.0584291 C14.7891276,13.9605659 14.4119766,14.9504369 14.1992857,16 L33.8004011,16 C33.587536,14.9510698 33.2102144,13.9615883 32.6965198,13.0596651 C32.3430288,13.6244092 31.7153763,14 31,14 Z M40,17.9940603 C40,16.8927712 40.8877296,16 42,16 C43.1045695,16 44,16.8945138 44,17.9940603 L44,30.0059397 C44,31.1072288 43.1122704,32 42,32 C40.8954305,32 40,31.1054862 40,30.0059397 L40,17.9940603 Z M4,17.9940603 C4,16.8927712 4.88772964,16 6,16 C7.1045695,16 8,16.8945138 8,17.9940603 L8,30.0059397 C8,31.1072288 7.11227036,32 6,32 C4.8954305,32 4,31.1054862 4,30.0059397 L4,17.9940603 Z" id="Combined-Shape"></path>
                </g>
            </g>
        </g>
    </g>
</svg>