<?xml version="1.0" encoding="UTF-8"?>
<svg width="48px" height="48px" viewBox="0 0 48 48" version="1.1" xmlns="http://www.w3.org/2000/svg" xmlns:xlink="http://www.w3.org/1999/xlink">
    <!-- Generator: Sketch 49.3 (51167) - http://www.bohemiancoding.com/sketch -->
    <title>theicons.co/svg/social-28</title>
    <desc>Created with Sketch.</desc>
    <defs></defs>
    <g id="The-Icons" stroke="none" stroke-width="1" fill="none" fill-rule="evenodd">
        <g id="v-1.5" transform="translate(-1152.000000, -3552.000000)" fill="#000000">
            <g id="Social" transform="translate(96.000000, 3456.000000)">
                <g id="Swarm" transform="translate(1056.000000, 96.000000)">
                    <path d="M25.0222543,31.2050882 C25.6004101,32.5398982 27.4061279,35.9433594 30.3421612,37.9528881 C31.9174634,37.8287042 33.4648965,37.4730408 34.9457267,36.8629332 C35.2842233,36.7234713 35.6095272,36.5589071 35.9203902,36.3719431 C33.658402,34.7086182 31.3630666,31.774943 30.5705455,30.2419702 C29.974796,29.0896124 29.5568748,27.784109 29.2875572,26.3543388 C28.9744975,24.6923482 28.8748721,22.9781248 28.9211041,21.3234753 C28.737261,21.3757451 25.3540039,22.1555176 23.965674,23.9880514 C23.708881,26.1833028 23.9453644,28.7188324 25.0222543,31.2050882 Z M19.915566,28.8001959 C18.5473389,31.1842192 17.739226,33.9522402 18.0032496,34.2761966 C18.2672732,34.600153 21.7440601,36.5558381 23.2929101,37.0584764 C23.5659852,37.1470957 23.8399473,37.2297626 24.114594,37.3063569 C22.9817154,35.8896023 22.0401899,34.3842946 21.3517692,32.7949118 C20.7264352,31.35118 20.3214033,29.9056769 20.0952112,28.4938555 C20.0344491,28.5952739 19.9745662,28.6973929 19.915566,28.8001959 Z M33.2184292,25.6139029 C33.420303,26.6856231 33.7217935,27.6274202 34.1237904,28.4050025 C34.7029946,29.5253565 35.5617801,30.6266519 36.6292132,31.6764727 C37.0452344,32.0856297 37.9678645,32.8150185 38.7673285,33.4234109 C40.0025155,31.2800436 40.3668193,28.5851254 39.478305,26.1656755 C38.5010524,23.5045886 35.8600291,21.6406834 32.9303813,21.1329348 C32.8711383,22.6199033 32.9463278,24.1693543 33.2184292,25.6139029 Z M43.2653061,24.7995853 C45.5187545,30.9357902 42.3992785,38.1175915 36.4926868,40.5511298 C31.8540827,42.4622524 26.7968448,42.398434 22.0388403,40.8543496 C18.1628589,39.5965024 14.8201921,37.4252555 14.1835748,35.5498007 C13.5728944,33.7507554 14.5288098,30.1076732 16.4125619,26.8253896 C18.7810997,22.6984068 22.3552367,19.4202664 26.9955256,17.7463684 C33.3581323,15.4511763 40.9998573,18.630703 43.2653061,24.7995853 Z M23.8991346,15.0845477 C24.1224829,15.5840909 23.9648248,16.2905238 23.5379375,16.6245976 C23.5379375,16.6245976 20.3383593,20 11.753317,20 C3.16827473,20 0.589420607,12.8442103 2.69601697,8.86480478 C4.80261333,4.88539929 10.9657257,3.49282744 16.6234133,7.02303987 C22.281101,10.5532523 23.8991346,15.0845477 23.8991346,15.0845477 Z M26.4627806,14.2415285 C26.4627806,14.2415285 25.5712259,12.1875387 26.3070837,8.64160156 C27.0429414,5.09566438 30.0900426,3.78198242 32.347611,4.19946289 C34.6051794,4.61694336 36.4384313,8.19970703 33.658402,11.8537598 C30.8783727,15.5078125 27.7446291,15.1521917 27.7446291,15.1521917 C27.1979801,15.1881785 26.6212477,14.7618168 26.4627806,14.2415285 Z" id="Combined-Shape"></path>
                </g>
            </g>
        </g>
    </g>
</svg>