<?xml version="1.0" encoding="UTF-8"?>
<svg width="48px" height="48px" viewBox="0 0 48 48" version="1.1" xmlns="http://www.w3.org/2000/svg" xmlns:xlink="http://www.w3.org/1999/xlink">
    <!-- Generator: Sketch 49.3 (51167) - http://www.bohemiancoding.com/sketch -->
    <title>theicons.co/svg/space-02</title>
    <desc>Created with Sketch.</desc>
    <defs></defs>
    <g id="The-Icons" stroke="none" stroke-width="1" fill="none" fill-rule="evenodd">
        <g id="v-1.5" transform="translate(-192.000000, -1632.000000)" fill="#000000">
            <g id="Space" transform="translate(96.000000, 1632.000000)">
                <g id="Planet-2" transform="translate(96.000000, 0.000000)">
                    <path d="M8,24 C8,22.6029045 8.17906389,21.2476315 8.51549326,19.9558796 C8.34801223,19.9848835 8.17577144,20 8,20 C6.34314575,20 5,18.6568542 5,17 C5,15.3431458 6.34314575,14 8,14 C9.05773617,14 9.98761891,14.5474056 10.521806,15.3743746 C13.3661449,10.9390904 18.3398418,8 24,8 C27.1131504,8 30.0186378,8.88911105 32.4763856,10.4272566 C38.3557735,8.68743833 42.6092925,8.85591764 44.4727709,12.0835569 C46.2970723,15.2433396 44.2234981,19.2718904 39.9869374,23.3475016 C39.9956181,23.5639223 40,23.7814494 40,24 C40,25.392915 39.8220061,26.7442573 39.4875226,28.0325227 C39.6553202,28.011063 39.8263681,28 40,28 C42.209139,28 44,29.790861 44,32 C44,34.209139 42.209139,36 40,36 C38.5061179,36 37.2035079,35.1810669 36.5166121,33.9676427 C33.5850387,37.6440318 29.0676523,40 24,40 C20.9111361,40 18.0267077,39.1247072 15.5812166,37.6086232 C9.62192758,39.4445834 4.78710155,39.3459613 2.90355153,36.0835569 C0.977758497,32.7479856 3.18392664,28.8157085 8.00457755,24.3865349 C8.00153157,24.2580591 8,24.1292084 8,24 Z M6.36765315,34.0835569 C6.90417712,35.0128437 8.97011596,35.0398228 11.8288214,34.3861525 C10.5336223,32.8698025 9.51682779,31.1084881 8.85757597,29.1813473 C6.74114339,31.4921573 5.90332015,33.2793086 6.36765315,34.0835569 Z M41.0086693,14.0835569 C40.574674,13.3318551 38.8698162,13.1183108 36.1854434,13.6305711 C37.3943259,15.0497882 38.3596526,16.6828291 39.0167704,18.4650408 C40.7016198,16.5441844 41.5088821,14.949951 41.0086693,14.0835569 Z M28.1881612,31.8777856 C25.739445,33.2915526 23.2814085,34.5518124 20.9053097,35.5971607 C21.8926066,35.859943 22.9299472,36 24,36 C29.5838143,36 34.2768708,32.1862127 35.6164221,27.0213855 C33.3817099,28.694351 30.864233,30.3327548 28.1881612,31.8777856 Z M26.1881612,28.413684 C29.7775884,26.3413272 33.1421331,23.9246578 35.7685424,21.6426966 C34.6732508,16.1440614 29.8205741,12 24,12 C17.372583,12 12,17.372583 12,24 C12,27.6324488 13.6139629,30.8879364 16.1638952,33.0884693 C19.3103174,31.9612322 22.8415305,30.3458621 26.1881612,28.413684 Z M14,24 C14,18.4771525 18.4771525,14 24,14 C25.1045695,14 26,14.8954305 26,16 C26,17.1045695 25.1045695,18 24,18 C20.6862915,18 18,20.6862915 18,24 C18,25.1045695 17.1045695,26 16,26 C14.8954305,26 14,25.1045695 14,24 Z" id="Combined-Shape"></path>
                </g>
            </g>
        </g>
    </g>
</svg>