<?xml version="1.0" encoding="UTF-8"?>
<svg width="48px" height="48px" viewBox="0 0 48 48" version="1.1" xmlns="http://www.w3.org/2000/svg" xmlns:xlink="http://www.w3.org/1999/xlink">
    <!-- Generator: Sketch 49.3 (51167) - http://www.bohemiancoding.com/sketch -->
    <title>theicons.co/svg/space-06</title>
    <desc>Created with Sketch.</desc>
    <defs></defs>
    <g id="The-Icons" stroke="none" stroke-width="1" fill="none" fill-rule="evenodd">
        <g id="v-1.5" transform="translate(-672.000000, -1632.000000)" fill="#000000">
            <g id="Space" transform="translate(96.000000, 1632.000000)">
                <g id="Telescope" transform="translate(576.000000, 0.000000)">
                    <path d="M38.6610543,40.8326271 C39.4385511,41.6101239 39.4379028,42.8758057 38.6568542,43.6568542 C37.8703603,44.4433482 36.6113561,44.4397832 35.8326271,43.6610543 L27,34.822937 L18.1673729,43.6610543 C17.3886439,44.4397832 16.1296397,44.4433482 15.3431458,43.6568542 C14.5620972,42.8758057 14.5614489,41.6101239 15.3389457,40.8326271 L24,32.1891218 L24,29.2280202 L21.9313454,30.4223585 C20.9771089,30.9732872 19.7562905,30.6452315 19.2065172,29.6929963 L10.5381494,34.6908222 C9.58440506,35.2414667 8.36026734,34.9067404 7.80697742,33.9484142 L3.81550762,27.0349857 C3.26086732,26.0743205 3.58591416,24.8482906 4.53814938,24.2985174 L13.2035474,19.2955475 C12.649933,18.3366592 12.9765814,17.1171853 13.9313454,16.565952 L24.327903,10.5634967 L23.3303763,8.83572975 C22.7767256,7.87677859 23.0958132,6.6560419 24.0583096,6.1003444 L27.5256997,4.09844575 C28.4813769,3.5466853 29.7046194,3.87624257 30.2585795,4.83572975 L30.3710204,5.03048307 C31.3363438,4.70099118 32.3638177,4.48314233 33.4330783,4.42851401 C36.9103621,4.25086024 40.0290676,5.83089429 42.1714811,9.53588775 C44.3169279,13.2461266 44.1185399,16.7439719 42.2109898,19.6737005 C41.6314977,20.5637188 40.9340605,21.3386254 40.1719833,22.0062487 L40.253633,22.1476701 C40.8072837,23.1066213 40.488196,24.3273579 39.5256997,24.8830554 L36.0583096,26.8849541 C35.1026324,27.4367145 33.8793899,27.1071573 33.3254297,26.1476701 L32.327903,24.4199032 L30,25.7639186 L30,32.1891218 C30.0578605,32.235385 38.6610543,40.8326271 38.6610543,40.8326271 Z M38.8589033,17.4911525 C39.9684164,15.7870965 40.075356,13.9016065 38.7087298,11.5382247 C37.3411401,9.17317673 35.6573097,8.32009539 33.6371714,8.42330387 C33.2323632,8.44398544 32.8273655,8.50417279 32.429836,8.59645633 L38.112625,18.4393355 C38.3881701,18.1440504 38.6402011,17.8270482 38.8589033,17.4911525 Z M30.3334311,20.9653764 L26.327903,14.0275983 L17.7110983,19.0025129 L21.6869971,25.9893135 L30.3334311,20.9653764 Z M15.2041984,22.7607767 L8.27729726,26.763032 L10.2793613,30.2214314 L17.2035474,26.2237507 L15.2041984,22.7607767 Z" id="Rectangle-864"></path>
                </g>
            </g>
        </g>
    </g>
</svg>