<?xml version="1.0" encoding="UTF-8"?>
<svg width="48px" height="48px" viewBox="0 0 48 48" version="1.1" xmlns="http://www.w3.org/2000/svg" xmlns:xlink="http://www.w3.org/1999/xlink">
    <!-- Generator: Sketch 49.3 (51167) - http://www.bohemiancoding.com/sketch -->
    <title>theicons.co/svg/space-04</title>
    <desc>Created with Sketch.</desc>
    <defs></defs>
    <g id="The-Icons" stroke="none" stroke-width="1" fill="none" fill-rule="evenodd">
        <g id="v-1.5" transform="translate(-480.000000, -1632.000000)" fill="#000000" fill-rule="nonzero">
            <g id="Space" transform="translate(96.000000, 1632.000000)">
                <g id="Comet" transform="translate(384.000000, 0.000000)">
                    <path d="M17.6295301,26.5420427 C16.8520763,27.3194966 15.5941058,27.3220278 14.8076118,26.5355339 C14.0265633,25.7544853 14.0285303,24.4861883 14.801103,23.7136156 L27.5355291,10.9791895 C29.8786797,8.63603897 33.6776695,8.63603897 36.0208153,10.9791847 C38.363961,13.3223305 38.363961,17.1213203 36.0208153,19.4644661 L26.1171203,29.368161 C25.3383913,30.14689 24.0793871,30.1504549 23.2928932,29.363961 C22.5118446,28.5829124 22.5111964,27.3172307 23.2886932,26.5397339 L29.1911618,20.6372653 C28.5924822,20.3512725 28.0314073,19.9603395 27.5355339,19.4644661 C27.0396605,18.9685927 26.6487275,18.4075178 26.3627347,17.8088382 L17.6295301,26.5420427 Z M26.1184244,9.5678671 C29.244671,6.44162054 34.3104286,6.44037095 37.4350288,9.56497116 C40.5570599,12.6870022 40.5546824,17.7590261 37.4321329,20.8815756 L24.7071068,33.6066017 C23.9260582,34.3876503 23.9260582,35.6539803 24.7071068,36.4350288 C25.4881554,37.2160774 26.7544853,37.2160774 27.5355339,36.4350288 L40.26056,23.7100027 C44.9446134,19.0259494 44.948178,11.4212661 40.263456,6.73654403 C35.5764461,2.0495342 27.9780287,2.05140853 23.2899973,6.73943997 L4.90811691,25.1213203 C4.12706832,25.9023689 4.12706832,27.1686989 4.90811691,27.9497475 C5.68916549,28.7307961 6.95549545,28.7307961 7.73654403,27.9497475 L26.1184244,9.5678671 Z M22.8786797,38.263456 C23.6597282,39.0445046 23.6658971,40.3046656 22.8800222,41.0905405 L20.04891,43.9216528 C19.2686029,44.7019599 18.0083193,44.7068041 17.2218254,43.9203102 C16.4407768,43.1392616 16.4346079,41.8791006 17.2204829,41.0932256 L20.0515951,38.2621134 C20.8319022,37.4818063 22.0921857,37.4769621 22.8786797,38.263456 Z M19.2218254,30.7781746 C20.002874,31.5592232 20.0043117,32.8241155 19.2275642,33.600863 L11.4379121,41.3905151 C10.6600329,42.1683942 9.4017176,42.1712702 8.61522369,41.3847763 C7.83417511,40.6037277 7.83273744,39.3388354 8.60948494,38.5620879 L16.399137,30.7724358 C17.1770162,29.9945567 18.4353315,29.9916807 19.2218254,30.7781746 Z" id="Shape"></path>
                </g>
            </g>
        </g>
    </g>
</svg>