<?xml version="1.0" encoding="UTF-8"?>
<svg width="48px" height="48px" viewBox="0 0 48 48" version="1.1" xmlns="http://www.w3.org/2000/svg" xmlns:xlink="http://www.w3.org/1999/xlink">
    <!-- Generator: Sketch 49.3 (51167) - http://www.bohemiancoding.com/sketch -->
    <title>theicons.co/svg/sports-17</title>
    <desc>Created with Sketch.</desc>
    <defs></defs>
    <g id="The-Icons" stroke="none" stroke-width="1" fill="none" fill-rule="evenodd">
        <g id="v-1.5" transform="translate(-864.000000, -1440.000000)" fill="#000000">
            <g id="Sports" transform="translate(96.000000, 1344.000000)">
                <g id="Hockey" transform="translate(768.000000, 96.000000)">
                    <path d="M44,19 L44,21 C44,23.7614237 40.8659932,26 37,26 C33.1340068,26 30,23.7614237 30,21 L30,19 C30,16.2385763 33.1340068,14 37,14 C40.8659932,14 44,16.2385763 44,19 Z M25.4458189,36 C24.8955136,36 24.2295248,35.6009701 23.9657758,35.1223249 L9.07876703,8.10574385 C9.0668485,8.0841144 7.01701609,9.12954372 7.01701609,9.12954372 C7.04143711,9.11660964 23.8711073,39.1278461 23.8711073,39.1278461 C24.1368004,39.6016074 24.8063722,39.9861437 25.3559596,39.9867207 L29,39.990547 L29,36 L25.4458189,36 Z M36,39.9978969 L38.0029381,40 C39.1045365,40 40,39.104268 40,38 L40,36 L36,36 L36,39.9978969 Z M12.5821024,6.17529288 L26.8123502,32 L40.9986131,32 C42.6562333,32 44,33.3416228 44,34.997152 L44,38 C44,41.3137085 41.3133742,44 38.0029381,44 L23.9944265,43.9852934 C22.894678,43.9841388 21.5618434,43.1985692 21.0213498,42.2306786 L3.55519107,10.9530986 C2.48020946,9.02807187 3.18437611,6.63304064 5.14486686,5.59470888 L7.1181945,4.54957836 C9.0711298,3.51524819 11.5141375,4.23717603 12.5821024,6.17529288 Z M39.8609242,19.0000939 C39.8601398,18.5914447 38.3626709,18 37,18 C35.6373291,18 34.1381803,18.591649 34.1390759,18.9999618 C34.1399715,19.4082745 35.6629028,20 37,20 C38.3370972,20 39.8617087,19.408743 39.8609242,19.0000939 Z" id="Combined-Shape"></path>
                </g>
            </g>
        </g>
    </g>
</svg>