<?xml version="1.0" encoding="UTF-8"?>
<svg width="48px" height="48px" viewBox="0 0 48 48" version="1.1" xmlns="http://www.w3.org/2000/svg" xmlns:xlink="http://www.w3.org/1999/xlink">
    <!-- Generator: Sketch 49.3 (51167) - http://www.bohemiancoding.com/sketch -->
    <title>theicons.co/svg/sports-29</title>
    <desc>Created with Sketch.</desc>
    <defs></defs>
    <g id="The-Icons" stroke="none" stroke-width="1" fill="none" fill-rule="evenodd">
        <g id="v-1.5" transform="translate(-1344.000000, -1344.000000)">
            <g id="Others" transform="translate(96.000000, 1056.000000)"></g>
            <g id="Sports" transform="translate(96.000000, 1344.000000)" fill="#000000">
                <g id="Camping" transform="translate(1247.000000, 0.000000)">
                    <path d="M45.0770027,34.4528219 C45.3805492,33.3907799 46.4875774,32.7758977 47.5496195,33.0794442 C48.6116615,33.3829906 49.2265437,34.4900188 48.9229973,35.5520609 L46.9435447,42.4777284 C46.9147947,42.5927514 46.8759528,42.7047805 46.8278027,42.8124837 C46.7514849,42.9847551 46.6526748,43.1420207 46.5359539,43.2817357 C46.2185466,43.6643372 45.7579202,43.9332861 45.2125482,43.9892058 C45.1278693,43.9982832 45.042125,44.0019674 44.9557805,44 L5.04421952,44 C4.95787502,44.0019674 4.87213072,43.9982832 4.78745181,43.9892058 C4.2420798,43.9332861 3.7814534,43.6643372 3.46404609,43.2817357 C3.34732522,43.1420207 3.24851513,42.9847551 3.17219732,42.8124837 C3.12404715,42.7047805 3.08520527,42.5927514 3.05645529,42.4777284 L1.07700275,35.5520609 C0.773456293,34.4900188 1.38833847,33.3829906 2.45038052,33.0794442 C3.51242258,32.7758977 4.6194508,33.3907799 4.92299725,34.4528219 L5.59627137,36.8084595 L23.2516854,5.02871414 C24.0136959,3.65709529 25.9863041,3.65709529 26.7483146,5.02871414 L44.4037286,36.8084595 L45.0770027,34.4528219 Z M25.1352329,24.516122 C25.0893441,24.3443233 24.9106559,24.3443233 24.8647671,24.516122 C22.9939164,31.5202116 19.9974967,36.8961391 15.6922361,40 L34.3077639,40 C30.0025033,36.8961391 27.0060836,31.5202116 25.1352329,24.516122 Z M27.3759976,14.3950477 C27.7004085,17.5221895 28.2289986,20.5983492 28.9997474,23.483878 C31.2444139,31.8874587 35.0780043,37.2437651 40.8439143,38.6372978 L27.3759976,14.3950477 Z M21.0002526,23.483878 C21.7710014,20.5983492 22.2995915,17.5221895 22.6240024,14.3950477 L9.15608572,38.6372978 C14.9219957,37.2437651 18.7555861,31.8874587 21.0002526,23.483878 Z" id="Combined-Shape"></path>
                </g>
            </g>
        </g>
    </g>
</svg>