<?xml version="1.0" encoding="UTF-8"?>
<svg width="48px" height="48px" viewBox="0 0 48 48" version="1.1" xmlns="http://www.w3.org/2000/svg" xmlns:xlink="http://www.w3.org/1999/xlink">
    <!-- Generator: Sketch 49.3 (51167) - http://www.bohemiancoding.com/sketch -->
    <title>theicons.co/svg/sports-07</title>
    <desc>Created with Sketch.</desc>
    <defs></defs>
    <g id="The-Icons" stroke="none" stroke-width="1" fill="none" fill-rule="evenodd">
        <g id="v-1.5" transform="translate(-1536.000000, -1344.000000)">
            <g id="Others" transform="translate(96.000000, 1056.000000)"></g>
            <g id="Sports" transform="translate(96.000000, 1344.000000)" fill="#000000">
                <g id="Target" transform="translate(1440.000000, 0.000000)">
                    <path d="M28,24 C28,26.209139 26.209139,28 24,28 C21.790861,28 20,26.209139 20,24 C20,21.790861 21.790861,20 24,20 C24.3588636,20 24.7066895,20.0472579 25.0375939,20.1358899 L28.0720555,17.1014284 L26.8677582,11.0799423 C26.7366141,10.4242217 26.9418592,9.74634325 27.414706,9.27349644 L34.4857739,2.20242863 C35.6152997,1.07290278 37.5478747,1.6580394 37.8611488,3.22440992 L39.0138741,8.98803683 L44.7775011,10.1407622 C46.3438716,10.4540363 46.9290082,12.3866113 45.7994823,13.5161371 L38.7284145,20.5872049 C38.2555677,21.0600518 37.5776893,21.2652968 36.9219687,21.1341527 L30.9004826,19.9298555 L27.8649165,22.9654216 C27.9530287,23.2954234 28,23.6422264 28,24 Z M35.1349797,10.0385042 L34.6452872,7.69976953 L31.0093341,11.3357226 L31.4770839,13.6964 L35.1349797,10.0385042 Z M34.3085251,16.521813 L36.6711412,16.987624 L40.3429357,13.3158295 L37.9759756,12.8543625 L34.3085251,16.521813 Z M21.649502,12.2304945 C22.7328744,12.0151391 23.7857013,12.718806 24.0010567,13.8021784 C24.2164121,14.8855508 23.5127453,15.9383778 22.4293729,16.1537332 C18.7175417,16.89158 16,20.1665738 16,24 C16,28.418278 19.581722,32 24,32 C27.8090712,32 31.0694184,29.316429 31.8330738,25.6355789 C32.0574575,24.5540403 33.1161167,23.859179 34.1976553,24.0835627 C35.2791939,24.3079464 35.9740552,25.3666056 35.7496715,26.4481442 C34.6027396,31.9764029 29.7143562,36 24,36 C17.372583,36 12,30.627417 12,24 C12,18.2490586 16.0745451,13.338698 21.649502,12.2304945 Z M24,4 C25.1045695,4 26,4.8954305 26,6 C26,7.1045695 25.1045695,8 24,8 C15.163444,8 8,15.163444 8,24 C8,32.836556 15.163444,40 24,40 C32.836556,40 40,32.836556 40,24 C40,22.8954305 40.8954305,22 42,22 C43.1045695,22 44,22.8954305 44,24 C44,35.045695 35.045695,44 24,44 C12.954305,44 4,35.045695 4,24 C4,12.954305 12.954305,4 24,4 Z" id="Combined-Shape"></path>
                </g>
            </g>
        </g>
    </g>
</svg>