<?xml version="1.0" encoding="UTF-8"?>
<svg width="48px" height="48px" viewBox="0 0 48 48" version="1.1" xmlns="http://www.w3.org/2000/svg" xmlns:xlink="http://www.w3.org/1999/xlink">
    <!-- Generator: Sketch 49.3 (51167) - http://www.bohemiancoding.com/sketch -->
    <title>theicons.co/svg/sports-06</title>
    <desc>Created with Sketch.</desc>
    <defs></defs>
    <g id="The-Icons" stroke="none" stroke-width="1" fill="none" fill-rule="evenodd">
        <g id="v-1.5" transform="translate(-1440.000000, -1344.000000)">
            <g id="Others" transform="translate(96.000000, 1056.000000)"></g>
            <g id="Sports" transform="translate(96.000000, 1344.000000)" fill="#000000">
                <g id="Bow" transform="translate(1344.000000, 0.000000)">
                    <path d="M26.9314417,39.0194403 C30.682144,35.2580258 33.2418654,30.4483526 33.8524224,26 L21.0750014,26 L26.9314417,39.0194403 Z M16.8373738,26.3263749 L13.6471125,31.1094004 C13.2759975,31.6657977 12.6512258,32 11.9821886,32 L2.00435402,32 C0.406172926,32 -0.547081266,30.2197091 0.339430101,28.8905996 L3.57432994,24 L0.339430101,19.1094004 C-0.547081266,17.7802909 0.406172926,16 2.00435402,16 L11.9821886,16 C12.6512258,16 13.2759975,16.3342023 13.6471125,16.8905996 L16.8390699,21.676168 L23.7870968,6.28759772 C23.4936674,6.07622738 23.1957176,5.87161048 22.8934961,5.67420746 C21.9683993,5.06995914 21.7085427,3.83055088 22.3130899,2.90591163 C22.9176372,1.98127238 24.1576587,1.72154421 25.0827554,2.32579254 C32.0757703,6.89344193 37.0843985,14.7364677 37.8832055,22 L41.168429,22 L40.5821182,21.4142136 C39.8006832,20.633165 39.8006832,19.366835 40.5821182,18.5857864 C41.3635532,17.8047379 42.6305097,17.8047379 43.4119447,18.5857864 L47.4139237,22.5857864 C48.1953588,23.366835 48.1953588,24.633165 47.4139237,25.4142136 L43.4119447,29.4142136 C42.6305097,30.1952621 41.3635532,30.1952621 40.5821182,29.4142136 C39.8006832,28.633165 39.8006832,27.366835 40.5821182,26.5857864 L41.1681944,26 L37.8836303,26 C37.0882009,33.256252 32.1010459,41.0631023 25.0872539,45.6712606 C24.1637855,46.2779921 22.92307,46.0215963 22.3160383,45.0985846 C21.7090066,44.1755728 21.9655292,42.9354709 22.8889976,42.3287394 C23.1841909,42.1347934 23.4752355,41.9342015 23.7619099,41.7273755 L16.8373738,26.3263749 Z M21.0789661,22 L33.8518524,22 C33.2403076,17.5589834 30.6822372,12.7449591 26.9541926,8.99610383 L21.0789661,22 Z M7.04385591,26 L5.69580218,28 L10.8910729,28 L12.2329802,26 L7.04385591,26 Z M12.2372449,22 L10.8980808,20 L5.7535225,20 L7.06163965,22 L12.2372449,22 Z" id="Combined-Shape"></path>
                </g>
            </g>
        </g>
    </g>
</svg>