<?xml version="1.0" encoding="UTF-8"?>
<svg width="48px" height="48px" viewBox="0 0 48 48" version="1.1" xmlns="http://www.w3.org/2000/svg" xmlns:xlink="http://www.w3.org/1999/xlink">
    <!-- Generator: Sketch 49.3 (51167) - http://www.bohemiancoding.com/sketch -->
    <title>theicons.co/svg/sports-04</title>
    <desc>Created with Sketch.</desc>
    <defs></defs>
    <g id="The-Icons" stroke="none" stroke-width="1" fill="none" fill-rule="evenodd">
        <g id="v-1.5" transform="translate(-1152.000000, -1344.000000)">
            <g id="Others" transform="translate(96.000000, 1056.000000)"></g>
            <g id="Sports" transform="translate(96.000000, 1344.000000)" fill="#000000">
                <g id="Knife" transform="translate(1056.000000, 0.000000)">
                    <path d="M23.2561139,22.8273682 L19.0105322,18.5817864 C15.5915886,15.1628429 15.1669802,9.8852905 17.7378784,6.00227035 C18.0357775,6.30016934 25.0972568,13.3585384 29.6694806,17.9287345 C28.9786921,18.1128944 28.3078028,18.390991 27.6771527,18.7631256 L26.0831985,17.1691714 C25.2973236,16.3832964 24.0371625,16.3894653 23.2561139,17.1705139 C22.46962,17.9570078 22.4744643,19.2172914 23.2547714,19.9975985 L24.6703275,21.4131546 L23.2561139,22.8273682 Z M34.5709114,28.4831334 L20.4265978,42.627447 C18.8679091,44.1861358 16.3293811,44.1849065 14.7708326,42.626358 C13.2097798,41.0653053 13.2099629,38.5303734 14.7697436,36.9705928 L28.9140572,22.8262792 C29.9580405,21.7822958 31.4415889,21.4381063 32.7758337,21.7929298 L30.3269095,24.241854 C29.5404783,25.0282852 29.5461332,26.2889603 30.3271817,27.0700089 C31.1136757,27.8565028 32.3744384,27.8511793 33.1553366,27.0702811 L35.6051447,24.620473 C35.9609936,25.9549401 35.6160849,27.43796 34.5709114,28.4831334 Z M11.9413164,34.1421657 C8.82048323,37.2629989 8.81821109,42.3305908 11.9424054,45.4547852 C15.0602427,48.5726224 20.131432,48.5794671 23.2550249,45.4558742 L37.3993385,31.3115606 C40.5201717,28.1907274 40.5224439,23.1231354 37.3982496,19.998941 L19.0077816,1.60847305 C18.2298764,0.830567896 16.9668451,0.832365763 16.1855768,1.61363401 C10.7155245,7.08368634 10.7163893,15.9444978 16.1821051,21.4102136 L20.4276868,25.6557953 L11.9413164,34.1421657 Z M19.0134732,38.3837174 C18.2324247,37.6026688 16.9660947,37.6026688 16.1850461,38.3837174 C15.4039975,39.1647659 15.4039975,40.4310959 16.1850461,41.2121445 C16.9660947,41.9931931 18.2324247,41.9931931 19.0134732,41.2121445 C19.7945218,40.4310959 19.7945218,39.1647659 19.0134732,38.3837174 Z" id="Combined-Shape"></path>
                </g>
            </g>
        </g>
    </g>
</svg>