<?xml version="1.0" encoding="UTF-8"?>
<svg width="48px" height="48px" viewBox="0 0 48 48" version="1.1" xmlns="http://www.w3.org/2000/svg" xmlns:xlink="http://www.w3.org/1999/xlink">
    <!-- Generator: Sketch 49.3 (51167) - http://www.bohemiancoding.com/sketch -->
    <title>theicons.co/svg/sports-30</title>
    <desc>Created with Sketch.</desc>
    <defs></defs>
    <g id="The-Icons" stroke="none" stroke-width="1" fill="none" fill-rule="evenodd">
        <g id="v-1.5" transform="translate(-1248.000000, -1440.000000)" fill="#000000">
            <g id="Sports" transform="translate(96.000000, 1344.000000)">
                <g id="Volleyball" transform="translate(1152.000000, 96.000000)">
                    <path d="M22.7253499,17.2025458 C21.9188873,17.3431637 21.0132296,17.5391216 20.0328606,17.7990971 C15.6910693,18.9504589 11.5024968,20.8826587 8.00167047,23.7664078 C8.00055808,23.844139 8,23.9220043 8,24 C8,25.8723782 8.32161994,27.6696381 8.91262858,29.3395483 C12.6948596,25.3650436 16.9354074,23.1674069 21.1462644,22.3175264 C21.7360844,22.1984826 22.2647304,22.118255 22.7237275,22.0678499 C22.8481928,21.7742208 22.9719896,21.4493435 23.0913769,21.0943709 C23.5173827,19.8277334 23.807319,18.4718792 23.9305252,17.0328998 C23.5182733,17.0852698 23.0011634,17.154454 22.7253499,17.2025458 Z M22.6468173,8.05641494 C16.4941915,8.5716604 11.3314519,12.5683404 9.13478455,18.0702691 C12.2173266,16.1938601 15.5723928,14.8436767 19.0075728,13.9327313 C20.7293755,13.4761414 22.8215013,13.1389648 23.843565,13.0127867 C23.6475369,11.4359081 23.2587496,9.78177186 22.6468173,8.05641494 Z M21.93763,26.2384626 C20.6451293,26.499329 19.3436436,26.9183462 18.0529664,27.5180945 C18.2697588,27.844311 18.5610367,28.2750249 18.7502241,28.5013638 C19.2752341,29.129472 19.8977674,29.8158156 20.6130973,30.5348523 C23.7823502,33.7205282 27.5516922,36.3826812 31.8015584,37.9723929 C33.4604488,37.0441559 34.9370719,35.829051 36.1642662,34.3942398 C30.8327544,33.1057219 26.8103356,30.5325118 23.96947,27.3114016 C23.571465,26.8601245 23.2376628,26.4424174 22.9645122,26.0701168 C22.6479893,26.1091412 22.3047389,26.1643687 21.93763,26.2384626 Z M24,40 C24.7794884,40 25.5459577,39.944259 26.2956394,39.8365455 C23.1298864,38.1052935 20.2835091,35.8750861 17.7773702,33.3559605 C16.4722377,32.0440649 15.2022757,30.3592708 14.6297664,29.5773402 C13.338536,30.5452387 12.0774641,31.7256624 10.8680825,33.1431744 C13.7594118,37.288102 18.563007,40 24,40 Z M40,24 C40,20.2600888 38.7168472,16.8198741 36.5667716,14.0955857 C36.6499673,17.7017572 36.1417656,21.2807987 35.2134814,24.7097326 C34.7313575,26.4906213 34.0006885,28.4732739 33.6181337,29.3687466 C35.0761814,29.9827402 36.6959044,30.4695689 38.4871148,30.800348 C39.4575713,28.7365237 40,26.4316073 40,24 Z M26.9694175,24.6655909 C27.8574676,25.6725048 28.8921717,26.6055043 30.0837255,27.4345758 C30.2289927,27.0674689 30.4205479,26.5739314 30.5228504,26.2945148 C30.804303,25.5257887 31.0874273,24.6434872 31.3524664,23.664475 C32.5265663,19.3275375 32.9474299,14.732735 32.1996216,10.2579279 C30.5992544,9.30096341 28.8177464,8.61562871 26.918776,8.26560207 C28.4691168,13.5276679 28.2519481,18.2982998 26.88269,22.3694963 C26.690875,22.9398173 26.4960311,23.437752 26.3101847,23.8604577 C26.5022423,24.1150623 26.7216959,24.3847121 26.9694175,24.6655909 Z M44,24 C44,35.045695 35.045695,44 24,44 C12.954305,44 4,35.045695 4,24 C4,12.9706136 12.927883,4.02644609 23.9510878,4.00005854 C35.071219,4.0255465 44,12.970059 44,24 Z" id="Combined-Shape"></path>
                </g>
            </g>
        </g>
    </g>
</svg>