<?xml version="1.0" encoding="UTF-8"?>
<svg width="48px" height="48px" viewBox="0 0 48 48" version="1.1" xmlns="http://www.w3.org/2000/svg" xmlns:xlink="http://www.w3.org/1999/xlink">
    <!-- Generator: Sketch 49.3 (51167) - http://www.bohemiancoding.com/sketch -->
    <title>theicons.co/svg/sports-22</title>
    <desc>Created with Sketch.</desc>
    <defs></defs>
    <g id="The-Icons" stroke="none" stroke-width="1" fill="none" fill-rule="evenodd">
        <g id="v-1.5" transform="translate(-1440.000000, -1440.000000)" fill="#000000">
            <g id="Sports" transform="translate(96.000000, 1344.000000)">
                <g id="Rugby" transform="translate(1344.000000, 96.000000)">
                    <path d="M23.6594205,22.1779934 L22.241057,20.7596299 C21.4510059,19.9695788 21.4428011,18.6968575 22.2349817,17.9046769 C23.0216775,17.1179811 24.301807,17.1226247 25.0899347,17.9107523 L26.5082981,19.3291158 L27.2247479,18.612666 C28.0091074,17.8283065 29.2772146,17.8247158 30.0693951,18.6168964 C30.856091,19.4035922 30.8567439,20.6784252 30.0736255,21.4615436 L29.3571757,22.1779934 L30.7755392,23.5963568 C31.5655904,24.386408 31.5737951,25.6591293 30.7816146,26.4513098 C29.9949187,27.2380057 28.7147892,27.2333621 27.9266616,26.4452345 L26.5082981,25.026871 L25.0838593,26.4513098 L26.5022227,27.8696733 C27.2922739,28.6597244 27.3004786,29.9324457 26.5082981,30.7246263 C25.7216023,31.5113221 24.4414728,31.5066785 23.6533451,30.7185509 L22.2349817,29.3001875 L21.5185319,30.0166372 C20.7341724,30.8009967 19.4660652,30.8045874 18.6738846,30.0124069 C17.8871888,29.225711 17.8865359,27.950878 18.6696543,27.1677596 L19.386104,26.4513098 L17.9677406,25.0329464 C17.1776894,24.2428952 17.1694847,22.9701739 17.9616652,22.1779934 C18.7483611,21.3912976 20.0284906,21.3959411 20.8166182,22.1840688 L22.2349817,23.6024322 L23.6594205,22.1779934 Z M15.825007,15.7680187 C12.3492655,19.2437602 10.0488778,23.741551 8.99533424,27.8991916 C12.0409673,27.9722065 15.0063418,29.1937417 17.2494458,31.4368457 C19.4928086,33.6802085 20.7140781,36.6457632 20.7871148,39.6909535 C24.9447512,38.6374082 29.4425354,36.3370219 32.9182728,32.8612845 C36.3622509,29.4173064 38.6409205,24.9030612 39.690507,20.7284784 C36.6616792,20.6417043 33.7208765,19.4195001 31.493834,17.1924575 C29.2664275,14.9650511 28.0445866,12.0239796 27.9577897,8.99579038 C23.7832134,10.0453795 19.2689786,12.3240471 15.825007,15.7680187 Z M38.616028,10.0702635 C39.9345297,11.3887651 40.4961358,13.8074309 40.3292074,16.699256 C38.1273314,16.7788105 35.955953,15.9568213 34.3427116,14.3435799 C32.7292019,12.7300702 31.9074917,10.558372 31.9870036,8.35708593 C34.8788428,8.19015158 37.2975215,8.75175697 38.616028,10.0702635 Z M10.1272518,38.5590397 C11.4737627,39.9055507 13.8827441,40.4848452 16.7542127,40.3284112 C16.84962,38.1109278 16.0291979,35.914353 14.4005682,34.2857233 C12.7721311,32.6572862 10.5757726,31.8366547 8.35787908,31.932101 C8.20144933,34.8035598 8.78074428,37.2125323 10.1272518,38.5590397 Z M41.4649057,7.22138584 C36.0064681,1.76294825 21.604403,4.29086748 12.9761294,12.9191411 C4.28647343,21.608797 1.72535139,35.8548946 7.27837413,41.4079174 C12.8313969,46.9609401 27.0774945,44.3998181 35.7671504,35.7101621 C44.395424,27.0818885 46.9233433,12.6798234 41.4649057,7.22138584 Z" id="Combined-Shape"></path>
                </g>
            </g>
        </g>
    </g>
</svg>