<?xml version="1.0" encoding="UTF-8"?>
<svg width="48px" height="48px" viewBox="0 0 48 48" version="1.1" xmlns="http://www.w3.org/2000/svg" xmlns:xlink="http://www.w3.org/1999/xlink">
    <!-- Generator: Sketch 49.3 (51167) - http://www.bohemiancoding.com/sketch -->
    <title>theicons.co/svg/sports-10</title>
    <desc>Created with Sketch.</desc>
    <defs></defs>
    <g id="The-Icons" stroke="none" stroke-width="1" fill="none" fill-rule="evenodd">
        <g id="v-1.5" transform="translate(-192.000000, -1440.000000)" fill="#000000">
            <g id="Sports" transform="translate(96.000000, 1344.000000)">
                <g id="Medal" transform="translate(96.000000, 96.000000)">
                    <path d="M20.3910644,31.2236355 L19.9630582,31.9649641 C19.4113497,32.9205512 18.1953052,33.2513428 17.2320508,32.6952076 C16.2754656,32.1429228 15.9491303,30.9172911 16.4989566,29.9649641 L16.8387393,29.3764431 C16.311261,28.9973695 15.8112229,28.5825182 15.3421767,28.1354408 L12.0597235,33.8208164 L14.526251,33.6613161 C15.8842364,33.5737355 17.2902962,34.3864604 17.8927943,35.6049908 L19.0100892,37.864679 L22.492933,31.7761532 C21.7715673,31.6457348 21.06943,31.4600477 20.3910644,31.2236355 Z M11,18 C11,10.2680135 17.2680135,4 25,4 C32.7319865,4 39,10.2680135 39,18 C39,20.4092971 38.3914049,22.6764491 37.3195612,24.6561097 L43.2254137,34.8853463 C44.0855299,36.3751114 42.9634319,38.1493224 41.2559923,38.0392044 L35.6185984,37.6756318 L33.0850391,42.7567064 C32.3477949,44.2477559 30.2481579,44.40808 29.3690072,42.8853463 L25.0258642,35.362802 L20.6827212,42.8853463 C19.8035705,44.40808 17.7039335,44.2477559 16.9666893,42.7567064 L14.4523053,37.6714566 L8.79573613,38.0392044 C7.08829649,38.1493224 5.96619849,36.3751114 6.82631476,34.8853463 L12.7055305,24.7022459 C11.6180982,22.7117045 11,20.4280345 11,18 Z M31.0642759,37.8216377 L32.1589341,35.6049908 C32.7614322,34.3864604 34.167492,33.5737355 35.5254774,33.6613161 L37.9831215,33.819817 L34.6892424,28.1054006 C34.2114599,28.5636272 33.7012463,28.9883002 33.1623888,29.3756323 L33.5026397,29.9649641 C34.052466,30.9172911 33.7261307,32.1429228 32.7695455,32.6952076 C31.8062911,33.2513428 30.5902466,32.9205512 30.0385381,31.9649641 L29.6102644,31.2231723 C28.9504512,31.453194 28.2681439,31.6352254 27.5675237,31.7650854 L31.0642759,37.8216377 Z M25,28 C30.5228475,28 35,23.5228475 35,18 C35,12.4771525 30.5228475,8 25,8 C19.4771525,8 15,12.4771525 15,18 C15,23.5228475 19.4771525,28 25,28 Z M25.1084521,22 L22.1839013,23.5375274 C21.2020875,24.0536974 20.5585131,23.5839084 20.7456866,22.4926032 L21.3042261,19.236068 L18.9382148,16.929777 C18.1439107,16.1555218 18.3918312,15.3982734 19.4875639,15.2390541 L22.7573111,14.763932 L24.2195865,11.8010384 C24.7104934,10.8063524 25.5072912,10.8081361 25.9973177,11.8010384 L27.4595931,14.763932 L30.7293403,15.2390541 C31.8270416,15.3985594 32.0715692,16.1569103 31.2786895,16.929777 L28.9126782,19.236068 L29.4712177,22.4926032 C29.6587275,23.5858689 29.0130561,24.0527718 28.0330029,23.5375274 L25.1084521,22 Z" id="Rectangle-818-Copy-3"></path>
                </g>
            </g>
        </g>
    </g>
</svg>