<?xml version="1.0" encoding="UTF-8"?>
<svg width="48px" height="48px" viewBox="0 0 48 48" version="1.1" xmlns="http://www.w3.org/2000/svg" xmlns:xlink="http://www.w3.org/1999/xlink">
    <!-- Generator: Sketch 49.3 (51167) - http://www.bohemiancoding.com/sketch -->
    <title>theicons.co/svg/tech-34</title>
    <desc>Created with Sketch.</desc>
    <defs></defs>
    <g id="The-Icons" stroke="none" stroke-width="1" fill="none" fill-rule="evenodd">
        <g id="v-1.5" transform="translate(-672.000000, -864.000000)" fill="#000000">
            <g id="Tech" transform="translate(96.000000, 768.000000)">
                <g id="Drums" transform="translate(576.000000, 96.000000)">
                    <path d="M19,18 C20.6568542,18 22,16.6568542 22,15 C22,13.3431458 20.6568542,12 19,12 C18.689944,12 18.390874,12.0470365 18.1095363,12.1343631 L5.02909004,4.28507327 C4.08196215,3.71672253 2.853424,4.02378208 2.28507327,4.97090996 C1.71672253,5.91803785 2.02378208,7.146576 2.97090996,7.71492673 L16.0531834,15.565313 C16.3175877,16.9519019 17.5363956,18 19,18 Z M29,12 C27.3431458,12 26,13.3431458 26,15 C26,16.6568542 27.3431458,18 29,18 C30.4640699,18 31.6831877,16.951235 31.9470686,15.5639897 L45.0271369,7.71492673 C45.9742648,7.146576 46.2813243,5.91803785 45.7129736,4.97090996 C45.1446229,4.02378208 43.9160847,3.71672253 42.9689568,4.28507327 L29.8891761,12.1339637 C29.6082135,12.0468931 29.309583,12 29,12 Z M4,24 C4,22.8954305 4.89153983,22 5.99729162,22 L42.0027084,22 C43.1057821,22 44,22.8877296 44,24 C44,25.1045695 43.1084602,26 42.0027084,26 L42,40 C43.1057821,40 44,40.8877296 44,42 C44,43.1045695 43.1084602,44 42.0027084,44 L5.99729162,44 C4.89421792,44 4,43.1122704 4,42 C4,40.8954305 4.89153983,40 5.99729162,40 L6,26 C4.89421792,26 4,25.1122704 4,24 Z M16,37 L20.9156375,26 L11.0843625,26 L16,37 Z M32,37 L36.9156375,26 L27.0843625,26 L32,37 Z M38,33.4244289 L35.077524,40 L38,40 L38,33.4244289 Z M12.922476,40 L10,33.4244289 L10,40 L12.922476,40 Z M28.9156375,40 L24,29 L19.0843625,40 L28.9156375,40 Z" id="Combined-Shape"></path>
                </g>
            </g>
        </g>
    </g>
</svg>