<?xml version="1.0" encoding="UTF-8"?>
<svg width="48px" height="48px" viewBox="0 0 48 48" version="1.1" xmlns="http://www.w3.org/2000/svg" xmlns:xlink="http://www.w3.org/1999/xlink">
    <!-- Generator: Sketch 49.3 (51167) - http://www.bohemiancoding.com/sketch -->
    <title>theicons.co/svg/tech-15</title>
    <desc>Created with Sketch.</desc>
    <defs></defs>
    <g id="The-Icons" stroke="none" stroke-width="1" fill="none" fill-rule="evenodd">
        <g id="v-1.5" transform="translate(-1536.000000, -768.000000)" fill="#000000">
            <g id="Tech" transform="translate(96.000000, 768.000000)">
                <g id="Floppy" transform="translate(1440.000000, 0.000000)">
                    <path d="M30,18.0059397 C30,19.1072288 29.1073772,20 28.0049107,20 L13.9950893,20 C12.8932319,20 12,19.1054862 12,18.0059397 L12,7.99772569 L7.99161703,7.99729162 L7.99161703,39.9972916 L12,39.9972916 L12,29.9907951 C12,28.8913093 12.8970262,28 14.0049466,28 L33.9950534,28 C35.1023548,28 36,28.8982124 36,29.9907951 L36,39.9972916 L39.991617,39.9972916 L40.0340967,15.6906472 L32.3487551,7.99992928 L30,7.99967493 L30,18.0059397 Z M20,7.99859202 L20,16 L26,16 L26,7.99924176 L20,7.99859202 Z M8.00002553,43.993045 C5.79087243,43.993045 4,42.1966202 4,39.9930194 L4,7.99307049 C4,5.78391739 5.79230884,3.99347478 8.00213331,3.99400472 L33.0018463,4 C33.5531114,4 34.3102458,4.31024575 34.7031806,4.70318058 L43.2968194,13.2968194 C43.6851753,13.6851753 44,14.4473652 44,14.9981537 L44,39.9918714 C44,42.2016585 42.2035752,43.993045 39.9999745,43.993045 L8.00002553,43.993045 Z M32,32 L16,32 L16,39.9972916 L32,39.9972916 L32,32 Z" id="Combined-Shape"></path>
                </g>
            </g>
        </g>
    </g>
</svg>