<?xml version="1.0" encoding="UTF-8"?>
<svg width="48px" height="48px" viewBox="0 0 48 48" version="1.1" xmlns="http://www.w3.org/2000/svg" xmlns:xlink="http://www.w3.org/1999/xlink">
    <!-- Generator: Sketch 49.3 (51167) - http://www.bohemiancoding.com/sketch -->
    <title>theicons.co/svg/tech-17</title>
    <desc>Created with Sketch.</desc>
    <defs></defs>
    <g id="The-Icons" stroke="none" stroke-width="1" fill="none" fill-rule="evenodd">
        <g id="v-1.5" transform="translate(-1728.000000, -768.000000)" fill="#000000">
            <g id="Tech" transform="translate(96.000000, 768.000000)">
                <g id="Old-TV" transform="translate(1632.000000, 0.000000)">
                    <path d="M40.002837,41.9914698 C40.002837,43.0980496 39.1097124,44 38.0079873,44 L33.3967346,44 C32.2899426,44 31.0176141,43.19567 30.543592,42.2034788 L27.5798634,36 L20.4229736,36 L17.459245,42.2034788 C16.9852229,43.19567 15.7128944,44 14.6061024,44 L9.99484974,44 C8.89312465,44 8,43.0980496 8,41.9914698 L8,36 C5.79085863,35.9999862 4,34.2058713 4,32.0031611 L4,11.9968389 C4,9.78944571 5.79642476,8 8.00002553,8 L12.4844518,8 L10.7344672,6.53590225 C9.88729054,5.82712484 9.77509574,4.56577481 10.4838731,3.71859811 C11.1926505,2.8714214 12.4540006,2.7592266 13.3011773,3.468004 L18.0310031,7.42514025 L22.7265687,3.46920057 C23.5730845,2.75963403 24.8345386,2.87065339 25.5441051,3.71716926 C26.2536716,4.56368512 26.1426523,5.82513915 25.2961364,6.53470568 L23.5480341,8 L39.9999745,8 C42.2091276,8 44,9.79412025 44,11.9968389 L44,32.0031611 C44,34.2095984 42.2051308,35.9984501 40.002837,35.999999 L40.002837,41.9914698 Z M32,12 L32,32 L40,32 L40,12 L32,12 Z M8,15.99923 L8,28.00077 C8,30.2075324 9.79051625,32 11.99923,32 L24.00077,32 C26.2075324,32 28,30.2094838 28,28.00077 L28,15.99923 C28,13.7924676 26.2094838,12 24.00077,12 L11.99923,12 C9.79246765,12 8,13.7905162 8,15.99923 Z M36,18 C34.8954305,18 34,17.1045695 34,16 C34,14.8954305 34.8954305,14 36,14 C37.1045695,14 38,14.8954305 38,16 C38,17.1045695 37.1045695,18 36,18 Z M36,24 C34.8954305,24 34,23.1045695 34,22 C34,20.8954305 34.8954305,20 36,20 C37.1045695,20 38,20.8954305 38,22 C38,23.1045695 37.1045695,24 36,24 Z M12.0057329,40.0077903 L14.0727835,40.0157981 L16.0036621,36 L12.0057329,36 L12.0057329,40.0077903 Z M36.0036621,40.0077903 L36.0036621,36 L32.0057329,36 L33.9366115,40.0157981 L36.0036621,40.0077903 Z" id="Rectangle-860"></path>
                </g>
            </g>
        </g>
    </g>
</svg>