<?xml version="1.0" encoding="UTF-8"?>
<svg width="48px" height="48px" viewBox="0 0 48 48" version="1.1" xmlns="http://www.w3.org/2000/svg" xmlns:xlink="http://www.w3.org/1999/xlink">
    <!-- Generator: Sketch 49.3 (51167) - http://www.bohemiancoding.com/sketch -->
    <title>theicons.co/svg/tech-16</title>
    <desc>Created with Sketch.</desc>
    <defs></defs>
    <g id="The-Icons" stroke="none" stroke-width="1" fill="none" fill-rule="evenodd">
        <g id="v-1.5" transform="translate(-1632.000000, -768.000000)" fill="#000000">
            <g id="Tech" transform="translate(96.000000, 768.000000)">
                <g id="Tape" transform="translate(1536.000000, 0.000000)">
                    <path d="M26,21 C26,19.9264027 26.2422977,18.9092554 26.6749457,18 L21.324743,18 C21.7577024,18.9098627 22,19.9272437 22,21 C22,22.0735973 21.7577023,23.0907446 21.3250543,24 L26.675257,24 C26.2422976,23.0901373 26,22.0727563 26,21 Z M15,28 C11.1340068,28 8,24.8581267 8,21 C8,17.1340068 11.1418733,14 15,14 L33,14 C36.8659932,14 40,17.1418733 40,21 C40,24.8659932 36.8581267,28 33,28 L15,28 Z M29,38 C30.0968278,38 30.9874379,38.8857132 30.9998683,39.9748212 L33.2733756,39.9713035 L32.5969238,36 L15.3848877,36 L14.7269287,40 L17.0000005,39.9964829 C17.0007672,38.8937233 17.8882102,38 19,38 C20.1020173,38 20.9958609,38.8941144 20.9999857,39.9902938 L27.0000695,39.98101 C27.0090807,38.8853755 27.8934148,38 29,38 Z M42,38 C42,38 42.698717,10 42,10 L6,10 L6,38 L11,38 L11.6697407,33.9815559 C11.8521379,32.8871728 12.8970262,32 14.0049466,32 L33.9950534,32 C35.1023548,32 36.1470648,32.8823887 36.3302593,33.9815559 L37,38 L42,38 Z M5.99881014,42.0001791 C3.79032828,42.0002419 2,40.2146965 2,38.0093305 L2,9.98418475 C2,7.78003717 3.79309123,5.99322252 6.00180999,5.99322252 L41.99819,5.99322252 C44.2083286,5.99322252 46,7.77846812 46,9.9834011 L46,38.0030439 C46,40.2067587 44.2122984,41.9944186 41.9964021,41.9959012 L37.6664664,41.9987981 C37.8521379,43.1128272 37.1001025,44 36.0087557,44 L11.9912443,44 C10.8915104,44 10.1470648,43.1176113 10.3302593,42.0184441 L5.99881014,42.0001791 Z M30,21 C30,22.6523991 31.3465556,24 33,24 C34.6523991,24 36,22.6534444 36,21 C36,19.3476009 34.6534444,18 33,18 C31.3476009,18 30,19.3465556 30,21 Z M12,21 C12,22.6523991 13.3465556,24 15,24 C16.6523991,24 18,22.6534444 18,21 C18,19.3476009 16.6534444,18 15,18 C13.3476009,18 12,19.3465556 12,21 Z" id="Rectangle-875"></path>
                </g>
            </g>
        </g>
    </g>
</svg>