<?xml version="1.0" encoding="UTF-8"?>
<svg width="48px" height="48px" viewBox="0 0 48 48" version="1.1" xmlns="http://www.w3.org/2000/svg" xmlns:xlink="http://www.w3.org/1999/xlink">
    <!-- Generator: Sketch 49.3 (51167) - http://www.bohemiancoding.com/sketch -->
    <title>theicons.co/svg/text-05</title>
    <desc>Created with Sketch.</desc>
    <defs></defs>
    <g id="The-Icons" stroke="none" stroke-width="1" fill="none" fill-rule="evenodd">
        <g id="v-1.5" transform="translate(-576.000000, -3072.000000)" fill="#000000">
            <g id="Text" transform="translate(96.000000, 3072.000000)">
                <g id="Text-Size" transform="translate(480.000000, 0.000000)">
                    <path d="M34.2115837,23.1055728 C34.9486323,21.6314757 37.052244,21.6314757 37.7892925,23.1055728 L45.7892925,39.1055728 C46.283271,40.0935298 45.8828223,41.2948759 44.8948653,41.7888544 C43.9069083,42.2828329 42.7055622,41.8823842 42.2115837,40.8944272 L40.7607324,37.9927246 L31.244268,37.9862262 L29.7892925,40.8944272 C29.295314,41.8823842 28.0939679,42.2828329 27.1060109,41.7888544 C26.1180539,41.2948759 25.7176052,40.0935298 26.2115837,39.1055728 L29.7643701,32 L10.2455842,32 L5.78885438,40.8944272 C5.29487588,41.8823842 4.0935298,42.2828329 3.10557281,41.7888544 C2.11761581,41.2948759 1.71716712,40.0935298 2.21114562,39.1055728 L18.2111456,7.10557281 C18.9492223,5.62941947 21.0566875,5.63204786 21.7910798,7.11003764 L31.9683242,27.5920918 L34.2115837,23.1055728 Z M20,12.5328245 L12.2498638,28 L27.7019385,28 L20,12.5328245 Z M38.7600489,33.9913575 L36.0023064,28.4758725 L33.2447886,33.9875913 L38.7600489,33.9913575 Z" id="Combined-Shape"></path>
                </g>
            </g>
        </g>
    </g>
</svg>