<?xml version="1.0" encoding="UTF-8"?>
<svg width="48px" height="48px" viewBox="0 0 48 48" version="1.1" xmlns="http://www.w3.org/2000/svg" xmlns:xlink="http://www.w3.org/1999/xlink">
    <!-- Generator: Sketch 49.3 (51167) - http://www.bohemiancoding.com/sketch -->
    <title>theicons.co/svg/text-03</title>
    <desc>Created with Sketch.</desc>
    <defs></defs>
    <g id="The-Icons" stroke="none" stroke-width="1" fill="none" fill-rule="evenodd">
        <g id="v-1.5" transform="translate(-384.000000, -3072.000000)" fill="#000000">
            <g id="Text" transform="translate(96.000000, 3072.000000)">
                <g id="Paragraph-1" transform="translate(288.000000, 0.000000)">
                    <path d="M9.24382992,21.9862262 L7.78885438,24.8944272 C7.29487588,25.8823842 6.0935298,26.2828329 5.10557281,25.7888544 C4.11761581,25.2948759 3.71716712,24.0935298 4.21114562,23.1055728 L12.2111456,7.10557281 C12.9481942,5.63147573 15.0518058,5.63147573 15.7888544,7.10557281 L23.7888544,23.1055728 C24.2828329,24.0935298 23.8823842,25.2948759 22.8944272,25.7888544 C21.9064702,26.2828329 20.7051241,25.8823842 20.2111456,24.8944272 L18.7602943,21.9927246 L9.24382992,21.9862262 Z M16.7596108,17.9913575 L14.0018683,12.4758725 L11.2443505,17.9875913 L16.7596108,17.9913575 Z M28,24 C28,22.8954305 28.8945138,22 29.9940603,22 L42.0059397,22 C43.1072288,22 44,22.8877296 44,24 C44,25.1045695 43.1054862,26 42.0059397,26 L29.9940603,26 C28.8927712,26 28,25.1122704 28,24 Z M4,32 C4,30.8954305 4.89153983,30 5.99729162,30 L42.0027084,30 C43.1057821,30 44,30.8877296 44,32 C44,33.1045695 43.1084602,34 42.0027084,34 L5.99729162,34 C4.89421792,34 4,33.1122704 4,32 Z M4,40 C4,38.8954305 4.89153983,38 5.99729162,38 L42.0027084,38 C43.1057821,38 44,38.8877296 44,40 C44,41.1045695 43.1084602,42 42.0027084,42 L5.99729162,42 C4.89421792,42 4,41.1122704 4,40 Z M28,16 C28,14.8954305 28.8945138,14 29.9940603,14 L42.0059397,14 C43.1072288,14 44,14.8877296 44,16 C44,17.1045695 43.1054862,18 42.0059397,18 L29.9940603,18 C28.8927712,18 28,17.1122704 28,16 Z M28,8 C28,6.8954305 28.8945138,6 29.9940603,6 L42.0059397,6 C43.1072288,6 44,6.88772964 44,8 C44,9.1045695 43.1054862,10 42.0059397,10 L29.9940603,10 C28.8927712,10 28,9.11227036 28,8 Z" id="Combined-Shape"></path>
                </g>
            </g>
        </g>
    </g>
</svg>