<?xml version="1.0" encoding="UTF-8"?>
<svg width="48px" height="48px" viewBox="0 0 48 48" version="1.1" xmlns="http://www.w3.org/2000/svg" xmlns:xlink="http://www.w3.org/1999/xlink">
    <!-- Generator: Sketch 49.3 (51167) - http://www.bohemiancoding.com/sketch -->
    <title>theicons.co/svg/text-02</title>
    <desc>Created with Sketch.</desc>
    <defs></defs>
    <g id="The-Icons" stroke="none" stroke-width="1" fill="none" fill-rule="evenodd">
        <g id="v-1.5" transform="translate(-288.000000, -3072.000000)" fill="#000000" fill-rule="nonzero">
            <g id="Text" transform="translate(96.000000, 3072.000000)">
                <g id="Text-Field-2" transform="translate(192.000000, 0.000000)">
                    <path d="M34.7596108,25.9913575 L32.0018683,20.4758725 L29.2443505,25.9875913 L34.7596108,25.9913575 Z M27.2438299,29.9862262 L25.7888544,32.8944272 C25.2948759,33.8823842 24.0935298,34.2828329 23.1055728,33.7888544 C22.1176158,33.2948759 21.7171671,32.0935298 22.2111456,31.1055728 L30.2111456,15.1055728 C30.9481942,13.6314757 33.0518058,13.6314757 33.7888544,15.1055728 L41.7888544,31.1055728 C42.2828329,32.0935298 41.8823842,33.2948759 40.8944272,33.7888544 C39.9064702,34.2828329 38.7051241,33.8823842 38.2111456,32.8944272 L36.7602943,29.9927246 L27.2438299,29.9862262 Z M22.0066619,4 L24,4 C25.1045695,4 26,4.8954305 26,6 C26,7.1045695 25.1045695,8 24,8 L22.0066619,8 C19.7909715,8 18.0033309,9.78571717 18.0033309,12.0053227 L18.0033309,35.9946773 C18.0033309,38.2107758 19.7899567,40 22.0066619,40 L24,40 C25.1045695,40 26,40.8954305 26,42 C26,43.1045695 25.1045695,44 24,44 L22.0066619,44 C19.6124298,44 17.4670806,42.9525441 16.0016655,41.2908365 C14.5362504,42.9525441 12.3909011,44 9.99666905,44 L8.00333095,44 C6.89876145,44 6.00333095,43.1045695 6.00333095,42 C6.00333095,40.8954305 6.89876145,40 8.00333095,40 L9.99666905,40 C12.2133742,40 14,38.2107758 14,35.9946773 L14,12.0053227 C14,9.78571717 12.2123594,8 9.99666905,8 L8.00333095,8 C6.89876145,8 6.00333095,7.1045695 6.00333095,6 C6.00333095,4.8954305 6.89876145,4 8.00333095,4 L9.99666905,4 C12.3897376,4 14.5357162,5.04630171 16.0016655,6.70811 C17.4676148,5.04630171 19.6135934,4 22.0066619,4 Z" id="Combined-Shape"></path>
                </g>
            </g>
        </g>
    </g>
</svg>