<?xml version="1.0" encoding="UTF-8"?>
<svg width="48px" height="48px" viewBox="0 0 48 48" version="1.1" xmlns="http://www.w3.org/2000/svg" xmlns:xlink="http://www.w3.org/1999/xlink">
    <!-- Generator: Sketch 49.3 (51167) - http://www.bohemiancoding.com/sketch -->
    <title>theicons.co/svg/text-07</title>
    <desc>Created with Sketch.</desc>
    <defs></defs>
    <g id="The-Icons" stroke="none" stroke-width="1" fill="none" fill-rule="evenodd">
        <g id="v-1.5" transform="translate(-960.000000, -3072.000000)" fill="#000000" fill-rule="nonzero">
            <g id="Text" transform="translate(96.000000, 3072.000000)">
                <g id="Code" transform="translate(864.000000, 0.000000)">
                    <path d="M2.58807939,22.5576183 L10.5880794,14.5834972 C11.3703923,13.803715 12.6367206,13.8057665 13.4165028,14.5880794 C14.196285,15.3703923 14.1942335,16.6367206 13.4119206,17.4165028 L6.825229,24 L13.4164954,30.588072 C14.1962817,31.3703808 14.1942368,32.6367091 13.411928,33.4164954 C12.6296192,34.1962817 11.3632909,34.1942368 10.5835046,33.411928 L2.58350458,25.3860491 C1.80371539,24.6037374 1.8057636,23.3374034 2.58807939,22.5576183 Z M45.4119206,22.5576183 C46.1942364,23.3374034 46.1962846,24.6037374 45.4164954,25.3860491 L37.4164954,33.411928 C36.6367091,34.1942368 35.3703808,34.1962817 34.588072,33.4164954 C33.8057632,32.6367091 33.8037183,31.3703808 34.5835046,30.588072 L41.174771,24 L34.5880794,17.4165028 C33.8057665,16.6367206 33.803715,15.3703923 34.5834972,14.5880794 C35.3632794,13.8057665 36.6296077,13.803715 37.4119206,14.5834972 L45.4119206,22.5576183 Z M29.9523741,6.43386092 L21.9523741,42.4338609 C21.7127594,43.5121274 20.6444055,44.1919889 19.5661391,43.9523741 C18.4878726,43.7127594 17.8080111,42.6444055 18.0476259,41.5661391 L26.0476259,5.56613908 C26.2872406,4.48787263 27.3555945,3.80801111 28.4338609,4.04762588 C29.5121274,4.28724065 30.1919889,5.35559446 29.9523741,6.43386092 Z" id="Combined-Shape"></path>
                </g>
            </g>
        </g>
    </g>
</svg>