<?xml version="1.0" encoding="UTF-8"?>
<svg width="48px" height="48px" viewBox="0 0 48 48" version="1.1" xmlns="http://www.w3.org/2000/svg" xmlns:xlink="http://www.w3.org/1999/xlink">
    <!-- Generator: Sketch 49.3 (51167) - http://www.bohemiancoding.com/sketch -->
    <title>theicons.co/svg/text-18</title>
    <desc>Created with Sketch.</desc>
    <defs></defs>
    <g id="The-Icons" stroke="none" stroke-width="1" fill="none" fill-rule="evenodd">
        <g id="v-1.5" transform="translate(-192.000000, -3072.000000)" fill="#000000">
            <g id="Text" transform="translate(96.000000, 3072.000000)">
                <g id="Draw" transform="translate(96.000000, 0.000000)">
                    <path d="M29.6028314,38.6863045 C30.3085155,37.5622318 30.1329537,36.3466536 28.9642017,34.5994146 C27.9907869,33.1441973 26.6546324,31.7445374 23.9735247,29.2338443 C20.4016661,25.8890177 19.4957851,24.9822822 18.34172,23.381542 C16.493642,20.8181748 16.0267893,18.3449303 17.5605229,16.0849203 C19.119787,13.78729 21.4953841,13.3318254 24.1755918,14.328054 C25.9051173,14.9709157 27.5486905,16.024249 30.3820924,18.1205027 C30.5303109,18.2301601 30.6337859,18.306922 30.8840803,18.4928185 C35.4626412,21.8942897 37.3027295,22.8022984 37.8810457,22.2900743 C38.506252,21.7363189 38.0514747,20.7022845 35.1907911,17.0212634 C34.6451754,16.3191855 34.3066948,15.8749456 33.9636575,15.4033977 C31.5272279,12.0542192 30.636571,9.53032552 31.9610205,6.91515532 C33.4013991,4.07107898 36.0809418,3.43898775 39.0790856,4.45337953 C40.2271346,4.84181038 41.4021156,5.45598537 42.5886574,6.23408517 C43.7813065,7.01618995 44.7482159,7.79470018 45.3447528,8.33674122 C46.1509207,9.06926273 46.22317,10.3307235 45.506126,11.1542928 C44.789082,11.977862 43.5542748,12.0516708 42.7481068,11.3191493 C42.644001,11.2245539 42.4301462,11.0403812 42.1280144,10.7971189 C41.6174572,10.3860421 41.0596193,9.97440487 40.4780558,9.5930323 C39.5448183,8.98104211 38.6474879,8.51199803 37.8507056,8.24241475 C36.4849096,7.78031143 35.8455359,7.93113662 35.4311778,8.74930073 C35.0388275,9.52400958 35.4951172,10.8170179 37.0995824,13.0225567 C37.4114991,13.4513255 37.7292558,13.8683662 38.2507789,14.5394427 C40.2802946,17.1509479 40.8854588,18.0066699 41.4764926,19.350513 C42.4620434,21.5913758 42.236717,23.7149091 40.4404893,25.3058573 C38.7508573,26.802392 36.6401529,26.6655634 34.2171942,25.4699318 C32.7163579,24.7293302 31.5916272,23.9537281 28.5861532,21.7209232 C28.3377141,21.5364051 28.2361514,21.4610618 28.0904028,21.3532317 C23.424004,17.9008603 21.554075,17.2058109 20.7714343,18.3590594 C19.9867922,19.515257 21.2531771,21.2717898 26.6136257,26.2915213 C29.5174505,29.0107752 30.989768,30.5530698 32.1900485,32.3474426 C34.1580133,35.2894737 34.5730132,38.1629056 32.8916619,40.8411027 C29.0166717,47.0135112 20.4702387,43.6338763 11.17585,35.0915134 C10.2547826,35.6672518 9.16623944,36 7.9999788,36 C4.6862703,36 1.9999788,33.3137085 1.9999788,30 C1.9999788,26.6862915 4.6862703,24 7.9999788,24 C11.3136873,24 13.9999788,26.6862915 13.9999788,30 C13.9999788,30.7023469 13.8793009,31.3765079 13.6575489,32.0028792 C21.2733631,39.0320119 27.7466618,41.6429667 29.6028314,38.6863045 Z M7.9999788,32 C9.1045483,32 9.9999788,31.1045695 9.9999788,30 C9.9999788,28.8954305 9.1045483,28 7.9999788,28 C6.8954093,28 5.9999788,28.8954305 5.9999788,30 C5.9999788,31.1045695 6.8954093,32 7.9999788,32 Z" id="Combined-Shape"></path>
                </g>
            </g>
        </g>
    </g>
</svg>