<?xml version="1.0" encoding="UTF-8"?>
<svg width="48px" height="48px" viewBox="0 0 48 48" version="1.1" xmlns="http://www.w3.org/2000/svg" xmlns:xlink="http://www.w3.org/1999/xlink">
    <!-- Generator: Sketch 49.3 (51167) - http://www.bohemiancoding.com/sketch -->
    <title>theicons.co/svg/transport-17</title>
    <desc>Created with Sketch.</desc>
    <defs></defs>
    <g id="The-Icons" stroke="none" stroke-width="1" fill="none" fill-rule="evenodd">
        <g id="v-1.5" transform="translate(-768.000000, -192.000000)" fill="#000000">
            <g id="Transport" transform="translate(96.000000, 192.000000)">
                <g id="Car" transform="translate(672.000000, 0.000000)">
                    <path d="M16,24 L16,18.0013808 C15.6187234,18.0010676 15.2785339,18.0006176 14.9955303,17.999995 C11.0135315,17.9910958 7.7990003,20.0055239 6.55535061,23.9999947 L16,24 Z M6.00029852,34 L7.34141142,34 C8.16508423,31.6696153 10.3875623,30 13,30 C15.6124377,30 17.8349158,31.6696153 18.6585886,34 L29.3414114,34 C30.1650842,31.6696153 32.3875623,30 35,30 C37.6124377,30 39.8349158,31.6696153 40.6585886,34 L42,34 L42,32 C42,30.210342 41.0620686,28.9246965 38.9093692,28 L6.00000218,28 C6.00077804,28.5323534 6.00055727,31.8080731 6.00029852,34 Z M29.2121568,21.9869565 C29.0952206,21.804769 29.0952206,21.804769 28.9801645,21.6256273 C27.1807364,18.8274845 26.1818089,18 24,18 C23.1109204,18 21.587934,18.0009291 20,18.001518 L20,24 L30.616251,24 C30.1688364,23.4293698 29.7108291,22.7631611 29.2121568,21.9869565 Z M46,32 L46,36 C46,37.1045695 45.1132936,38 44.0018986,38 L40.6585886,38 C39.8349158,40.3303847 37.6124377,42 35,42 C32.3875623,42 30.1650842,40.3303847 29.3414114,38 L18.6585886,38 C17.8349158,40.3303847 15.6124377,42 13,42 C10.3875623,42 8.16508423,40.3303847 7.34141142,38 L4.00591905,38 C2.89808055,38 2,37.1122704 2,36 C2,36 2.00078147,28.5246975 2.00000223,28.0029872 C1.98657158,19.0109872 7.75993675,13.9838144 15.0044,14.0000048 C17.03997,14.0044831 22.0451659,14 24,14 C27.9126536,14 29.8800406,15.62973 32.3445382,19.4620677 C32.4622519,19.6453467 32.4622519,19.6453467 32.5774944,19.8248967 C34.0193867,22.0692632 34.7460406,22.7931254 35.9560563,23.0223871 C42.4257482,24.2481996 46,27.0216268 46,32 Z M37,36 C37,34.8954305 36.1045695,34 35,34 C33.8954305,34 33,34.8954305 33,36 C33,37.1045695 33.8954305,38 35,38 C36.1045695,38 37,37.1045695 37,36 Z M15,36 C15,34.8954305 14.1045695,34 13,34 C11.8954305,34 11,34.8954305 11,36 C11,37.1045695 11.8954305,38 13,38 C14.1045695,38 15,37.1045695 15,36 Z" id="Combined-Shape"></path>
                </g>
            </g>
        </g>
    </g>
</svg>