<?xml version="1.0" encoding="UTF-8"?>
<svg width="48px" height="48px" viewBox="0 0 48 48" version="1.1" xmlns="http://www.w3.org/2000/svg" xmlns:xlink="http://www.w3.org/1999/xlink">
    <!-- Generator: Sketch 49.3 (51167) - http://www.bohemiancoding.com/sketch -->
    <title>theicons.co/svg/transport-09</title>
    <desc>Created with Sketch.</desc>
    <defs></defs>
    <g id="The-Icons" stroke="none" stroke-width="1" fill="none" fill-rule="evenodd">
        <g id="v-1.5" transform="translate(-1152.000000, -192.000000)" fill="#000000">
            <g id="Transport" transform="translate(96.000000, 192.000000)">
                <g id="Yacht" transform="translate(1056.000000, 0.000000)">
                    <path d="M36.5824381,34 L24,11.6027252 L24,30 L29.9914698,30 C31.1007504,30 32,30.8982606 32,31.9979131 L32,34 L36.5824381,34 Z M20,15.0298319 L12.8860241,34 L20,34 L20,15.0298319 Z M20.1273469,3.29847145 C20.7243559,1.70648393 22.9095612,1.5383063 23.7431415,3.02019289 L41.1696818,34 L44.0020869,34 C45.1055038,34 46,34.8877296 46,36 C46,37.1045695 45.1134452,38 43.9940809,38 L42.2155063,38 C41.8014293,39.1785164 41.1690957,40.5219349 40.2036133,41.8935547 C37.3380447,45.9645459 30.9277344,46 30.9277344,46 L5.00513342,46 C2.79315931,46 1.56461853,44.3061444 2.265625,42.203125 L4.68633242,34.9410027 C4.85956624,34.4213013 5.45323029,34 5.9968754,34 L8.6140102,34 L20.1273469,3.29847145 Z M18,42.0000307 C18,40.8954305 18.8877296,40 20,40 C21.1045695,40 22,40.8877296 22,42 L26,42.0000496 C26,40.8954305 26.8877296,40 28,40 C29.1045695,40 30,40.8877296 30,42 L30.9056115,42.0000612 C31.0684502,41.9991606 31.4736522,41.9733399 32.0292763,41.8948232 C32.965568,41.7625135 33.8941487,41.530426 34.7171631,41.1906231 C35.7372255,40.7694639 36.4839159,40.2287056 36.932689,39.5911528 C37.3066841,39.0598339 37.893741,38 37.893741,38 L7.88468681,37.9950502 L6.54235847,42.0000036 L10,42.0000118 C10,40.8954305 10.8877296,40 12,40 C13.1045695,40 14,40.8877296 14,42 L18,42.0000307 Z" id="Combined-Shape"></path>
                </g>
            </g>
        </g>
    </g>
</svg>