<?xml version="1.0" encoding="UTF-8"?>
<svg width="48px" height="48px" viewBox="0 0 48 48" version="1.1" xmlns="http://www.w3.org/2000/svg" xmlns:xlink="http://www.w3.org/1999/xlink">
    <!-- Generator: Sketch 49.3 (51167) - http://www.bohemiancoding.com/sketch -->
    <title>theicons.co/svg/transport-11</title>
    <desc>Created with Sketch.</desc>
    <defs></defs>
    <g id="The-Icons" stroke="none" stroke-width="1" fill="none" fill-rule="evenodd">
        <g id="v-1.5" transform="translate(-1344.000000, -192.000000)" fill="#000000">
            <g id="Transport" transform="translate(96.000000, 192.000000)">
                <g id="Titanic" transform="translate(1248.000000, 0.000000)">
                    <path d="M28.5980762,22.5358984 C29.150361,21.5793131 30.3735418,21.2515628 31.330127,21.8038476 L33.330127,18.339746 C32.3735418,17.7874612 32.0457915,16.5642804 32.5980762,15.6076952 C33.150361,14.6511099 34.3735418,14.3233596 35.330127,14.8756443 L36.3324639,13.1395459 C35.8040087,10.6595233 35.9887454,8.3276946 35.9887454,8.3276946 L34.8349365,7.66154273 L20.2383988,33 L24.8660254,33 L29.330127,25.2679492 C28.3735418,24.7156644 28.0457915,23.4924836 28.5980762,22.5358984 Z M10.1396077,16.4976988 C9.6635164,16.2228273 9.49924472,15.6160449 9.78225258,15.1258609 L10.7728837,13.4100375 C11.0516132,12.9272638 11.6721851,12.7637306 12.1396077,13.0335972 L18.2057714,16.5358984 L21.2101492,11.3321633 C21.7600161,10.3797658 22.9743111,10.0514118 23.9374887,10.6075026 L27.4006123,12.606938 L32.4019789,3.94684106 C32.9542332,2.99058722 34.1856191,2.66785703 35.1411087,3.21950916 L38.5980762,5.21539031 C41.1585448,6.69367753 39.5808829,11.6702164 40.7698909,13.9263532 C42.3627982,16.9488868 44.2300623,17.7046236 44.9878078,18.1421079 C45.8533314,18.6418184 46.3203427,19.8400324 45.7651242,20.8016991 L38.7224319,33 L45.9986107,33 C47.1039475,33 48,33.8877296 48,35 C48,36.1045695 47.1050616,37 45.9986107,37 L2.00138927,37 C0.896052496,37 0,36.1122704 0,35 C0,33.8954305 0.894938439,33 2.00138927,33 L6.72243186,33 L2.13960772,30.3541052 C1.6635164,30.0792338 1.49924472,29.4724513 1.78225258,28.9822674 L2.77288369,27.266444 C3.05161321,26.7836703 3.67218508,26.620137 4.13960772,26.8900036 L10.2057714,30.3923048 L12.2057714,26.9282032 L6.13960772,23.425902 C5.6635164,23.1510306 5.49924472,22.5442481 5.78225258,22.0540641 L6.77288369,20.3382407 C7.05161321,19.855467 7.67218508,19.6919338 8.13960772,19.9618004 L14.2057714,23.4641016 L16.2057714,20 L10.1396077,16.4976988 Z M15.6232407,33 L25.4001751,16.0707872 L23.6387841,15.0538476 L13.3148816,33 L15.6232407,33 Z M29.4848276,33 L34.1036298,33 L41.2953821,20.5435212 C40.6009348,20.1425819 39.4843275,19.3114364 38.3394402,17.663361 L29.4848276,33 Z M24,42 C24,40.8954305 24.8945138,40 25.9940603,40 L38.0059397,40 C39.1072288,40 40,40.8877296 40,42 C40,43.1045695 39.1054862,44 38.0059397,44 L25.9940603,44 C24.8927712,44 24,43.1122704 24,42 Z M8,42 C8,40.8954305 8.88670635,40 9.99810135,40 L14.0018986,40 C15.1054196,40 16,40.8877296 16,42 C16,43.1045695 15.1132936,44 14.0018986,44 L9.99810135,44 C8.89458045,44 8,43.1122704 8,42 Z" id="Rectangle-420"></path>
                </g>
            </g>
        </g>
    </g>
</svg>