<?xml version="1.0" encoding="UTF-8"?>
<svg width="48px" height="48px" viewBox="0 0 48 48" version="1.1" xmlns="http://www.w3.org/2000/svg" xmlns:xlink="http://www.w3.org/1999/xlink">
    <!-- Generator: Sketch 49.3 (51167) - http://www.bohemiancoding.com/sketch -->
    <title>theicons.co/svg/transport-13</title>
    <desc>Created with Sketch.</desc>
    <defs></defs>
    <g id="The-Icons" stroke="none" stroke-width="1" fill="none" fill-rule="evenodd">
        <g id="v-1.5" transform="translate(-1536.000000, -192.000000)" fill="#000000">
            <g id="Transport" transform="translate(96.000000, 192.000000)">
                <g id="Airplane" transform="translate(1440.000000, 0.000000)">
                    <path d="M25.5425346,28.8169156 L19.364975,34.9867814 L17.6688188,42.2107802 C17.1649597,44.3567366 15.7602396,44.6154561 14.5049492,42.7909728 C14.5049492,42.7909728 12.060053,39.0046658 10.1611238,37.1081017 C8.52308107,35.4720991 5.02946882,33.2883932 5.02946882,33.2883932 C3.19316773,32.0734282 3.428046,30.5716794 5.53932818,29.9385682 L12.2850895,27.9157136 L18.4102364,21.7981953 L14.6235436,19.9233177 L12.9916005,21.5532282 C12.210394,22.3334618 10.9485985,22.3382464 10.1611238,21.5517525 C9.37910126,20.7707039 9.38110495,19.5023728 10.1596463,18.724801 L10.8368508,18.04844 L7.99683117,16.6422818 L6.61970358,18.0176943 C5.83849702,18.7979279 4.57670154,18.8027125 3.78922687,18.0162186 C3.00720431,17.23517 3.00920801,15.9668389 3.78774938,15.1892671 L4.21013837,14.7674042 L2.69910823,14.0192589 C1.71064368,13.5298476 1.49575106,12.4620287 2.2283589,11.6387868 L5.29467724,8.19312133 C6.03065437,7.36609337 7.49311754,6.91433863 8.56870569,7.17564233 L28.261005,11.9596953 L34.9407794,5.28824028 C35.7227709,4.50722278 37.2193827,3.64915424 38.290235,3.369949 L43.0330038,2.13335838 C45.1678772,1.57672902 46.3034039,2.81355134 45.5699553,4.89394475 L44.1040841,9.05182178 C43.7354349,10.0974785 42.8051015,11.5758484 42.0206649,12.3593081 L35.4340971,18.9376726 L40.689114,38.4334918 C40.9755043,39.4959835 40.5929321,40.9998756 39.8269134,41.8005793 L36.2966538,45.4906875 C35.5340833,46.2877868 34.5002133,46.1305192 34.0005009,45.1646637 L32.7786408,42.8030251 L32.1072914,43.4735384 C31.3260848,44.253772 30.0642893,44.2585567 29.2768147,43.4720627 C28.4947921,42.6910142 28.4967958,41.422683 29.2753372,40.6451113 L30.8490125,39.0733959 L29.4017913,36.276174 L28.5673486,37.1095774 C27.7861421,37.889811 26.5243466,37.8945956 25.7368719,37.1081017 C24.9548494,36.3270531 24.9568531,35.058722 25.7353944,34.2811502 L27.4721629,32.5465448 L25.5425346,28.8169156 Z M21.3954544,18.8166952 L7.35929042,11.8942287 L8.00314879,11.1548799 L24.9456702,15.270901 L21.3954544,18.8166952 Z M28.5147655,25.8483865 L35.9066157,40.1355214 L36.7623071,39.2525425 L32.1662547,22.2014451 L28.5147655,25.8483865 Z M10.9333479,32.5138736 C10.9333479,32.5138736 12.4299919,33.7172897 12.993078,34.2796746 C13.6202228,34.9060383 14.8976754,36.4930571 14.8976754,36.4930571 L15.7262511,32.9641191 L39.1887107,9.53088096 C39.5481919,9.17184749 40.1560928,8.20649749 40.3264391,7.72331781 L40.6219767,6.89604489 L39.3018614,7.24024092 C38.921299,7.33946564 38.0525946,7.83715495 37.7727336,8.1166674 L14.4033959,31.4568996 L10.9333479,32.5138736 Z" id="Combined-Shape"></path>
                </g>
            </g>
        </g>
    </g>
</svg>