<?xml version="1.0" encoding="UTF-8"?>
<svg width="48px" height="48px" viewBox="0 0 48 48" version="1.1" xmlns="http://www.w3.org/2000/svg" xmlns:xlink="http://www.w3.org/1999/xlink">
    <!-- Generator: Sketch 49.3 (51167) - http://www.bohemiancoding.com/sketch -->
    <title>theicons.co/svg/transport-06</title>
    <desc>Created with Sketch.</desc>
    <defs></defs>
    <g id="The-Icons" stroke="none" stroke-width="1" fill="none" fill-rule="evenodd">
        <g id="v-1.5" transform="translate(-864.000000, -192.000000)" fill="#000000">
            <g id="Transport" transform="translate(96.000000, 192.000000)">
                <g id="Bike" transform="translate(768.000000, 0.000000)">
                    <path d="M34.4587376,31.1559964 L33.5119387,28 L30,28 L30,31 C30,34.8659932 26.8646393,38 23.0020796,38 L15.6585886,38 C14.8349158,40.3303847 12.6124377,42 10,42 C6.6862915,42 4,39.3137085 4,36 C4,32.6862915 6.6862915,30 10,30 C12.6124377,30 14.8349158,31.6696153 15.6585886,34 L23.0020796,34 C24.3060564,34 25.4171592,33.1648784 25.8291462,32 L19.9958262,32 C17.7889923,32 16,30.2046438 16,28 L5.99821383,28 C4.8946308,28 4,27.1122704 4,26 L4,21.9979131 C4,20.8944962 4.88655484,20 6.00591905,20 L8.99408095,20 C10.1019194,20 11,20.8982606 11,21.9979131 L11,24 L20,24 C20,21.790861 21.7965212,20 23.9958262,20 L31.1119387,20 L30.0843474,16.5746958 C29.7669517,15.5167101 30.3673185,14.4017431 31.4253042,14.0843474 C32.4832899,13.7669517 33.5982569,14.3673185 33.9156526,15.4253042 L35.2880613,20 L36.9940809,20 C38.1019194,20 39,20.8877296 39,22 C39,23.1045695 38.1134452,24 36.9940809,24 L36.4880613,24 L38.2901287,30.0068915 C41.4690958,30.1582424 44,32.783559 44,36 C44,39.3137085 41.3137085,42 38,42 C34.6862915,42 32,39.3137085 32,36 C32,34.0107696 32.9680431,32.2476378 34.4587376,31.1559964 Z M12,36 C12,34.8954305 11.1045695,34 10,34 C8.8954305,34 8,34.8954305 8,36 C8,37.1045695 8.8954305,38 10,38 C11.1045695,38 12,37.1045695 12,36 Z M40,36 C40,34.8954305 39.1045695,34 38,34 C36.8954305,34 36,34.8954305 36,36 C36,37.1045695 36.8954305,38 38,38 C39.1045695,38 40,37.1045695 40,36 Z" id="Combined-Shape"></path>
                </g>
            </g>
        </g>
    </g>
</svg>