<?xml version="1.0" encoding="UTF-8"?>
<svg width="48px" height="48px" viewBox="0 0 48 48" version="1.1" xmlns="http://www.w3.org/2000/svg" xmlns:xlink="http://www.w3.org/1999/xlink">
    <!-- Generator: Sketch 49.3 (51167) - http://www.bohemiancoding.com/sketch -->
    <title>theicons.co/svg/transport-03</title>
    <desc>Created with Sketch.</desc>
    <defs></defs>
    <g id="The-Icons" stroke="none" stroke-width="1" fill="none" fill-rule="evenodd">
        <g id="v-1.5" transform="translate(-288.000000, -192.000000)" fill="#000000">
            <g id="Transport" transform="translate(96.000000, 192.000000)">
                <g id="Evacuator" transform="translate(192.000000, 0.000000)">
                    <path d="M30,14 L30,11.9979131 C30,10.8944962 30.8877296,10 32,10 C33.1045695,10 34,10.8982606 34,11.9979131 L34,14 L36,14 C36.8178092,14 37.5532267,14.4979019 37.8569534,15.2572186 L41.3540659,24 L43.0025078,24 C44.1056923,24 45,24.8970601 45,26.0058587 L45,35.9941413 C45,37.1019465 44.1033397,38 43.0025078,38 L40.6585886,38 C39.8349158,40.3303847 37.6124377,42 35,42 C32.3875623,42 30.1650842,40.3303847 29.3414114,38 L18.6585886,38 C17.8349158,40.3303847 15.6124377,42 13,42 C10.3875623,42 8.16508423,40.3303847 7.34141142,38 L4.99749218,38 C3.89430771,38 3,37.1029399 3,35.9941413 L3,26.0058587 C3,24.8980535 3.89666034,24 4.99749218,24 L19.1715729,24 L10.0018631,14.8302902 L10,17.9966249 C10,19.1011944 9.1045695,19.9966249 8,19.9966249 C6.8954305,19.9966249 6,19.1011944 6,17.9966249 L6,10 C6,8.2181903 8.15428384,7.32585672 9.41421356,8.58578644 L22,21.1715729 L22,16 C22,14.8954305 22.8954305,14 24,14 L30,14 Z M34.6712646,18 L26,18 L26,24 L37.0538808,24 L34.6712646,18 Z M35,30 C37.6124377,30 39.8349158,31.6696153 40.6585886,34 L41,34 L41,28 L7,28 L7,34 L7.34141142,34 C8.16508423,31.6696153 10.3875623,30 13,30 C15.6124377,30 17.8349158,31.6696153 18.6585886,34 L29.3414114,34 C30.1650842,31.6696153 32.3875623,30 35,30 Z M37,36 C37,34.8954305 36.1045695,34 35,34 C33.8954305,34 33,34.8954305 33,36 C33,37.1045695 33.8954305,38 35,38 C36.1045695,38 37,37.1045695 37,36 Z M15,36 C15,34.8954305 14.1045695,34 13,34 C11.8954305,34 11,34.8954305 11,36 C11,37.1045695 11.8954305,38 13,38 C14.1045695,38 15,37.1045695 15,36 Z" id="Combined-Shape"></path>
                </g>
            </g>
        </g>
    </g>
</svg>