<?xml version="1.0" encoding="UTF-8"?>
<svg width="48px" height="48px" viewBox="0 0 48 48" version="1.1" xmlns="http://www.w3.org/2000/svg" xmlns:xlink="http://www.w3.org/1999/xlink">
    <!-- Generator: Sketch 49.3 (51167) - http://www.bohemiancoding.com/sketch -->
    <title>theicons.co/svg/transport-07</title>
    <desc>Created with Sketch.</desc>
    <defs></defs>
    <g id="The-Icons" stroke="none" stroke-width="1" fill="none" fill-rule="evenodd">
        <g id="v-1.5" transform="translate(-960.000000, -192.000000)" fill="#000000">
            <g id="Transport" transform="translate(96.000000, 192.000000)">
                <g id="Scooter" transform="translate(864.000000, 0.000000)">
                    <path d="M35.7451148,24 L36.9940809,24 C38.1134452,24 39,23.1045695 39,22 C39,20.8877296 38.1019194,20 36.9940809,20 L34.6349531,20 L33.9314262,17.4651369 C33.6360295,16.4007993 32.533747,15.7774496 31.4694094,16.0728463 C30.4050718,16.368243 29.781722,17.4705254 30.0771187,18.5348631 L33.5598793,31.0835239 C32.5456885,31.7944826 31.7615654,32.8112752 31.3414114,34 L21.4482082,34 L23.9268093,28 L26.0092049,28 C27.1017876,28 28,27.1045695 28,26 C28,24.8877296 27.1086907,24 26.0092049,24 L9.99079514,24 C8.89821238,24 8,24.8954305 8,26 C8,27.1122704 8.89130934,28 9.99079514,28 L10.9950035,28 L8,34 L5.99328744,34 C4.89971268,34 4,34.8954305 4,36 C4,37.1122704 4.89242519,38 5.99328744,38 L9.34141142,38 C10.1650842,40.3303847 12.3875623,42 15,42 C17.6124377,42 19.8349158,40.3303847 20.6585886,38 L31.3414114,38 C32.1650842,40.3303847 34.3875623,42 37,42 C40.3137085,42 43,39.3137085 43,36 C43,32.8255385 40.534729,30.2268718 37.4142644,30.0140776 L35.7451148,24 Z M17,36 C17,34.8954305 16.1045695,34 15,34 C13.8954305,34 13,34.8954305 13,36 C13,37.1045695 13.8954305,38 15,38 C16.1045695,38 17,37.1045695 17,36 Z M39,36 C39,34.8954305 38.1045695,34 37,34 C35.8954305,34 35,34.8954305 35,36 C35,37.1045695 35.8954305,38 37,38 C38.1045695,38 39,37.1045695 39,36 Z" id="Combined-Shape"></path>
                </g>
            </g>
        </g>
    </g>
</svg>