<?xml version="1.0" encoding="UTF-8"?>
<svg width="48px" height="48px" viewBox="0 0 48 48" version="1.1" xmlns="http://www.w3.org/2000/svg" xmlns:xlink="http://www.w3.org/1999/xlink">
    <!-- Generator: Sketch 49.3 (51167) - http://www.bohemiancoding.com/sketch -->
    <title>theicons.co/svg/transport-08</title>
    <desc>Created with Sketch.</desc>
    <defs></defs>
    <g id="The-Icons" stroke="none" stroke-width="1" fill="none" fill-rule="evenodd">
        <g id="v-1.5" transform="translate(-1056.000000, -192.000000)" fill="#000000">
            <g id="Transport" transform="translate(96.000000, 192.000000)">
                <g id="Bicycle" transform="translate(960.000000, 0.000000)">
                    <path d="M32.0068741,18.1639694 C31.9153725,17.0631964 32.7335486,16.0966668 33.8343216,16.0051652 C34.9350947,15.9136635 35.9016242,16.7318396 35.9931259,17.8326127 C36.0138245,18.0816187 36.1318648,18.5820732 36.3835585,19.0470113 C36.7315512,19.6898365 37.1837067,20 38,20 C39.1045695,20 40,20.8954305 40,22 C40,23.1045695 39.1045695,24 38,24 L35.1404186,24 C35.2513539,24.7266317 35.4251425,25.4353019 35.6699022,26.0913853 C35.9675317,26.8891873 36.3539103,27.5643147 36.8308915,28.0971949 C37.2110709,28.0332742 37.6016496,28 38,28 C41.8659932,28 45,31.1340068 45,35 C45,38.8659932 41.8659932,42 38,42 C34.1340068,42 31,38.8659932 31,35 C31,33.0011044 31.837834,31.1978954 33.1814823,29.9223926 C32.6688173,29.1909092 32.2523517,28.3744795 31.9222029,27.489509 C31.8880615,27.3979924 31.8549735,27.3061037 31.8229194,27.2138694 L25.6443844,36.13842 C25.2467775,36.7127411 24.6210512,37.0013758 23.9950297,37 L16.7101213,37 C15.8495721,39.8914889 13.1710206,42 10,42 C6.13400675,42 3,38.8659932 3,35 C3,31.1340068 6.13400675,28 10,28 C13.1710206,28 15.8495721,30.1085111 16.7101213,33 L20,33 L10.2677206,20 L7.99961498,20 C6.89525812,20 6,19.1122704 6,18 C6,16.8954305 6.88743329,16 7.99961498,16 L14.000385,16 C15.1047419,16 16,16.8877296 16,18 L16,20 L32.4318602,20 C32.1750798,19.3164753 32.0498749,18.6812725 32.0068741,18.1639694 Z M18.25,24 L23.9350889,31.5801186 L29.1828633,24 L18.25,24 Z M38,38 C39.6568542,38 41,36.6568542 41,35 C41,33.3431458 39.6568542,32 38,32 C36.3431458,32 35,33.3431458 35,35 C35,36.6568542 36.3431458,38 38,38 Z M10,38 C11.6568542,38 13,36.6568542 13,35 C13,33.3431458 11.6568542,32 10,32 C8.34314575,32 7,33.3431458 7,35 C7,36.6568542 8.34314575,38 10,38 Z" id="Combined-Shape"></path>
                </g>
            </g>
        </g>
    </g>
</svg>