<?xml version="1.0" encoding="UTF-8"?>
<svg width="48px" height="48px" viewBox="0 0 48 48" version="1.1" xmlns="http://www.w3.org/2000/svg" xmlns:xlink="http://www.w3.org/1999/xlink">
    <!-- Generator: Sketch 49.3 (51167) - http://www.bohemiancoding.com/sketch -->
    <title>theicons.co/svg/ui-06</title>
    <desc>Created with Sketch.</desc>
    <defs></defs>
    <g id="The-Icons" stroke="none" stroke-width="1" fill="none" fill-rule="evenodd">
        <g id="v-1.5" transform="translate(-672.000000, -2496.000000)" fill="#000000">
            <g id="UI" transform="translate(96.000000, 2496.000000)">
                <g id="Dislike" transform="translate(576.000000, 0.000000)">
                    <path d="M37.0059191,15.0137486 C35.8865548,15.0137486 35,14.1183181 35,13.0137486 C35,11.9014783 35.8980806,11.0137486 37.0059191,11.0137486 L37.8153793,11.0137486 C36.6943832,8.86253766 34.493924,7.96558602 30.0529811,8.01353943 C29.2765298,8.01002957 15,8.0083771 15,8.0083771 L15,24.0236334 C17.5467396,24.166073 20.0459511,25.8343174 21.1145789,28.1441323 L26.8807441,40.6075684 C26.8807441,40.6075684 27.5839836,40.181937 27.6914837,40.0981635 C28.6478571,39.352874 29.0111424,38.7164317 29.0003713,38.1193156 L29.0002793,37.9803241 C29.0161904,37.028396 28.8221094,35.3557875 28.4087263,33.0147612 C28.3708329,32.8001675 27.7946558,29.8901148 27.7739221,29.7871617 C27.166756,26.7562316 29.4329045,24.0150419 32.5066483,24.0148381 L39.724584,24.0143596 C40.6646013,24.0143596 41.1462981,23.4251999 40.9566742,22.547185 C40.9490604,22.5162248 40.7949262,21.9163101 40.5623499,21.0137486 L38.0059191,21.0137486 C36.8865548,21.0137486 36,20.1183181 36,19.0137486 C36,17.9014783 36.8980806,17.0137486 38.0059191,17.0137486 L39.5288492,17.0137486 C39.3514898,16.3293444 39.1745814,15.6479711 39.0094027,15.0137486 L37.0059191,15.0137486 Z M7,8.00380165 L6.99922997,24.0137486 L11,24.0137486 L11,8.00743032 L7,8.00380165 Z M6.99922997,4.01374864 C6.99922997,4.01374864 27.1483038,3.99976331 30.0097915,4.01377261 C36.2448072,3.94644675 40.1791206,5.72722331 41.8760724,10.320674 C42.3316315,11.4952471 44.8520027,21.6152299 44.8738382,21.7284083 C45.5915377,25.0837277 43.205051,28.0143597 39.7248492,28.0143596 L32.5069135,28.0148381 C31.9497943,28.0148751 31.586292,28.4538286 31.6951941,28.997462 C31.6951941,28.997462 32.2312735,31.6593769 32.3477854,32.3191943 C32.7837735,34.7882349 33.0217443,36.7295491 32.9997207,38.0471732 C33.0372747,40.129053 31.918263,41.8754439 30.1502123,43.2532631 C29.1979808,43.9953249 27.7417626,44.6865513 27.7417626,44.6865513 C26.2253173,45.4513536 24.4087724,44.790829 23.7048898,43.2694026 C23.7048898,43.2694026 17.961731,30.7775423 17.4842734,29.8236804 C17.0068158,28.8698185 15.7565766,28.0137486 14.6479082,28.0137486 L6.99922997,28.0137486 C4.79246765,28.0137486 3,26.2273411 3,24.0236956 L3,8.00380165 C3,5.79804192 4.79051625,4.01374864 6.99922997,4.01374864 Z" id="Combined-Shape"></path>
                </g>
            </g>
        </g>
    </g>
</svg>