<?xml version="1.0" encoding="UTF-8"?>
<svg width="48px" height="48px" viewBox="0 0 48 48" version="1.1" xmlns="http://www.w3.org/2000/svg" xmlns:xlink="http://www.w3.org/1999/xlink">
    <!-- Generator: Sketch 49.3 (51167) - http://www.bohemiancoding.com/sketch -->
    <title>theicons.co/svg/ui-31</title>
    <desc>Created with Sketch.</desc>
    <defs></defs>
    <g id="The-Icons" stroke="none" stroke-width="1" fill="none" fill-rule="evenodd">
        <g id="v-1.5" transform="translate(-1632.000000, -2688.000000)" fill="#000000">
            <g id="UI" transform="translate(96.000000, 2496.000000)">
                <g id="Shield-No" transform="translate(1536.000000, 192.000000)">
                    <path d="M13.7351847,39.0463366 C8.96499061,35.1162387 6.0362295,30.0080155 6.00001126,23.993289 C6.02224021,17.3686544 6.00058931,6.09583718 6.00004354,6.01319731 C5.99134639,4.69520758 7.2376599,3.72931505 8.51179371,4.06659182 C8.55915357,4.07912848 11.2239992,4.73651125 13.1681137,5.02822719 C16.7478813,5.56537418 20.428806,6 24,6 C27.5972154,6 31.2781401,5.56537418 34.8579076,5.02822719 C36.8020222,4.73651125 39.4668678,4.07912848 39.5142277,4.06659182 C40.7883615,3.72931505 42.034675,4.69520758 42.0259778,6.01319731 C42.0254321,6.09583718 42.0037812,17.3686544 42.0260101,23.993289 C41.9897919,30.0080155 39.0610308,35.1162387 34.2908367,39.0463366 C30.7734455,41.9442674 26.2676838,44.0293393 23.9999983,43.9998307 C21.7583376,44.0293393 17.2525759,41.9442674 13.7351847,39.0463366 Z M12.4583132,9.01727273 C11.5857956,8.89318242 10.8016024,8.66862689 10,8.51093476 C10.0000002,9.27429177 10.0222476,17.3731533 9.99996356,23.9879277 C10.028218,28.6687168 12.3544621,32.7260548 16.2786703,35.9591565 C17.8298994,37.237193 19.553725,38.3079707 21.2024077,39.0709099 C22.4937736,39.6684983 23.6189502,40.0047891 24,40.0001693 C24.4070712,40.0047891 25.5322477,39.6684983 26.8236137,39.0709099 C28.4722964,38.3079707 30.196122,37.237193 31.7473511,35.9591565 C35.6715593,32.7260548 37.9978034,28.6687168 38.0260578,23.9879277 C38.0037738,17.3731533 38.0260212,9.27429177 38.0260214,8.51093476 C37.224419,8.66862689 36.4402258,8.89318242 35.5677082,9.01727273 C31.7473509,9.56060769 27.843835,10 24,10 C20.1821864,10 16.2786705,9.56060769 12.4583132,9.01727273 Z M29.14839,15.208008 C29.9272547,14.4291433 31.1895142,14.4332138 31.9705627,15.2142624 C32.7570567,16.0007563 32.7544115,17.2588408 31.9768171,18.0364352 L26.9208397,23.0924126 L31.7768659,27.9484388 C32.5544603,28.7260332 32.5571055,29.9841177 31.7706116,30.7706116 C30.989563,31.5516602 29.7273035,31.5557307 28.9484388,30.7768659 L24.0924126,25.9208397 L19.2363863,30.7768659 C18.4575216,31.5557307 17.1952621,31.5516602 16.4142136,30.7706116 C15.6277197,29.9841177 15.6303648,28.7260332 16.4079592,27.9484388 L21.2639854,23.0924126 L16.208008,18.0364352 C15.4304136,17.2588408 15.4277685,16.0007563 16.2142624,15.2142624 C16.995311,14.4332138 18.2575704,14.4291433 19.0364352,15.208008 L24.0924126,20.2639854 L29.14839,15.208008 Z" id="Combined-Shape"></path>
                </g>
            </g>
        </g>
    </g>
</svg>