<?xml version="1.0" encoding="UTF-8"?>
<svg width="48px" height="48px" viewBox="0 0 48 48" version="1.1" xmlns="http://www.w3.org/2000/svg" xmlns:xlink="http://www.w3.org/1999/xlink">
    <!-- Generator: Sketch 49.3 (51167) - http://www.bohemiancoding.com/sketch -->
    <title>theicons.co/svg/ui-30</title>
    <desc>Created with Sketch.</desc>
    <defs></defs>
    <g id="The-Icons" stroke="none" stroke-width="1" fill="none" fill-rule="evenodd">
        <g id="v-1.5" transform="translate(-1536.000000, -2688.000000)" fill="#000000">
            <g id="UI" transform="translate(96.000000, 2496.000000)">
                <g id="Shield-Ok" transform="translate(1440.000000, 192.000000)">
                    <path d="M13.7351847,39.0463366 C8.96499061,35.1162387 6.0362295,30.0080155 6.00001126,23.993289 C6.02224021,17.3686544 6.00058931,6.09583718 6.00004354,6.01319731 C5.99134639,4.69520758 7.2376599,3.72931505 8.51179371,4.06659182 C8.55915357,4.07912848 11.2239992,4.73651125 13.1681137,5.02822719 C16.7478813,5.56537418 20.428806,6 24,6 C27.5972154,6 31.2781401,5.56537418 34.8579076,5.02822719 C36.8020222,4.73651125 39.4668678,4.07912848 39.5142277,4.06659182 C40.7883615,3.72931505 42.034675,4.69520758 42.0259778,6.01319731 C42.0254321,6.09583718 42.0037812,17.3686544 42.0260101,23.993289 C41.9897919,30.0080155 39.0610308,35.1162387 34.2908367,39.0463366 C30.7734455,41.9442674 26.2676838,44.0293393 23.9999983,43.9998307 C21.7583376,44.0293393 17.2525759,41.9442674 13.7351847,39.0463366 Z M12.4583132,9.01727273 C11.5857956,8.89318242 10.8016024,8.66862689 10,8.51093476 C10.0000002,9.27429177 10.0222476,17.3731533 9.99996356,23.9879277 C10.028218,28.6687168 12.3544621,32.7260548 16.2786703,35.9591565 C17.8298994,37.237193 19.553725,38.3079707 21.2024077,39.0709099 C22.4937736,39.6684983 23.6189502,40.0047891 24,40.0001693 C24.4070712,40.0047891 25.5322477,39.6684983 26.8236137,39.0709099 C28.4722964,38.3079707 30.196122,37.237193 31.7473511,35.9591565 C35.6715593,32.7260548 37.9978034,28.6687168 38.0260578,23.9879277 C38.0037738,17.3731533 38.0260212,9.27429177 38.0260214,8.51093476 C37.224419,8.66862689 36.4402258,8.89318242 35.5677082,9.01727273 C31.7473509,9.56060769 27.843835,10 24,10 C20.1821864,10 16.2786705,9.56060769 12.4583132,9.01727273 Z M20.5857864,30.4142136 L14.5857864,24.4142136 C13.8047379,23.633165 13.8047379,22.366835 14.5857864,21.5857864 C15.366835,20.8047379 16.633165,20.8047379 17.4142136,21.5857864 L22,26.1997391 L31.5857864,16.5857864 C32.366835,15.8047379 33.633165,15.8047379 34.4142136,16.5857864 C35.1952621,17.366835 35.1952621,18.633165 34.4142136,19.4142136 L23.4142136,30.4142136 C22.633165,31.1952621 21.366835,31.1952621 20.5857864,30.4142136 Z" id="Combined-Shape"></path>
                </g>
            </g>
        </g>
    </g>
</svg>