<?xml version="1.0" encoding="UTF-8"?>
<svg width="48px" height="48px" viewBox="0 0 48 48" version="1.1" xmlns="http://www.w3.org/2000/svg" xmlns:xlink="http://www.w3.org/1999/xlink">
    <!-- Generator: Sketch 49.3 (51167) - http://www.bohemiancoding.com/sketch -->
    <title>theicons.co/svg/ui-49</title>
    <desc>Created with Sketch.</desc>
    <defs></defs>
    <g id="The-Icons" stroke="none" stroke-width="1" fill="none" fill-rule="evenodd">
        <g id="v-1.5" transform="translate(-96.000000, -2784.000000)" fill="#000000">
            <g id="UI" transform="translate(96.000000, 2496.000000)">
                <g id="New-Note" transform="translate(0.000000, 288.000000)">
                    <path d="M36,39.993882 L36,26.0014648 C36,24.8968953 36.8954305,24.0014648 38,24.0014648 C39.1045695,24.0014648 40,24.8968953 40,26.0014648 L40,39.993882 C40,42.2067639 38.2149652,44 35.9982567,44 L8.00174332,44 C5.79030913,44 4,42.213984 4,39.9982567 L4,12.0017433 C4,9.7889118 5.79316198,8 8.00983882,8 L22.0297852,8 C23.1343547,8 24.0297852,8.8954305 24.0297852,10 C24.0297852,11.1045695 23.1343547,12 22.0297852,12 L8,12.0017433 L8.00174332,40 L36,39.993882 Z M42.5613431,8.2758753 C44.1218103,9.83634251 44.1217854,12.3663846 42.5553811,13.9327889 L22.7594019,33.7287681 L15.3142109,35.5969588 C13.1699649,36.1350055 11.8696075,34.8260517 12.4059298,32.6886778 L14.2741205,25.2434868 L34.0700998,5.44750753 C35.6338597,3.88374763 38.1718699,3.88640211 39.7270134,5.44154559 L42.5613431,8.2758753 Z M20.6964748,30.1348409 L22.0522951,28.7790207 L19.2249452,25.9516707 L17.886334,27.2900428 L16.9476647,31.055224 L20.6964748,30.1348409 Z M35.4843133,15.3470025 L32.6559456,12.5126134 L22.0534955,23.1233667 L24.8807222,25.9505935 L35.4843133,15.3470025 Z" id="Combined-Shape"></path>
                </g>
            </g>
        </g>
    </g>
</svg>