<?xml version="1.0" encoding="UTF-8"?>
<svg width="48px" height="48px" viewBox="0 0 48 48" version="1.1" xmlns="http://www.w3.org/2000/svg" xmlns:xlink="http://www.w3.org/1999/xlink">
    <!-- Generator: Sketch 49.3 (51167) - http://www.bohemiancoding.com/sketch -->
    <title>theicons.co/svg/ui-48</title>
    <desc>Created with Sketch.</desc>
    <defs></defs>
    <g id="The-Icons" stroke="none" stroke-width="1" fill="none" fill-rule="evenodd">
        <g id="v-1.5" transform="translate(-1632.000000, -2592.000000)" fill="#000000" fill-rule="nonzero">
            <g id="UI" transform="translate(96.000000, 2496.000000)">
                <g id="Settings-3" transform="translate(1536.000000, 96.000000)">
                    <path d="M26.5932063,27.3068441 C30.2310708,28.6558885 34.3575814,27.7933568 37.1492357,25.0017025 C38.6845143,23.4664239 39.5628117,21.6001131 39.7822821,19.556209 C38.8953857,20.4431047 36.4469694,22.8755417 36.4469694,22.8755417 C35.5818342,23.7406769 34.1432302,24.1773675 32.9453747,23.9377964 L27.8407102,22.9168635 C26.5063295,22.6499873 25.3585287,21.5010404 25.0919391,20.1680924 L24.0710062,15.0634279 C23.8310632,13.8637128 24.2673395,12.4277546 25.1332609,11.5618332 L28.4582184,8.2368757 C27.7660876,8.33445677 25.4830568,8.3836102 23.0071001,10.8595669 C20.2154459,13.6512211 19.3529138,17.777732 20.7019572,21.4155995 C20.9737299,22.1484692 20.793658,22.9725039 20.2409563,23.5252056 L10.2823145,33.4838474 C9.10445513,34.6617068 9.10494893,36.5553954 10.2791781,37.7296245 C11.4481149,38.8985614 13.3529874,38.8984559 14.5249552,37.7264881 L24.4835994,27.7678446 C25.0363013,27.2151427 25.8603365,27.035071 26.5932063,27.3068441 Z M43.3078476,14.6025033 C44.6121479,19.4865954 43.5046794,24.303113 39.9776629,27.8301296 C36.3876686,31.4201239 31.2187863,32.7310956 26.4546024,31.4560859 C26.1035706,31.8071168 17.3533823,40.5549153 17.3533823,40.5549153 C14.6193875,43.28891 10.1818551,43.2891558 7.45075093,40.5580517 C4.71475475,37.8220555 4.71360053,33.3957071 7.45388734,30.6554203 L16.5459896,21.5633181 C15.1891337,17.8650337 16.2714312,11.9383815 20.178673,8.03113973 C23.7056896,4.50412316 28.5222072,3.39665468 33.4062993,4.70095504 C34.8944931,5.09837829 35.3936839,6.95826441 34.3044948,8.04745359 L27.9616881,14.3902603 L28.9417595,19.0670431 L33.6185423,20.0471145 L39.961349,13.7043078 C41.0505382,12.6151187 42.9104243,13.1143095 43.3078476,14.6025033 Z" id="Combined-Shape-Copy-2"></path>
                </g>
            </g>
        </g>
    </g>
</svg>