<?xml version="1.0" encoding="UTF-8"?>
<svg width="48px" height="48px" viewBox="0 0 48 48" version="1.1" xmlns="http://www.w3.org/2000/svg" xmlns:xlink="http://www.w3.org/1999/xlink">
    <!-- Generator: Sketch 49.3 (51167) - http://www.bohemiancoding.com/sketch -->
    <title>theicons.co/svg/ui-46</title>
    <desc>Created with Sketch.</desc>
    <defs></defs>
    <g id="The-Icons" stroke="none" stroke-width="1" fill="none" fill-rule="evenodd">
        <g id="v-1.5" transform="translate(-1440.000000, -2592.000000)" fill="#000000">
            <g id="UI" transform="translate(96.000000, 2496.000000)">
                <g id="Settings-1" transform="translate(1344.000000, 96.000000)">
                    <path d="M30.7473739,10.5925903 L32.2331124,11.4596749 C32.2331124,11.4596749 36.6688494,10.6855166 36.9265622,10.6619429 C38.268804,10.4972886 39.7144127,11.2181612 40.389613,12.3876423 L42.2514032,15.6123577 C42.9294464,16.786763 42.8321646,18.4050889 42.0476208,19.4290338 C41.8654914,19.6853979 38.9819809,23.1390312 38.9819809,23.1390312 C38.9819809,23.1390312 39,23.3940891 39,24 C39,24.2919886 38.9749641,24.8729382 38.9749641,24.8729382 C38.9749641,24.8729382 41.8654914,28.3146021 42.0147109,28.5259835 C42.8282383,29.6060414 42.926538,31.2182746 42.2514032,32.3876423 L40.389613,35.6123577 C39.7115063,36.7868728 38.2611286,37.5116696 36.9691343,37.3428347 C36.9584563,37.3417859 32.2092582,36.5379326 32.2092582,36.5379326 L30.7473745,37.3999032 C30.7473745,37.3999032 29.1961229,41.6294183 29.0877388,41.864189 C28.5591449,43.1087534 27.2120598,44 25.8617902,44 L22.1382098,44 C20.7819965,44 19.4291151,43.1063345 18.9346622,41.9147129 C18.8038297,41.6289745 17.2483097,37.3842262 17.2483097,37.3842262 L15.7579303,36.5344294 C15.7579303,36.5344294 11.3307424,37.3146642 11.0730279,37.3382055 C9.73090656,37.502712 8.28552181,36.7817254 7.61038705,35.6123577 L5.7485968,32.3876423 C5.07049019,31.2131272 5.16798653,29.5946648 5.95273464,28.5706452 C6.1348693,28.3143391 9.02122722,24.8579474 9.02122722,24.8579474 C9.02122722,24.8579474 9,24.6060829 9,24 C9,23.7137165 9.02406835,23.1440553 9.02406835,23.1440553 C9.02406835,23.1440553 6.1348693,19.6856609 5.98562261,19.4742973 C5.17190687,18.3942089 5.07339654,16.7818388 5.7485968,15.6123577 L7.61038705,12.3876423 C8.28843029,11.213237 9.73858254,10.4883226 11.0176168,10.655785 C11.3307424,10.6853358 15.8017478,11.4641533 15.8017478,11.4641533 L17.2697274,10.5914844 C17.2697274,10.5914844 18.8038297,6.3710255 18.9121848,6.13624019 C19.4407109,4.89149752 20.7878092,4 22.1382098,4 L25.8617902,4 C27.2178767,4 28.5707472,4.89341147 29.0652375,6.08481883 C29.1961229,6.37058166 30.7473739,10.5925903 30.7473739,10.5925903 Z M27.449496,13.5087792 L27.1808569,12.6100644 C26.7902346,11.3032624 25.68287,8.34059286 25.5648989,8.06328342 C25.4965149,7.90253622 22.5035908,7.90259957 22.4352187,8.0633607 C22.3172725,8.34068395 21.2101239,11.3032563 20.8195492,12.6098932 L20.5508975,13.5086462 L19.688078,13.8767131 C18.8727566,14.224518 18.1027168,14.6703496 17.3942086,15.2034029 L16.6435565,15.7681636 L15.7296053,15.5510775 C14.4018314,15.2356982 11.2804402,14.7129462 10.9810934,14.6764294 C10.8075695,14.6552616 9.31109609,17.2473081 9.41619225,17.3869766 C9.59748792,17.6279113 11.6106405,20.0691909 12.5474081,21.0611567 L13.1907329,21.7423888 L13.0790618,22.672697 C13.0265174,23.1104333 13,23.5533412 13,24 C13,24.4466588 13.0265174,24.8895667 13.0790618,25.327303 L13.1907329,26.2576112 L12.5474081,26.9388433 C11.6106405,27.9308091 9.59748792,30.3720887 9.41619225,30.6130234 C9.31109609,30.7526919 10.8075695,33.3447384 10.9810934,33.3235706 C11.2804402,33.2870538 14.4018314,32.7643018 15.7296053,32.4489225 L16.6435565,32.2318364 L17.3942086,32.7965971 C18.1027168,33.3296504 18.8727566,33.775482 19.688078,34.1232869 L20.5508975,34.4913538 L20.8195492,35.3901068 C21.2101239,36.6967437 22.3172725,39.659316 22.4352187,39.9366393 C22.5035908,40.0974004 25.4965149,40.0974638 25.5648989,39.9367166 C25.68287,39.6594071 26.7902346,36.6967376 27.1808569,35.3899356 L27.449496,34.4912208 L28.3122658,34.1231402 C29.1275752,33.7753075 29.8976001,33.3294496 30.6060904,32.7963721 L31.3567552,32.2315621 L32.2707454,32.4486563 C33.5983525,32.7639942 36.719552,33.2868848 37.0188984,33.32343 C37.1214171,33.3359458 38.6890117,30.752632 38.5839335,30.6129601 C38.4026623,30.3720108 36.3895334,27.9304955 35.4526463,26.9384056 L34.8093481,26.2572034 L34.9209828,25.326931 C34.9734976,24.8893158 35,24.4465323 35,24 C35,23.5534677 34.9734976,23.1106842 34.9209828,22.673069 L34.8093481,21.7427966 L35.4526463,21.0615944 C36.3895334,20.0695045 38.4026623,17.6279892 38.5839335,17.3870399 C38.6890117,17.247368 37.1924285,14.6553849 37.0188984,14.67657 C36.719552,14.7131152 33.5983525,15.2360058 32.2707454,15.5513437 L31.3567552,15.7684379 L30.6060904,15.2036279 C29.8976001,14.6705504 29.1275752,14.2246925 28.3122658,13.8768598 L27.449496,13.5087792 Z M24,30 C20.6862915,30 18,27.3137085 18,24 C18,20.6862915 20.6862915,18 24,18 C27.3137085,18 30,20.6862915 30,24 C30,27.3137085 27.3137085,30 24,30 Z M24,26 C25.1045695,26 26,25.1045695 26,24 C26,22.8954305 25.1045695,22 24,22 C22.8954305,22 22,22.8954305 22,24 C22,25.1045695 22.8954305,26 24,26 Z" id="Combined-Shape"></path>
                </g>
            </g>
        </g>
    </g>
</svg>