<?xml version="1.0" encoding="UTF-8"?>
<svg width="48px" height="48px" viewBox="0 0 48 48" version="1.1" xmlns="http://www.w3.org/2000/svg" xmlns:xlink="http://www.w3.org/1999/xlink">
    <!-- Generator: Sketch 49.3 (51167) - http://www.bohemiancoding.com/sketch -->
    <title>theicons.co/svg/ui-45</title>
    <desc>Created with Sketch.</desc>
    <defs></defs>
    <g id="The-Icons" stroke="none" stroke-width="1" fill="none" fill-rule="evenodd">
        <g id="v-1.5" transform="translate(-1440.000000, -2688.000000)" fill="#000000">
            <g id="UI" transform="translate(96.000000, 2496.000000)">
                <g id="Archive-2" transform="translate(1344.000000, 192.000000)">
                    <path d="M7.81084611,38.2082123 L6.20900513,22.1898026 C5.98117665,19.9115177 7.70744579,18 10.0017433,18 L37.9982567,18 C40.2878134,18 42.0192167,19.907584 41.7909949,22.1898026 L40.1891539,38.2082123 C39.9773254,40.3264968 38.1312244,42 36.0087557,42 L11.9912443,42 C9.86085917,42 8.02333433,40.3330945 7.81084611,38.2082123 Z M37.7884441,22.0158073 L10.2108174,22.0084227 L12,38 L36,38 L37.7884441,22.0158073 Z M14,8 C14,6.8954305 14.8982124,6 15.9907951,6 L32.0092049,6 C33.1086907,6 34,6.88772964 34,8 C34,9.1045695 33.1017876,10 32.0092049,10 L15.9907951,10 C14.8913093,10 14,9.11227036 14,8 Z M10,14 C10,12.8954305 10.8998975,12 11.9912443,12 L36.0087557,12 C37.1084896,12 38,12.8877296 38,14 C38,15.1045695 37.1001025,16 36.0087557,16 L11.9912443,16 C10.8915104,16 10,15.1122704 10,14 Z" id="Combined-Shape"></path>
                </g>
            </g>
        </g>
    </g>
</svg>