<?xml version="1.0" encoding="UTF-8"?>
<svg width="48px" height="48px" viewBox="0 0 48 48" version="1.1" xmlns="http://www.w3.org/2000/svg" xmlns:xlink="http://www.w3.org/1999/xlink">
    <!-- Generator: Sketch 49.3 (51167) - http://www.bohemiancoding.com/sketch -->
    <title>theicons.co/svg/ui-58</title>
    <desc>Created with Sketch.</desc>
    <defs></defs>
    <g id="The-Icons" stroke="none" stroke-width="1" fill="none" fill-rule="evenodd">
        <g id="v-1.5" transform="translate(-960.000000, -2784.000000)" fill="#000000">
            <g id="UI" transform="translate(96.000000, 2496.000000)">
                <g id="Slideshow-3" transform="translate(864.000000, 288.000000)">
                    <path d="M4.89442719,6.21114562 L8.89442719,8.21114562 C9.88238419,8.70512412 10.2828329,9.9064702 9.78885438,10.8944272 C9.29487588,11.8823842 8.0935298,12.2828329 7.10557281,11.7888544 L6,11.2453974 L6,36.7376709 L7.10557281,36.2111456 C8.0935298,35.7171671 9.29487588,36.1176158 9.78885438,37.1055728 C10.2828329,38.0935298 9.88238419,39.2948759 8.89442719,39.7888544 L4.89442719,41.7888544 C3.56462501,42.4537555 2,41.486764 2,40 L2,8 C2,6.51323596 3.56462501,5.54624453 4.89442719,6.21114562 Z M14.8944272,6.21114562 L18.8944272,8.21114562 C19.8823842,8.70512412 20.2828329,9.9064702 19.7888544,10.8944272 C19.2948759,11.8823842 18.0935298,12.2828329 17.1055728,11.7888544 L16,11.2453974 L16,36.7376709 L17.1055728,36.2111456 C18.0935298,35.7171671 19.2948759,36.1176158 19.7888544,37.1055728 C20.2828329,38.0935298 19.8823842,39.2948759 18.8944272,39.7888544 L14.8944272,41.7888544 C13.564625,42.4537555 12,41.486764 12,40 L12,8 C12,6.51323596 13.564625,5.54624453 14.8944272,6.21114562 Z M22,40 L22,8 C22,6.73790715 23.1546484,5.79132188 24.3922323,6.03883865 L44.3922323,10.0388386 C45.3270807,10.2258083 46,11.046638 46,12 L46,36 C46,36.953362 45.3270807,37.7741917 44.3922323,37.9611614 L24.3922323,41.9611614 C23.1546484,42.2086781 22,41.2620928 22,40 Z M42,13.6401367 L26,10.4581299 L26,37.5917969 L42,34.3570008 L42,13.6401367 Z" id="Combined-Shape"></path>
                </g>
            </g>
        </g>
    </g>
</svg>