<?xml version="1.0" encoding="UTF-8"?>
<svg width="48px" height="48px" viewBox="0 0 48 48" version="1.1" xmlns="http://www.w3.org/2000/svg" xmlns:xlink="http://www.w3.org/1999/xlink">
    <!-- Generator: Sketch 49.3 (51167) - http://www.bohemiancoding.com/sketch -->
    <title>theicons.co/svg/ui-59</title>
    <desc>Created with Sketch.</desc>
    <defs></defs>
    <g id="The-Icons" stroke="none" stroke-width="1" fill="none" fill-rule="evenodd">
        <g id="v-1.5" transform="translate(-1056.000000, -2784.000000)" fill="#000000" fill-rule="nonzero">
            <g id="UI" transform="translate(96.000000, 2496.000000)">
                <g id="Layers" transform="translate(960.000000, 288.000000)">
                    <path d="M4.85096177,16.3630177 L21.221835,4.87189842 C22.8115079,3.75606779 25.1877514,3.75554788 26.778165,4.87189842 L43.1490382,16.3630177 C44.2826035,17.1586951 44.2838761,18.8378439 43.1515183,19.6352387 L26.7806451,31.1634393 C25.1898892,32.2836333 22.8108524,32.2841555 21.2193549,31.1634393 L4.84848171,19.6352387 C3.71612386,18.8378439 3.71739651,17.1586951 4.85096177,16.3630177 Z M38.5344072,30.0939612 C38.5344072,30.0939612 38.4478247,30.0520227 37.9015604,29.6717284 C36.9968002,29.041859 36.7532322,27.7421376 37.3883057,26.8447914 C38.0233791,25.9474453 39.2266131,25.7983136 40.2013648,26.4221504 C40.7801568,26.7925748 42.7717076,28.1562765 43.1511922,28.47574 C44.2781472,29.4244503 44.2868834,30.9321321 43.1536741,31.7235873 L26.7704916,43.1659181 C25.1785396,44.2777681 22.7977139,44.2782864 21.2050198,43.1659181 L4.82183721,31.7235873 C3.68862793,30.9321321 3.76333168,29.3632639 4.82431913,28.47574 C5.21714116,28.1471414 7.30006033,26.7521963 7.86272879,26.3604819 C8.76748895,25.7306125 10.0157707,25.9474453 10.6508442,26.8447914 C11.2859176,27.7421376 11.0672933,28.9801905 10.1625332,29.6100598 C9.79964838,29.8626904 9.44392493,30.1103353 9.44392493,30.1103353 L23.509788,39.9198014 C23.7198566,40.0665174 24.2558218,40.0664007 24.4657233,39.9198014 L38.5344072,30.0939612 Z M24.4800886,8.14586308 C24.269094,7.99776079 23.7307382,7.99787858 23.5199114,8.14586308 L9.47098938,18.0071476 L23.5223915,27.8929619 C23.7323022,28.0407789 24.2678647,28.0406614 24.4776085,27.8929619 L38.5146553,18.0082179 L24.4800886,8.14586308 Z" id="Combined-Shape"></path>
                </g>
            </g>
        </g>
    </g>
</svg>