<?xml version="1.0" encoding="UTF-8"?>
<svg width="48px" height="48px" viewBox="0 0 48 48" version="1.1" xmlns="http://www.w3.org/2000/svg" xmlns:xlink="http://www.w3.org/1999/xlink">
    <!-- Generator: Sketch 49.3 (51167) - http://www.bohemiancoding.com/sketch -->
    <title>theicons.co/svg/ui-67</title>
    <desc>Created with Sketch.</desc>
    <defs></defs>
    <g id="The-Icons" stroke="none" stroke-width="1" fill="none" fill-rule="evenodd">
        <g id="v-1.5" transform="translate(-288.000000, -2880.000000)" fill="#000000">
            <g id="UI" transform="translate(96.000000, 2496.000000)">
                <g id="Web-Camera" transform="translate(192.000000, 384.000000)">
                    <path d="M24,16 C21.790861,16 20,17.790861 20,20 C20,22.209139 21.790861,24 24,24 C26.209139,24 28,22.209139 28,20 C28,19.5900459 27.9383283,19.194496 27.8237563,18.8221219 C27.5101845,19.5166471 26.8115388,20 26,20 C24.8954305,20 24,19.1045695 24,18 C24,17.1884612 24.4833529,16.4898155 25.1778781,16.1762437 C24.805504,16.0616717 24.4099541,16 24,16 Z M41.9527415,39.3640496 C42.3911639,40.6607482 41.4267176,42.0047742 40.0579074,42.0046387 L8.01237516,42.0014648 C6.64646415,42.0013296 5.68257606,40.662393 6.11586827,39.3670279 L10.0006388,27.7531654 C8.72591665,25.456398 8,22.8129724 8,20 C8,11.163444 15.163444,4 24,4 C32.836556,4 40,11.163444 40,20 C40,22.8003155 39.2806012,25.4326063 38.0165347,27.7221414 L41.9527415,39.3640496 Z M24,36 C19.7123905,36 15.818684,34.3135003 12.946065,31.5676853 L10.8023452,38 L37.2067917,38.0043563 L35.0694458,31.5528394 C32.1953398,34.3074201 28.2953315,36 24,36 Z M36,20 C36,13.372583 30.627417,8 24,8 C17.372583,8 12,13.372583 12,20 C12,26.627417 17.372583,32 24,32 C30.627417,32 36,26.627417 36,20 Z M16,20 C16,15.581722 19.581722,12 24,12 C28.418278,12 32,15.581722 32,20 C32,24.418278 28.418278,28 24,28 C19.581722,28 16,24.418278 16,20 Z" id="Combined-Shape"></path>
                </g>
            </g>
        </g>
    </g>
</svg>