<?xml version="1.0" encoding="UTF-8"?>
<svg width="48px" height="48px" viewBox="0 0 48 48" version="1.1" xmlns="http://www.w3.org/2000/svg" xmlns:xlink="http://www.w3.org/1999/xlink">
    <!-- Generator: Sketch 49.3 (51167) - http://www.bohemiancoding.com/sketch -->
    <title>theicons.co/svg/ui-77</title>
    <desc>Created with Sketch.</desc>
    <defs></defs>
    <g id="The-Icons" stroke="none" stroke-width="1" fill="none" fill-rule="evenodd">
        <g id="v-1.5" transform="translate(-1056.000000, -2880.000000)" fill="#000000">
            <g id="UI" transform="translate(96.000000, 2496.000000)">
                <g id="Map" transform="translate(960.000000, 384.000000)">
                    <path d="M30,8.58672849 L18,11.5643748 L18,39.4384472 L30,36.4384472 L30,8.58672849 Z M34,36.5584816 L42.0194673,39.2316373 L42,11.4509277 L34,8.76254883 L34,36.5584816 Z M14,11.4415184 L6.00017997,8.77491176 L6,36.569458 L14,39.2278659 L14,11.4415184 Z M2,6 C2,4.63488455 3.3373933,3.67094599 4.63245553,4.1026334 L16.0144653,7.92163086 L31.5149287,4.059715 C31.88394,3.9674622 32.2716067,3.98235047 32.6324555,4.1026334 L44.6324555,8.1026334 C45.4491398,8.3748615 46,9.13913918 46,10 L46,42 C46,43.3651155 44.6626067,44.329054 43.3675445,43.8973666 L32,40.0918579 L16.4850713,43.940285 C16.11606,44.0325378 15.7283933,44.0176495 15.3675445,43.8973666 L3.36754447,39.8973666 C2.55086019,39.6251385 2,38.8608608 2,38 L2,6 Z" id="Combined-Shape"></path>
                </g>
            </g>
        </g>
    </g>
</svg>