<?xml version="1.0" encoding="UTF-8"?>
<svg width="48px" height="48px" viewBox="0 0 48 48" version="1.1" xmlns="http://www.w3.org/2000/svg" xmlns:xlink="http://www.w3.org/1999/xlink">
    <!-- Generator: Sketch 49.3 (51167) - http://www.bohemiancoding.com/sketch -->
    <title>theicons.co/svg/ui-84</title>
    <desc>Created with Sketch.</desc>
    <defs></defs>
    <g id="The-Icons" stroke="none" stroke-width="1" fill="none" fill-rule="evenodd">
        <g id="v-1.5" transform="translate(-1824.000000, -2688.000000)" fill="#000000">
            <g id="UI" transform="translate(96.000000, 2496.000000)">
                <g id="Shield-Active" transform="translate(1728.000000, 192.000000)">
                    <path d="M13.7351847,39.0463366 C8.96499061,35.1162387 6.0362295,30.0080155 6.00001126,23.993289 C6.02224021,17.3686544 6.00058931,6.09583718 6.00004354,6.01319731 C5.99134639,4.69520758 7.2376599,3.72931505 8.51179371,4.06659182 C8.55915357,4.07912848 11.2239992,4.73651125 13.1681137,5.02822719 C16.7478813,5.56537418 20.428806,6 24,6 C27.5972154,6 31.2781401,5.56537418 34.8579076,5.02822719 C36.8020222,4.73651125 39.4668678,4.07912848 39.5142277,4.06659182 C40.7883615,3.72931505 42.034675,4.69520758 42.0259778,6.01319731 C42.0254321,6.09583718 42.0037812,17.3686544 42.0260101,23.993289 C41.9897919,30.0080155 39.0610308,35.1162387 34.2908367,39.0463366 C30.7734455,41.9442674 26.2676838,44.0293393 23.9999983,43.9998307 C21.7583376,44.0293393 17.2525759,41.9442674 13.7351847,39.0463366 Z M12.4583132,9.01727273 C11.5857956,8.89318242 10.8016024,8.66862689 10,8.51093476 C10.0000002,9.10395755 10.0134268,14.1240602 10.008971,19.4362044 L38.0195485,12.4335601 C38.0224048,10.3189336 38.0260213,8.81870934 38.0260214,8.51093476 C37.224419,8.66862689 36.4402258,8.89318242 35.5677082,9.01727273 C31.7473509,9.56060769 27.843835,10 24,10 C20.1821864,10 16.2786705,9.56060769 12.4583132,9.01727273 Z M38.0181027,20.4339215 C38.0164225,19.1190632 38.0159491,17.806259 38.0162124,16.5574997 L10.0013323,23.5612197 C10.0008971,23.7040777 10.0004405,23.8463427 9.99996356,23.9879277 C10.0069251,25.1412089 10.1533885,26.2566428 10.4288836,27.3312263 L38.0181027,20.4339215 Z M16.2786703,35.9591565 C17.8298994,37.237193 19.553725,38.3079707 21.2024077,39.0709099 C22.4937736,39.6684983 23.6189502,40.0047891 24,40.0001693 C24.4070712,40.0047891 25.5322477,39.6684983 26.8236137,39.0709099 C28.4722964,38.3079707 30.196122,37.237193 31.7473511,35.9591565 C35.5111569,32.8582082 37.8049626,28.9990278 38.0111227,24.5587721 L11.9874415,31.0646924 C13.0447992,32.8535487 14.4970454,34.4913 16.2786703,35.9591565 Z" id="Combined-Shape"></path>
                </g>
            </g>
        </g>
    </g>
</svg>