<?xml version="1.0" encoding="UTF-8"?>
<svg width="48px" height="48px" viewBox="0 0 48 48" version="1.1" xmlns="http://www.w3.org/2000/svg" xmlns:xlink="http://www.w3.org/1999/xlink">
    <!-- Generator: Sketch 49.3 (51167) - http://www.bohemiancoding.com/sketch -->
    <title>theicons.co/svg/ui-92</title>
    <desc>Created with Sketch.</desc>
    <defs></defs>
    <g id="The-Icons" stroke="none" stroke-width="1" fill="none" fill-rule="evenodd">
        <g id="v-1.5" transform="translate(-1632.000000, -2784.000000)" fill="#000000" fill-rule="nonzero">
            <g id="UI" transform="translate(96.000000, 2496.000000)">
                <g id="Route" transform="translate(1536.000000, 288.000000)">
                    <path d="M11.0012147,14.0139372 C11.798755,13.2256061 13.0918234,13.2256061 13.8893637,14.0139372 C14.686904,14.8022683 14.686904,16.0804057 13.8893637,16.8687368 L10.2783842,20.4380204 C8.68573171,22.0122826 8.68618075,24.8960891 10.2783842,26.4699074 C11.9851304,28.1569458 15.1238099,28.4636094 17.1396611,27.1352266 L28.5967147,19.5333718 C32.2244245,17.1428247 37.5337863,17.6606619 40.611791,20.703125 C43.8018737,23.8563719 43.7996591,28.698409 40.611791,31.8494669 L37.7165928,34.7112343 C36.9190525,35.4995654 35.6259841,35.4995654 34.8284438,34.7112343 C34.0309035,33.9229032 34.0309035,32.6447658 34.8284438,31.8564347 L37.723642,28.9946673 C39.3152185,27.4214687 39.3198526,25.1357037 37.723642,23.5579246 C36.022779,21.8767014 32.8705751,21.569258 30.8623651,22.8926054 L19.4053116,30.4944602 C15.7697158,32.8902039 10.4739149,32.3727796 7.39023522,29.324707 C4.20357088,26.174839 4.20188169,20.7347585 7.39023522,17.5832208 L11.0012147,14.0139372 Z M32.2426407,44.2426407 C29.8994949,46.5857864 26.1005051,46.5857864 23.7573593,44.2426407 C21.4142136,41.8994949 21.4142136,38.1005051 23.7573593,35.7573593 C26.1005051,33.4142136 29.8994949,33.4142136 32.2426407,35.7573593 C34.5857864,38.1005051 34.5857864,41.8994949 32.2426407,44.2426407 Z M11.723252,9.01803791 C10.649753,7.95693456 11.0812667,6.15012016 12.5215167,5.67558032 L23.3520754,2.10708082 C24.9486049,1.58104935 26.4674909,3.0823968 25.9353144,4.6604912 L22.3251281,15.3659897 C21.8450448,16.7896092 20.0171234,17.2161403 18.9436244,16.1550369 L11.723252,9.01803791 Z M19.4952118,10.9906559 L20.7688364,7.21390159 L16.9479626,8.4728197 L19.4952118,10.9906559 Z M29.4142136,41.4142136 C30.1952621,40.633165 30.1952621,39.366835 29.4142136,38.5857864 C28.633165,37.8047379 27.366835,37.8047379 26.5857864,38.5857864 C25.8047379,39.366835 25.8047379,40.633165 26.5857864,41.4142136 C27.366835,42.1952621 28.633165,42.1952621 29.4142136,41.4142136 Z" id="Combined-Shape"></path>
                </g>
            </g>
        </g>
    </g>
</svg>