<?xml version="1.0" encoding="UTF-8"?>
<svg width="48px" height="48px" viewBox="0 0 48 48" version="1.1" xmlns="http://www.w3.org/2000/svg" xmlns:xlink="http://www.w3.org/1999/xlink">
    <!-- Generator: Sketch 49.3 (51167) - http://www.bohemiancoding.com/sketch -->
    <title>theicons.co/svg/ui-93</title>
    <desc>Created with Sketch.</desc>
    <defs></defs>
    <g id="The-Icons" stroke="none" stroke-width="1" fill="none" fill-rule="evenodd">
        <g id="v-1.5" transform="translate(-1824.000000, -2592.000000)" fill="#000000">
            <g id="UI" transform="translate(96.000000, 2496.000000)">
                <g id="Users" transform="translate(1728.000000, 96.000000)">
                    <path d="M29,4 C33.418278,4 37,7.5253165 37,11.8740148 C37,13.5290923 36.699754,15.8252699 36.0010461,18.0348152 C38.4185532,18.9162994 40.2964721,20.3396804 41.6478679,22.226289 C43.3399828,24.5885569 44.0000078,27.3319197 44.0000078,29.9967472 C44.0000078,30.7246349 43.6044549,31.3950367 42.9672769,31.7470683 C42.187982,32.1776175 40.8381679,32.7895725 39.0280993,33.3934888 C37.6982147,33.8371952 36.3234797,34.2023454 34.9134182,34.47144 C35.6272311,36.0364059 36.0000026,37.6287253 36.0000026,38.9956213 C36.0000026,39.7677924 35.5553827,40.4709671 34.8577421,40.8021279 C33.978138,41.2196644 32.4567152,41.8205135 30.443364,42.4156411 C27.0948978,43.4054159 23.5655229,44 20.0000392,44 C16.4345554,44 12.9051806,43.4054159 9.55671435,42.4156411 C7.54336313,41.8205135 6.02194035,41.2196644 5.14233628,40.8021279 C4.44469563,40.4709671 4.00007577,39.7677924 4.00007577,38.9956213 C4.00007577,36.5702179 5.15023343,33.4705162 7.28727497,31.0484936 C8.62611889,29.5311108 10.2862421,28.3181651 12.2599139,27.4614628 C11.3766097,24.8094985 11,21.9952885 11,19.9979983 C11,15.0280574 15.0294373,10.9991243 20,10.9991243 C20.3525531,10.9991243 20.7003715,11.019393 21.0423533,11.0588288 C21.45677,7.09316241 24.861382,4 29,4 Z M27.7381977,27.4671298 C29.5988296,28.2776939 31.1813083,29.4057665 32.4791793,30.8073787 C34.2991138,30.5819461 36.0711917,30.1637527 37.761989,29.5996303 C38.559475,29.3335549 39.2866173,29.0517237 39.9331329,28.7693521 C39.767544,27.2720483 39.2860607,25.7978013 38.3959116,24.5551135 C37.4741981,23.2683604 36.1545475,22.2870578 34.3419251,21.6843403 C33.092767,23.6191062 31.3490943,24.9973728 29,24.9973728 C28.8028499,24.9973728 28.6099642,24.9876648 28.4212773,24.9687348 C28.2402291,25.7975854 28.0138506,26.6402789 27.7381977,27.4671298 Z M29,20.9978732 C30.888098,20.9978732 33,16.4066542 33,11.8740148 C33,9.74840043 31.2231165,7.99949957 29,7.99949957 C26.7768835,7.99949957 25,9.74840043 25,11.8740148 C25,12.0907204 25.0048274,12.30756 25.0142269,12.5240253 C27.4182141,14.1396237 29,16.8841111 29,19.9979983 C29,20.3122251 28.9906783,20.6466721 28.9715283,20.9975262 C28.9810243,20.9977573 28.990515,20.9978732 29,20.9978732 Z M10.2868135,33.6944371 C9.18897035,34.9386809 8.46539729,36.4405358 8.162114,37.7288274 C8.92148251,38.0187684 9.76891385,38.3077565 10.690709,38.5802304 C13.6952651,39.4683487 16.8540495,40.0005004 20.0000392,40.0005004 C23.1460289,40.0005004 26.3048133,39.4683487 29.3093693,38.5802304 C30.2299097,38.3081274 31.0762886,38.0195551 31.8348628,37.7300115 C31.5293246,36.4519514 30.8055643,34.9530835 29.7116449,33.7102205 C28.7493368,32.6168884 27.5452867,31.7337389 26.076599,31.1033306 C24.6668721,33.3702243 22.6849547,34.9961217 20,34.9961217 C17.3130519,34.9961217 15.3301855,33.3678092 13.9202622,31.0982806 C12.4511413,31.72601 11.2476157,32.605509 10.2868135,33.6944371 Z M20,30.9966221 C22.4886582,30.9966221 25,25.4503714 25,19.9979983 C25,17.23692 22.7614237,14.9986238 20,14.9986238 C17.2385763,14.9986238 15,17.23692 15,19.9979983 C15,25.4503714 17.5113418,30.9966221 20,30.9966221 Z" id="Combined-Shape"></path>
                </g>
            </g>
        </g>
    </g>
</svg>